<svg xmlns="http://www.w3.org/2000/svg" xmlns:xlink="http://www.w3.org/1999/xlink" width="1080" zoomAndPan="magnify" viewBox="0 0 810 809.999993" height="1080" preserveAspectRatio="xMidYMid meet" version="1.0"><defs><clipPath id="22d935aca8"><path d="M 113.738281 90 L 696 90 L 696 719 L 113.738281 719 Z M 113.738281 90 " clip-rule="nonzero"/></clipPath></defs><g clip-path="url(#22d935aca8)"><path fill="#ffffff" d="M 181.253906 221.15625 L 436.992188 221.15625 C 437.890625 221.148438 438.777344 221.03125 439.644531 220.808594 C 440.515625 220.582031 441.34375 220.253906 442.132812 219.828125 C 442.921875 219.398438 443.648438 218.878906 444.308594 218.269531 C 444.96875 217.660156 445.546875 216.980469 446.039062 216.230469 C 447.167969 214.433594 447.730469 212.472656 447.726562 210.347656 L 447.726562 154.265625 C 447.730469 153.558594 447.660156 152.855469 447.527344 152.164062 C 447.390625 151.46875 447.1875 150.792969 446.917969 150.140625 C 446.648438 149.488281 446.320312 148.863281 445.929688 148.273438 C 445.539062 147.6875 445.09375 147.140625 444.59375 146.636719 C 444.097656 146.136719 443.554688 145.6875 442.96875 145.292969 C 442.382812 144.898438 441.761719 144.5625 441.113281 144.289062 C 440.460938 144.015625 439.785156 143.808594 439.09375 143.667969 C 438.402344 143.527344 437.699219 143.453125 436.992188 143.449219 L 181.253906 143.449219 C 180.546875 143.453125 179.847656 143.527344 179.15625 143.667969 C 178.460938 143.808594 177.789062 144.015625 177.136719 144.289062 C 176.488281 144.5625 175.867188 144.898438 175.28125 145.292969 C 174.695312 145.6875 174.152344 146.136719 173.65625 146.640625 C 173.15625 147.140625 172.714844 147.6875 172.324219 148.277344 C 171.933594 148.867188 171.605469 149.488281 171.335938 150.140625 C 171.066406 150.796875 170.867188 151.46875 170.730469 152.164062 C 170.59375 152.855469 170.527344 153.558594 170.53125 154.265625 L 170.53125 210.347656 C 170.527344 211.054688 170.59375 211.757812 170.730469 212.449219 C 170.867188 213.144531 171.070312 213.816406 171.335938 214.46875 C 171.605469 215.125 171.9375 215.746094 172.328125 216.332031 C 172.71875 216.921875 173.160156 217.46875 173.660156 217.96875 C 174.15625 218.472656 174.699219 218.917969 175.285156 219.3125 C 175.871094 219.710938 176.488281 220.042969 177.140625 220.316406 C 177.792969 220.589844 178.464844 220.796875 179.15625 220.9375 C 179.847656 221.078125 180.546875 221.152344 181.253906 221.15625 Z M 192.0625 164.988281 L 426.1875 164.988281 L 426.1875 199.625 L 192.0625 199.625 Z M 217.828125 459.304688 L 181.253906 459.304688 C 180.546875 459.308594 179.847656 459.382812 179.15625 459.523438 C 178.460938 459.664062 177.789062 459.871094 177.136719 460.144531 C 176.488281 460.417969 175.867188 460.753906 175.28125 461.148438 C 174.695312 461.546875 174.152344 461.992188 173.65625 462.496094 C 173.15625 462.996094 172.714844 463.542969 172.324219 464.132812 C 171.933594 464.722656 171.605469 465.34375 171.335938 465.996094 C 171.066406 466.652344 170.867188 467.324219 170.730469 468.019531 C 170.59375 468.714844 170.527344 469.414062 170.53125 470.121094 L 170.53125 505.753906 C 170.527344 506.460938 170.59375 507.160156 170.730469 507.851562 C 170.867188 508.546875 171.070312 509.21875 171.339844 509.871094 C 171.605469 510.527344 171.9375 511.148438 172.328125 511.734375 C 172.71875 512.324219 173.160156 512.867188 173.660156 513.371094 C 174.15625 513.871094 174.699219 514.320312 175.285156 514.714844 C 175.871094 515.109375 176.488281 515.441406 177.140625 515.714844 C 177.792969 515.988281 178.464844 516.195312 179.15625 516.335938 C 179.847656 516.476562 180.546875 516.546875 181.253906 516.550781 L 217.828125 516.550781 C 218.539062 516.550781 219.242188 516.480469 219.9375 516.34375 C 220.632812 516.203125 221.308594 516 221.960938 515.726562 C 222.617188 515.453125 223.242188 515.121094 223.832031 514.726562 C 224.421875 514.332031 224.964844 513.886719 225.46875 513.382812 C 225.96875 512.882812 226.417969 512.335938 226.8125 511.746094 C 227.207031 511.15625 227.539062 510.535156 227.808594 509.878906 C 228.082031 509.222656 228.289062 508.546875 228.425781 507.851562 C 228.566406 507.15625 228.632812 506.453125 228.636719 505.746094 L 228.636719 470.121094 C 228.632812 469.410156 228.566406 468.707031 228.425781 468.011719 C 228.289062 467.316406 228.082031 466.640625 227.808594 465.984375 C 227.539062 465.328125 227.207031 464.707031 226.8125 464.117188 C 226.417969 463.527344 225.96875 462.980469 225.46875 462.480469 C 224.964844 461.976562 224.421875 461.527344 223.832031 461.132812 C 223.242188 460.738281 222.617188 460.40625 221.964844 460.132812 C 221.308594 459.863281 220.632812 459.65625 219.9375 459.515625 C 219.242188 459.378906 218.539062 459.308594 217.828125 459.304688 Z M 207.015625 495.003906 L 192.0625 495.003906 L 192.0625 480.855469 L 207.039062 480.855469 Z M 475.132812 420.484375 C 477.402344 418.207031 479.96875 416.332031 482.832031 414.867188 C 485.691406 413.398438 488.710938 412.40625 491.886719 411.894531 L 491.886719 405.574219 C 491.867188 404.855469 491.917969 404.144531 492.042969 403.4375 C 492.164062 402.730469 492.355469 402.042969 492.617188 401.375 C 492.878906 400.707031 493.203125 400.074219 493.589844 399.46875 C 493.976562 398.867188 494.421875 398.308594 494.921875 397.792969 C 495.421875 397.28125 495.96875 396.820312 496.5625 396.414062 C 497.152344 396.011719 497.78125 395.667969 498.441406 395.390625 C 499.101562 395.113281 499.78125 394.902344 500.484375 394.757812 C 501.1875 394.617188 501.898438 394.542969 502.617188 394.542969 C 503.332031 394.542969 504.042969 394.617188 504.746094 394.757812 C 505.449219 394.902344 506.132812 395.113281 506.792969 395.390625 C 507.453125 395.667969 508.078125 396.011719 508.671875 396.414062 C 509.261719 396.820312 509.808594 397.28125 510.308594 397.792969 C 510.808594 398.308594 511.253906 398.867188 511.640625 399.46875 C 512.03125 400.074219 512.355469 400.707031 512.613281 401.375 C 512.875 402.042969 513.066406 402.730469 513.191406 403.4375 C 513.3125 404.144531 513.367188 404.855469 513.34375 405.574219 L 513.34375 411.894531 C 516.304688 412.390625 519.132812 413.300781 521.824219 414.632812 C 524.515625 415.960938 526.957031 417.648438 529.148438 419.699219 C 529.441406 419.933594 529.710938 420.191406 529.960938 420.46875 C 532.292969 422.78125 534.207031 425.398438 535.695312 428.324219 C 537.1875 431.25 538.183594 434.335938 538.683594 437.578125 C 538.921875 439.085938 539.035156 440.597656 539.023438 442.121094 C 539.023438 442.832031 538.953125 443.535156 538.816406 444.230469 C 538.675781 444.925781 538.472656 445.601562 538.199219 446.257812 C 537.929688 446.914062 537.597656 447.535156 537.203125 448.125 C 536.808594 448.714844 536.359375 449.261719 535.859375 449.765625 C 535.355469 450.265625 534.808594 450.714844 534.21875 451.109375 C 533.628906 451.503906 533.007812 451.835938 532.351562 452.105469 C 531.695312 452.378906 531.019531 452.582031 530.324219 452.722656 C 529.628906 452.859375 528.925781 452.929688 528.214844 452.929688 C 527.507812 452.929688 526.804688 452.859375 526.109375 452.722656 C 525.414062 452.582031 524.738281 452.378906 524.082031 452.105469 C 523.425781 451.835938 522.804688 451.503906 522.214844 451.109375 C 521.621094 450.714844 521.078125 450.265625 520.574219 449.765625 C 520.074219 449.261719 519.625 448.714844 519.230469 448.125 C 518.835938 447.535156 518.503906 446.914062 518.234375 446.257812 C 517.960938 445.601562 517.757812 444.925781 517.617188 444.230469 C 517.480469 443.535156 517.410156 442.832031 517.410156 442.121094 C 517.425781 441.085938 517.238281 440.089844 516.851562 439.128906 C 516.40625 437.804688 515.691406 436.648438 514.699219 435.664062 C 513.851562 434.820312 512.871094 434.167969 511.765625 433.710938 C 510.65625 433.253906 509.503906 433.023438 508.308594 433.019531 L 496.804688 433.019531 C 495.605469 433.023438 494.453125 433.253906 493.347656 433.710938 C 492.242188 434.164062 491.261719 434.816406 490.410156 435.65625 C 489.890625 436.132812 489.453125 436.671875 489.097656 437.277344 C 488.832031 437.703125 488.601562 438.144531 488.410156 438.609375 C 488.21875 439.070312 488.0625 439.542969 487.949219 440.03125 C 487.832031 440.515625 487.757812 441.007812 487.722656 441.507812 C 487.6875 442.007812 487.695312 442.507812 487.742188 443.003906 C 487.789062 443.5 487.875 443.992188 488 444.476562 C 488.128906 444.960938 488.292969 445.429688 488.496094 445.886719 C 488.699219 446.34375 488.9375 446.78125 489.214844 447.199219 C 489.488281 447.617188 489.796875 448.011719 490.132812 448.378906 C 491.015625 449.277344 492.03125 449.980469 493.183594 450.480469 C 494.339844 450.984375 495.542969 451.25 496.804688 451.28125 L 508.347656 451.28125 C 511.550781 451.28125 514.675781 451.769531 517.722656 452.75 C 520.769531 453.730469 523.59375 455.152344 526.195312 457.019531 C 527.582031 457.980469 528.863281 459.0625 530.050781 460.261719 L 530.660156 460.960938 C 532.53125 462.917969 534.105469 465.085938 535.382812 467.472656 C 536.664062 469.859375 537.597656 472.371094 538.1875 475.011719 C 538.765625 477.273438 539.035156 479.574219 539 481.910156 C 538.992188 484.871094 538.566406 487.769531 537.722656 490.605469 C 536.882812 493.445312 535.652344 496.105469 534.042969 498.589844 C 532.859375 500.410156 531.507812 502.09375 529.984375 503.644531 C 527.710938 505.90625 525.140625 507.773438 522.285156 509.234375 C 519.429688 510.699219 516.414062 511.695312 513.25 512.21875 L 513.25 518.554688 C 513.269531 519.273438 513.214844 519.984375 513.09375 520.691406 C 512.96875 521.398438 512.777344 522.085938 512.519531 522.753906 C 512.257812 523.421875 511.933594 524.054688 511.542969 524.660156 C 511.15625 525.261719 510.710938 525.820312 510.210938 526.335938 C 509.710938 526.847656 509.164062 527.308594 508.574219 527.714844 C 507.980469 528.117188 507.355469 528.460938 506.695312 528.738281 C 506.035156 529.015625 505.351562 529.226562 504.648438 529.371094 C 503.945312 529.511719 503.234375 529.585938 502.519531 529.585938 C 501.800781 529.585938 501.089844 529.511719 500.386719 529.371094 C 499.6875 529.226562 499.003906 529.015625 498.34375 528.738281 C 497.683594 528.460938 497.054688 528.117188 496.464844 527.714844 C 495.871094 527.308594 495.324219 526.847656 494.824219 526.335938 C 494.324219 525.820312 493.882812 525.261719 493.492188 524.660156 C 493.105469 524.054688 492.78125 523.421875 492.519531 522.753906 C 492.257812 522.085938 492.066406 521.398438 491.945312 520.691406 C 491.820312 519.984375 491.769531 519.273438 491.789062 518.554688 L 491.789062 512.210938 C 488.457031 511.648438 485.300781 510.566406 482.320312 508.964844 C 479.648438 507.566406 477.25 505.796875 475.125 503.652344 C 473.6875 502.230469 472.40625 500.679688 471.277344 499.003906 C 470.148438 497.328125 469.195312 495.558594 468.417969 493.691406 C 467.640625 491.828125 467.050781 489.902344 466.65625 487.921875 C 466.257812 485.941406 466.0625 483.9375 466.0625 481.917969 C 466.0625 481.207031 466.132812 480.503906 466.269531 479.808594 C 466.410156 479.113281 466.613281 478.4375 466.886719 477.78125 C 467.15625 477.125 467.488281 476.503906 467.882812 475.914062 C 468.277344 475.324219 468.726562 474.777344 469.226562 474.277344 C 469.730469 473.773438 470.277344 473.324219 470.867188 472.933594 C 471.457031 472.539062 472.078125 472.203125 472.734375 471.933594 C 473.390625 471.660156 474.066406 471.457031 474.761719 471.316406 C 475.457031 471.179688 476.160156 471.109375 476.871094 471.109375 C 477.578125 471.109375 478.28125 471.179688 478.976562 471.316406 C 479.671875 471.457031 480.347656 471.660156 481.003906 471.933594 C 481.660156 472.203125 482.28125 472.539062 482.875 472.933594 C 483.464844 473.324219 484.007812 473.773438 484.511719 474.277344 C 485.011719 474.777344 485.460938 475.324219 485.855469 475.914062 C 486.25 476.503906 486.582031 477.125 486.851562 477.78125 C 487.125 478.4375 487.328125 479.113281 487.46875 479.808594 C 487.605469 480.503906 487.675781 481.207031 487.675781 481.917969 C 487.664062 483.132812 487.886719 484.300781 488.34375 485.425781 C 488.800781 486.550781 489.457031 487.546875 490.3125 488.40625 C 491.175781 489.265625 492.167969 489.929688 493.292969 490.402344 C 494.414062 490.871094 495.585938 491.113281 496.804688 491.125 L 508.265625 491.125 C 508.867188 491.117188 509.464844 491.054688 510.050781 490.933594 C 510.640625 490.8125 511.210938 490.632812 511.765625 490.402344 C 512.320312 490.167969 512.847656 489.882812 513.347656 489.546875 C 513.84375 489.210938 514.308594 488.832031 514.734375 488.40625 C 515.15625 487.980469 515.539062 487.519531 515.875 487.019531 C 516.207031 486.523438 516.492188 485.996094 516.726562 485.441406 C 516.960938 484.886719 517.136719 484.316406 517.257812 483.726562 C 517.378906 483.136719 517.445312 482.542969 517.449219 481.941406 C 517.4375 480.226562 516.984375 478.640625 516.085938 477.179688 C 515.785156 476.710938 515.4375 476.273438 515.050781 475.871094 C 514.183594 474.914062 513.160156 474.171875 511.976562 473.644531 C 510.796875 473.117188 509.558594 472.851562 508.265625 472.847656 L 496.882812 472.847656 C 491.734375 472.820312 486.890625 471.59375 482.34375 469.171875 C 479.691406 467.730469 477.292969 465.945312 475.148438 463.816406 L 474.621094 463.289062 C 473.941406 462.574219 473.292969 461.828125 472.683594 461.054688 C 472.074219 460.277344 471.503906 459.472656 470.972656 458.640625 C 470.441406 457.808594 469.949219 456.953125 469.503906 456.074219 C 469.054688 455.195312 468.648438 454.292969 468.285156 453.375 C 467.925781 452.457031 467.609375 451.523438 467.335938 450.574219 C 467.066406 449.625 466.839844 448.664062 466.660156 447.691406 C 466.484375 446.722656 466.351562 445.742188 466.269531 444.761719 C 466.183594 443.777344 466.148438 442.789062 466.160156 441.804688 C 466.171875 440.816406 466.234375 439.832031 466.339844 438.851562 C 466.445312 437.867188 466.601562 436.894531 466.800781 435.929688 C 467.003906 434.960938 467.25 434.007812 467.546875 433.0625 C 467.839844 432.121094 468.179688 431.195312 468.5625 430.285156 C 468.945312 429.375 469.371094 428.488281 469.84375 427.617188 C 470.3125 426.75 470.824219 425.90625 471.375 425.085938 C 471.925781 424.265625 472.515625 423.476562 473.144531 422.714844 C 473.769531 421.953125 474.433594 421.222656 475.132812 420.527344 Z M 437 245.242188 L 400.429688 245.242188 C 399.722656 245.246094 399.023438 245.320312 398.328125 245.460938 C 397.636719 245.601562 396.964844 245.808594 396.3125 246.082031 C 395.660156 246.355469 395.042969 246.691406 394.457031 247.085938 C 393.871094 247.480469 393.328125 247.929688 392.828125 248.429688 C 392.332031 248.929688 391.886719 249.476562 391.496094 250.066406 C 391.105469 250.652344 390.773438 251.277344 390.507812 251.929688 C 390.238281 252.582031 390.035156 253.257812 389.898438 253.949219 C 389.761719 254.644531 389.695312 255.34375 389.695312 256.050781 L 389.695312 291.691406 C 389.695312 292.398438 389.761719 293.097656 389.898438 293.792969 C 390.035156 294.484375 390.238281 295.160156 390.507812 295.8125 C 390.773438 296.464844 391.105469 297.085938 391.496094 297.675781 C 391.886719 298.265625 392.332031 298.808594 392.828125 299.3125 C 393.328125 299.8125 393.871094 300.261719 394.457031 300.65625 C 395.042969 301.050781 395.660156 301.386719 396.3125 301.65625 C 396.964844 301.929688 397.636719 302.140625 398.328125 302.28125 C 399.023438 302.421875 399.722656 302.492188 400.429688 302.496094 L 436.992188 302.496094 C 437.699219 302.492188 438.398438 302.421875 439.09375 302.28125 C 439.785156 302.140625 440.457031 301.929688 441.109375 301.65625 C 441.761719 301.386719 442.378906 301.050781 442.964844 300.65625 C 443.550781 300.261719 444.09375 299.8125 444.59375 299.3125 C 445.089844 298.808594 445.535156 298.265625 445.925781 297.675781 C 446.316406 297.085938 446.648438 296.464844 446.917969 295.8125 C 447.183594 295.160156 447.386719 294.484375 447.523438 293.792969 C 447.660156 293.097656 447.726562 292.398438 447.726562 291.691406 L 447.726562 256.058594 C 447.726562 255.351562 447.660156 254.652344 447.523438 253.957031 C 447.386719 253.265625 447.183594 252.589844 446.917969 251.9375 C 446.648438 251.285156 446.316406 250.664062 445.925781 250.074219 C 445.535156 249.484375 445.089844 248.941406 444.59375 248.4375 C 444.09375 247.9375 443.550781 247.488281 442.964844 247.09375 C 442.378906 246.699219 441.761719 246.363281 441.109375 246.089844 C 440.457031 245.816406 439.785156 245.609375 439.09375 245.46875 C 438.398438 245.328125 437.699219 245.253906 436.992188 245.25 Z M 426.195312 280.941406 L 411.234375 280.941406 L 411.234375 266.863281 L 426.1875 266.863281 Z M 437 316.582031 L 400.429688 316.582031 C 399.722656 316.585938 399.023438 316.65625 398.328125 316.800781 C 397.636719 316.941406 396.964844 317.148438 396.3125 317.421875 C 395.660156 317.695312 395.042969 318.027344 394.457031 318.421875 C 393.871094 318.816406 393.328125 319.265625 392.828125 319.769531 C 392.332031 320.269531 391.886719 320.8125 391.496094 321.402344 C 391.105469 321.992188 390.773438 322.613281 390.507812 323.265625 C 390.238281 323.921875 390.035156 324.59375 389.898438 325.289062 C 389.761719 325.980469 389.695312 326.679688 389.695312 327.386719 L 389.695312 363.054688 C 389.695312 363.757812 389.761719 364.460938 389.898438 365.152344 C 390.035156 365.847656 390.238281 366.519531 390.507812 367.171875 C 390.773438 367.828125 391.105469 368.449219 391.496094 369.035156 C 391.886719 369.625 392.332031 370.167969 392.828125 370.671875 C 393.328125 371.171875 393.871094 371.621094 394.457031 372.015625 C 395.042969 372.410156 395.660156 372.742188 396.3125 373.015625 C 396.964844 373.289062 397.636719 373.496094 398.328125 373.636719 C 399.023438 373.777344 399.722656 373.847656 400.429688 373.851562 L 436.992188 373.851562 C 437.628906 373.855469 438.257812 373.800781 438.882812 373.691406 C 439.511719 373.582031 440.121094 373.414062 440.714844 373.195312 C 441.3125 372.976562 441.882812 372.703125 442.429688 372.382812 C 442.976562 372.058594 443.492188 371.691406 443.972656 371.273438 C 444.453125 370.859375 444.894531 370.40625 445.292969 369.910156 C 445.691406 369.417969 446.042969 368.890625 446.347656 368.335938 C 446.652344 367.777344 446.90625 367.199219 447.105469 366.59375 C 447.304688 365.992188 447.449219 365.378906 447.539062 364.75 C 447.667969 364.191406 447.722656 363.625 447.703125 363.054688 L 447.703125 327.414062 C 447.703125 326.707031 447.636719 326.007812 447.5 325.316406 C 447.363281 324.621094 447.164062 323.949219 446.894531 323.296875 C 446.625 322.644531 446.296875 322.023438 445.90625 321.433594 C 445.515625 320.847656 445.074219 320.300781 444.578125 319.800781 C 444.082031 319.300781 443.539062 318.851562 442.953125 318.457031 C 442.371094 318.0625 441.753906 317.726562 441.101562 317.453125 C 440.453125 317.179688 439.78125 316.96875 439.089844 316.828125 C 438.398438 316.683594 437.699219 316.609375 436.992188 316.605469 Z M 426.195312 352.277344 L 411.234375 352.277344 L 411.234375 338.21875 L 426.1875 338.21875 Z M 694.996094 650.839844 C 695.070312 650.417969 695.113281 649.996094 695.125 649.574219 L 695.125 640.679688 L 695.335938 640.679688 L 695.335938 206.550781 C 695.335938 205.832031 695.265625 205.121094 695.125 204.414062 C 694.980469 203.707031 694.773438 203.023438 694.496094 202.359375 C 694.222656 201.695312 693.882812 201.0625 693.484375 200.464844 C 693.082031 199.867188 692.628906 199.3125 692.117188 198.804688 C 691.609375 198.296875 691.054688 197.839844 690.457031 197.441406 C 689.859375 197.042969 689.226562 196.703125 688.5625 196.429688 C 687.898438 196.152344 687.210938 195.945312 686.507812 195.804688 C 685.800781 195.664062 685.089844 195.59375 684.367188 195.59375 L 504.582031 195.59375 L 504.582031 131.5 C 504.578125 130.160156 504.511719 128.828125 504.375 127.496094 C 504.242188 126.164062 504.042969 124.84375 503.78125 123.535156 C 503.515625 122.222656 503.1875 120.925781 502.796875 119.648438 C 502.410156 118.367188 501.957031 117.109375 501.441406 115.875 C 500.929688 114.640625 500.355469 113.433594 499.726562 112.253906 C 499.09375 111.074219 498.40625 109.929688 497.664062 108.816406 C 496.917969 107.707031 496.121094 106.632812 495.273438 105.601562 C 494.425781 104.566406 493.527344 103.578125 492.582031 102.628906 C 491.636719 101.683594 490.648438 100.785156 489.613281 99.9375 C 488.582031 99.089844 487.507812 98.292969 486.394531 97.546875 C 485.285156 96.804688 484.140625 96.117188 482.960938 95.484375 C 481.78125 94.851562 480.574219 94.277344 479.339844 93.765625 C 478.105469 93.25 476.847656 92.796875 475.570312 92.40625 C 474.289062 92.015625 472.996094 91.6875 471.683594 91.425781 C 470.371094 91.160156 469.050781 90.960938 467.71875 90.824219 C 466.390625 90.691406 465.054688 90.621094 463.71875 90.617188 L 154.523438 90.617188 C 153.1875 90.621094 151.851562 90.6875 150.523438 90.820312 C 149.191406 90.953125 147.871094 91.152344 146.5625 91.414062 C 145.25 91.679688 143.957031 92.003906 142.675781 92.394531 C 141.398438 92.785156 140.140625 93.234375 138.90625 93.75 C 137.671875 94.261719 136.46875 94.835938 135.289062 95.464844 C 134.109375 96.097656 132.964844 96.785156 131.855469 97.53125 C 130.746094 98.273438 129.671875 99.070312 128.640625 99.917969 C 127.609375 100.769531 126.621094 101.667969 125.675781 102.613281 C 124.730469 103.558594 123.835938 104.550781 122.988281 105.582031 C 122.140625 106.617188 121.347656 107.691406 120.605469 108.800781 C 119.863281 109.914062 119.179688 111.058594 118.550781 112.238281 C 117.917969 113.417969 117.351562 114.625 116.839844 115.863281 C 116.328125 117.097656 115.878906 118.355469 115.492188 119.632812 C 115.105469 120.914062 114.78125 122.207031 114.519531 123.519531 C 114.261719 124.832031 114.0625 126.152344 113.933594 127.480469 C 113.804688 128.8125 113.738281 130.144531 113.738281 131.484375 L 113.738281 528.535156 C 113.738281 529.871094 113.804688 531.203125 113.933594 532.535156 C 114.066406 533.863281 114.261719 535.183594 114.523438 536.496094 C 114.785156 537.808594 115.109375 539.101562 115.496094 540.382812 C 115.882812 541.660156 116.332031 542.917969 116.84375 544.152344 C 117.355469 545.386719 117.925781 546.59375 118.554688 547.773438 C 119.183594 548.953125 119.867188 550.097656 120.609375 551.210938 C 121.351562 552.324219 122.148438 553.394531 122.996094 554.429688 C 123.839844 555.464844 124.738281 556.453125 125.679688 557.398438 C 126.625 558.34375 127.613281 559.242188 128.644531 560.09375 C 129.679688 560.941406 130.75 561.738281 131.859375 562.480469 C 132.96875 563.226562 134.113281 563.914062 135.292969 564.546875 C 136.46875 565.175781 137.675781 565.75 138.910156 566.261719 C 140.144531 566.777344 141.402344 567.230469 142.679688 567.621094 C 143.957031 568.007812 145.25 568.335938 146.5625 568.597656 C 147.871094 568.863281 149.191406 569.0625 150.523438 569.195312 C 151.851562 569.328125 153.1875 569.398438 154.523438 569.398438 L 194.277344 569.398438 L 194.277344 708.132812 C 194.28125 708.574219 194.3125 709.015625 194.371094 709.453125 C 194.425781 709.894531 194.511719 710.324219 194.625 710.753906 C 194.738281 711.183594 194.875 711.601562 195.039062 712.011719 C 195.203125 712.425781 195.390625 712.824219 195.601562 713.210938 C 195.816406 713.597656 196.050781 713.972656 196.3125 714.332031 C 196.570312 714.6875 196.851562 715.03125 197.152344 715.355469 C 197.453125 715.679688 197.773438 715.980469 198.113281 716.265625 C 198.453125 716.550781 198.808594 716.8125 199.179688 717.054688 C 199.550781 717.292969 199.9375 717.511719 200.335938 717.703125 C 200.730469 717.894531 201.140625 718.0625 201.558594 718.207031 C 201.980469 718.347656 202.40625 718.464844 202.839844 718.550781 C 203.273438 718.640625 203.707031 718.703125 204.148438 718.738281 C 204.589844 718.777344 205.03125 718.785156 205.472656 718.765625 C 205.917969 718.746094 206.355469 718.699219 206.792969 718.625 C 207.226562 718.550781 207.660156 718.453125 208.082031 718.324219 C 208.507812 718.199219 208.921875 718.046875 209.324219 717.867188 L 486.296875 717.867188 C 486.914062 717.890625 487.527344 717.855469 488.136719 717.765625 C 488.746094 717.671875 489.339844 717.527344 489.925781 717.324219 C 490.507812 717.125 491.066406 716.871094 491.601562 716.566406 C 492.136719 716.261719 492.640625 715.910156 493.113281 715.511719 C 493.582031 715.113281 494.011719 714.675781 494.402344 714.199219 C 494.792969 713.722656 495.136719 713.214844 495.433594 712.671875 C 495.730469 712.132812 495.972656 711.566406 496.164062 710.984375 C 496.359375 710.398438 496.496094 709.796875 496.574219 709.1875 C 496.9375 708.136719 497.128906 707.054688 497.144531 705.941406 L 497.144531 665.539062 L 685.113281 665.539062 C 685.546875 665.535156 685.980469 665.507812 686.410156 665.453125 C 686.839844 665.398438 687.261719 665.316406 687.683594 665.210938 C 688.101562 665.101562 688.515625 664.972656 688.917969 664.8125 C 689.324219 664.65625 689.714844 664.476562 690.097656 664.273438 C 690.480469 664.066406 690.847656 663.839844 691.203125 663.589844 C 691.554688 663.34375 691.894531 663.074219 692.214844 662.78125 C 692.535156 662.492188 692.839844 662.183594 693.125 661.855469 C 693.40625 661.527344 693.671875 661.1875 693.914062 660.828125 C 694.15625 660.46875 694.375 660.09375 694.570312 659.707031 C 694.769531 659.324219 694.941406 658.925781 695.089844 658.519531 C 695.238281 658.113281 695.363281 657.699219 695.460938 657.277344 C 695.558594 656.855469 695.632812 656.429688 695.679688 655.996094 C 695.726562 655.566406 695.746094 655.136719 695.742188 654.703125 C 695.734375 654.269531 695.703125 653.835938 695.644531 653.410156 C 695.585938 652.980469 695.503906 652.554688 695.390625 652.136719 C 695.28125 651.71875 695.148438 651.304688 694.988281 650.902344 Z M 531.925781 381.589844 C 538.171875 383.988281 544.097656 387.015625 549.699219 390.667969 C 552.6875 392.679688 555.527344 394.878906 558.226562 397.265625 C 559.792969 398.578125 561.285156 399.96875 562.707031 401.4375 C 569.042969 407.84375 574.242188 415.074219 578.296875 423.121094 C 580.867188 428.128906 582.886719 433.34375 584.367188 438.773438 C 586.328125 445.605469 587.382812 452.574219 587.539062 459.679688 C 587.613281 460.492188 587.605469 461.300781 587.605469 462.113281 C 587.613281 467.921875 587.042969 473.671875 585.894531 479.363281 C 584.746094 485.058594 583.042969 490.578125 580.78125 495.929688 C 578.460938 501.464844 575.5625 506.679688 572.09375 511.578125 C 569.304688 515.53125 566.207031 519.226562 562.800781 522.660156 C 561.289062 524.1875 559.714844 525.65625 558.089844 527.066406 C 556.460938 528.476562 554.785156 529.820312 553.054688 531.101562 C 551.324219 532.382812 549.550781 533.597656 547.726562 534.742188 C 545.90625 535.886719 544.042969 536.960938 542.140625 537.964844 C 540.238281 538.972656 538.296875 539.902344 536.324219 540.757812 C 534.347656 541.613281 532.34375 542.394531 530.3125 543.097656 C 528.277344 543.800781 526.21875 544.425781 524.136719 544.976562 C 522.054688 545.523438 519.957031 545.988281 517.839844 546.375 C 515.722656 546.765625 513.59375 547.070312 511.453125 547.296875 C 509.3125 547.519531 507.167969 547.664062 505.015625 547.726562 C 502.867188 547.789062 500.714844 547.769531 498.566406 547.667969 C 496.414062 547.566406 494.273438 547.382812 492.136719 547.117188 C 490 546.851562 487.878906 546.507812 485.769531 546.078125 C 483.660156 545.652344 481.570312 545.148438 479.5 544.5625 C 477.425781 543.976562 475.382812 543.3125 473.363281 542.570312 C 471.339844 541.828125 469.351562 541.011719 467.394531 540.121094 L 467.394531 539.007812 L 465.113281 539.007812 L 461.933594 537.386719 C 457.125 534.757812 452.621094 531.683594 448.425781 528.160156 L 447.816406 527.640625 C 447.292969 527.171875 446.734375 526.738281 446.144531 526.351562 C 445.84375 525.933594 445.492188 525.558594 445.089844 525.234375 C 444.328125 524.535156 443.558594 523.835938 442.867188 523.074219 L 442.300781 522.585938 C 439.675781 519.960938 437.242188 517.171875 434.996094 514.214844 L 434.382812 513.242188 C 433.585938 512.230469 432.863281 511.222656 432.214844 510.214844 L 431.136719 508.59375 C 430.851562 508.15625 430.558594 507.722656 430.277344 507.277344 L 429.839844 506.417969 C 428.503906 504.25 427.285156 502.015625 426.1875 499.71875 L 425.472656 498.214844 C 425.125 497.503906 424.777344 496.730469 424.492188 496.027344 L 423.445312 493.542969 C 423.265625 493.097656 423.078125 492.632812 422.867188 492.019531 L 421.53125 488.050781 C 421.140625 486.777344 420.769531 485.503906 420.386719 484.230469 C 420.320312 483.800781 420.210938 483.382812 420.054688 482.980469 L 419.371094 480.042969 C 419.257812 478.550781 419.007812 477.082031 418.617188 475.636719 L 418.519531 475.273438 L 418.097656 471.742188 C 418.011719 471.207031 417.960938 470.664062 417.945312 470.121094 C 417.855469 469.5625 417.832031 469.015625 417.796875 468.5 L 417.699219 467.234375 C 417.664062 466.894531 417.652344 466.550781 417.660156 466.210938 C 417.578125 464.871094 417.507812 463.53125 417.507812 462.152344 C 417.507812 460.773438 417.585938 459.320312 417.660156 457.894531 L 417.976562 453.269531 C 417.992188 452.910156 418.027344 452.554688 418.089844 452.199219 L 420.425781 439.695312 C 420.644531 438.886719 420.855469 438.140625 421.199219 437.171875 L 422.480469 433.175781 C 422.621094 432.730469 422.789062 432.296875 422.992188 431.875 C 423.273438 431.066406 423.558594 430.300781 424.019531 429.238281 C 424.160156 428.8125 424.335938 428.398438 424.539062 427.996094 C 424.816406 427.226562 425.140625 426.480469 425.523438 425.757812 L 426.15625 424.421875 C 426.519531 423.609375 426.964844 422.796875 427.378906 422.042969 L 427.738281 420.738281 L 428.054688 420.785156 C 428.320312 420.25 428.652344 419.640625 429.335938 418.496094 C 429.582031 418.050781 429.851562 417.617188 430.144531 417.199219 C 430.472656 416.703125 430.773438 416.1875 431.046875 415.65625 C 431.324219 415.292969 431.574219 414.902344 431.859375 414.523438 L 433.660156 411.964844 C 434.066406 411.351562 434.550781 410.734375 435.207031 409.863281 C 435.460938 409.484375 435.785156 409.109375 436.464844 408.242188 C 436.929688 407.667969 437.351562 407.121094 437.917969 406.480469 C 439.664062 404.511719 442.195312 401.769531 442.601562 401.363281 C 447.578125 396.613281 453.011719 392.457031 458.894531 388.890625 C 464.777344 385.324219 470.972656 382.429688 477.484375 380.210938 C 481.933594 378.996094 486.445312 378.109375 491.019531 377.558594 C 495.597656 377.003906 500.191406 376.789062 504.800781 376.910156 C 509.410156 377.03125 513.984375 377.492188 518.523438 378.285156 C 523.066406 379.082031 527.523438 380.203125 531.898438 381.65625 Z M 157.433594 547.859375 L 154.523438 547.785156 C 153.894531 547.785156 153.265625 547.75 152.636719 547.6875 C 152.011719 547.625 151.390625 547.53125 150.773438 547.40625 C 150.152344 547.28125 149.542969 547.128906 148.941406 546.941406 C 148.339844 546.757812 147.746094 546.546875 147.167969 546.304688 C 146.585938 546.0625 146.015625 545.792969 145.460938 545.492188 C 144.90625 545.195312 144.367188 544.871094 143.84375 544.523438 C 143.320312 544.171875 142.816406 543.796875 142.328125 543.394531 C 141.84375 542.996094 141.375 542.574219 140.929688 542.128906 C 140.484375 541.683594 140.0625 541.21875 139.664062 540.730469 C 139.265625 540.242188 138.890625 539.738281 138.539062 539.214844 C 138.1875 538.691406 137.863281 538.152344 137.566406 537.597656 C 137.269531 537.042969 137 536.472656 136.757812 535.890625 C 136.515625 535.308594 136.304688 534.71875 136.121094 534.117188 C 135.9375 533.511719 135.78125 532.902344 135.65625 532.285156 C 135.53125 531.667969 135.4375 531.046875 135.375 530.417969 C 135.3125 529.792969 135.28125 529.164062 135.277344 528.535156 L 135.277344 131.484375 C 135.277344 130.21875 135.402344 128.964844 135.652344 127.726562 C 135.898438 126.484375 136.265625 125.28125 136.753906 124.113281 C 137.242188 122.949219 137.839844 121.839844 138.546875 120.792969 C 139.253906 119.742188 140.058594 118.773438 140.957031 117.886719 C 142.757812 116.082031 144.835938 114.6875 147.191406 113.703125 C 149.542969 112.71875 151.996094 112.21875 154.546875 112.207031 L 463.71875 112.207031 C 464.347656 112.207031 464.976562 112.242188 465.605469 112.304688 C 466.230469 112.367188 466.851562 112.460938 467.472656 112.585938 C 468.089844 112.710938 468.699219 112.863281 469.300781 113.046875 C 469.902344 113.230469 470.496094 113.445312 471.078125 113.6875 C 471.660156 113.929688 472.230469 114.199219 472.785156 114.496094 C 473.339844 114.792969 473.878906 115.117188 474.402344 115.46875 C 474.925781 115.816406 475.433594 116.191406 475.917969 116.59375 C 476.40625 116.992188 476.871094 117.414062 477.316406 117.859375 C 477.761719 118.304688 478.1875 118.773438 478.585938 119.257812 C 478.988281 119.746094 479.363281 120.25 479.710938 120.773438 C 480.0625 121.300781 480.386719 121.839844 480.683594 122.394531 C 480.984375 122.949219 481.253906 123.515625 481.496094 124.097656 C 481.738281 124.679688 481.949219 125.273438 482.132812 125.875 C 482.320312 126.476562 482.472656 127.089844 482.597656 127.707031 C 482.722656 128.324219 482.816406 128.945312 482.878906 129.574219 C 482.945312 130.199219 482.976562 130.828125 482.976562 131.457031 L 482.976562 356.726562 L 482.882812 356.726562 C 476.332031 357.933594 469.960938 359.769531 463.773438 362.234375 L 463.101562 362.46875 C 461.902344 362.949219 460.601562 363.515625 459.441406 364.089844 C 452.988281 366.941406 446.90625 370.433594 441.195312 374.574219 C 440.789062 374.742188 440.425781 374.984375 440.109375 375.296875 C 439.394531 375.773438 438.730469 376.285156 438.039062 376.8125 L 435.605469 378.769531 C 435.054688 379.160156 434.550781 379.609375 434.097656 380.113281 C 433.605469 380.414062 433.160156 380.773438 432.765625 381.195312 C 431.953125 381.847656 431.179688 382.546875 430.445312 383.296875 C 430.066406 383.59375 429.707031 383.914062 429.367188 384.261719 C 428.710938 384.917969 428.054688 385.574219 427.21875 386.328125 C 426.65625 386.898438 426.089844 387.464844 425.539062 388.058594 L 400.429688 388.058594 C 399.722656 388.058594 399.027344 388.128906 398.335938 388.265625 C 397.644531 388.40625 396.972656 388.609375 396.324219 388.878906 C 395.671875 389.148438 395.054688 389.480469 394.46875 389.871094 C 393.882812 390.261719 393.339844 390.707031 392.84375 391.207031 C 392.34375 391.703125 391.898438 392.246094 391.507812 392.832031 C 391.117188 393.417969 390.785156 394.035156 390.515625 394.6875 C 390.246094 395.335938 390.042969 396.007812 389.902344 396.699219 C 389.765625 397.390625 389.695312 398.085938 389.695312 398.789062 L 389.695312 434.488281 C 389.695312 435.0625 389.746094 435.636719 389.839844 436.203125 C 389.933594 436.773438 390.070312 437.328125 390.257812 437.875 C 390.441406 438.421875 390.667969 438.949219 390.9375 439.457031 C 391.207031 439.96875 391.515625 440.449219 391.863281 440.910156 C 392.210938 441.367188 392.59375 441.796875 393.011719 442.195312 C 393.429688 442.589844 393.875 442.953125 394.351562 443.277344 C 394.824219 443.601562 395.324219 443.886719 395.84375 444.132812 C 396.367188 444.375 396.90625 444.578125 397.460938 444.734375 C 397.378906 445.230469 397.273438 445.773438 397.152344 446.480469 L 397.011719 447.664062 C 396.949219 448.214844 396.875 448.785156 396.84375 449.285156 L 396.28125 455.03125 C 396.28125 455.507812 396.21875 455.988281 396.128906 456.832031 C 396.078125 457.902344 396.054688 459.023438 396.054688 460.359375 C 395.109375 460.78125 394.242188 461.328125 393.457031 462.003906 C 392.667969 462.675781 391.992188 463.445312 391.429688 464.3125 C 390.863281 465.179688 390.433594 466.109375 390.140625 467.105469 C 389.84375 468.097656 389.695312 469.109375 389.695312 470.144531 L 389.695312 505.84375 C 389.695312 506.546875 389.765625 507.242188 389.90625 507.933594 C 390.046875 508.621094 390.25 509.292969 390.519531 509.941406 C 390.792969 510.589844 391.121094 511.207031 391.515625 511.792969 C 391.90625 512.375 392.351562 512.917969 392.851562 513.414062 C 393.347656 513.910156 393.890625 514.355469 394.476562 514.746094 C 395.058594 515.136719 395.675781 515.464844 396.328125 515.734375 C 396.976562 516.003906 397.648438 516.207031 398.339844 516.34375 C 399.027344 516.480469 399.726562 516.550781 400.429688 516.550781 L 410.820312 516.550781 L 414.984375 523.113281 C 415.152344 523.40625 415.355469 523.675781 415.890625 524.421875 L 417.628906 526.742188 L 418.179688 527.496094 C 420.96875 531.175781 423.996094 534.652344 427.257812 537.921875 C 430.804688 541.507812 434.589844 544.816406 438.617188 547.851562 Z M 475.464844 696.199219 L 216.003906 696.199219 L 216.003906 569.398438 L 329 569.398438 L 329 581.941406 L 256.683594 581.941406 C 255.96875 581.941406 255.265625 582.011719 254.566406 582.152344 C 253.867188 582.289062 253.1875 582.496094 252.53125 582.769531 C 251.871094 583.039062 251.246094 583.375 250.65625 583.769531 C 250.0625 584.167969 249.515625 584.617188 249.011719 585.121094 C 248.507812 585.625 248.058594 586.171875 247.664062 586.761719 C 247.265625 587.355469 246.933594 587.980469 246.660156 588.636719 C 246.386719 589.296875 246.183594 589.976562 246.042969 590.671875 C 245.902344 591.371094 245.835938 592.078125 245.835938 592.789062 C 245.835938 593.503906 245.902344 594.207031 246.042969 594.90625 C 246.183594 595.605469 246.386719 596.28125 246.660156 596.941406 C 246.933594 597.597656 247.265625 598.222656 247.664062 598.816406 C 248.058594 599.410156 248.507812 599.957031 249.011719 600.460938 C 249.515625 600.964844 250.0625 601.414062 250.65625 601.808594 C 251.246094 602.203125 251.871094 602.539062 252.53125 602.8125 C 253.1875 603.082031 253.867188 603.289062 254.566406 603.429688 C 255.265625 603.566406 255.96875 603.636719 256.683594 603.636719 L 329 603.636719 L 329 632.347656 L 255.5625 632.347656 C 254.851562 632.347656 254.144531 632.417969 253.445312 632.558594 C 252.746094 632.695312 252.070312 632.902344 251.410156 633.175781 C 250.753906 633.445312 250.128906 633.78125 249.535156 634.175781 C 248.945312 634.574219 248.394531 635.023438 247.890625 635.527344 C 247.386719 636.03125 246.9375 636.578125 246.542969 637.167969 C 246.148438 637.761719 245.8125 638.386719 245.539062 639.046875 C 245.269531 639.703125 245.0625 640.382812 244.921875 641.078125 C 244.785156 641.777344 244.714844 642.484375 244.714844 643.195312 C 244.714844 643.910156 244.785156 644.613281 244.921875 645.3125 C 245.0625 646.011719 245.269531 646.6875 245.539062 647.347656 C 245.8125 648.003906 246.148438 648.628906 246.542969 649.222656 C 246.9375 649.816406 247.386719 650.363281 247.890625 650.867188 C 248.394531 651.371094 248.945312 651.820312 249.535156 652.214844 C 250.128906 652.609375 250.753906 652.945312 251.410156 653.21875 C 252.070312 653.488281 252.746094 653.695312 253.445312 653.835938 C 254.144531 653.972656 254.851562 654.042969 255.5625 654.042969 L 329 654.042969 L 329 654.675781 C 328.960938 656.046875 329.195312 657.371094 329.699219 658.644531 C 330.203125 659.921875 330.9375 661.046875 331.90625 662.019531 C 332.011719 662.140625 332.132812 662.253906 332.238281 662.375 C 332.34375 662.496094 332.382812 662.519531 332.464844 662.585938 C 333.441406 663.5625 334.570312 664.308594 335.851562 664.816406 C 337.136719 665.328125 338.46875 665.5625 339.847656 665.523438 L 475.449219 665.523438 Z M 673.421875 643.828125 L 350.695312 643.828125 L 350.695312 569.398438 L 463.71875 569.398438 C 466.96875 569.402344 470.164062 568.988281 473.308594 568.160156 C 475.0625 567.746094 476.777344 567.203125 478.453125 566.535156 C 480.648438 567.050781 482.855469 567.496094 485.078125 567.871094 C 487.304688 568.246094 489.535156 568.550781 491.777344 568.78125 C 494.023438 569.011719 496.269531 569.171875 498.523438 569.261719 C 500.777344 569.351562 503.03125 569.367188 505.285156 569.308594 C 507.539062 569.253906 509.789062 569.125 512.035156 568.925781 C 514.28125 568.726562 516.519531 568.457031 518.746094 568.113281 C 520.976562 567.769531 523.191406 567.359375 525.394531 566.875 C 527.59375 566.390625 529.78125 565.835938 531.945312 565.210938 C 534.113281 564.585938 536.257812 563.894531 538.382812 563.132812 C 540.503906 562.375 542.601562 561.546875 544.667969 560.652344 C 546.738281 559.757812 548.777344 558.796875 550.785156 557.769531 C 552.796875 556.746094 554.769531 555.65625 556.707031 554.507812 C 558.644531 553.355469 560.546875 552.144531 562.40625 550.871094 C 564.269531 549.597656 566.089844 548.265625 567.863281 546.878906 C 569.640625 545.488281 571.371094 544.042969 573.054688 542.542969 C 574.738281 541.042969 576.371094 539.492188 577.957031 537.890625 C 584.457031 531.390625 589.992188 524.160156 594.566406 516.1875 L 634.082031 516.1875 C 634.816406 516.207031 635.546875 516.152344 636.273438 516.027344 C 636.996094 515.902344 637.699219 515.703125 638.382812 515.4375 C 639.070312 515.167969 639.71875 514.835938 640.339844 514.4375 C 640.957031 514.042969 641.527344 513.585938 642.054688 513.074219 C 642.582031 512.5625 643.054688 512 643.46875 511.394531 C 643.882812 510.789062 644.230469 510.144531 644.519531 509.46875 C 644.804688 508.792969 645.019531 508.09375 645.164062 507.371094 C 645.3125 506.652344 645.382812 505.925781 645.382812 505.1875 C 645.382812 504.453125 645.3125 503.726562 645.164062 503.007812 C 645.019531 502.285156 644.804688 501.585938 644.519531 500.910156 C 644.230469 500.234375 643.882812 499.589844 643.46875 498.984375 C 643.054688 498.378906 642.582031 497.816406 642.054688 497.304688 C 641.527344 496.792969 640.957031 496.335938 640.339844 495.9375 C 639.71875 495.542969 639.070312 495.210938 638.382812 494.941406 C 637.699219 494.675781 636.996094 494.476562 636.273438 494.351562 C 635.546875 494.226562 634.816406 494.171875 634.082031 494.191406 L 604.332031 494.191406 C 607.585938 483.734375 609.210938 473.027344 609.199219 462.074219 C 609.230469 451.648438 607.75 441.445312 604.753906 431.460938 C 603.871094 428.335938 602.824219 425.265625 601.625 422.246094 C 598.136719 413.597656 593.617188 405.53125 588.058594 398.042969 L 634.109375 398.042969 C 634.832031 398.042969 635.546875 397.972656 636.253906 397.832031 C 636.960938 397.691406 637.652344 397.484375 638.316406 397.207031 C 638.984375 396.929688 639.621094 396.589844 640.21875 396.191406 C 640.820312 395.789062 641.375 395.332031 641.886719 394.824219 C 642.398438 394.3125 642.855469 393.753906 643.253906 393.15625 C 643.65625 392.554688 643.996094 391.921875 644.273438 391.253906 C 644.546875 390.585938 644.757812 389.898438 644.898438 389.191406 C 645.039062 388.480469 645.109375 387.765625 645.109375 387.042969 C 645.109375 386.320312 645.039062 385.605469 644.898438 384.898438 C 644.757812 384.1875 644.546875 383.5 644.273438 382.832031 C 643.996094 382.164062 643.65625 381.53125 643.253906 380.929688 C 642.855469 380.332031 642.398438 379.773438 641.886719 379.265625 C 641.375 378.753906 640.820312 378.296875 640.21875 377.894531 C 639.621094 377.496094 638.984375 377.15625 638.316406 376.878906 C 637.652344 376.601562 636.960938 376.394531 636.253906 376.253906 C 635.546875 376.113281 634.832031 376.042969 634.109375 376.042969 L 566.265625 376.042969 C 557.242188 369.25 547.386719 364.03125 536.695312 360.390625 L 594.183594 360.390625 C 594.90625 360.390625 595.621094 360.320312 596.328125 360.179688 C 597.039062 360.039062 597.726562 359.832031 598.394531 359.554688 C 599.0625 359.277344 599.695312 358.9375 600.296875 358.539062 C 600.894531 358.136719 601.453125 357.679688 601.960938 357.167969 C 602.472656 356.660156 602.929688 356.101562 603.332031 355.503906 C 603.730469 354.902344 604.070312 354.269531 604.347656 353.601562 C 604.625 352.933594 604.832031 352.246094 604.972656 351.535156 C 605.113281 350.828125 605.183594 350.113281 605.183594 349.390625 C 605.183594 348.667969 605.113281 347.953125 604.972656 347.246094 C 604.832031 346.535156 604.625 345.847656 604.347656 345.179688 C 604.070312 344.511719 603.730469 343.878906 603.332031 343.277344 C 602.929688 342.679688 602.472656 342.121094 601.960938 341.613281 C 601.453125 341.101562 600.894531 340.644531 600.296875 340.242188 C 599.695312 339.84375 599.0625 339.503906 598.394531 339.226562 C 597.726562 338.949219 597.039062 338.742188 596.328125 338.601562 C 595.621094 338.460938 594.90625 338.390625 594.183594 338.390625 L 504.589844 338.390625 L 504.589844 322.722656 L 594.183594 322.722656 C 594.90625 322.722656 595.621094 322.652344 596.328125 322.511719 C 597.039062 322.371094 597.726562 322.164062 598.394531 321.886719 C 599.0625 321.609375 599.695312 321.269531 600.296875 320.867188 C 600.894531 320.46875 601.453125 320.011719 601.960938 319.5 C 602.472656 318.988281 602.929688 318.433594 603.332031 317.832031 C 603.730469 317.234375 604.070312 316.597656 604.347656 315.933594 C 604.625 315.265625 604.832031 314.578125 604.972656 313.867188 C 605.113281 313.160156 605.183594 312.445312 605.183594 311.722656 C 605.183594 311 605.113281 310.285156 604.972656 309.574219 C 604.832031 308.867188 604.625 308.179688 604.347656 307.511719 C 604.070312 306.84375 603.730469 306.210938 603.332031 305.609375 C 602.929688 305.007812 602.472656 304.453125 601.960938 303.941406 C 601.453125 303.433594 600.894531 302.976562 600.296875 302.574219 C 599.695312 302.171875 599.0625 301.835938 598.394531 301.558594 C 597.726562 301.28125 597.039062 301.074219 596.328125 300.933594 C 595.621094 300.792969 594.90625 300.71875 594.183594 300.71875 L 504.589844 300.71875 L 504.589844 217.59375 L 673.34375 217.59375 L 673.34375 636.160156 L 673.449219 636.160156 Z M 217.828125 245.25 L 181.253906 245.25 C 180.546875 245.253906 179.847656 245.328125 179.15625 245.46875 C 178.464844 245.609375 177.792969 245.816406 177.140625 246.089844 C 176.488281 246.363281 175.871094 246.699219 175.285156 247.09375 C 174.699219 247.488281 174.15625 247.9375 173.660156 248.4375 C 173.160156 248.941406 172.71875 249.484375 172.328125 250.074219 C 171.9375 250.664062 171.605469 251.285156 171.335938 251.9375 C 171.070312 252.589844 170.867188 253.265625 170.730469 253.957031 C 170.59375 254.652344 170.527344 255.351562 170.53125 256.058594 L 170.53125 291.699219 C 170.527344 292.40625 170.59375 293.105469 170.730469 293.800781 C 170.867188 294.492188 171.070312 295.164062 171.335938 295.820312 C 171.605469 296.472656 171.9375 297.09375 172.328125 297.683594 C 172.71875 298.273438 173.160156 298.816406 173.660156 299.320312 C 174.15625 299.820312 174.699219 300.269531 175.285156 300.664062 C 175.871094 301.058594 176.488281 301.394531 177.140625 301.667969 C 177.792969 301.941406 178.464844 302.148438 179.15625 302.289062 C 179.847656 302.429688 180.546875 302.5 181.253906 302.503906 L 217.828125 302.503906 C 218.539062 302.503906 219.238281 302.433594 219.933594 302.296875 C 220.632812 302.15625 221.304688 301.949219 221.960938 301.679688 C 222.617188 301.40625 223.238281 301.074219 223.828125 300.679688 C 224.417969 300.285156 224.964844 299.835938 225.464844 299.335938 C 225.964844 298.835938 226.414062 298.289062 226.808594 297.699219 C 227.203125 297.109375 227.535156 296.488281 227.808594 295.832031 C 228.078125 295.175781 228.285156 294.5 228.425781 293.804688 C 228.5625 293.109375 228.632812 292.40625 228.636719 291.699219 L 228.636719 256.058594 C 228.632812 255.347656 228.5625 254.648438 228.425781 253.953125 C 228.285156 253.253906 228.078125 252.582031 227.808594 251.925781 C 227.535156 251.269531 227.203125 250.648438 226.808594 250.058594 C 226.414062 249.46875 225.964844 248.921875 225.464844 248.421875 C 224.964844 247.921875 224.417969 247.472656 223.828125 247.078125 C 223.238281 246.683594 222.617188 246.351562 221.960938 246.078125 C 221.304688 245.808594 220.632812 245.601562 219.933594 245.460938 C 219.238281 245.324219 218.539062 245.253906 217.828125 245.25 Z M 207.015625 280.949219 L 192.0625 280.949219 L 192.0625 266.863281 L 207.039062 266.863281 Z M 363.9375 387.960938 L 327.371094 387.960938 C 326.664062 387.964844 325.964844 388.035156 325.269531 388.175781 C 324.578125 388.316406 323.90625 388.523438 323.253906 388.796875 C 322.601562 389.070312 321.980469 389.402344 321.394531 389.800781 C 320.808594 390.195312 320.265625 390.640625 319.769531 391.144531 C 319.269531 391.644531 318.828125 392.191406 318.433594 392.78125 C 318.042969 393.367188 317.714844 393.992188 317.445312 394.644531 C 317.175781 395.296875 316.976562 395.972656 316.839844 396.664062 C 316.703125 397.359375 316.636719 398.058594 316.636719 398.765625 L 316.636719 434.40625 C 316.636719 435.113281 316.703125 435.8125 316.839844 436.507812 C 316.976562 437.199219 317.179688 437.875 317.449219 438.527344 C 317.71875 439.179688 318.046875 439.800781 318.4375 440.390625 C 318.828125 440.980469 319.273438 441.523438 319.773438 442.023438 C 320.269531 442.527344 320.8125 442.972656 321.398438 443.367188 C 321.984375 443.761719 322.605469 444.097656 323.253906 444.371094 C 323.90625 444.640625 324.578125 444.847656 325.273438 444.988281 C 325.964844 445.128906 326.664062 445.203125 327.371094 445.207031 L 363.9375 445.207031 C 364.640625 445.199219 365.339844 445.125 366.03125 444.984375 C 366.722656 444.84375 367.394531 444.632812 368.046875 444.359375 C 368.695312 444.085938 369.316406 443.753906 369.898438 443.359375 C 370.484375 442.964844 371.027344 442.515625 371.523438 442.015625 C 372.023438 441.515625 372.46875 440.96875 372.859375 440.382812 C 373.25 439.792969 373.578125 439.175781 373.847656 438.523438 C 374.121094 437.871094 374.324219 437.195312 374.460938 436.503906 C 374.597656 435.8125 374.667969 435.113281 374.667969 434.40625 L 374.667969 398.765625 C 374.667969 398.058594 374.597656 397.359375 374.460938 396.667969 C 374.324219 395.976562 374.121094 395.304688 373.851562 394.648438 C 373.582031 393.996094 373.25 393.378906 372.859375 392.789062 C 372.46875 392.199219 372.023438 391.65625 371.527344 391.15625 C 371.027344 390.65625 370.488281 390.207031 369.902344 389.8125 C 369.316406 389.417969 368.699219 389.082031 368.046875 388.808594 C 367.394531 388.535156 366.722656 388.324219 366.03125 388.183594 C 365.339844 388.039062 364.640625 387.964844 363.9375 387.960938 Z M 353.128906 423.65625 L 338.175781 423.65625 L 338.175781 409.460938 L 353.128906 409.460938 Z M 290.878906 387.960938 L 254.3125 387.960938 C 253.605469 387.960938 252.902344 388.03125 252.207031 388.171875 C 251.515625 388.308594 250.839844 388.515625 250.1875 388.789062 C 249.53125 389.058594 248.910156 389.394531 248.324219 389.789062 C 247.734375 390.183594 247.191406 390.628906 246.691406 391.132812 C 246.191406 391.632812 245.746094 392.179688 245.351562 392.769531 C 244.960938 393.359375 244.628906 393.980469 244.359375 394.636719 C 244.089844 395.292969 243.886719 395.964844 243.75 396.660156 C 243.613281 397.355469 243.546875 398.058594 243.546875 398.765625 L 243.546875 434.40625 C 243.546875 435.113281 243.613281 435.8125 243.75 436.507812 C 243.886719 437.199219 244.089844 437.875 244.359375 438.527344 C 244.628906 439.179688 244.957031 439.800781 245.347656 440.390625 C 245.738281 440.980469 246.183594 441.523438 246.683594 442.023438 C 247.179688 442.527344 247.722656 442.972656 248.308594 443.367188 C 248.894531 443.761719 249.511719 444.097656 250.164062 444.371094 C 250.816406 444.640625 251.488281 444.847656 252.183594 444.988281 C 252.875 445.128906 253.574219 445.203125 254.28125 445.207031 L 290.84375 445.207031 C 291.550781 445.203125 292.25 445.128906 292.945312 444.988281 C 293.636719 444.847656 294.308594 444.640625 294.960938 444.371094 C 295.613281 444.097656 296.230469 443.761719 296.816406 443.367188 C 297.402344 442.972656 297.945312 442.527344 298.445312 442.023438 C 298.941406 441.523438 299.386719 440.980469 299.777344 440.390625 C 300.167969 439.800781 300.5 439.179688 300.769531 438.527344 C 301.035156 437.875 301.238281 437.199219 301.375 436.507812 C 301.511719 435.8125 301.582031 435.113281 301.578125 434.40625 L 301.578125 398.765625 C 301.582031 398.0625 301.515625 397.363281 301.378906 396.667969 C 301.242188 395.976562 301.039062 395.304688 300.773438 394.652344 C 300.503906 394 300.175781 393.378906 299.789062 392.789062 C 299.398438 392.203125 298.953125 391.65625 298.457031 391.15625 C 297.960938 390.652344 297.421875 390.207031 296.835938 389.808594 C 296.253906 389.414062 295.636719 389.082031 294.984375 388.804688 C 294.335938 388.53125 293.664062 388.324219 292.972656 388.179688 C 292.28125 388.039062 291.582031 387.964844 290.878906 387.960938 Z M 280.070312 423.65625 L 265.121094 423.65625 L 265.121094 409.460938 L 280.054688 409.460938 Z M 217.828125 387.960938 L 181.253906 387.960938 C 180.546875 387.964844 179.847656 388.035156 179.15625 388.175781 C 178.464844 388.316406 177.792969 388.523438 177.140625 388.796875 C 176.488281 389.070312 175.867188 389.40625 175.28125 389.800781 C 174.695312 390.195312 174.152344 390.644531 173.65625 391.144531 C 173.160156 391.644531 172.714844 392.191406 172.324219 392.78125 C 171.933594 393.371094 171.605469 393.992188 171.335938 394.644531 C 171.066406 395.296875 170.867188 395.972656 170.730469 396.667969 C 170.59375 397.359375 170.527344 398.058594 170.53125 398.765625 L 170.53125 434.40625 C 170.527344 435.113281 170.59375 435.8125 170.730469 436.507812 C 170.867188 437.199219 171.070312 437.871094 171.339844 438.527344 C 171.605469 439.179688 171.9375 439.800781 172.328125 440.390625 C 172.71875 440.976562 173.160156 441.523438 173.660156 442.023438 C 174.15625 442.523438 174.699219 442.972656 175.285156 443.367188 C 175.871094 443.761719 176.488281 444.097656 177.140625 444.371094 C 177.792969 444.640625 178.464844 444.847656 179.15625 444.988281 C 179.847656 445.128906 180.546875 445.203125 181.253906 445.207031 L 217.828125 445.207031 C 218.539062 445.203125 219.238281 445.136719 219.933594 444.996094 C 220.628906 444.859375 221.304688 444.652344 221.960938 444.382812 C 222.617188 444.109375 223.238281 443.777344 223.828125 443.382812 C 224.417969 442.988281 224.964844 442.542969 225.464844 442.039062 C 225.964844 441.539062 226.414062 440.996094 226.808594 440.40625 C 227.203125 439.816406 227.535156 439.195312 227.808594 438.539062 C 228.078125 437.882812 228.285156 437.207031 228.425781 436.515625 C 228.5625 435.820312 228.632812 435.117188 228.636719 434.40625 L 228.636719 398.765625 C 228.632812 398.058594 228.566406 397.355469 228.425781 396.660156 C 228.289062 395.964844 228.082031 395.289062 227.808594 394.632812 C 227.539062 393.976562 227.207031 393.355469 226.8125 392.765625 C 226.417969 392.175781 225.96875 391.628906 225.46875 391.128906 C 224.964844 390.625 224.421875 390.179688 223.832031 389.785156 C 223.242188 389.390625 222.617188 389.054688 221.960938 388.785156 C 221.308594 388.511719 220.632812 388.308594 219.9375 388.167969 C 219.242188 388.03125 218.539062 387.960938 217.828125 387.960938 Z M 207.015625 423.65625 L 192.0625 423.65625 L 192.0625 409.460938 L 207.039062 409.460938 Z M 290.878906 316.566406 L 254.3125 316.566406 C 253.601562 316.566406 252.898438 316.636719 252.203125 316.777344 C 251.507812 316.917969 250.832031 317.125 250.179688 317.398438 C 249.523438 317.671875 248.902344 318.007812 248.3125 318.402344 C 247.722656 318.800781 247.179688 319.25 246.679688 319.753906 C 246.179688 320.257812 245.730469 320.804688 245.339844 321.398438 C 244.949219 321.988281 244.617188 322.613281 244.347656 323.269531 C 244.082031 323.929688 243.878906 324.605469 243.742188 325.300781 C 243.609375 326 243.542969 326.703125 243.546875 327.414062 L 243.546875 363.054688 C 243.546875 363.757812 243.613281 364.460938 243.75 365.152344 C 243.886719 365.847656 244.089844 366.519531 244.359375 367.171875 C 244.628906 367.828125 244.957031 368.449219 245.347656 369.035156 C 245.738281 369.625 246.183594 370.167969 246.683594 370.671875 C 247.179688 371.171875 247.722656 371.621094 248.308594 372.015625 C 248.894531 372.410156 249.511719 372.742188 250.164062 373.015625 C 250.816406 373.289062 251.488281 373.496094 252.183594 373.636719 C 252.875 373.777344 253.574219 373.847656 254.28125 373.851562 L 290.84375 373.851562 C 291.550781 373.847656 292.25 373.777344 292.945312 373.636719 C 293.636719 373.496094 294.308594 373.289062 294.960938 373.015625 C 295.613281 372.742188 296.230469 372.410156 296.816406 372.015625 C 297.402344 371.621094 297.945312 371.171875 298.445312 370.671875 C 298.941406 370.167969 299.386719 369.625 299.777344 369.035156 C 300.167969 368.449219 300.5 367.828125 300.769531 367.171875 C 301.035156 366.519531 301.238281 365.847656 301.375 365.152344 C 301.511719 364.460938 301.582031 363.757812 301.578125 363.054688 L 301.578125 327.414062 C 301.582031 326.707031 301.511719 326.007812 301.375 325.316406 C 301.242188 324.625 301.039062 323.953125 300.769531 323.296875 C 300.503906 322.644531 300.175781 322.027344 299.785156 321.4375 C 299.394531 320.847656 298.953125 320.304688 298.457031 319.804688 C 297.960938 319.300781 297.417969 318.855469 296.835938 318.457031 C 296.25 318.0625 295.632812 317.730469 294.984375 317.453125 C 294.332031 317.179688 293.664062 316.972656 292.972656 316.828125 C 292.28125 316.6875 291.582031 316.613281 290.878906 316.605469 Z M 280.070312 352.261719 L 265.121094 352.261719 L 265.121094 338.21875 L 280.054688 338.21875 Z M 363.9375 459.304688 L 327.371094 459.304688 C 326.664062 459.308594 325.964844 459.382812 325.269531 459.523438 C 324.578125 459.664062 323.90625 459.871094 323.253906 460.144531 C 322.601562 460.417969 321.980469 460.753906 321.394531 461.148438 C 320.808594 461.542969 320.265625 461.992188 319.769531 462.496094 C 319.269531 462.996094 318.824219 463.542969 318.433594 464.132812 C 318.042969 464.722656 317.714844 465.34375 317.445312 465.996094 C 317.175781 466.652344 316.976562 467.324219 316.839844 468.019531 C 316.703125 468.714844 316.636719 469.414062 316.636719 470.121094 L 316.636719 505.753906 C 316.636719 506.460938 316.703125 507.160156 316.839844 507.851562 C 316.976562 508.546875 317.179688 509.21875 317.449219 509.871094 C 317.71875 510.527344 318.046875 511.148438 318.4375 511.734375 C 318.828125 512.324219 319.273438 512.871094 319.773438 513.371094 C 320.269531 513.871094 320.8125 514.320312 321.398438 514.714844 C 321.984375 515.109375 322.605469 515.441406 323.253906 515.714844 C 323.90625 515.988281 324.578125 516.195312 325.273438 516.335938 C 325.964844 516.476562 326.664062 516.546875 327.371094 516.550781 L 363.9375 516.550781 C 364.640625 516.546875 365.339844 516.472656 366.035156 516.332031 C 366.726562 516.1875 367.398438 515.980469 368.046875 515.707031 C 368.699219 515.433594 369.316406 515.097656 369.902344 514.703125 C 370.488281 514.308594 371.03125 513.859375 371.527344 513.359375 C 372.027344 512.855469 372.46875 512.3125 372.859375 511.722656 C 373.253906 511.136719 373.582031 510.515625 373.851562 509.863281 C 374.121094 509.210938 374.324219 508.535156 374.460938 507.84375 C 374.601562 507.152344 374.667969 506.453125 374.667969 505.746094 L 374.667969 470.121094 C 374.667969 469.414062 374.597656 468.714844 374.460938 468.023438 C 374.324219 467.328125 374.121094 466.65625 373.851562 466.003906 C 373.582031 465.351562 373.25 464.730469 372.859375 464.140625 C 372.46875 463.554688 372.023438 463.007812 371.527344 462.507812 C 371.027344 462.003906 370.488281 461.558594 369.902344 461.160156 C 369.316406 460.765625 368.699219 460.429688 368.046875 460.15625 C 367.394531 459.882812 366.726562 459.671875 366.03125 459.53125 C 365.339844 459.386719 364.640625 459.3125 363.9375 459.304688 Z M 353.128906 495.003906 L 338.175781 495.003906 L 338.175781 480.855469 L 353.128906 480.855469 Z M 290.878906 459.304688 L 254.3125 459.304688 C 253.605469 459.308594 252.902344 459.378906 252.207031 459.519531 C 251.511719 459.65625 250.839844 459.863281 250.183594 460.136719 C 249.53125 460.410156 248.910156 460.742188 248.320312 461.136719 C 247.734375 461.53125 247.191406 461.980469 246.691406 462.484375 C 246.191406 462.984375 245.742188 463.53125 245.351562 464.121094 C 244.960938 464.710938 244.628906 465.335938 244.359375 465.988281 C 244.089844 466.644531 243.886719 467.320312 243.75 468.015625 C 243.613281 468.710938 243.546875 469.414062 243.546875 470.121094 L 243.546875 505.753906 C 243.546875 506.460938 243.613281 507.164062 243.75 507.855469 C 243.886719 508.550781 244.089844 509.226562 244.359375 509.878906 C 244.632812 510.535156 244.960938 511.15625 245.355469 511.746094 C 245.746094 512.335938 246.195312 512.878906 246.691406 513.382812 C 247.191406 513.882812 247.738281 514.332031 248.324219 514.726562 C 248.914062 515.121094 249.535156 515.453125 250.1875 515.726562 C 250.839844 515.996094 251.515625 516.203125 252.210938 516.339844 C 252.902344 516.480469 253.605469 516.550781 254.3125 516.550781 L 290.878906 516.550781 C 291.585938 516.546875 292.285156 516.476562 292.976562 516.335938 C 293.671875 516.195312 294.34375 515.988281 294.996094 515.714844 C 295.648438 515.441406 296.265625 515.105469 296.851562 514.710938 C 297.4375 514.316406 297.980469 513.871094 298.480469 513.367188 C 298.976562 512.867188 299.421875 512.320312 299.8125 511.730469 C 300.203125 511.144531 300.535156 510.519531 300.800781 509.867188 C 301.070312 509.214844 301.273438 508.539062 301.410156 507.847656 C 301.546875 507.152344 301.613281 506.453125 301.613281 505.746094 L 301.613281 470.121094 C 301.613281 469.414062 301.546875 468.714844 301.410156 468.019531 C 301.273438 467.324219 301.070312 466.652344 300.804688 465.996094 C 300.535156 465.34375 300.203125 464.722656 299.8125 464.132812 C 299.421875 463.542969 298.976562 462.996094 298.480469 462.496094 C 297.980469 461.992188 297.441406 461.542969 296.851562 461.148438 C 296.265625 460.753906 295.648438 460.417969 294.996094 460.144531 C 294.34375 459.871094 293.671875 459.664062 292.976562 459.523438 C 292.285156 459.382812 291.585938 459.308594 290.878906 459.304688 Z M 280.070312 495.003906 L 265.121094 495.003906 L 265.121094 480.855469 L 280.054688 480.855469 Z M 363.9375 316.605469 L 327.371094 316.605469 C 326.664062 316.609375 325.964844 316.683594 325.273438 316.824219 C 324.578125 316.964844 323.90625 317.171875 323.253906 317.445312 C 322.601562 317.71875 321.984375 318.050781 321.398438 318.449219 C 320.8125 318.84375 320.269531 319.289062 319.773438 319.792969 C 319.273438 320.292969 318.828125 320.839844 318.4375 321.425781 C 318.046875 322.015625 317.71875 322.636719 317.449219 323.292969 C 317.179688 323.945312 316.976562 324.617188 316.839844 325.3125 C 316.703125 326.003906 316.636719 326.707031 316.636719 327.414062 L 316.636719 363.054688 C 316.636719 363.757812 316.703125 364.460938 316.839844 365.152344 C 316.976562 365.847656 317.179688 366.519531 317.449219 367.171875 C 317.71875 367.828125 318.046875 368.449219 318.4375 369.035156 C 318.828125 369.625 319.273438 370.167969 319.773438 370.671875 C 320.269531 371.171875 320.8125 371.621094 321.398438 372.015625 C 321.984375 372.410156 322.605469 372.742188 323.253906 373.015625 C 323.90625 373.289062 324.578125 373.496094 325.273438 373.636719 C 325.964844 373.777344 326.664062 373.847656 327.371094 373.851562 L 363.9375 373.851562 C 364.640625 373.847656 365.339844 373.773438 366.03125 373.628906 C 366.722656 373.488281 367.394531 373.28125 368.046875 373.007812 C 368.695312 372.734375 369.316406 372.398438 369.898438 372.003906 C 370.484375 371.609375 371.027344 371.160156 371.523438 370.660156 C 372.023438 370.160156 372.46875 369.617188 372.859375 369.027344 C 373.25 368.441406 373.578125 367.820312 373.847656 367.167969 C 374.121094 366.515625 374.324219 365.84375 374.460938 365.152344 C 374.597656 364.457031 374.667969 363.757812 374.667969 363.054688 L 374.667969 327.414062 C 374.671875 326.707031 374.601562 326.003906 374.464844 325.3125 C 374.328125 324.617188 374.128906 323.945312 373.859375 323.292969 C 373.589844 322.636719 373.257812 322.015625 372.867188 321.425781 C 372.476562 320.839844 372.03125 320.292969 371.535156 319.792969 C 371.035156 319.289062 370.496094 318.84375 369.910156 318.449219 C 369.324219 318.050781 368.703125 317.71875 368.050781 317.445312 C 367.398438 317.171875 366.726562 316.964844 366.035156 316.824219 C 365.34375 316.683594 364.644531 316.609375 363.9375 316.605469 Z M 353.128906 352.304688 L 338.175781 352.304688 L 338.175781 338.21875 L 353.128906 338.21875 Z M 217.828125 316.605469 L 181.253906 316.605469 C 180.546875 316.609375 179.847656 316.683594 179.15625 316.824219 C 178.464844 316.964844 177.792969 317.171875 177.140625 317.445312 C 176.488281 317.71875 175.871094 318.054688 175.285156 318.449219 C 174.699219 318.84375 174.15625 319.292969 173.660156 319.792969 C 173.160156 320.292969 172.71875 320.839844 172.328125 321.429688 C 171.9375 322.015625 171.605469 322.636719 171.335938 323.292969 C 171.070312 323.945312 170.867188 324.617188 170.730469 325.3125 C 170.59375 326.007812 170.527344 326.707031 170.53125 327.414062 L 170.53125 363.054688 C 170.527344 363.757812 170.59375 364.460938 170.730469 365.152344 C 170.867188 365.84375 171.070312 366.519531 171.339844 367.171875 C 171.605469 367.824219 171.9375 368.445312 172.328125 369.035156 C 172.71875 369.625 173.160156 370.167969 173.660156 370.671875 C 174.15625 371.171875 174.699219 371.621094 175.285156 372.015625 C 175.871094 372.410156 176.488281 372.742188 177.140625 373.015625 C 177.792969 373.289062 178.464844 373.496094 179.15625 373.636719 C 179.847656 373.777344 180.546875 373.847656 181.253906 373.851562 L 217.828125 373.851562 C 218.539062 373.851562 219.238281 373.78125 219.933594 373.644531 C 220.628906 373.503906 221.304688 373.300781 221.960938 373.027344 C 222.617188 372.757812 223.238281 372.421875 223.828125 372.03125 C 224.417969 371.636719 224.964844 371.1875 225.464844 370.6875 C 225.964844 370.1875 226.414062 369.640625 226.808594 369.050781 C 227.203125 368.460938 227.535156 367.839844 227.808594 367.183594 C 228.078125 366.53125 228.285156 365.855469 228.425781 365.160156 C 228.5625 364.464844 228.632812 363.761719 228.636719 363.054688 L 228.636719 327.414062 C 228.632812 326.703125 228.5625 326 228.425781 325.304688 C 228.285156 324.609375 228.078125 323.933594 227.808594 323.28125 C 227.535156 322.625 227.203125 322.003906 226.808594 321.414062 C 226.414062 320.824219 225.964844 320.277344 225.464844 319.777344 C 224.964844 319.273438 224.417969 318.828125 223.828125 318.433594 C 223.238281 318.039062 222.617188 317.703125 221.960938 317.433594 C 221.304688 317.160156 220.632812 316.957031 219.933594 316.816406 C 219.238281 316.675781 218.539062 316.605469 217.828125 316.605469 Z M 207.015625 352.304688 L 192.0625 352.304688 L 192.0625 338.21875 L 207.039062 338.21875 Z M 363.9375 245.210938 L 327.371094 245.210938 C 326.664062 245.214844 325.964844 245.289062 325.273438 245.429688 C 324.578125 245.570312 323.90625 245.777344 323.253906 246.050781 C 322.601562 246.324219 321.984375 246.65625 321.398438 247.054688 C 320.8125 247.449219 320.269531 247.894531 319.773438 248.398438 C 319.273438 248.898438 318.828125 249.445312 318.4375 250.03125 C 318.046875 250.621094 317.71875 251.242188 317.449219 251.898438 C 317.179688 252.550781 316.976562 253.222656 316.839844 253.917969 C 316.703125 254.609375 316.636719 255.3125 316.636719 256.019531 L 316.636719 291.902344 C 316.640625 292.601562 316.714844 293.296875 316.855469 293.980469 C 317 294.667969 317.207031 295.332031 317.476562 295.976562 C 317.75 296.621094 318.082031 297.234375 318.476562 297.8125 C 318.867188 298.394531 319.3125 298.929688 319.8125 299.421875 C 320.308594 299.914062 320.851562 300.351562 321.4375 300.738281 C 322.019531 301.125 322.636719 301.449219 323.285156 301.714844 C 323.933594 301.976562 324.601562 302.175781 325.289062 302.308594 C 325.976562 302.445312 326.671875 302.507812 327.371094 302.503906 L 363.9375 302.503906 C 364.644531 302.5 365.34375 302.429688 366.035156 302.289062 C 366.726562 302.148438 367.398438 301.941406 368.050781 301.667969 C 368.703125 301.394531 369.324219 301.058594 369.910156 300.664062 C 370.496094 300.269531 371.035156 299.820312 371.535156 299.320312 C 372.03125 298.816406 372.476562 298.273438 372.867188 297.683594 C 373.257812 297.09375 373.589844 296.472656 373.859375 295.820312 C 374.128906 295.167969 374.328125 294.492188 374.464844 293.800781 C 374.601562 293.105469 374.671875 292.40625 374.667969 291.699219 L 374.667969 256.058594 C 374.691406 254.757812 374.472656 253.5 374.011719 252.28125 C 373.546875 251.066406 372.875 249.980469 371.992188 249.023438 C 371.003906 247.820312 369.800781 246.890625 368.390625 246.226562 C 366.980469 245.566406 365.496094 245.242188 363.9375 245.25 Z M 353.128906 280.910156 L 338.175781 280.910156 L 338.175781 266.863281 L 353.128906 266.863281 Z M 290.878906 245.210938 L 254.3125 245.210938 C 253.601562 245.210938 252.898438 245.285156 252.203125 245.425781 C 251.507812 245.5625 250.832031 245.769531 250.179688 246.046875 C 249.523438 246.320312 248.902344 246.652344 248.3125 247.050781 C 247.722656 247.445312 247.179688 247.898438 246.679688 248.398438 C 246.179688 248.902344 245.730469 249.453125 245.339844 250.042969 C 244.949219 250.636719 244.617188 251.261719 244.347656 251.917969 C 244.082031 252.574219 243.878906 253.25 243.742188 253.949219 C 243.609375 254.644531 243.542969 255.347656 243.546875 256.058594 L 243.546875 291.699219 C 243.546875 292.40625 243.613281 293.105469 243.75 293.800781 C 243.886719 294.492188 244.089844 295.167969 244.359375 295.820312 C 244.625 296.472656 244.957031 297.09375 245.347656 297.683594 C 245.738281 298.273438 246.183594 298.816406 246.679688 299.320312 C 247.179688 299.820312 247.722656 300.269531 248.308594 300.664062 C 248.894531 301.058594 249.511719 301.394531 250.164062 301.667969 C 250.816406 301.941406 251.488281 302.148438 252.179688 302.289062 C 252.875 302.429688 253.574219 302.5 254.28125 302.503906 L 290.84375 302.503906 C 291.554688 302.511719 292.257812 302.445312 292.953125 302.308594 C 293.648438 302.175781 294.324219 301.972656 294.980469 301.703125 C 295.636719 301.429688 296.261719 301.097656 296.847656 300.703125 C 297.4375 300.308594 297.984375 299.859375 298.484375 299.359375 C 298.984375 298.855469 299.429688 298.308594 299.820312 297.714844 C 300.210938 297.121094 300.539062 296.496094 300.804688 295.839844 C 301.070312 295.183594 301.265625 294.503906 301.398438 293.808594 C 301.527344 293.109375 301.589844 292.40625 301.578125 291.699219 L 301.578125 256.058594 C 301.582031 255.351562 301.511719 254.652344 301.375 253.960938 C 301.242188 253.269531 301.039062 252.597656 300.769531 251.945312 C 300.503906 251.292969 300.175781 250.671875 299.785156 250.082031 C 299.394531 249.496094 298.953125 248.949219 298.457031 248.449219 C 297.960938 247.949219 297.417969 247.5 296.835938 247.105469 C 296.25 246.710938 295.632812 246.375 294.984375 246.101562 C 294.332031 245.824219 293.664062 245.617188 292.972656 245.476562 C 292.28125 245.332031 291.582031 245.257812 290.878906 245.25 Z M 280.070312 280.910156 L 265.121094 280.910156 L 265.121094 266.863281 L 280.054688 266.863281 Z M 638.910156 607.507812 L 392.769531 607.507812 C 392.074219 607.480469 391.390625 607.386719 390.710938 607.226562 C 390.035156 607.070312 389.378906 606.847656 388.746094 606.5625 C 388.113281 606.28125 387.511719 605.9375 386.941406 605.535156 C 386.375 605.136719 385.847656 604.6875 385.367188 604.1875 C 384.882812 603.683594 384.453125 603.140625 384.078125 602.558594 C 383.699219 601.976562 383.378906 601.359375 383.121094 600.714844 C 382.859375 600.070312 382.664062 599.410156 382.53125 598.726562 C 382.398438 598.042969 382.335938 597.355469 382.335938 596.660156 C 382.335938 595.964844 382.398438 595.277344 382.53125 594.59375 C 382.664062 593.910156 382.859375 593.246094 383.121094 592.601562 C 383.378906 591.957031 383.699219 591.34375 384.078125 590.761719 C 384.453125 590.175781 384.882812 589.632812 385.367188 589.132812 C 385.847656 588.632812 386.375 588.183594 386.941406 587.78125 C 387.511719 587.382812 388.113281 587.039062 388.746094 586.753906 C 389.378906 586.472656 390.035156 586.25 390.710938 586.089844 C 391.390625 585.933594 392.074219 585.839844 392.769531 585.8125 L 638.910156 585.8125 C 639.625 585.8125 640.332031 585.882812 641.03125 586.019531 C 641.734375 586.160156 642.414062 586.367188 643.074219 586.640625 C 643.734375 586.914062 644.359375 587.25 644.953125 587.644531 C 645.546875 588.042969 646.097656 588.492188 646.601562 588.996094 C 647.105469 589.503906 647.558594 590.050781 647.953125 590.644531 C 648.351562 591.238281 648.683594 591.867188 648.957031 592.527344 C 649.230469 593.1875 649.4375 593.867188 649.578125 594.566406 C 649.714844 595.265625 649.785156 595.972656 649.785156 596.6875 C 649.785156 597.402344 649.714844 598.109375 649.578125 598.808594 C 649.4375 599.511719 649.230469 600.191406 648.957031 600.851562 C 648.683594 601.507812 648.351562 602.136719 647.953125 602.730469 C 647.558594 603.324219 647.105469 603.875 646.601562 604.378906 C 646.097656 604.882812 645.546875 605.332031 644.953125 605.730469 C 644.359375 606.128906 643.734375 606.460938 643.074219 606.734375 C 642.414062 607.007812 641.734375 607.214844 641.03125 607.355469 C 640.332031 607.492188 639.625 607.5625 638.910156 607.5625 Z M 638.910156 607.507812 " fill-opacity="1" fill-rule="nonzero"/></g></svg>