<svg xmlns="http://www.w3.org/2000/svg" xmlns:xlink="http://www.w3.org/1999/xlink" width="500" zoomAndPan="magnify" viewBox="0 0 375 374.999991" height="500" preserveAspectRatio="xMidYMid meet" version="1.0"><defs><clipPath id="cb2e9d2e7f"><path d="M 165 14.273438 L 210 14.273438 L 210 59 L 165 59 Z M 165 14.273438 " clip-rule="nonzero"/></clipPath><clipPath id="0cf0c64dc1"><path d="M 299 248 L 338.078125 248 L 338.078125 305 L 299 305 Z M 299 248 " clip-rule="nonzero"/></clipPath><clipPath id="15fa74482a"><path d="M 36.578125 248 L 76 248 L 76 305 L 36.578125 305 Z M 36.578125 248 " clip-rule="nonzero"/></clipPath><clipPath id="b83997d7d5"><path d="M 47 316 L 328 316 L 328 360.773438 L 47 360.773438 Z M 47 316 " clip-rule="nonzero"/></clipPath><clipPath id="43730542b4"><path d="M 254 276 L 266 276 L 266 360.773438 L 254 360.773438 Z M 254 276 " clip-rule="nonzero"/></clipPath><clipPath id="983c76c0eb"><path d="M 109 276 L 121 276 L 121 360.773438 L 109 360.773438 Z M 109 276 " clip-rule="nonzero"/></clipPath></defs><g clip-path="url(#cb2e9d2e7f)"><path fill="#f6f0e7" d="M 204.261719 58.976562 C 201.183594 58.976562 198.671875 56.464844 198.671875 53.386719 L 198.671875 25.449219 L 176.320312 25.449219 L 176.320312 53.386719 C 176.320312 56.464844 173.8125 58.976562 170.734375 58.976562 C 167.65625 58.976562 165.144531 56.464844 165.144531 53.386719 L 165.144531 25.449219 C 165.144531 19.292969 170.167969 14.273438 176.320312 14.273438 L 198.671875 14.273438 C 204.828125 14.273438 209.847656 19.292969 209.847656 25.449219 L 209.847656 53.386719 C 209.847656 56.464844 207.339844 58.976562 204.261719 58.976562 " fill-opacity="1" fill-rule="nonzero"/></g><path fill="#f6f0e7" d="M 187.496094 86.914062 C 174.445312 86.914062 137.207031 82.8125 137.207031 64.5625 C 137.207031 34.421875 158.421875 22.21875 169.640625 19.972656 C 172.699219 19.359375 175.601562 21.324219 176.210938 24.359375 C 176.824219 27.371094 174.859375 30.296875 171.847656 30.929688 C 170.820312 31.148438 148.382812 36.277344 148.382812 64.5625 C 148.382812 68.777344 167.328125 75.738281 187.496094 75.738281 C 207.664062 75.738281 226.613281 68.777344 226.613281 64.5625 C 226.613281 36.234375 204.085938 31.125 203.125 30.929688 C 200.136719 30.273438 198.171875 27.328125 198.804688 24.316406 C 199.4375 21.324219 202.359375 19.382812 205.351562 19.972656 C 216.570312 22.21875 237.785156 34.421875 237.785156 64.5625 C 237.785156 82.8125 200.550781 86.914062 187.496094 86.914062 " fill-opacity="1" fill-rule="nonzero"/><path fill="#f6f0e7" d="M 187.496094 109.265625 C 165.253906 109.265625 131.621094 98.132812 131.621094 81.328125 C 131.621094 68.210938 138.101562 61.355469 138.84375 60.613281 C 141.027344 58.429688 144.5625 58.429688 146.746094 60.613281 C 148.90625 62.773438 148.929688 66.265625 146.8125 68.472656 C 146.527344 68.753906 142.792969 72.96875 142.792969 81.328125 C 142.792969 86.566406 164.402344 98.089844 187.496094 98.089844 C 210.589844 98.089844 232.199219 86.566406 232.199219 81.328125 C 232.199219 72.835938 228.335938 68.625 228.183594 68.449219 C 226.109375 66.222656 226.152344 62.707031 228.335938 60.589844 C 230.539062 58.472656 233.988281 58.453125 236.148438 60.613281 C 236.890625 61.355469 243.375 68.210938 243.375 81.328125 C 243.375 98.132812 209.738281 109.265625 187.496094 109.265625 " fill-opacity="1" fill-rule="nonzero"/><path fill="#f6f0e7" d="M 187.496094 159.554688 C 154.710938 159.554688 142.792969 132.816406 142.792969 114.855469 C 142.792969 111.777344 145.304688 109.265625 148.382812 109.265625 C 151.460938 109.265625 153.96875 111.777344 153.96875 114.855469 C 153.96875 126.445312 160.976562 148.378906 187.496094 148.378906 C 214.015625 148.378906 221.023438 126.445312 221.023438 114.855469 C 221.023438 111.777344 223.535156 109.265625 226.613281 109.265625 C 229.6875 109.265625 232.199219 111.777344 232.199219 114.855469 C 232.199219 132.816406 220.28125 159.554688 187.496094 159.554688 " fill-opacity="1" fill-rule="nonzero"/><path fill="#f6f0e7" d="M 198.628906 190.746094 L 209.847656 201.945312 L 229.886719 181.90625 L 221.417969 173.4375 C 216.65625 178.742188 208.320312 186.796875 198.628906 190.746094 Z M 209.847656 215.433594 C 208.40625 215.433594 206.988281 214.886719 205.898438 213.796875 L 183.546875 191.445312 C 181.953125 189.851562 181.472656 187.453125 182.347656 185.355469 C 183.195312 183.261719 185.226562 181.90625 187.496094 181.90625 C 198.914062 181.90625 212.335938 167.390625 216.550781 161.78125 C 217.53125 160.496094 219.015625 159.6875 220.628906 159.578125 C 222.246094 159.425781 223.839844 160.058594 224.972656 161.191406 L 241.738281 177.957031 C 243.921875 180.140625 243.921875 183.675781 241.738281 185.859375 L 213.796875 213.796875 C 212.707031 214.886719 211.289062 215.433594 209.847656 215.433594 " fill-opacity="1" fill-rule="nonzero"/><path fill="#f6f0e7" d="M 145.109375 181.90625 L 165.144531 201.945312 L 176.363281 190.746094 C 166.675781 186.796875 158.335938 178.742188 153.578125 173.4375 Z M 165.144531 215.433594 C 163.707031 215.433594 162.285156 214.886719 161.195312 213.796875 L 133.257812 185.859375 C 131.074219 183.675781 131.074219 180.140625 133.257812 177.957031 L 150.019531 161.191406 C 151.15625 160.058594 152.769531 159.445312 154.363281 159.578125 C 155.976562 159.6875 157.460938 160.496094 158.445312 161.78125 C 162.65625 167.390625 176.082031 181.90625 187.496094 181.90625 C 189.765625 181.90625 191.796875 183.261719 192.648438 185.355469 C 193.519531 187.453125 193.042969 189.851562 191.449219 191.445312 L 169.097656 213.796875 C 168.003906 214.886719 166.585938 215.433594 165.144531 215.433594 " fill-opacity="1" fill-rule="nonzero"/><path fill="#f6f0e7" d="M 288.078125 215.433594 C 286.023438 215.433594 284.058594 214.296875 283.078125 212.335938 L 282.578125 211.351562 C 279.933594 206.046875 275.417969 201.988281 269.851562 199.894531 L 235.824219 187.144531 C 232.941406 186.054688 231.480469 182.824219 232.546875 179.941406 C 233.640625 177.0625 236.871094 175.597656 239.75 176.667969 L 273.78125 189.4375 C 281.988281 192.515625 288.644531 198.519531 292.574219 206.355469 L 293.074219 207.359375 C 294.449219 210.109375 293.335938 213.46875 290.566406 214.84375 C 289.757812 215.238281 288.929688 215.433594 288.078125 215.433594 " fill-opacity="1" fill-rule="nonzero"/><path fill="#f6f0e7" d="M 86.917969 215.433594 C 86.085938 215.433594 85.238281 215.238281 84.429688 214.84375 C 81.679688 213.46875 80.542969 210.109375 81.917969 207.359375 L 82.398438 206.375 C 86.328125 198.519531 93.007812 192.515625 101.214844 189.4375 L 135.242188 176.667969 C 138.125 175.597656 141.355469 177.0625 142.445312 179.941406 C 143.515625 182.824219 142.054688 186.054688 139.171875 187.144531 L 105.144531 199.894531 C 99.578125 201.988281 95.058594 206.046875 92.394531 211.375 L 91.914062 212.335938 C 90.933594 214.296875 88.96875 215.433594 86.917969 215.433594 " fill-opacity="1" fill-rule="nonzero"/><path fill="#f6f0e7" d="M 193.085938 221.023438 L 181.910156 221.023438 C 180.03125 221.023438 178.285156 220.082031 177.261719 218.535156 L 168.332031 205.132812 C 166.609375 202.554688 167.308594 199.085938 169.859375 197.382812 C 172.4375 195.660156 175.90625 196.355469 177.609375 198.910156 L 184.898438 209.847656 L 190.09375 209.847656 L 197.382812 198.910156 C 199.085938 196.355469 202.535156 195.660156 205.132812 197.382812 C 207.6875 199.085938 208.386719 202.554688 206.660156 205.132812 L 197.734375 218.535156 C 196.707031 220.082031 194.960938 221.023438 193.085938 221.023438 " fill-opacity="1" fill-rule="nonzero"/><path fill="#f6f0e7" d="M 198.671875 237.785156 C 196.335938 237.785156 194.152344 236.300781 193.367188 233.964844 L 187.78125 217.203125 C 186.820312 214.277344 188.390625 211.113281 191.316406 210.128906 C 194.261719 209.148438 197.40625 210.742188 198.390625 213.664062 L 203.976562 230.429688 C 204.9375 233.355469 203.367188 236.519531 200.441406 237.5 C 199.851562 237.699219 199.261719 237.785156 198.671875 237.785156 " fill-opacity="1" fill-rule="nonzero"/><path fill="#f6f0e7" d="M 176.320312 237.785156 C 175.730469 237.785156 175.144531 237.699219 174.554688 237.5 C 171.628906 236.519531 170.058594 233.355469 171.015625 230.429688 L 176.605469 213.664062 C 177.585938 210.742188 180.730469 209.148438 183.675781 210.128906 C 186.601562 211.113281 188.171875 214.277344 187.214844 217.203125 L 181.625 233.964844 C 180.839844 236.300781 178.65625 237.785156 176.320312 237.785156 " fill-opacity="1" fill-rule="nonzero"/><path fill="#f6f0e7" d="M 260.136719 260.136719 L 114.855469 260.136719 C 113.917969 260.136719 113 259.894531 112.191406 259.460938 L 58.976562 230.429688 L 58.976562 232.195312 C 58.976562 235.273438 56.46875 237.785156 53.390625 237.785156 C 50.3125 237.785156 47.804688 235.273438 47.804688 232.195312 L 47.804688 230.429688 C 47.804688 226.5 49.898438 222.832031 53.257812 220.824219 C 56.644531 218.816406 60.878906 218.75 64.324219 220.628906 L 116.273438 248.960938 L 258.71875 248.960938 L 310.667969 220.628906 C 314.09375 218.75 318.351562 218.816406 321.710938 220.824219 C 325.09375 222.832031 327.191406 226.5 327.191406 230.429688 L 327.191406 232.195312 C 327.191406 235.273438 324.679688 237.785156 321.601562 237.785156 C 318.527344 237.785156 316.015625 235.273438 316.015625 232.195312 L 316.015625 230.429688 L 262.800781 259.460938 C 261.992188 259.894531 261.078125 260.136719 260.136719 260.136719 " fill-opacity="1" fill-rule="nonzero"/><g clip-path="url(#0cf0c64dc1)"><path fill="#f6f0e7" d="M 321.601562 260.136719 C 319.246094 260.136719 310.429688 262.996094 310.429688 276.898438 C 310.429688 290.804688 319.246094 293.664062 321.601562 293.664062 C 324.113281 293.664062 327.191406 290.585938 327.191406 288.074219 L 327.191406 265.722656 C 327.191406 263.214844 324.113281 260.136719 321.601562 260.136719 Z M 321.601562 304.839844 C 312.328125 304.839844 299.253906 296.171875 299.253906 276.898438 C 299.253906 257.625 312.328125 248.960938 321.601562 248.960938 C 330.226562 248.960938 338.367188 257.101562 338.367188 265.722656 L 338.367188 288.074219 C 338.367188 296.695312 330.226562 304.839844 321.601562 304.839844 " fill-opacity="1" fill-rule="nonzero"/></g><g clip-path="url(#15fa74482a)"><path fill="#f6f0e7" d="M 53.390625 260.136719 C 50.878906 260.136719 47.804688 263.214844 47.804688 265.722656 L 47.804688 288.074219 C 47.804688 290.585938 50.878906 293.664062 53.390625 293.664062 C 55.746094 293.664062 64.566406 290.804688 64.566406 276.898438 C 64.566406 262.996094 55.746094 260.136719 53.390625 260.136719 Z M 53.390625 304.839844 C 44.769531 304.839844 36.628906 296.695312 36.628906 288.074219 L 36.628906 265.722656 C 36.628906 257.101562 44.769531 248.960938 53.390625 248.960938 C 62.667969 248.960938 75.742188 257.625 75.742188 276.898438 C 75.742188 296.171875 62.667969 304.839844 53.390625 304.839844 " fill-opacity="1" fill-rule="nonzero"/></g><g clip-path="url(#b83997d7d5)"><path fill="#f6f0e7" d="M 260.136719 360.714844 L 114.855469 360.714844 C 114.046875 360.714844 113.261719 360.539062 112.542969 360.214844 L 54.351562 333.757812 C 50.378906 331.949219 47.804688 327.953125 47.804688 323.585938 L 47.804688 321.601562 C 47.804688 318.523438 50.3125 316.011719 53.390625 316.011719 C 56.46875 316.011719 58.976562 318.523438 58.976562 321.601562 L 58.976562 323.585938 L 116.078125 349.539062 L 258.914062 349.539062 L 316.015625 323.585938 L 316.015625 321.601562 C 316.015625 318.523438 318.527344 316.011719 321.601562 316.011719 C 324.679688 316.011719 327.191406 318.523438 327.191406 321.601562 L 327.191406 323.585938 C 327.191406 327.953125 324.617188 331.949219 320.644531 333.757812 L 262.453125 360.214844 C 261.730469 360.539062 260.945312 360.714844 260.136719 360.714844 " fill-opacity="1" fill-rule="nonzero"/></g><g clip-path="url(#43730542b4)"><path fill="#f6f0e7" d="M 260.136719 360.714844 C 257.058594 360.714844 254.550781 358.207031 254.550781 355.128906 L 254.550781 282.488281 C 254.550781 279.410156 257.058594 276.898438 260.136719 276.898438 C 263.214844 276.898438 265.726562 279.410156 265.726562 282.488281 L 265.726562 355.128906 C 265.726562 358.207031 263.214844 360.714844 260.136719 360.714844 " fill-opacity="1" fill-rule="nonzero"/></g><g clip-path="url(#983c76c0eb)"><path fill="#f6f0e7" d="M 114.855469 360.714844 C 111.777344 360.714844 109.269531 358.207031 109.269531 355.128906 L 109.269531 282.488281 C 109.269531 279.410156 111.777344 276.898438 114.855469 276.898438 C 117.933594 276.898438 120.445312 279.410156 120.445312 282.488281 L 120.445312 355.128906 C 120.445312 358.207031 117.933594 360.714844 114.855469 360.714844 " fill-opacity="1" fill-rule="nonzero"/></g></svg>