<svg xmlns="http://www.w3.org/2000/svg" xmlns:xlink="http://www.w3.org/1999/xlink" width="500" zoomAndPan="magnify" viewBox="0 0 375 374.999991" height="500" preserveAspectRatio="xMidYMid meet" version="1.0"><path fill="#f6f0e7" d="M 304.886719 286.320312 C 304.335938 285.601562 303.734375 284.925781 303.085938 284.296875 C 302.433594 283.667969 301.738281 283.089844 301.003906 282.566406 C 300.265625 282.039062 299.496094 281.570312 298.6875 281.160156 C 297.882812 280.75 297.050781 280.402344 296.191406 280.113281 C 295.332031 279.828125 294.457031 279.605469 293.566406 279.449219 C 292.675781 279.292969 291.777344 279.203125 290.871094 279.179688 C 289.964844 279.15625 289.066406 279.199219 288.167969 279.3125 C 287.269531 279.421875 286.382812 279.597656 285.511719 279.84375 L 218.578125 298.308594 C 218.789062 297.179688 218.882812 296.042969 218.863281 294.898438 C 218.867188 294.238281 218.839844 293.582031 218.777344 292.925781 C 218.71875 292.269531 218.625 291.621094 218.5 290.972656 C 218.375 290.324219 218.21875 289.6875 218.03125 289.054688 C 217.84375 288.425781 217.625 287.804688 217.375 287.191406 C 217.128906 286.582031 216.847656 285.988281 216.542969 285.402344 C 216.234375 284.820312 215.898438 284.253906 215.539062 283.707031 C 215.175781 283.15625 214.785156 282.625 214.371094 282.113281 C 213.957031 281.601562 213.515625 281.113281 213.054688 280.644531 C 212.589844 280.175781 212.105469 279.730469 211.597656 279.308594 C 211.089844 278.886719 210.566406 278.492188 210.019531 278.125 C 209.472656 277.753906 208.910156 277.414062 208.332031 277.101562 C 207.753906 276.785156 207.160156 276.5 206.550781 276.246094 C 205.945312 275.992188 205.328125 275.765625 204.699219 275.570312 C 204.066406 275.375 203.429688 275.210938 202.785156 275.082031 C 202.140625 274.949219 201.488281 274.847656 200.835938 274.78125 C 200.179688 274.710938 199.523438 274.675781 198.863281 274.671875 L 156.589844 274.671875 C 154.394531 272.511719 152.101562 270.460938 149.710938 268.515625 C 147.324219 266.570312 144.847656 264.742188 142.289062 263.027344 C 139.730469 261.308594 137.097656 259.71875 134.390625 258.246094 C 131.683594 256.777344 128.914062 255.4375 126.082031 254.222656 C 123.25 253.011719 120.367188 251.933594 117.433594 250.988281 C 114.503906 250.046875 111.53125 249.238281 108.527344 248.570312 C 105.519531 247.902344 102.488281 247.378906 99.429688 246.992188 C 96.375 246.605469 93.304688 246.363281 90.226562 246.261719 L 65.285156 246.261719 L 65.285156 243.082031 C 65.269531 242.113281 65.160156 241.15625 64.960938 240.207031 C 64.757812 239.261719 64.46875 238.34375 64.085938 237.453125 C 63.707031 236.5625 63.242188 235.71875 62.695312 234.917969 C 62.152344 234.121094 61.535156 233.378906 60.84375 232.699219 C 60.15625 232.023438 59.40625 231.414062 58.597656 230.882812 C 57.789062 230.351562 56.9375 229.898438 56.042969 229.53125 C 55.148438 229.164062 54.222656 228.890625 53.273438 228.703125 C 52.324219 228.515625 51.367188 228.421875 50.398438 228.421875 L 14.886719 228.421875 C 13.910156 228.421875 12.941406 228.515625 11.980469 228.707031 C 11.023438 228.898438 10.09375 229.179688 9.191406 229.554688 C 8.285156 229.929688 7.429688 230.386719 6.617188 230.929688 C 5.804688 231.472656 5.050781 232.089844 4.359375 232.78125 C 3.667969 233.472656 3.050781 234.226562 2.507812 235.039062 C 1.964844 235.851562 1.507812 236.707031 1.132812 237.609375 C 0.757812 238.515625 0.476562 239.445312 0.285156 240.402344 C 0.09375 241.363281 0 242.332031 0 243.308594 L 0 350.46875 C 0 351.445312 0.09375 352.414062 0.285156 353.371094 C 0.476562 354.328125 0.757812 355.261719 1.132812 356.164062 C 1.507812 357.066406 1.964844 357.925781 2.507812 358.738281 C 3.050781 359.550781 3.667969 360.300781 4.359375 360.992188 C 5.050781 361.683594 5.804688 362.300781 6.617188 362.84375 C 7.429688 363.386719 8.285156 363.847656 9.191406 364.21875 C 10.09375 364.59375 11.023438 364.875 11.980469 365.066406 C 12.941406 365.257812 13.910156 365.351562 14.886719 365.351562 L 50.398438 365.351562 C 51.375 365.351562 52.34375 365.257812 53.300781 365.066406 C 54.261719 364.875 55.191406 364.59375 56.09375 364.21875 C 56.996094 363.847656 57.855469 363.386719 58.667969 362.84375 C 59.480469 362.300781 60.234375 361.683594 60.925781 360.992188 C 61.613281 360.300781 62.230469 359.550781 62.773438 358.738281 C 63.316406 357.925781 63.777344 357.066406 64.152344 356.164062 C 64.523438 355.261719 64.808594 354.328125 64.996094 353.371094 C 65.1875 352.414062 65.285156 351.445312 65.285156 350.46875 L 65.285156 349.445312 L 136.363281 374.101562 C 138.5625 374.859375 140.796875 375.503906 143.0625 376.035156 C 145.328125 376.566406 147.617188 376.980469 149.921875 377.277344 C 152.230469 377.578125 154.546875 377.761719 156.875 377.824219 C 159.199219 377.890625 161.523438 377.835938 163.84375 377.667969 C 166.167969 377.496094 168.472656 377.207031 170.765625 376.804688 C 173.054688 376.402344 175.320312 375.882812 177.5625 375.25 C 179.800781 374.617188 182 373.871094 184.164062 373.015625 C 186.328125 372.160156 188.445312 371.195312 190.511719 370.125 L 298.976562 313.761719 C 299.570312 313.453125 300.144531 313.113281 300.699219 312.742188 C 301.253906 312.371094 301.785156 311.972656 302.296875 311.542969 C 302.808594 311.113281 303.292969 310.65625 303.757812 310.175781 C 304.21875 309.691406 304.652344 309.183594 305.058594 308.65625 C 305.464844 308.125 305.839844 307.574219 306.1875 307.003906 C 306.53125 306.433594 306.847656 305.84375 307.128906 305.242188 C 307.410156 304.636719 307.660156 304.015625 307.875 303.382812 C 308.089844 302.75 308.269531 302.109375 308.414062 301.457031 C 308.558594 300.804688 308.664062 300.148438 308.738281 299.484375 C 308.808594 298.820312 308.847656 298.15625 308.847656 297.488281 C 308.847656 296.820312 308.808594 296.152344 308.738281 295.488281 C 308.664062 294.828125 308.554688 294.167969 308.410156 293.515625 C 308.265625 292.863281 308.085938 292.222656 307.875 291.589844 C 307.660156 290.957031 307.410156 290.339844 307.128906 289.734375 C 306.847656 289.128906 306.53125 288.542969 306.1875 287.96875 C 305.839844 287.398438 305.464844 286.847656 305.058594 286.320312 Z M 297.160156 298.988281 C 296.945312 299.996094 296.523438 300.910156 295.898438 301.726562 C 295.269531 302.542969 294.496094 303.183594 293.578125 303.648438 L 185.113281 360.011719 C 181.636719 361.816406 178.015625 363.253906 174.246094 364.324219 C 170.476562 365.394531 166.636719 366.070312 162.730469 366.359375 C 158.824219 366.648438 154.929688 366.539062 151.042969 366.035156 C 147.15625 365.53125 143.363281 364.640625 139.660156 363.363281 L 65.285156 337.511719 L 65.285156 257.96875 L 90.226562 257.96875 C 116.816406 257.96875 137.671875 272.457031 150.453125 284.613281 C 150.984375 285.113281 151.589844 285.492188 152.265625 285.757812 C 152.945312 286.023438 153.648438 286.152344 154.375 286.148438 L 198.863281 286.148438 C 199.351562 286.152344 199.835938 286.199219 200.316406 286.285156 C 200.796875 286.367188 201.269531 286.492188 201.730469 286.65625 C 202.1875 286.820312 202.632812 287.023438 203.058594 287.261719 C 203.484375 287.5 203.886719 287.773438 204.269531 288.078125 C 204.648438 288.382812 205.003906 288.71875 205.328125 289.085938 C 205.652344 289.449219 205.941406 289.839844 206.203125 290.253906 C 206.460938 290.667969 206.683594 291.097656 206.871094 291.550781 C 207.058594 292.003906 207.207031 292.464844 207.316406 292.941406 C 207.425781 293.417969 207.492188 293.898438 207.523438 294.386719 C 207.550781 294.875 207.539062 295.363281 207.484375 295.847656 C 207.433594 296.332031 207.339844 296.808594 207.207031 297.28125 C 207.074219 297.75 206.902344 298.207031 206.695312 298.648438 C 206.484375 299.089844 206.238281 299.507812 205.960938 299.910156 C 205.679688 300.308594 205.371094 300.683594 205.027344 301.03125 C 204.683594 301.382812 204.316406 301.699219 203.921875 301.984375 C 203.523438 302.269531 203.109375 302.523438 202.671875 302.738281 L 202.101562 302.738281 C 201.0625 303.152344 199.984375 303.359375 198.863281 303.363281 L 131.933594 303.363281 C 131.558594 303.363281 131.1875 303.402344 130.824219 303.472656 C 130.457031 303.546875 130.101562 303.65625 129.757812 303.796875 C 129.414062 303.941406 129.085938 304.113281 128.773438 304.324219 C 128.464844 304.53125 128.179688 304.765625 127.914062 305.027344 C 127.648438 305.292969 127.414062 305.578125 127.207031 305.890625 C 127 306.199219 126.824219 306.527344 126.683594 306.871094 C 126.539062 307.21875 126.433594 307.570312 126.359375 307.9375 C 126.285156 308.304688 126.25 308.671875 126.25 309.046875 C 126.25 309.417969 126.285156 309.789062 126.359375 310.15625 C 126.433594 310.519531 126.539062 310.875 126.683594 311.222656 C 126.824219 311.566406 127 311.894531 127.207031 312.203125 C 127.414062 312.511719 127.648438 312.800781 127.914062 313.0625 C 128.179688 313.328125 128.464844 313.5625 128.773438 313.769531 C 129.085938 313.976562 129.414062 314.152344 129.757812 314.296875 C 130.101562 314.4375 130.457031 314.546875 130.824219 314.621094 C 131.1875 314.691406 131.558594 314.726562 131.933594 314.726562 L 198.863281 314.726562 C 201.585938 314.730469 204.199219 314.199219 206.703125 313.136719 L 288.578125 290.410156 C 289.242188 290.222656 289.917969 290.136719 290.605469 290.152344 C 291.296875 290.171875 291.964844 290.285156 292.621094 290.503906 C 293.273438 290.722656 293.878906 291.03125 294.441406 291.433594 C 295 291.832031 295.492188 292.304688 295.910156 292.851562 C 296.605469 293.710938 297.066406 294.683594 297.289062 295.769531 C 297.507812 296.851562 297.464844 297.925781 297.160156 298.988281 Z M 297.160156 298.988281 " fill-opacity="1" fill-rule="nonzero"/><path fill="#f6f0e7" d="M 360.113281 15.351562 L 324.601562 15.351562 C 323.625 15.351562 322.65625 15.449219 321.699219 15.640625 C 320.738281 15.832031 319.808594 16.113281 318.90625 16.488281 C 318.003906 16.859375 317.144531 17.320312 316.332031 17.863281 C 315.519531 18.40625 314.765625 19.023438 314.074219 19.714844 C 313.386719 20.40625 312.769531 21.15625 312.226562 21.96875 C 311.679688 22.78125 311.222656 23.640625 310.847656 24.542969 C 310.476562 25.445312 310.191406 26.378906 310 27.335938 C 309.8125 28.292969 309.714844 29.261719 309.714844 30.238281 L 309.714844 31.261719 L 238.636719 6.601562 C 236.433594 5.847656 234.203125 5.207031 231.9375 4.675781 C 229.671875 4.148438 227.382812 3.734375 225.074219 3.433594 C 222.769531 3.136719 220.453125 2.957031 218.125 2.890625 C 215.800781 2.828125 213.476562 2.878906 211.15625 3.050781 C 208.835938 3.222656 206.527344 3.507812 204.238281 3.910156 C 201.945312 4.316406 199.679688 4.832031 197.441406 5.464844 C 195.203125 6.097656 193 6.839844 190.835938 7.695312 C 188.671875 8.550781 186.554688 9.511719 184.488281 10.582031 L 76.191406 66.945312 C 75.636719 67.164062 75.089844 67.40625 74.554688 67.679688 C 74.023438 67.949219 73.503906 68.246094 72.996094 68.570312 C 72.492188 68.894531 72.003906 69.238281 71.535156 69.609375 C 71.0625 69.980469 70.613281 70.371094 70.179688 70.789062 C 69.75 71.203125 69.335938 71.636719 68.949219 72.09375 C 68.558594 72.546875 68.191406 73.019531 67.851562 73.511719 C 67.507812 74.003906 67.1875 74.511719 66.894531 75.03125 C 66.601562 75.554688 66.335938 76.089844 66.09375 76.636719 C 65.855469 77.1875 65.640625 77.746094 65.457031 78.316406 C 65.269531 78.886719 65.113281 79.460938 64.984375 80.046875 C 64.855469 80.632812 64.753906 81.222656 64.683594 81.816406 C 64.613281 82.410156 64.570312 83.007812 64.558594 83.605469 C 64.546875 84.207031 64.5625 84.804688 64.609375 85.402344 C 64.65625 86 64.730469 86.59375 64.835938 87.183594 C 64.941406 87.773438 65.074219 88.355469 65.234375 88.929688 C 65.398438 89.507812 65.589844 90.074219 65.804688 90.632812 C 66.023438 91.191406 66.269531 91.738281 66.539062 92.273438 C 66.808594 92.804688 67.105469 93.324219 67.429688 93.832031 C 67.75 94.335938 68.097656 94.824219 68.46875 95.292969 C 68.839844 95.765625 69.230469 96.214844 69.644531 96.648438 C 70.058594 97.082031 70.496094 97.492188 70.949219 97.882812 C 71.40625 98.269531 71.878906 98.636719 72.367188 98.980469 C 72.859375 99.324219 73.367188 99.640625 73.886719 99.9375 C 74.410156 100.230469 74.945312 100.496094 75.492188 100.738281 C 76.042969 100.976562 76.601562 101.191406 77.171875 101.378906 C 77.738281 101.5625 78.316406 101.722656 78.902344 101.851562 C 79.488281 101.980469 80.078125 102.082031 80.671875 102.152344 C 81.265625 102.222656 81.863281 102.265625 82.460938 102.277344 C 83.058594 102.289062 83.660156 102.273438 84.253906 102.226562 C 84.851562 102.183594 85.445312 102.105469 86.035156 102.003906 C 86.625 101.898438 87.210938 101.765625 87.785156 101.605469 C 88.363281 101.441406 88.929688 101.253906 89.488281 101.035156 L 156.421875 82.398438 C 156.238281 83.527344 156.144531 84.664062 156.136719 85.808594 C 156.132812 86.464844 156.160156 87.125 156.222656 87.78125 C 156.28125 88.4375 156.375 89.085938 156.5 89.734375 C 156.625 90.382812 156.78125 91.019531 156.96875 91.652344 C 157.15625 92.28125 157.375 92.902344 157.625 93.515625 C 157.871094 94.125 158.152344 94.71875 158.457031 95.304688 C 158.765625 95.886719 159.101562 96.453125 159.464844 97 C 159.824219 97.550781 160.214844 98.082031 160.628906 98.59375 C 161.042969 99.105469 161.484375 99.59375 161.945312 100.0625 C 162.410156 100.53125 162.894531 100.976562 163.402344 101.398438 C 163.910156 101.820312 164.433594 102.214844 164.980469 102.582031 C 165.527344 102.953125 166.089844 103.292969 166.667969 103.605469 C 167.246094 103.921875 167.839844 104.207031 168.449219 104.460938 C 169.054688 104.714844 169.671875 104.941406 170.300781 105.136719 C 170.933594 105.332031 171.570312 105.496094 172.214844 105.625 C 172.859375 105.757812 173.511719 105.859375 174.164062 105.925781 C 174.820312 105.996094 175.476562 106.03125 176.136719 106.035156 L 218.351562 106.035156 C 220.550781 108.195312 222.84375 110.246094 225.230469 112.191406 C 227.621094 114.136719 230.09375 115.964844 232.652344 117.679688 C 235.210938 119.398438 237.84375 120.988281 240.554688 122.460938 C 243.261719 123.929688 246.03125 125.269531 248.863281 126.484375 C 251.695312 127.695312 254.574219 128.773438 257.507812 129.71875 C 260.441406 130.660156 263.410156 131.46875 266.417969 132.136719 C 269.425781 132.804688 272.457031 133.328125 275.511719 133.714844 C 278.570312 134.101562 281.636719 134.34375 284.714844 134.445312 L 309.660156 134.445312 L 309.660156 137.625 C 309.660156 138.605469 309.753906 139.570312 309.945312 140.53125 C 310.136719 141.488281 310.417969 142.421875 310.792969 143.324219 C 311.167969 144.226562 311.625 145.082031 312.167969 145.898438 C 312.710938 146.710938 313.328125 147.460938 314.019531 148.152344 C 314.710938 148.84375 315.460938 149.460938 316.273438 150.003906 C 317.085938 150.546875 317.945312 151.003906 318.847656 151.378906 C 319.75 151.753906 320.683594 152.035156 321.640625 152.226562 C 322.601562 152.417969 323.566406 152.511719 324.546875 152.511719 L 360.058594 152.511719 C 361.046875 152.515625 362.027344 152.421875 362.996094 152.230469 C 363.96875 152.039062 364.910156 151.753906 365.824219 151.375 C 366.738281 150.996094 367.605469 150.527344 368.425781 149.976562 C 369.246094 149.425781 370.003906 148.796875 370.699219 148.09375 C 371.398438 147.390625 372.015625 146.625 372.558594 145.796875 C 373.101562 144.96875 373.558594 144.097656 373.925781 143.179688 C 374.296875 142.261719 374.570312 141.316406 374.75 140.34375 C 374.933594 139.371094 375.015625 138.386719 375 137.398438 L 375 30.238281 C 375 29.261719 374.90625 28.292969 374.714844 27.335938 C 374.523438 26.378906 374.242188 25.445312 373.867188 24.542969 C 373.492188 23.640625 373.035156 22.78125 372.492188 21.96875 C 371.949219 21.15625 371.332031 20.40625 370.640625 19.714844 C 369.949219 19.023438 369.195312 18.40625 368.382812 17.863281 C 367.570312 17.320312 366.714844 16.859375 365.808594 16.488281 C 364.90625 16.113281 363.976562 15.832031 363.019531 15.640625 C 362.058594 15.449219 361.089844 15.351562 360.113281 15.351562 Z M 309.714844 122.851562 L 284.773438 122.851562 C 258.183594 122.851562 237.328125 108.363281 224.546875 96.207031 C 224.015625 95.707031 223.410156 95.328125 222.734375 95.0625 C 222.054688 94.796875 221.351562 94.667969 220.625 94.671875 L 176.136719 94.671875 C 175.5625 94.667969 174.996094 94.609375 174.4375 94.492188 C 173.875 94.378906 173.332031 94.210938 172.804688 93.988281 C 172.277344 93.769531 171.777344 93.496094 171.300781 93.175781 C 170.828125 92.859375 170.390625 92.496094 169.984375 92.089844 C 169.582031 91.683594 169.222656 91.242188 168.90625 90.765625 C 168.589844 90.289062 168.320312 89.785156 168.105469 89.257812 C 167.886719 88.726562 167.722656 88.183594 167.609375 87.621094 C 167.5 87.058594 167.441406 86.492188 167.441406 85.921875 C 167.441406 85.101562 167.550781 84.296875 167.777344 83.507812 C 168.003906 82.71875 168.335938 81.976562 168.773438 81.28125 C 169.210938 80.585938 169.738281 79.96875 170.351562 79.421875 C 170.964844 78.878906 171.644531 78.433594 172.386719 78.082031 C 172.539062 78.113281 172.6875 78.113281 172.839844 78.082031 C 173.902344 77.667969 175 77.460938 176.136719 77.457031 L 243.066406 77.457031 C 243.441406 77.457031 243.8125 77.417969 244.175781 77.347656 C 244.542969 77.273438 244.898438 77.167969 245.242188 77.023438 C 245.585938 76.878906 245.914062 76.707031 246.226562 76.5 C 246.535156 76.289062 246.820312 76.054688 247.085938 75.792969 C 247.347656 75.527344 247.585938 75.242188 247.792969 74.929688 C 248 74.621094 248.175781 74.292969 248.316406 73.949219 C 248.460938 73.605469 248.566406 73.25 248.640625 72.882812 C 248.714844 72.515625 248.75 72.148438 248.75 71.773438 C 248.75 71.402344 248.714844 71.03125 248.640625 70.664062 C 248.566406 70.300781 248.460938 69.945312 248.316406 69.601562 C 248.175781 69.253906 248 68.925781 247.792969 68.617188 C 247.585938 68.308594 247.347656 68.019531 247.085938 67.757812 C 246.820312 67.492188 246.535156 67.257812 246.226562 67.050781 C 245.914062 66.84375 245.585938 66.667969 245.242188 66.523438 C 244.898438 66.382812 244.542969 66.273438 244.175781 66.203125 C 243.8125 66.128906 243.441406 66.09375 243.066406 66.09375 L 176.136719 66.09375 C 173.433594 66.09375 170.839844 66.621094 168.351562 67.683594 L 86.421875 90.410156 C 85.757812 90.597656 85.082031 90.683594 84.394531 90.667969 C 83.703125 90.652344 83.035156 90.535156 82.378906 90.316406 C 81.726562 90.097656 81.121094 89.789062 80.558594 89.386719 C 80 88.988281 79.507812 88.515625 79.089844 87.96875 C 78.78125 87.566406 78.515625 87.136719 78.296875 86.675781 C 78.082031 86.21875 77.917969 85.742188 77.804688 85.246094 C 77.695312 84.75 77.636719 84.25 77.636719 83.742188 C 77.632812 83.234375 77.6875 82.734375 77.792969 82.238281 C 77.902344 81.742188 78.0625 81.261719 78.277344 80.800781 C 78.492188 80.339844 78.75 79.910156 79.058594 79.507812 C 79.367188 79.101562 79.71875 78.738281 80.105469 78.410156 C 80.492188 78.085938 80.914062 77.804688 81.363281 77.570312 L 189.886719 20.695312 C 193.359375 18.882812 196.984375 17.441406 200.75 16.367188 C 204.519531 15.296875 208.359375 14.617188 212.269531 14.328125 C 216.175781 14.039062 220.074219 14.148438 223.957031 14.65625 C 227.84375 15.164062 231.636719 16.058594 235.339844 17.34375 L 309.714844 43.195312 Z M 309.714844 122.851562 " fill-opacity="1" fill-rule="nonzero"/><path fill="#f6f0e7" d="M 187.5 126.601562 C 186.457031 126.601562 185.414062 126.628906 184.371094 126.679688 C 183.328125 126.730469 182.289062 126.808594 181.25 126.910156 C 180.214844 127.011719 179.179688 127.140625 178.144531 127.292969 C 177.113281 127.445312 176.085938 127.625 175.0625 127.828125 C 174.039062 128.03125 173.023438 128.261719 172.011719 128.515625 C 170.996094 128.765625 169.992188 129.046875 168.996094 129.347656 C 167.996094 129.652344 167.003906 129.980469 166.023438 130.328125 C 165.039062 130.679688 164.066406 131.058594 163.105469 131.457031 C 162.140625 131.855469 161.1875 132.277344 160.242188 132.722656 C 159.300781 133.171875 158.367188 133.640625 157.449219 134.132812 C 156.527344 134.621094 155.621094 135.136719 154.726562 135.671875 C 153.832031 136.210938 152.949219 136.769531 152.082031 137.347656 C 151.214844 137.925781 150.363281 138.527344 149.523438 139.148438 C 148.6875 139.769531 147.863281 140.414062 147.058594 141.074219 C 146.25 141.734375 145.460938 142.417969 144.6875 143.117188 C 143.914062 143.820312 143.160156 144.539062 142.421875 145.277344 C 141.683594 146.011719 140.964844 146.769531 140.265625 147.542969 C 139.5625 148.316406 138.882812 149.105469 138.21875 149.910156 C 137.558594 150.71875 136.917969 151.539062 136.296875 152.378906 C 135.675781 153.214844 135.074219 154.070312 134.492188 154.9375 C 133.914062 155.804688 133.355469 156.683594 132.820312 157.578125 C 132.285156 158.472656 131.769531 159.382812 131.277344 160.300781 C 130.785156 161.222656 130.316406 162.152344 129.871094 163.097656 C 129.425781 164.039062 129 164.992188 128.601562 165.957031 C 128.203125 166.921875 127.828125 167.894531 127.476562 168.875 C 127.125 169.859375 126.796875 170.847656 126.496094 171.847656 C 126.191406 172.847656 125.914062 173.851562 125.660156 174.863281 C 125.40625 175.875 125.179688 176.894531 124.976562 177.917969 C 124.769531 178.941406 124.59375 179.96875 124.441406 181 C 124.285156 182.03125 124.160156 183.066406 124.058594 184.105469 C 123.953125 185.144531 123.878906 186.183594 123.828125 187.226562 C 123.777344 188.265625 123.75 189.308594 123.75 190.351562 C 123.75 191.398438 123.777344 192.441406 123.828125 193.480469 C 123.878906 194.523438 123.953125 195.5625 124.058594 196.601562 C 124.160156 197.640625 124.285156 198.675781 124.441406 199.707031 C 124.59375 200.738281 124.769531 201.765625 124.976562 202.789062 C 125.179688 203.8125 125.40625 204.832031 125.660156 205.84375 C 125.914062 206.855469 126.191406 207.859375 126.496094 208.859375 C 126.796875 209.859375 127.125 210.847656 127.476562 211.832031 C 127.828125 212.8125 128.203125 213.785156 128.601562 214.75 C 129 215.714844 129.425781 216.667969 129.871094 217.609375 C 130.316406 218.554688 130.785156 219.484375 131.277344 220.40625 C 131.769531 221.324219 132.285156 222.234375 132.820312 223.128906 C 133.355469 224.023438 133.914062 224.902344 134.492188 225.769531 C 135.074219 226.636719 135.675781 227.492188 136.296875 228.328125 C 136.917969 229.167969 137.558594 229.988281 138.21875 230.796875 C 138.882812 231.601562 139.5625 232.390625 140.265625 233.164062 C 140.964844 233.9375 141.683594 234.695312 142.421875 235.429688 C 143.160156 236.167969 143.914062 236.886719 144.6875 237.589844 C 145.460938 238.289062 146.25 238.972656 147.058594 239.632812 C 147.863281 240.292969 148.6875 240.9375 149.523438 241.558594 C 150.363281 242.179688 151.214844 242.78125 152.082031 243.359375 C 152.949219 243.9375 153.832031 244.496094 154.726562 245.035156 C 155.621094 245.570312 156.527344 246.085938 157.449219 246.574219 C 158.367188 247.066406 159.300781 247.535156 160.242188 247.984375 C 161.1875 248.429688 162.140625 248.851562 163.105469 249.25 C 164.066406 249.648438 165.039062 250.027344 166.023438 250.375 C 167.003906 250.726562 167.996094 251.054688 168.996094 251.359375 C 169.992188 251.660156 170.996094 251.9375 172.011719 252.191406 C 173.023438 252.445312 174.039062 252.675781 175.0625 252.878906 C 176.085938 253.082031 177.113281 253.261719 178.144531 253.414062 C 179.179688 253.566406 180.214844 253.695312 181.25 253.796875 C 182.289062 253.898438 183.328125 253.976562 184.371094 254.027344 C 185.414062 254.078125 186.457031 254.101562 187.5 254.101562 C 188.542969 254.101562 189.585938 254.078125 190.628906 254.027344 C 191.671875 253.976562 192.710938 253.898438 193.75 253.796875 C 194.785156 253.695312 195.820312 253.566406 196.855469 253.414062 C 197.886719 253.261719 198.914062 253.082031 199.9375 252.878906 C 200.960938 252.675781 201.976562 252.445312 202.988281 252.191406 C 204.003906 251.9375 205.007812 251.660156 206.003906 251.359375 C 207.003906 251.054688 207.996094 250.726562 208.976562 250.375 C 209.960938 250.027344 210.933594 249.648438 211.894531 249.25 C 212.859375 248.851562 213.8125 248.429688 214.757812 247.984375 C 215.699219 247.535156 216.632812 247.066406 217.550781 246.574219 C 218.472656 246.085938 219.378906 245.570312 220.273438 245.035156 C 221.167969 244.496094 222.050781 243.9375 222.917969 243.359375 C 223.785156 242.78125 224.636719 242.179688 225.476562 241.558594 C 226.3125 240.9375 227.136719 240.292969 227.941406 239.632812 C 228.75 238.972656 229.539062 238.289062 230.3125 237.589844 C 231.085938 236.886719 231.839844 236.167969 232.578125 235.429688 C 233.316406 234.695312 234.035156 233.9375 234.734375 233.164062 C 235.4375 232.390625 236.117188 231.601562 236.78125 230.796875 C 237.441406 229.988281 238.082031 229.167969 238.703125 228.328125 C 239.324219 227.492188 239.925781 226.636719 240.507812 225.769531 C 241.085938 224.902344 241.644531 224.023438 242.179688 223.128906 C 242.714844 222.234375 243.230469 221.324219 243.722656 220.40625 C 244.214844 219.484375 244.683594 218.554688 245.128906 217.609375 C 245.574219 216.667969 245.996094 215.714844 246.398438 214.75 C 246.796875 213.785156 247.171875 212.8125 247.523438 211.832031 C 247.875 210.847656 248.203125 209.859375 248.503906 208.859375 C 248.808594 207.859375 249.085938 206.855469 249.339844 205.84375 C 249.59375 204.832031 249.820312 203.8125 250.023438 202.789062 C 250.230469 201.765625 250.40625 200.738281 250.558594 199.707031 C 250.714844 198.675781 250.839844 197.640625 250.941406 196.601562 C 251.046875 195.5625 251.121094 194.523438 251.171875 193.480469 C 251.222656 192.441406 251.25 191.398438 251.25 190.351562 C 251.25 189.308594 251.222656 188.269531 251.171875 187.226562 C 251.117188 186.183594 251.039062 185.144531 250.9375 184.105469 C 250.835938 183.070312 250.707031 182.035156 250.550781 181.003906 C 250.398438 179.96875 250.21875 178.941406 250.015625 177.921875 C 249.8125 176.898438 249.582031 175.878906 249.328125 174.867188 C 249.074219 173.855469 248.796875 172.851562 248.492188 171.855469 C 248.1875 170.855469 247.859375 169.867188 247.507812 168.882812 C 247.15625 167.902344 246.78125 166.929688 246.382812 165.964844 C 245.984375 165.003906 245.558594 164.050781 245.113281 163.105469 C 244.667969 162.164062 244.199219 161.234375 243.707031 160.3125 C 243.214844 159.394531 242.699219 158.488281 242.164062 157.59375 C 241.625 156.699219 241.070312 155.816406 240.488281 154.949219 C 239.910156 154.082031 239.308594 153.230469 238.6875 152.390625 C 238.066406 151.554688 237.425781 150.734375 236.761719 149.925781 C 236.101562 149.121094 235.417969 148.332031 234.71875 147.558594 C 234.019531 146.785156 233.300781 146.03125 232.5625 145.292969 C 231.824219 144.554688 231.070312 143.835938 230.296875 143.136719 C 229.523438 142.433594 228.734375 141.753906 227.925781 141.089844 C 227.121094 140.429688 226.300781 139.789062 225.460938 139.167969 C 224.625 138.546875 223.769531 137.945312 222.902344 137.363281 C 222.035156 136.785156 221.15625 136.226562 220.261719 135.691406 C 219.367188 135.152344 218.460938 134.640625 217.539062 134.148438 C 216.621094 133.65625 215.6875 133.1875 214.746094 132.742188 C 213.804688 132.292969 212.851562 131.871094 211.886719 131.472656 C 210.921875 131.070312 209.949219 130.695312 208.96875 130.34375 C 207.988281 129.992188 206.996094 129.664062 206 129.359375 C 205 129.058594 203.996094 128.777344 202.984375 128.523438 C 201.972656 128.269531 200.957031 128.042969 199.933594 127.835938 C 198.910156 127.632812 197.882812 127.453125 196.851562 127.300781 C 195.820312 127.148438 194.785156 127.019531 193.746094 126.914062 C 192.707031 126.8125 191.667969 126.734375 190.628906 126.683594 C 189.585938 126.632812 188.542969 126.605469 187.5 126.601562 Z M 187.5 184.671875 C 188.578125 184.671875 189.648438 184.769531 190.710938 184.957031 C 191.773438 185.148438 192.8125 185.429688 193.824219 185.804688 C 194.835938 186.179688 195.808594 186.636719 196.738281 187.183594 C 197.671875 187.730469 198.546875 188.355469 199.367188 189.054688 C 200.1875 189.753906 200.941406 190.523438 201.625 191.355469 C 202.3125 192.191406 202.917969 193.078125 203.445312 194.019531 C 203.972656 194.960938 204.414062 195.941406 204.769531 196.960938 C 205.121094 197.980469 205.382812 199.023438 205.554688 200.089844 C 205.722656 201.15625 205.796875 202.226562 205.777344 203.308594 C 205.757812 204.386719 205.644531 205.457031 205.433594 206.515625 C 205.226562 207.574219 204.925781 208.605469 204.53125 209.609375 C 204.140625 210.617188 203.664062 211.578125 203.101562 212.5 C 202.539062 213.421875 201.898438 214.285156 201.183594 215.09375 C 200.46875 215.902344 199.6875 216.640625 198.84375 217.3125 C 197.996094 217.980469 197.097656 218.574219 196.144531 219.082031 C 195.195312 219.59375 194.207031 220.015625 193.183594 220.351562 L 193.183594 225.523438 C 193.183594 225.898438 193.144531 226.265625 193.074219 226.632812 C 193 227 192.890625 227.355469 192.75 227.699219 C 192.605469 228.042969 192.429688 228.371094 192.222656 228.679688 C 192.015625 228.992188 191.78125 229.277344 191.519531 229.542969 C 191.253906 229.804688 190.96875 230.039062 190.65625 230.25 C 190.347656 230.457031 190.019531 230.628906 189.675781 230.773438 C 189.328125 230.914062 188.972656 231.023438 188.609375 231.097656 C 188.242188 231.167969 187.875 231.207031 187.5 231.207031 C 187.125 231.207031 186.757812 231.167969 186.390625 231.097656 C 186.027344 231.023438 185.671875 230.914062 185.324219 230.773438 C 184.980469 230.628906 184.652344 230.457031 184.34375 230.25 C 184.03125 230.039062 183.746094 229.804688 183.480469 229.542969 C 183.21875 229.277344 182.984375 228.992188 182.777344 228.679688 C 182.570312 228.371094 182.394531 228.042969 182.25 227.699219 C 182.109375 227.355469 182 227 181.925781 226.632812 C 181.855469 226.265625 181.816406 225.898438 181.816406 225.523438 L 181.816406 220.351562 C 180.902344 220.0625 180.019531 219.699219 179.160156 219.269531 C 178.304688 218.835938 177.484375 218.339844 176.707031 217.78125 C 175.929688 217.222656 175.195312 216.601562 174.515625 215.929688 C 173.832031 215.253906 173.207031 214.527344 172.640625 213.753906 C 172.070312 212.980469 171.566406 212.167969 171.128906 211.316406 C 170.6875 210.464844 170.316406 209.582031 170.015625 208.671875 C 169.714844 207.757812 169.488281 206.832031 169.332031 205.882812 C 169.175781 204.9375 169.097656 203.984375 169.089844 203.023438 C 169.089844 202.652344 169.128906 202.28125 169.199219 201.914062 C 169.273438 201.550781 169.378906 201.195312 169.523438 200.847656 C 169.667969 200.503906 169.839844 200.175781 170.046875 199.867188 C 170.253906 199.558594 170.492188 199.269531 170.753906 199.007812 C 171.019531 198.742188 171.304688 198.507812 171.617188 198.300781 C 171.925781 198.09375 172.253906 197.917969 172.597656 197.773438 C 172.941406 197.632812 173.296875 197.523438 173.664062 197.453125 C 174.03125 197.378906 174.398438 197.34375 174.773438 197.34375 C 175.144531 197.34375 175.515625 197.378906 175.882812 197.453125 C 176.246094 197.523438 176.601562 197.632812 176.945312 197.773438 C 177.292969 197.917969 177.621094 198.09375 177.929688 198.300781 C 178.238281 198.507812 178.527344 198.742188 178.789062 199.007812 C 179.054688 199.269531 179.289062 199.558594 179.496094 199.867188 C 179.703125 200.175781 179.878906 200.503906 180.023438 200.847656 C 180.164062 201.195312 180.273438 201.550781 180.34375 201.914062 C 180.417969 202.28125 180.453125 202.652344 180.453125 203.023438 C 180.460938 203.480469 180.511719 203.933594 180.609375 204.382812 C 180.703125 204.828125 180.84375 205.265625 181.023438 205.683594 C 181.203125 206.105469 181.421875 206.503906 181.679688 206.882812 C 181.9375 207.261719 182.230469 207.613281 182.558594 207.933594 C 182.882812 208.253906 183.238281 208.539062 183.621094 208.792969 C 184.003906 209.042969 184.40625 209.257812 184.828125 209.429688 C 185.253906 209.605469 185.691406 209.734375 186.140625 209.824219 C 186.589844 209.910156 187.042969 209.957031 187.5 209.957031 C 187.929688 209.917969 188.355469 209.839844 188.769531 209.722656 C 189.1875 209.605469 189.585938 209.449219 189.976562 209.257812 C 190.363281 209.066406 190.730469 208.839844 191.074219 208.578125 C 191.417969 208.316406 191.738281 208.027344 192.03125 207.710938 C 192.320312 207.390625 192.582031 207.046875 192.808594 206.679688 C 193.039062 206.3125 193.230469 205.925781 193.386719 205.523438 C 193.542969 205.121094 193.660156 204.707031 193.738281 204.28125 C 193.820312 203.855469 193.859375 203.429688 193.859375 202.996094 C 193.859375 202.5625 193.820312 202.132812 193.738281 201.710938 C 193.660156 201.285156 193.542969 200.871094 193.386719 200.46875 C 193.230469 200.0625 193.039062 199.679688 192.808594 199.3125 C 192.582031 198.945312 192.320312 198.601562 192.03125 198.28125 C 191.738281 197.960938 191.417969 197.671875 191.074219 197.414062 C 190.730469 197.152344 190.363281 196.925781 189.976562 196.734375 C 189.585938 196.542969 189.1875 196.386719 188.769531 196.269531 C 188.355469 196.152344 187.929688 196.074219 187.5 196.035156 C 186.417969 196.046875 185.339844 195.960938 184.273438 195.777344 C 183.203125 195.597656 182.160156 195.324219 181.140625 194.957031 C 180.121094 194.585938 179.140625 194.132812 178.203125 193.589844 C 177.265625 193.050781 176.382812 192.429688 175.554688 191.730469 C 174.726562 191.03125 173.96875 190.261719 173.277344 189.429688 C 172.585938 188.59375 171.972656 187.703125 171.441406 186.761719 C 170.910156 185.816406 170.464844 184.832031 170.105469 183.808594 C 169.75 182.785156 169.484375 181.738281 169.316406 180.671875 C 169.144531 179.601562 169.070312 178.523438 169.089844 177.441406 C 169.113281 176.355469 169.230469 175.285156 169.441406 174.21875 C 169.652344 173.15625 169.957031 172.121094 170.355469 171.113281 C 170.753906 170.105469 171.234375 169.140625 171.804688 168.21875 C 172.375 167.296875 173.019531 166.433594 173.742188 165.625 C 174.464844 164.816406 175.253906 164.082031 176.109375 163.414062 C 176.964844 162.75 177.871094 162.164062 178.832031 161.660156 C 179.789062 161.152344 180.785156 160.738281 181.816406 160.410156 L 181.816406 155.238281 C 181.816406 154.867188 181.855469 154.496094 181.925781 154.132812 C 182 153.765625 182.109375 153.410156 182.25 153.066406 C 182.394531 152.722656 182.570312 152.394531 182.777344 152.082031 C 182.984375 151.773438 183.21875 151.484375 183.480469 151.222656 C 183.746094 150.957031 184.03125 150.722656 184.34375 150.515625 C 184.652344 150.308594 184.980469 150.132812 185.324219 149.992188 C 185.671875 149.847656 186.027344 149.738281 186.390625 149.667969 C 186.757812 149.59375 187.125 149.558594 187.5 149.558594 C 187.875 149.558594 188.242188 149.59375 188.609375 149.667969 C 188.972656 149.738281 189.328125 149.847656 189.675781 149.992188 C 190.019531 150.132812 190.347656 150.308594 190.65625 150.515625 C 190.96875 150.722656 191.253906 150.957031 191.519531 151.222656 C 191.78125 151.484375 192.015625 151.773438 192.222656 152.082031 C 192.429688 152.394531 192.605469 152.722656 192.75 153.066406 C 192.890625 153.410156 193 153.765625 193.074219 154.132812 C 193.144531 154.496094 193.183594 154.867188 193.183594 155.238281 L 193.183594 160.410156 C 194.085938 160.710938 194.964844 161.082031 195.8125 161.519531 C 196.660156 161.957031 197.464844 162.457031 198.234375 163.023438 C 199.003906 163.585938 199.726562 164.207031 200.398438 164.882812 C 201.070312 165.558594 201.6875 166.28125 202.246094 167.054688 C 202.808594 167.828125 203.304688 168.640625 203.738281 169.488281 C 204.171875 170.339844 204.535156 171.21875 204.832031 172.125 C 205.128906 173.03125 205.351562 173.953125 205.503906 174.894531 C 205.65625 175.839844 205.734375 176.785156 205.738281 177.738281 C 205.738281 178.113281 205.703125 178.480469 205.628906 178.847656 C 205.558594 179.214844 205.449219 179.570312 205.304688 179.914062 C 205.164062 180.257812 204.988281 180.585938 204.78125 180.894531 C 204.574219 181.207031 204.339844 181.492188 204.074219 181.757812 C 203.8125 182.019531 203.523438 182.257812 203.214844 182.464844 C 202.902344 182.671875 202.574219 182.847656 202.230469 182.988281 C 201.886719 183.132812 201.53125 183.238281 201.164062 183.3125 C 200.800781 183.386719 200.429688 183.421875 200.058594 183.421875 C 199.683594 183.421875 199.3125 183.386719 198.949219 183.3125 C 198.582031 183.238281 198.226562 183.132812 197.882812 182.988281 C 197.539062 182.847656 197.210938 182.671875 196.898438 182.464844 C 196.589844 182.257812 196.304688 182.019531 196.039062 181.757812 C 195.773438 181.492188 195.539062 181.207031 195.332031 180.894531 C 195.125 180.585938 194.949219 180.257812 194.808594 179.914062 C 194.664062 179.570312 194.558594 179.214844 194.484375 178.847656 C 194.410156 178.480469 194.375 178.113281 194.375 177.738281 C 194.386719 177.28125 194.351562 176.828125 194.273438 176.378906 C 194.191406 175.929688 194.070312 175.492188 193.902344 175.066406 C 193.734375 174.640625 193.523438 174.234375 193.273438 173.851562 C 193.023438 173.46875 192.738281 173.113281 192.417969 172.789062 C 192.097656 172.460938 191.75 172.171875 191.371094 171.914062 C 190.992188 171.660156 190.589844 171.445312 190.167969 171.269531 C 189.746094 171.09375 189.308594 170.964844 188.859375 170.875 C 188.410156 170.789062 187.957031 170.746094 187.5 170.75 C 187.042969 170.75 186.589844 170.796875 186.140625 170.886719 C 185.695312 170.972656 185.257812 171.105469 184.835938 171.28125 C 184.414062 171.457031 184.011719 171.671875 183.632812 171.925781 C 183.253906 172.179688 182.902344 172.464844 182.578125 172.789062 C 182.253906 173.113281 181.964844 173.464844 181.710938 173.84375 C 181.457031 174.222656 181.246094 174.625 181.070312 175.046875 C 180.894531 175.46875 180.761719 175.90625 180.671875 176.355469 C 180.585938 176.800781 180.539062 177.253906 180.539062 177.710938 C 180.539062 178.167969 180.585938 178.621094 180.671875 179.070312 C 180.761719 179.515625 180.894531 179.953125 181.070312 180.375 C 181.246094 180.796875 181.457031 181.199219 181.710938 181.578125 C 181.964844 181.957031 182.253906 182.308594 182.578125 182.632812 C 182.902344 182.957031 183.253906 183.246094 183.632812 183.5 C 184.011719 183.753906 184.414062 183.96875 184.835938 184.140625 C 185.257812 184.316406 185.695312 184.449219 186.140625 184.539062 C 186.589844 184.628906 187.042969 184.671875 187.5 184.671875 Z M 187.5 184.671875 " fill-opacity="1" fill-rule="nonzero"/></svg>