<svg xmlns="http://www.w3.org/2000/svg" xmlns:xlink="http://www.w3.org/1999/xlink" width="500" zoomAndPan="magnify" viewBox="0 0 375 374.999991" height="500" preserveAspectRatio="xMidYMid meet" version="1.0"><defs><clipPath id="ceb29a925e"><path d="M 0 32.8125 L 375 32.8125 L 375 337.3125 L 0 337.3125 Z M 0 32.8125 " clip-rule="nonzero"/></clipPath></defs><g clip-path="url(#ceb29a925e)"><path fill="#f6f0e7" d="M 373.851562 51.886719 L 362.050781 74.734375 L 356.160156 77.359375 L 336.554688 68.65625 L 329.925781 89 L 310.367188 80.316406 L 303.742188 100.664062 L 284.183594 91.976562 L 277.535156 112.371094 L 253.234375 123.195312 C 253.25 124.410156 253.234375 125.621094 253.175781 126.832031 C 253.117188 128.042969 253.023438 129.253906 252.890625 130.457031 C 252.757812 131.664062 252.589844 132.863281 252.382812 134.058594 C 252.175781 135.253906 251.929688 136.441406 251.648438 137.621094 C 251.367188 138.800781 251.050781 139.96875 250.695312 141.128906 C 250.339844 142.289062 249.949219 143.4375 249.523438 144.574219 C 249.097656 145.707031 248.636719 146.828125 248.136719 147.9375 C 247.640625 149.042969 247.113281 150.132812 246.546875 151.207031 C 245.984375 152.28125 245.386719 153.335938 244.753906 154.371094 C 244.125 155.40625 243.460938 156.421875 242.769531 157.417969 C 242.074219 158.414062 241.351562 159.382812 240.597656 160.332031 C 239.839844 161.285156 239.058594 162.207031 238.246094 163.109375 C 237.433594 164.007812 236.59375 164.882812 235.726562 165.730469 C 234.859375 166.582031 233.96875 167.402344 233.046875 168.191406 C 232.128906 168.984375 231.1875 169.75 230.222656 170.480469 C 229.257812 171.214844 228.269531 171.917969 227.257812 172.589844 C 226.25 173.261719 225.21875 173.902344 224.167969 174.507812 C 223.121094 175.117188 222.050781 175.691406 220.964844 176.230469 C 219.878906 176.773438 218.78125 177.277344 217.664062 177.75 C 216.542969 178.222656 215.414062 178.660156 214.269531 179.058594 C 213.125 179.460938 211.96875 179.828125 210.800781 180.15625 C 209.632812 180.484375 208.457031 180.777344 207.273438 181.03125 C 206.085938 181.289062 204.894531 181.507812 203.695312 181.6875 C 202.496094 181.867188 201.292969 182.011719 200.082031 182.117188 C 198.875 182.222656 197.664062 182.292969 196.453125 182.320312 C 195.238281 182.351562 194.027344 182.34375 192.816406 182.300781 C 191.605469 182.253906 190.394531 182.171875 189.1875 182.050781 C 187.980469 181.929688 186.777344 181.769531 185.582031 181.574219 C 184.386719 181.378906 183.195312 181.144531 182.011719 180.875 C 180.832031 180.601562 179.660156 180.296875 178.496094 179.953125 C 177.332031 179.609375 176.179688 179.230469 175.042969 178.8125 C 173.902344 178.398438 172.777344 177.945312 171.664062 177.460938 C 173.25 172.890625 174.289062 168.203125 174.792969 163.390625 C 175.292969 158.582031 175.238281 153.777344 174.632812 148.980469 C 175.339844 148.40625 175.984375 147.777344 176.574219 147.089844 C 177.167969 146.398438 177.691406 145.664062 178.148438 144.878906 C 178.605469 144.097656 178.992188 143.277344 179.300781 142.425781 C 179.609375 141.574219 179.839844 140.699219 179.992188 139.804688 C 180.144531 138.910156 180.21875 138.011719 180.207031 137.101562 C 180.195312 136.195312 180.105469 135.296875 179.933594 134.40625 C 179.761719 133.515625 179.507812 132.648438 179.179688 131.800781 C 178.851562 130.957031 178.449219 130.148438 177.972656 129.375 C 177.496094 128.601562 176.957031 127.878906 176.351562 127.203125 C 175.746094 126.527344 175.082031 125.914062 174.367188 125.359375 C 173.648438 124.800781 172.886719 124.316406 172.082031 123.898438 C 171.277344 123.480469 170.441406 123.136719 169.574219 122.867188 C 168.707031 122.601562 167.824219 122.414062 166.921875 122.304688 C 166.019531 122.199219 165.117188 122.171875 164.210938 122.226562 C 163.308594 122.285156 162.414062 122.417969 161.53125 122.636719 C 160.652344 122.851562 159.796875 123.148438 158.96875 123.519531 C 158.765625 123.609375 158.59375 123.746094 158.394531 123.847656 C 161.9375 127.464844 164.707031 131.601562 166.703125 136.257812 C 168.859375 141.054688 170.199219 146.070312 170.714844 151.304688 C 171.476562 159.128906 170.4375 167.40625 167.71875 175.582031 C 166.105469 180.664062 163.902344 185.480469 161.109375 190.023438 C 156.453125 197.417969 150.535156 203.609375 143.363281 208.601562 C 134.191406 214.976562 123.871094 218.519531 113.859375 218.519531 C 111.867188 218.511719 109.886719 218.367188 107.914062 218.078125 C 104.078125 217.53125 100.410156 216.4375 96.898438 214.796875 C 95.429688 214.128906 94.003906 213.375 92.628906 212.527344 C 87.714844 209.371094 83.714844 205.308594 80.636719 200.34375 C 80.171875 201.871094 79.929688 203.429688 79.90625 205.023438 C 79.90625 205.582031 79.933594 206.140625 79.988281 206.699219 C 80.042969 207.257812 80.125 207.808594 80.234375 208.359375 C 80.34375 208.90625 80.480469 209.449219 80.644531 209.984375 C 80.804688 210.523438 80.992188 211.046875 81.207031 211.566406 C 81.421875 212.082031 81.660156 212.589844 81.925781 213.082031 C 82.1875 213.574219 82.476562 214.054688 82.789062 214.519531 C 83.097656 214.984375 83.429688 215.433594 83.785156 215.867188 C 84.140625 216.300781 84.515625 216.714844 84.914062 217.109375 C 85.308594 217.507812 85.722656 217.882812 86.15625 218.238281 C 86.589844 218.59375 87.039062 218.925781 87.503906 219.238281 C 87.96875 219.546875 88.449219 219.835938 88.941406 220.097656 C 89.433594 220.363281 89.941406 220.601562 90.457031 220.816406 C 90.976562 221.03125 91.5 221.21875 92.035156 221.382812 C 92.574219 221.542969 93.113281 221.679688 93.664062 221.789062 C 94.214844 221.898438 94.765625 221.980469 95.324219 222.035156 C 95.878906 222.089844 96.4375 222.117188 97 222.117188 C 98.972656 222.101562 100.882812 221.746094 102.730469 221.0625 C 106.359375 222.058594 110.054688 222.585938 113.820312 222.640625 C 124.996094 222.640625 136.507812 218.640625 146.59375 211.386719 L 193.792969 252.09375 L 180.214844 267.839844 L 158.167969 248.832031 L 158.167969 337.496094 L 115.917969 337.496094 L 115.917969 277.660156 L 78.082031 277.660156 L 78.082031 337.496094 L 35.832031 337.496094 L 35.832031 248.828125 L 13.789062 267.835938 L 9.941406 263.378906 L 0.207031 252.09375 L 75.210938 187.410156 L 82.703125 180.949219 L 97 168.621094 L 133.277344 199.90625 C 127.078125 203.609375 120.425781 205.511719 114.046875 205.492188 C 114.054688 205.332031 114.09375 205.183594 114.09375 205.027344 C 114.097656 204.214844 114.046875 203.410156 113.933594 202.605469 C 113.824219 201.804688 113.65625 201.015625 113.433594 200.234375 C 113.207031 199.457031 112.929688 198.699219 112.597656 197.960938 C 112.265625 197.222656 111.882812 196.511719 111.449219 195.828125 C 111.015625 195.144531 110.535156 194.492188 110.007812 193.878906 C 109.480469 193.261719 108.914062 192.6875 108.304688 192.152344 C 107.695312 191.621094 107.054688 191.132812 106.375 190.6875 C 105.695312 190.246094 104.988281 189.855469 104.253906 189.515625 C 103.519531 189.171875 102.765625 188.886719 101.988281 188.652344 C 101.214844 188.417969 100.425781 188.242188 99.625 188.121094 C 98.824219 188 98.019531 187.9375 97.207031 187.929688 C 96.398438 187.925781 95.59375 187.976562 94.789062 188.085938 C 93.988281 188.195312 93.195312 188.363281 92.417969 188.582031 C 91.640625 188.804688 90.878906 189.082031 90.140625 189.414062 C 89.402344 189.746094 88.691406 190.125 88.003906 190.558594 C 87.320312 190.992188 86.667969 191.46875 86.054688 191.996094 C 88.597656 197.328125 92.265625 201.933594 97.511719 205.207031 C 102.335938 208.195312 107.769531 209.539062 113.386719 209.636719 C 121.101562 209.769531 129.101562 207.320312 136.457031 202.648438 C 139.9375 200.441406 143.128906 197.875 146.035156 194.957031 C 148.945312 192.039062 151.496094 188.835938 153.6875 185.347656 C 156.511719 180.804688 158.652344 175.960938 160.113281 170.8125 C 161.972656 164.703125 162.640625 158.464844 162.109375 152.101562 C 161.679688 147.890625 160.59375 143.855469 158.851562 139.996094 C 157.222656 136.191406 154.9375 132.832031 152 129.914062 C 151.507812 130.769531 151.105469 131.667969 150.792969 132.601562 C 150.476562 133.535156 150.257812 134.492188 150.132812 135.472656 C 150.007812 136.453125 149.976562 137.433594 150.046875 138.417969 C 150.117188 139.402344 150.28125 140.371094 150.542969 141.324219 C 150.800781 142.273438 151.15625 143.191406 151.597656 144.074219 C 152.039062 144.957031 152.5625 145.785156 153.171875 146.5625 C 153.777344 147.34375 154.453125 148.054688 155.203125 148.699219 C 155.949219 149.34375 156.753906 149.90625 157.613281 150.390625 C 158.503906 156.332031 158.191406 162.203125 156.675781 168.015625 C 154.09375 165.769531 151.730469 163.316406 149.585938 160.652344 C 148.136719 158.839844 146.792969 156.953125 145.554688 154.988281 C 145.402344 154.746094 145.238281 154.511719 145.089844 154.261719 C 143.796875 152.175781 142.648438 150.015625 141.640625 147.777344 C 140.8125 145.90625 140.078125 143.996094 139.449219 142.046875 C 139.292969 141.574219 139.199219 141.09375 139.054688 140.617188 C 138.621094 139.148438 138.195312 137.675781 137.878906 136.195312 C 137.78125 135.726562 137.730469 135.261719 137.644531 134.792969 C 137.363281 133.28125 137.097656 131.773438 136.941406 130.261719 C 136.898438 129.882812 136.894531 129.507812 136.863281 129.128906 C 136.722656 127.507812 136.621094 125.886719 136.617188 124.277344 C 136.617188 124.027344 136.640625 123.785156 136.640625 123.535156 C 136.648438 122.996094 136.703125 122.460938 136.726562 121.925781 C 136.773438 120.71875 136.792969 119.507812 136.964844 117.917969 C 137.140625 116.324219 137.398438 114.757812 137.699219 113.191406 C 137.75 112.941406 137.765625 112.679688 137.84375 112.308594 C 138.636719 108.5 139.796875 104.804688 141.320312 101.222656 C 141.773438 100.152344 142.261719 99.09375 142.777344 98.050781 C 143.296875 97.007812 143.84375 95.984375 144.421875 94.972656 C 145.003906 93.964844 145.613281 92.972656 146.25 92 C 146.886719 91.027344 147.554688 90.074219 148.25 89.140625 C 148.949219 88.207031 149.671875 87.296875 150.421875 86.40625 C 151.171875 85.515625 151.949219 84.648438 152.75 83.804688 C 153.550781 82.960938 154.378906 82.144531 155.230469 81.351562 C 156.082031 80.558594 156.957031 79.789062 157.855469 79.046875 C 158.75 78.308594 159.671875 77.59375 160.609375 76.90625 C 161.550781 76.222656 162.511719 75.5625 163.492188 74.933594 C 164.46875 74.304688 165.46875 73.707031 166.484375 73.140625 C 167.5 72.570312 168.53125 72.03125 169.578125 71.527344 C 170.625 71.019531 171.6875 70.542969 172.765625 70.101562 C 173.839844 69.65625 174.929688 69.246094 176.03125 68.867188 C 177.132812 68.492188 178.242188 68.148438 179.363281 67.835938 C 180.488281 67.523438 181.617188 67.246094 182.753906 67.003906 C 183.894531 66.757812 185.039062 66.550781 186.1875 66.375 C 187.339844 66.199219 188.492188 66.058594 189.652344 65.953125 C 190.8125 65.847656 191.972656 65.777344 193.136719 65.742188 C 194.300781 65.707031 195.464844 65.707031 196.628906 65.738281 C 197.792969 65.773438 198.953125 65.839844 200.113281 65.945312 C 201.269531 66.046875 202.425781 66.1875 203.578125 66.359375 C 204.730469 66.53125 205.875 66.738281 207.011719 66.980469 C 208.152344 67.222656 209.28125 67.496094 210.402344 67.804688 C 211.527344 68.117188 212.636719 68.457031 213.738281 68.832031 C 214.839844 69.210938 215.929688 69.617188 217.007812 70.058594 C 218.085938 70.5 219.148438 70.972656 220.195312 71.476562 C 221.246094 71.984375 222.277344 72.519531 223.292969 73.085938 C 224.3125 73.652344 225.308594 74.25 226.292969 74.875 C 227.273438 75.503906 228.234375 76.15625 229.175781 76.84375 C 230.117188 77.527344 231.035156 78.238281 231.933594 78.976562 C 232.835938 79.71875 233.710938 80.484375 234.5625 81.277344 L 343.382812 32.8125 L 362.597656 37.84375 L 254.890625 85.8125 L 257.964844 92.71875 L 371.867188 41.992188 C 372.042969 42.242188 372.199219 42.507812 372.335938 42.785156 L 374.007812 46.542969 C 374.390625 47.398438 374.566406 48.296875 374.539062 49.230469 C 374.511719 50.167969 374.285156 51.054688 373.851562 51.886719 Z M 82.300781 173.523438 C 82.433594 168.589844 83.222656 163.761719 84.667969 159.042969 C 86.113281 154.324219 88.164062 149.882812 90.816406 145.722656 C 100.453125 130.4375 115.742188 121.546875 129.996094 121.320312 C 130.121094 118.390625 130.441406 115.484375 130.957031 112.597656 C 113.476562 112.472656 94.882812 122.824219 83.398438 141.042969 C 75.355469 153.800781 72.332031 168.035156 73.832031 180.824219 Z M 82.300781 173.523438 " fill-opacity="1" fill-rule="nonzero"/></g></svg>