<svg xmlns="http://www.w3.org/2000/svg" xmlns:xlink="http://www.w3.org/1999/xlink" width="1080" zoomAndPan="magnify" viewBox="0 0 810 809.999993" height="1080" preserveAspectRatio="xMidYMid meet" version="1.0"><defs><clipPath id="e2c437c973"><path d="M 19.527344 19.527344 L 790.527344 19.527344 L 790.527344 790.527344 L 19.527344 790.527344 Z M 19.527344 19.527344 " clip-rule="nonzero"/></clipPath></defs><g clip-path="url(#e2c437c973)"><path fill="#ffffff" d="M 405 19.527344 C 398.691406 19.527344 392.386719 19.683594 386.085938 19.992188 C 379.785156 20.300781 373.496094 20.765625 367.214844 21.382812 C 360.9375 22.003906 354.679688 22.773438 348.4375 23.699219 C 342.199219 24.625 335.984375 25.703125 329.796875 26.933594 C 323.609375 28.164062 317.457031 29.546875 311.335938 31.082031 C 305.21875 32.613281 299.140625 34.296875 293.101562 36.125 C 287.066406 37.957031 281.078125 39.9375 275.136719 42.0625 C 269.199219 44.1875 263.3125 46.457031 257.484375 48.871094 C 251.65625 51.285156 245.890625 53.839844 240.1875 56.539062 C 234.484375 59.234375 228.851562 62.070312 223.289062 65.042969 C 217.726562 68.019531 212.238281 71.125 206.828125 74.371094 C 201.417969 77.613281 196.089844 80.988281 190.84375 84.492188 C 185.597656 87.996094 180.441406 91.628906 175.375 95.386719 C 170.308594 99.144531 165.335938 103.023438 160.460938 107.027344 C 155.582031 111.027344 150.808594 115.148438 146.132812 119.382812 C 141.457031 123.621094 136.890625 127.96875 132.429688 132.429688 C 127.96875 136.890625 123.621094 141.457031 119.382812 146.132812 C 115.148438 150.808594 111.027344 155.582031 107.027344 160.460938 C 103.023438 165.335938 99.144531 170.308594 95.386719 175.375 C 91.628906 180.441406 87.996094 185.597656 84.492188 190.84375 C 80.988281 196.089844 77.613281 201.417969 74.371094 206.828125 C 71.125 212.238281 68.019531 217.726562 65.042969 223.289062 C 62.070312 228.851562 59.234375 234.484375 56.539062 240.1875 C 53.839844 245.890625 51.285156 251.65625 48.871094 257.484375 C 46.457031 263.3125 44.1875 269.199219 42.0625 275.136719 C 39.9375 281.078125 37.957031 287.066406 36.125 293.101562 C 34.296875 299.140625 32.613281 305.21875 31.082031 311.335938 C 29.546875 317.457031 28.164062 323.609375 26.933594 329.796875 C 25.703125 335.984375 24.625 342.199219 23.699219 348.4375 C 22.773438 354.679688 22.003906 360.9375 21.382812 367.214844 C 20.765625 373.496094 20.300781 379.785156 19.992188 386.085938 C 19.683594 392.386719 19.527344 398.691406 19.527344 405 C 19.527344 411.308594 19.683594 417.613281 19.992188 423.914062 C 20.300781 430.214844 20.765625 436.503906 21.382812 442.78125 C 22.003906 449.058594 22.773438 455.320312 23.699219 461.558594 C 24.625 467.800781 25.703125 474.011719 26.933594 480.199219 C 28.164062 486.386719 29.546875 492.542969 31.082031 498.660156 C 32.613281 504.78125 34.296875 510.859375 36.125 516.894531 C 37.957031 522.933594 39.9375 528.921875 42.0625 534.859375 C 44.1875 540.800781 46.457031 546.683594 48.871094 552.511719 C 51.285156 558.339844 53.839844 564.105469 56.539062 569.808594 C 59.234375 575.511719 62.070312 581.144531 65.042969 586.707031 C 68.019531 592.273438 71.125 597.757812 74.371094 603.171875 C 77.613281 608.582031 80.988281 613.910156 84.492188 619.15625 C 87.996094 624.402344 91.628906 629.554688 95.386719 634.625 C 99.144531 639.691406 103.023438 644.664062 107.027344 649.539062 C 111.027344 654.414062 115.148438 659.191406 119.382812 663.867188 C 123.621094 668.539062 127.96875 673.105469 132.429688 677.566406 C 136.890625 682.027344 141.457031 686.378906 146.132812 690.613281 C 150.808594 694.851562 155.582031 698.96875 160.460938 702.972656 C 165.335938 706.972656 170.308594 710.855469 175.375 714.613281 C 180.441406 718.371094 185.597656 722 190.84375 725.507812 C 196.089844 729.011719 201.417969 732.386719 206.828125 735.628906 C 212.238281 738.871094 217.726562 741.980469 223.289062 744.953125 C 228.851562 747.925781 234.484375 750.761719 240.1875 753.460938 C 245.890625 756.15625 251.65625 758.714844 257.484375 761.128906 C 263.3125 763.542969 269.199219 765.8125 275.136719 767.9375 C 281.078125 770.0625 287.066406 772.039062 293.101562 773.871094 C 299.140625 775.703125 305.21875 777.382812 311.335938 778.917969 C 317.457031 780.449219 323.609375 781.832031 329.796875 783.0625 C 335.984375 784.292969 342.199219 785.371094 348.4375 786.296875 C 354.679688 787.222656 360.9375 787.996094 367.214844 788.613281 C 373.496094 789.230469 379.785156 789.695312 386.085938 790.003906 C 392.386719 790.316406 398.691406 790.46875 405 790.46875 C 411.308594 790.46875 417.613281 790.316406 423.914062 790.003906 C 430.214844 789.695312 436.503906 789.230469 442.78125 788.613281 C 449.058594 787.996094 455.320312 787.222656 461.558594 786.296875 C 467.800781 785.371094 474.011719 784.292969 480.199219 783.0625 C 486.386719 781.832031 492.542969 780.449219 498.660156 778.917969 C 504.78125 777.386719 510.859375 775.703125 516.894531 773.871094 C 522.933594 772.039062 528.921875 770.0625 534.859375 767.9375 C 540.800781 765.8125 546.683594 763.542969 552.511719 761.128906 C 558.339844 758.714844 564.105469 756.15625 569.808594 753.460938 C 575.511719 750.761719 581.144531 747.925781 586.707031 744.953125 C 592.273438 741.980469 597.757812 738.871094 603.171875 735.628906 C 608.582031 732.386719 613.910156 729.011719 619.15625 725.507812 C 624.398438 722 629.554688 718.371094 634.625 714.613281 C 639.691406 710.855469 644.664062 706.972656 649.539062 702.972656 C 654.414062 698.96875 659.191406 694.851562 663.867188 690.613281 C 668.539062 686.378906 673.105469 682.027344 677.566406 677.566406 C 682.027344 673.105469 686.378906 668.539062 690.613281 663.867188 C 694.851562 659.191406 698.96875 654.414062 702.972656 649.539062 C 706.972656 644.664062 710.855469 639.691406 714.613281 634.625 C 718.371094 629.554688 722 624.402344 725.507812 619.15625 C 729.011719 613.910156 732.386719 608.582031 735.628906 603.171875 C 738.871094 597.757812 741.980469 592.273438 744.953125 586.707031 C 747.925781 581.144531 750.761719 575.511719 753.460938 569.808594 C 756.15625 564.105469 758.714844 558.339844 761.128906 552.511719 C 763.542969 546.683594 765.8125 540.800781 767.9375 534.859375 C 770.0625 528.921875 772.039062 522.933594 773.871094 516.894531 C 775.703125 510.859375 777.382812 504.78125 778.917969 498.660156 C 780.449219 492.542969 781.832031 486.386719 783.0625 480.199219 C 784.292969 474.011719 785.371094 467.800781 786.296875 461.558594 C 787.222656 455.320312 787.996094 449.058594 788.613281 442.78125 C 789.230469 436.503906 789.695312 430.214844 790.003906 423.914062 C 790.316406 417.613281 790.46875 411.308594 790.46875 405 C 790.464844 398.691406 790.304688 392.390625 789.988281 386.089844 C 789.671875 379.792969 789.203125 373.503906 788.582031 367.226562 C 787.957031 360.953125 787.179688 354.695312 786.25 348.457031 C 785.320312 342.21875 784.238281 336.007812 783.003906 329.824219 C 781.769531 323.636719 780.382812 317.488281 778.84375 311.371094 C 777.308594 305.253906 775.625 299.179688 773.789062 293.144531 C 771.953125 287.109375 769.972656 281.125 767.847656 275.1875 C 765.71875 269.25 763.445312 263.367188 761.03125 257.542969 C 758.613281 251.71875 756.054688 245.953125 753.355469 240.253906 C 750.65625 234.554688 747.820312 228.921875 744.847656 223.363281 C 741.871094 217.800781 738.761719 212.316406 735.515625 206.90625 C 732.273438 201.5 728.898438 196.171875 725.394531 190.929688 C 721.886719 185.6875 718.257812 180.53125 714.5 175.46875 C 710.742188 170.402344 706.863281 165.433594 702.859375 160.558594 C 698.859375 155.683594 694.738281 150.910156 690.503906 146.234375 C 686.269531 141.5625 681.921875 136.996094 677.460938 132.539062 C 673 128.078125 668.433594 123.730469 663.761719 119.496094 C 659.089844 115.257812 654.316406 111.140625 649.441406 107.136719 C 644.566406 103.136719 639.597656 99.257812 634.53125 95.5 C 629.464844 91.742188 624.3125 88.109375 619.070312 84.605469 C 613.824219 81.097656 608.5 77.726562 603.089844 74.480469 C 597.683594 71.238281 592.199219 68.128906 586.636719 65.152344 C 581.074219 62.175781 575.445312 59.339844 569.746094 56.640625 C 564.042969 53.941406 558.28125 51.386719 552.457031 48.96875 C 546.628906 46.550781 540.75 44.28125 534.8125 42.152344 C 528.875 40.023438 522.886719 38.042969 516.855469 36.207031 C 510.820312 34.375 504.746094 32.6875 498.628906 31.152344 C 492.511719 29.617188 486.359375 28.230469 480.175781 26.996094 C 473.992188 25.761719 467.777344 24.679688 461.542969 23.75 C 455.304688 22.816406 449.046875 22.042969 442.769531 21.417969 C 436.496094 20.792969 430.207031 20.324219 423.90625 20.011719 C 417.609375 19.695312 411.304688 19.535156 405 19.527344 Z M 405 753.757812 C 399.292969 753.757812 393.585938 753.617188 387.886719 753.339844 C 382.183594 753.058594 376.496094 752.636719 370.816406 752.078125 C 365.132812 751.519531 359.472656 750.820312 353.824219 749.984375 C 348.179688 749.144531 342.558594 748.171875 336.960938 747.058594 C 331.363281 745.945312 325.792969 744.691406 320.257812 743.304688 C 314.722656 741.917969 309.222656 740.398438 303.757812 738.742188 C 298.296875 737.082031 292.878906 735.292969 287.503906 733.371094 C 282.132812 731.449219 276.808594 729.394531 271.535156 727.210938 C 266.261719 725.027344 261.046875 722.714844 255.886719 720.273438 C 250.726562 717.832031 245.628906 715.269531 240.59375 712.578125 C 235.5625 709.886719 230.597656 707.074219 225.699219 704.140625 C 220.804688 701.207031 215.984375 698.152344 211.238281 694.980469 C 206.492188 691.8125 201.828125 688.523438 197.242188 685.125 C 192.660156 681.726562 188.160156 678.214844 183.75 674.59375 C 179.335938 670.972656 175.015625 667.246094 170.785156 663.414062 C 166.558594 659.578125 162.425781 655.644531 158.390625 651.609375 C 154.351562 647.574219 150.417969 643.441406 146.585938 639.210938 C 142.753906 634.980469 139.027344 630.660156 135.40625 626.25 C 131.785156 621.835938 128.273438 617.339844 124.871094 612.753906 C 121.472656 608.171875 118.1875 603.503906 115.015625 598.757812 C 111.84375 594.011719 108.792969 589.191406 105.859375 584.296875 C 102.925781 579.402344 100.113281 574.4375 97.421875 569.402344 C 94.730469 564.371094 92.164062 559.273438 89.722656 554.113281 C 87.285156 548.953125 84.972656 543.738281 82.789062 538.464844 C 80.601562 533.191406 78.550781 527.867188 76.625 522.492188 C 74.703125 517.117188 72.914062 511.699219 71.257812 506.238281 C 69.601562 500.777344 68.078125 495.277344 66.691406 489.742188 C 65.304688 484.203125 64.054688 478.636719 62.941406 473.039062 C 61.828125 467.441406 60.851562 461.820312 60.015625 456.171875 C 59.175781 450.527344 58.480469 444.863281 57.917969 439.183594 C 57.359375 433.503906 56.941406 427.8125 56.660156 422.113281 C 56.378906 416.410156 56.238281 410.707031 56.238281 405 C 56.238281 399.292969 56.378906 393.585938 56.660156 387.886719 C 56.941406 382.183594 57.359375 376.496094 57.917969 370.816406 C 58.480469 365.132812 59.175781 359.472656 60.015625 353.824219 C 60.851562 348.179688 61.828125 342.558594 62.941406 336.960938 C 64.054688 331.363281 65.304688 325.792969 66.691406 320.257812 C 68.078125 314.722656 69.601562 309.222656 71.257812 303.757812 C 72.914062 298.296875 74.703125 292.878906 76.625 287.503906 C 78.550781 282.132812 80.601562 276.808594 82.789062 271.535156 C 84.972656 266.261719 87.285156 261.046875 89.722656 255.886719 C 92.164062 250.726562 94.730469 245.628906 97.421875 240.59375 C 100.113281 235.5625 102.925781 230.597656 105.859375 225.699219 C 108.792969 220.804688 111.84375 215.984375 115.015625 211.238281 C 118.1875 206.492188 121.472656 201.828125 124.871094 197.242188 C 128.273438 192.660156 131.785156 188.160156 135.40625 183.75 C 139.027344 179.335938 142.753906 175.015625 146.585938 170.785156 C 150.417969 166.558594 154.351562 162.425781 158.390625 158.390625 C 162.425781 154.351562 166.558594 150.417969 170.785156 146.585938 C 175.015625 142.753906 179.335938 139.027344 183.75 135.40625 C 188.160156 131.785156 192.660156 128.273438 197.242188 124.871094 C 201.828125 121.472656 206.492188 118.1875 211.238281 115.015625 C 215.984375 111.84375 220.804688 108.792969 225.699219 105.859375 C 230.597656 102.925781 235.5625 100.113281 240.59375 97.421875 C 245.628906 94.730469 250.726562 92.164062 255.886719 89.722656 C 261.046875 87.285156 266.261719 84.972656 271.535156 82.789062 C 276.808594 80.601562 282.132812 78.550781 287.503906 76.625 C 292.878906 74.703125 298.296875 72.914062 303.757812 71.257812 C 309.222656 69.601562 314.722656 68.078125 320.257812 66.691406 C 325.792969 65.304688 331.363281 64.054688 336.960938 62.941406 C 342.558594 61.828125 348.179688 60.851562 353.824219 60.015625 C 359.472656 59.175781 365.132812 58.480469 370.816406 57.917969 C 376.496094 57.359375 382.183594 56.941406 387.886719 56.660156 C 393.585938 56.378906 399.292969 56.238281 405 56.238281 C 410.707031 56.238281 416.410156 56.378906 422.113281 56.660156 C 427.8125 56.941406 433.503906 57.359375 439.183594 57.917969 C 444.863281 58.480469 450.527344 59.175781 456.171875 60.015625 C 461.820312 60.851562 467.441406 61.828125 473.039062 62.941406 C 478.636719 64.054688 484.203125 65.304688 489.742188 66.691406 C 495.277344 68.078125 500.777344 69.601562 506.238281 71.257812 C 511.699219 72.914062 517.117188 74.703125 522.492188 76.625 C 527.867188 78.550781 533.191406 80.601562 538.464844 82.789062 C 543.738281 84.972656 548.953125 87.285156 554.113281 89.722656 C 559.273438 92.164062 564.371094 94.730469 569.402344 97.421875 C 574.4375 100.113281 579.402344 102.925781 584.296875 105.859375 C 589.191406 108.792969 594.011719 111.84375 598.757812 115.015625 C 603.503906 118.1875 608.171875 121.472656 612.753906 124.871094 C 617.339844 128.273438 621.835938 131.785156 626.25 135.40625 C 630.660156 139.027344 634.980469 142.753906 639.210938 146.585938 C 643.441406 150.417969 647.574219 154.351562 651.609375 158.390625 C 655.644531 162.425781 659.578125 166.558594 663.414062 170.785156 C 667.246094 175.015625 670.972656 179.335938 674.59375 183.75 C 678.214844 188.160156 681.726562 192.660156 685.125 197.242188 C 688.523438 201.828125 691.8125 206.492188 694.980469 211.238281 C 698.152344 215.984375 701.207031 220.804688 704.140625 225.699219 C 707.074219 230.597656 709.886719 235.5625 712.578125 240.59375 C 715.269531 245.628906 717.832031 250.726562 720.273438 255.886719 C 722.714844 261.046875 725.027344 266.261719 727.210938 271.535156 C 729.394531 276.808594 731.449219 282.132812 733.371094 287.503906 C 735.292969 292.878906 737.082031 298.296875 738.742188 303.757812 C 740.398438 309.222656 741.917969 314.722656 743.304688 320.257812 C 744.691406 325.792969 745.945312 331.363281 747.058594 336.960938 C 748.171875 342.558594 749.144531 348.179688 749.984375 353.824219 C 750.820312 359.472656 751.519531 365.132812 752.078125 370.816406 C 752.636719 376.496094 753.058594 382.183594 753.339844 387.886719 C 753.617188 393.585938 753.757812 399.292969 753.757812 405 C 753.753906 410.707031 753.605469 416.40625 753.320312 422.105469 C 753.035156 427.804688 752.609375 433.492188 752.046875 439.171875 C 751.480469 444.851562 750.777344 450.511719 749.9375 456.15625 C 749.09375 461.796875 748.113281 467.417969 746.996094 473.011719 C 745.878906 478.609375 744.625 484.171875 743.234375 489.707031 C 741.84375 495.242188 740.320312 500.738281 738.660156 506.199219 C 737 511.65625 735.207031 517.070312 733.28125 522.445312 C 731.355469 527.816406 729.300781 533.136719 727.113281 538.40625 C 724.925781 543.675781 722.613281 548.890625 720.167969 554.046875 C 717.726562 559.207031 715.160156 564.300781 712.46875 569.332031 C 709.777344 574.363281 706.964844 579.324219 704.027344 584.21875 C 701.09375 589.109375 698.039062 593.929688 694.867188 598.671875 C 691.699219 603.417969 688.410156 608.078125 685.011719 612.660156 C 681.613281 617.246094 678.101562 621.742188 674.480469 626.152344 C 670.859375 630.5625 667.132812 634.878906 663.300781 639.109375 C 659.46875 643.335938 655.535156 647.46875 651.5 651.5 C 647.46875 655.535156 643.335938 659.46875 639.109375 663.300781 C 634.878906 667.132812 630.5625 670.859375 626.152344 674.480469 C 621.742188 678.101562 617.246094 681.613281 612.660156 685.011719 C 608.078125 688.410156 603.417969 691.699219 598.671875 694.867188 C 593.929688 698.039062 589.109375 701.09375 584.21875 704.027344 C 579.324219 706.964844 574.363281 709.777344 569.332031 712.46875 C 564.300781 715.160156 559.203125 717.726562 554.046875 720.167969 C 548.890625 722.613281 543.675781 724.925781 538.40625 727.113281 C 533.136719 729.300781 527.816406 731.355469 522.445312 733.28125 C 517.070312 735.207031 511.65625 737 506.199219 738.660156 C 500.738281 740.320312 495.242188 741.84375 489.707031 743.234375 C 484.171875 744.625 478.609375 745.878906 473.011719 746.996094 C 467.417969 748.113281 461.796875 749.09375 456.15625 749.9375 C 450.511719 750.777344 444.851562 751.480469 439.171875 752.046875 C 433.492188 752.609375 427.804688 753.035156 422.105469 753.320312 C 416.40625 753.605469 410.707031 753.753906 405 753.757812 Z M 203.085938 331.574219 C 201.882812 331.574219 200.683594 331.605469 199.484375 331.664062 C 198.28125 331.722656 197.085938 331.8125 195.890625 331.929688 C 194.691406 332.046875 193.5 332.195312 192.3125 332.371094 C 191.125 332.546875 189.941406 332.753906 188.761719 332.988281 C 187.582031 333.222656 186.410156 333.484375 185.246094 333.777344 C 184.078125 334.070312 182.921875 334.390625 181.773438 334.738281 C 180.621094 335.085938 179.480469 335.464844 178.351562 335.867188 C 177.21875 336.273438 176.097656 336.707031 174.988281 337.164062 C 173.878906 337.625 172.78125 338.113281 171.695312 338.625 C 170.605469 339.140625 169.535156 339.679688 168.472656 340.246094 C 167.414062 340.8125 166.371094 341.402344 165.339844 342.023438 C 164.308594 342.640625 163.292969 343.28125 162.292969 343.949219 C 161.296875 344.617188 160.3125 345.308594 159.347656 346.023438 C 158.382812 346.742188 157.4375 347.480469 156.507812 348.242188 C 155.578125 349.003906 154.667969 349.789062 153.777344 350.597656 C 152.886719 351.402344 152.019531 352.230469 151.167969 353.082031 C 150.316406 353.929688 149.488281 354.800781 148.683594 355.691406 C 147.875 356.582031 147.089844 357.492188 146.328125 358.421875 C 145.566406 359.347656 144.828125 360.296875 144.113281 361.261719 C 143.394531 362.226562 142.703125 363.207031 142.035156 364.207031 C 141.371094 365.207031 140.726562 366.222656 140.109375 367.253906 C 139.492188 368.28125 138.898438 369.328125 138.332031 370.386719 C 137.765625 371.449219 137.226562 372.519531 136.710938 373.605469 C 136.199219 374.691406 135.710938 375.792969 135.25 376.902344 C 134.792969 378.011719 134.359375 379.132812 133.953125 380.261719 C 133.550781 381.394531 133.171875 382.535156 132.824219 383.683594 C 132.476562 384.835938 132.15625 385.992188 131.863281 387.160156 C 131.570312 388.324219 131.308594 389.496094 131.074219 390.675781 C 130.839844 391.851562 130.632812 393.035156 130.457031 394.226562 C 130.28125 395.414062 130.132812 396.605469 130.015625 397.800781 C 129.898438 399 129.808594 400.195312 129.75 401.394531 C 129.691406 402.597656 129.664062 403.796875 129.664062 405 C 129.664062 406.199219 129.691406 407.402344 129.75 408.601562 C 129.808594 409.800781 129.898438 411 130.015625 412.195312 C 130.132812 413.390625 130.28125 414.582031 130.457031 415.773438 C 130.632812 416.960938 130.839844 418.144531 131.074219 419.324219 C 131.308594 420.5 131.570312 421.671875 131.863281 422.839844 C 132.15625 424.003906 132.476562 425.164062 132.824219 426.3125 C 133.171875 427.460938 133.550781 428.601562 133.953125 429.734375 C 134.359375 430.867188 134.792969 431.988281 135.25 433.097656 C 135.710938 434.207031 136.199219 435.304688 136.710938 436.390625 C 137.226562 437.476562 137.765625 438.550781 138.332031 439.609375 C 138.898438 440.671875 139.492188 441.714844 140.109375 442.746094 C 140.726562 443.777344 141.371094 444.792969 142.035156 445.789062 C 142.703125 446.789062 143.394531 447.773438 144.113281 448.738281 C 144.828125 449.703125 145.566406 450.648438 146.328125 451.578125 C 147.089844 452.507812 147.875 453.417969 148.683594 454.308594 C 149.488281 455.195312 150.316406 456.066406 151.167969 456.917969 C 152.019531 457.765625 152.886719 458.59375 153.777344 459.402344 C 154.667969 460.207031 155.578125 460.992188 156.507812 461.753906 C 157.4375 462.519531 158.382812 463.257812 159.347656 463.972656 C 160.3125 464.6875 161.296875 465.378906 162.292969 466.046875 C 163.292969 466.714844 164.308594 467.359375 165.339844 467.976562 C 166.371094 468.59375 167.414062 469.1875 168.472656 469.753906 C 169.535156 470.320312 170.605469 470.859375 171.695312 471.371094 C 172.78125 471.886719 173.878906 472.375 174.988281 472.832031 C 176.097656 473.292969 177.21875 473.726562 178.351562 474.128906 C 179.480469 474.535156 180.621094 474.910156 181.773438 475.261719 C 182.921875 475.609375 184.078125 475.929688 185.246094 476.222656 C 186.410156 476.511719 187.582031 476.777344 188.761719 477.011719 C 189.941406 477.246094 191.125 477.449219 192.3125 477.628906 C 193.5 477.804688 194.691406 477.949219 195.890625 478.070312 C 197.085938 478.1875 198.28125 478.273438 199.484375 478.332031 C 200.683594 478.390625 201.882812 478.421875 203.085938 478.421875 C 204.289062 478.421875 205.488281 478.390625 206.6875 478.332031 C 207.890625 478.273438 209.085938 478.1875 210.28125 478.070312 C 211.476562 477.949219 212.671875 477.804688 213.859375 477.628906 C 215.046875 477.449219 216.230469 477.246094 217.410156 477.011719 C 218.589844 476.777344 219.761719 476.511719 220.925781 476.222656 C 222.089844 475.929688 223.25 475.609375 224.398438 475.261719 C 225.550781 474.910156 226.691406 474.535156 227.820312 474.128906 C 228.953125 473.726562 230.074219 473.292969 231.183594 472.832031 C 232.292969 472.375 233.390625 471.886719 234.476562 471.371094 C 235.5625 470.859375 236.636719 470.320312 237.695312 469.753906 C 238.757812 469.1875 239.800781 468.59375 240.832031 467.976562 C 241.863281 467.359375 242.878906 466.714844 243.878906 466.046875 C 244.875 465.378906 245.859375 464.6875 246.824219 463.972656 C 247.789062 463.257812 248.734375 462.519531 249.664062 461.753906 C 250.59375 460.992188 251.503906 460.207031 252.394531 459.402344 C 253.285156 458.59375 254.152344 457.765625 255.003906 456.917969 C 255.851562 456.066406 256.683594 455.195312 257.488281 454.308594 C 258.296875 453.417969 259.082031 452.507812 259.84375 451.578125 C 260.605469 450.648438 261.34375 449.703125 262.058594 448.738281 C 262.777344 447.773438 263.46875 446.789062 264.136719 445.789062 C 264.800781 444.792969 265.445312 443.777344 266.0625 442.746094 C 266.679688 441.714844 267.273438 440.671875 267.839844 439.609375 C 268.40625 438.550781 268.945312 437.476562 269.460938 436.390625 C 269.972656 435.304688 270.460938 434.207031 270.917969 433.097656 C 271.378906 431.988281 271.8125 430.867188 272.214844 429.734375 C 272.621094 428.601562 273 427.460938 273.347656 426.3125 C 273.695312 425.164062 274.015625 424.003906 274.308594 422.839844 C 274.601562 421.671875 274.863281 420.5 275.097656 419.324219 C 275.332031 418.144531 275.539062 416.960938 275.714844 415.773438 C 275.890625 414.582031 276.039062 413.390625 276.15625 412.195312 C 276.273438 411 276.363281 409.800781 276.421875 408.601562 C 276.480469 407.402344 276.507812 406.199219 276.507812 405 C 276.507812 403.796875 276.480469 402.597656 276.421875 401.394531 C 276.363281 400.195312 276.273438 399 276.15625 397.800781 C 276.039062 396.605469 275.890625 395.414062 275.714844 394.226562 C 275.539062 393.035156 275.332031 391.851562 275.097656 390.675781 C 274.863281 389.496094 274.601562 388.324219 274.308594 387.160156 C 274.015625 385.992188 273.695312 384.835938 273.347656 383.683594 C 273 382.535156 272.621094 381.394531 272.214844 380.261719 C 271.8125 379.132812 271.378906 378.011719 270.917969 376.902344 C 270.460938 375.792969 269.972656 374.691406 269.460938 373.605469 C 268.945312 372.519531 268.40625 371.449219 267.839844 370.386719 C 267.273438 369.328125 266.679688 368.28125 266.0625 367.253906 C 265.445312 366.222656 264.800781 365.207031 264.136719 364.207031 C 263.46875 363.207031 262.777344 362.226562 262.058594 361.261719 C 261.34375 360.296875 260.605469 359.347656 259.84375 358.421875 C 259.082031 357.492188 258.296875 356.582031 257.488281 355.691406 C 256.679688 354.800781 255.851562 353.929688 255.003906 353.082031 C 254.152344 352.230469 253.285156 351.402344 252.394531 350.597656 C 251.503906 349.789062 250.59375 349.003906 249.664062 348.242188 C 248.734375 347.480469 247.789062 346.742188 246.824219 346.023438 C 245.859375 345.308594 244.875 344.617188 243.878906 343.949219 C 242.878906 343.28125 241.863281 342.640625 240.832031 342.023438 C 239.800781 341.402344 238.757812 340.8125 237.695312 340.246094 C 236.636719 339.679688 235.5625 339.140625 234.476562 338.625 C 233.390625 338.113281 232.292969 337.625 231.183594 337.164062 C 230.074219 336.707031 228.953125 336.273438 227.820312 335.867188 C 226.691406 335.464844 225.550781 335.085938 224.398438 334.738281 C 223.25 334.390625 222.089844 334.070312 220.925781 333.777344 C 219.761719 333.484375 218.589844 333.222656 217.410156 332.988281 C 216.230469 332.753906 215.046875 332.546875 213.859375 332.371094 C 212.671875 332.195312 211.476562 332.046875 210.28125 331.929688 C 209.085938 331.8125 207.890625 331.722656 206.6875 331.664062 C 205.488281 331.605469 204.289062 331.574219 203.085938 331.574219 Z M 203.085938 441.710938 C 201.882812 441.710938 200.683594 441.652344 199.488281 441.535156 C 198.289062 441.414062 197.101562 441.238281 195.921875 441.003906 C 194.746094 440.769531 193.578125 440.480469 192.429688 440.128906 C 191.277344 439.78125 190.148438 439.375 189.035156 438.914062 C 187.925781 438.457031 186.839844 437.941406 185.78125 437.375 C 184.71875 436.808594 183.691406 436.191406 182.691406 435.523438 C 181.691406 434.855469 180.726562 434.140625 179.796875 433.378906 C 178.867188 432.613281 177.976562 431.808594 177.125 430.957031 C 176.277344 430.109375 175.46875 429.21875 174.707031 428.289062 C 173.945312 427.359375 173.230469 426.394531 172.5625 425.394531 C 171.894531 424.394531 171.277344 423.363281 170.710938 422.304688 C 170.140625 421.246094 169.628906 420.160156 169.167969 419.046875 C 168.707031 417.9375 168.304688 416.804688 167.957031 415.65625 C 167.605469 414.503906 167.3125 413.339844 167.078125 412.160156 C 166.84375 410.980469 166.667969 409.792969 166.550781 408.597656 C 166.433594 407.402344 166.375 406.203125 166.375 405 C 166.375 403.796875 166.433594 402.597656 166.550781 401.402344 C 166.667969 400.203125 166.84375 399.015625 167.078125 397.835938 C 167.3125 396.65625 167.605469 395.492188 167.957031 394.34375 C 168.304688 393.191406 168.707031 392.0625 169.167969 390.949219 C 169.628906 389.839844 170.140625 388.753906 170.710938 387.695312 C 171.277344 386.632812 171.894531 385.601562 172.5625 384.601562 C 173.230469 383.601562 173.945312 382.640625 174.707031 381.710938 C 175.46875 380.78125 176.277344 379.890625 177.125 379.039062 C 177.976562 378.191406 178.867188 377.382812 179.796875 376.621094 C 180.726562 375.859375 181.691406 375.140625 182.691406 374.472656 C 183.691406 373.804688 184.71875 373.1875 185.78125 372.621094 C 186.839844 372.054688 187.925781 371.542969 189.035156 371.082031 C 190.148438 370.621094 191.277344 370.21875 192.429688 369.867188 C 193.578125 369.519531 194.746094 369.226562 195.921875 368.992188 C 197.101562 368.757812 198.289062 368.582031 199.488281 368.464844 C 200.683594 368.347656 201.882812 368.289062 203.085938 368.289062 C 204.289062 368.289062 205.488281 368.347656 206.683594 368.464844 C 207.878906 368.582031 209.070312 368.757812 210.246094 368.992188 C 211.425781 369.226562 212.59375 369.519531 213.742188 369.867188 C 214.894531 370.21875 216.023438 370.621094 217.132812 371.082031 C 218.246094 371.542969 219.332031 372.054688 220.390625 372.621094 C 221.453125 373.1875 222.480469 373.804688 223.480469 374.472656 C 224.480469 375.140625 225.445312 375.859375 226.375 376.621094 C 227.304688 377.382812 228.195312 378.191406 229.042969 379.039062 C 229.894531 379.890625 230.703125 380.78125 231.464844 381.710938 C 232.226562 382.640625 232.941406 383.605469 233.609375 384.601562 C 234.277344 385.601562 234.894531 386.632812 235.460938 387.695312 C 236.027344 388.753906 236.542969 389.839844 237.003906 390.949219 C 237.464844 392.0625 237.867188 393.191406 238.214844 394.34375 C 238.566406 395.492188 238.855469 396.65625 239.09375 397.835938 C 239.328125 399.015625 239.503906 400.203125 239.621094 401.402344 C 239.738281 402.597656 239.796875 403.796875 239.796875 405 C 239.796875 406.203125 239.738281 407.402344 239.621094 408.597656 C 239.503906 409.792969 239.328125 410.980469 239.09375 412.160156 C 238.855469 413.339844 238.566406 414.503906 238.214844 415.65625 C 237.867188 416.804688 237.464844 417.9375 237.003906 419.046875 C 236.542969 420.160156 236.027344 421.246094 235.460938 422.304688 C 234.894531 423.363281 234.277344 424.394531 233.609375 425.394531 C 232.941406 426.394531 232.226562 427.359375 231.464844 428.289062 C 230.703125 429.21875 229.894531 430.109375 229.042969 430.957031 C 228.195312 431.808594 227.304688 432.613281 226.375 433.378906 C 225.445312 434.140625 224.480469 434.855469 223.480469 435.523438 C 222.480469 436.191406 221.453125 436.808594 220.390625 437.375 C 219.332031 437.941406 218.246094 438.457031 217.132812 438.914062 C 216.023438 439.375 214.894531 439.78125 213.742188 440.128906 C 212.59375 440.480469 211.425781 440.769531 210.246094 441.003906 C 209.070312 441.238281 207.878906 441.414062 206.683594 441.535156 C 205.488281 441.652344 204.289062 441.710938 203.085938 441.710938 Z M 606.914062 331.574219 C 605.710938 331.574219 604.507812 331.605469 603.308594 331.664062 C 602.109375 331.722656 600.910156 331.8125 599.714844 331.929688 C 598.519531 332.046875 597.328125 332.195312 596.140625 332.371094 C 594.949219 332.546875 593.765625 332.753906 592.589844 332.988281 C 591.410156 333.222656 590.238281 333.484375 589.070312 333.777344 C 587.90625 334.070312 586.75 334.390625 585.597656 334.738281 C 584.449219 335.085938 583.308594 335.464844 582.175781 335.867188 C 581.046875 336.273438 579.925781 336.707031 578.8125 337.164062 C 577.703125 337.625 576.605469 338.113281 575.519531 338.625 C 574.433594 339.140625 573.359375 339.679688 572.300781 340.246094 C 571.242188 340.8125 570.195312 341.402344 569.164062 342.023438 C 568.132812 342.640625 567.121094 343.28125 566.121094 343.949219 C 565.121094 344.617188 564.140625 345.308594 563.175781 346.023438 C 562.210938 346.742188 561.261719 347.480469 560.332031 348.242188 C 559.402344 349.003906 558.496094 349.789062 557.605469 350.597656 C 556.714844 351.402344 555.84375 352.230469 554.996094 353.082031 C 554.144531 353.929688 553.316406 354.800781 552.507812 355.691406 C 551.703125 356.582031 550.917969 357.492188 550.15625 358.421875 C 549.394531 359.347656 548.652344 360.296875 547.9375 361.261719 C 547.222656 362.226562 546.53125 363.207031 545.863281 364.207031 C 545.195312 365.207031 544.554688 366.222656 543.933594 367.253906 C 543.316406 368.28125 542.726562 369.328125 542.160156 370.386719 C 541.59375 371.449219 541.050781 372.519531 540.539062 373.605469 C 540.023438 374.691406 539.539062 375.792969 539.078125 376.902344 C 538.617188 378.011719 538.1875 379.132812 537.78125 380.261719 C 537.375 381.394531 537 382.535156 536.652344 383.683594 C 536.300781 384.835938 535.980469 385.992188 535.691406 387.160156 C 535.398438 388.324219 535.132812 389.496094 534.898438 390.675781 C 534.664062 391.851562 534.460938 393.035156 534.285156 394.226562 C 534.109375 395.414062 533.960938 396.605469 533.84375 397.800781 C 533.726562 399 533.636719 400.195312 533.578125 401.394531 C 533.519531 402.597656 533.488281 403.796875 533.488281 405 C 533.488281 406.199219 533.519531 407.402344 533.578125 408.601562 C 533.636719 409.800781 533.726562 411 533.84375 412.195312 C 533.960938 413.390625 534.109375 414.582031 534.285156 415.773438 C 534.460938 416.960938 534.664062 418.144531 534.898438 419.324219 C 535.132812 420.5 535.398438 421.671875 535.691406 422.839844 C 535.980469 424.003906 536.300781 425.164062 536.652344 426.3125 C 537 427.460938 537.375 428.601562 537.78125 429.734375 C 538.1875 430.867188 538.617188 431.988281 539.078125 433.097656 C 539.539062 434.207031 540.023438 435.304688 540.539062 436.390625 C 541.050781 437.476562 541.59375 438.550781 542.160156 439.609375 C 542.726562 440.671875 543.316406 441.714844 543.933594 442.746094 C 544.554688 443.777344 545.195312 444.792969 545.863281 445.789062 C 546.53125 446.789062 547.222656 447.773438 547.9375 448.738281 C 548.652344 449.703125 549.394531 450.648438 550.15625 451.578125 C 550.917969 452.507812 551.703125 453.417969 552.507812 454.308594 C 553.316406 455.195312 554.144531 456.066406 554.996094 456.917969 C 555.84375 457.765625 556.714844 458.59375 557.605469 459.402344 C 558.496094 460.207031 559.402344 460.992188 560.332031 461.753906 C 561.261719 462.519531 562.210938 463.257812 563.175781 463.972656 C 564.140625 464.6875 565.121094 465.378906 566.121094 466.046875 C 567.121094 466.714844 568.132812 467.359375 569.164062 467.976562 C 570.195312 468.59375 571.242188 469.1875 572.300781 469.753906 C 573.359375 470.320312 574.433594 470.859375 575.519531 471.371094 C 576.605469 471.886719 577.703125 472.375 578.8125 472.832031 C 579.925781 473.292969 581.046875 473.726562 582.175781 474.128906 C 583.308594 474.535156 584.449219 474.910156 585.597656 475.261719 C 586.75 475.609375 587.90625 475.929688 589.070312 476.222656 C 590.238281 476.511719 591.410156 476.777344 592.589844 477.011719 C 593.765625 477.246094 594.949219 477.449219 596.140625 477.628906 C 597.328125 477.804688 598.519531 477.949219 599.714844 478.070312 C 600.910156 478.1875 602.109375 478.273438 603.308594 478.332031 C 604.507812 478.390625 605.710938 478.421875 606.914062 478.421875 C 608.113281 478.421875 609.316406 478.390625 610.515625 478.332031 C 611.714844 478.273438 612.914062 478.1875 614.109375 478.070312 C 615.304688 477.949219 616.496094 477.804688 617.6875 477.628906 C 618.875 477.449219 620.058594 477.246094 621.238281 477.011719 C 622.414062 476.777344 623.585938 476.511719 624.753906 476.222656 C 625.917969 475.929688 627.074219 475.609375 628.226562 475.261719 C 629.375 474.910156 630.515625 474.535156 631.648438 474.128906 C 632.777344 473.726562 633.898438 473.292969 635.011719 472.832031 C 636.121094 472.375 637.21875 471.886719 638.304688 471.371094 C 639.390625 470.859375 640.464844 470.320312 641.523438 469.753906 C 642.582031 469.1875 643.628906 468.59375 644.660156 467.976562 C 645.691406 467.359375 646.703125 466.714844 647.703125 466.046875 C 648.703125 465.378906 649.683594 464.6875 650.648438 463.972656 C 651.617188 463.257812 652.5625 462.519531 653.492188 461.753906 C 654.421875 460.992188 655.328125 460.207031 656.21875 459.402344 C 657.109375 458.59375 657.980469 457.765625 658.832031 456.917969 C 659.679688 456.066406 660.507812 455.195312 661.316406 454.308594 C 662.121094 453.417969 662.90625 452.507812 663.667969 451.578125 C 664.429688 450.648438 665.171875 449.703125 665.886719 448.738281 C 666.601562 447.773438 667.292969 446.789062 667.960938 445.789062 C 668.628906 444.792969 669.269531 443.777344 669.890625 442.746094 C 670.507812 441.714844 671.097656 440.671875 671.664062 439.609375 C 672.230469 438.550781 672.773438 437.476562 673.285156 436.390625 C 673.800781 435.304688 674.285156 434.207031 674.746094 433.097656 C 675.207031 431.988281 675.636719 430.867188 676.042969 429.734375 C 676.449219 428.601562 676.824219 427.460938 677.171875 426.3125 C 677.523438 425.164062 677.84375 424.003906 678.136719 422.839844 C 678.425781 421.671875 678.691406 420.5 678.925781 419.324219 C 679.160156 418.144531 679.363281 416.960938 679.539062 415.773438 C 679.714844 414.582031 679.863281 413.390625 679.980469 412.195312 C 680.097656 411 680.1875 409.800781 680.246094 408.601562 C 680.304688 407.402344 680.335938 406.199219 680.335938 405 C 680.335938 403.796875 680.304688 402.597656 680.246094 401.394531 C 680.1875 400.195312 680.097656 399 679.980469 397.800781 C 679.863281 396.605469 679.714844 395.414062 679.539062 394.226562 C 679.363281 393.035156 679.160156 391.851562 678.925781 390.675781 C 678.691406 389.496094 678.425781 388.324219 678.136719 387.160156 C 677.84375 385.992188 677.523438 384.835938 677.171875 383.683594 C 676.824219 382.535156 676.449219 381.394531 676.042969 380.261719 C 675.636719 379.132812 675.207031 378.011719 674.746094 376.902344 C 674.285156 375.792969 673.800781 374.691406 673.285156 373.605469 C 672.773438 372.519531 672.230469 371.449219 671.664062 370.386719 C 671.097656 369.328125 670.507812 368.28125 669.890625 367.253906 C 669.269531 366.222656 668.628906 365.207031 667.960938 364.207031 C 667.292969 363.207031 666.601562 362.226562 665.886719 361.261719 C 665.171875 360.296875 664.429688 359.347656 663.667969 358.421875 C 662.90625 357.492188 662.121094 356.582031 661.316406 355.691406 C 660.507812 354.800781 659.679688 353.929688 658.832031 353.082031 C 657.980469 352.230469 657.109375 351.402344 656.21875 350.597656 C 655.328125 349.789062 654.421875 349.003906 653.492188 348.242188 C 652.5625 347.480469 651.617188 346.742188 650.648438 346.023438 C 649.683594 345.308594 648.703125 344.617188 647.703125 343.949219 C 646.703125 343.28125 645.691406 342.640625 644.660156 342.023438 C 643.628906 341.402344 642.582031 340.8125 641.523438 340.246094 C 640.464844 339.679688 639.390625 339.140625 638.304688 338.625 C 637.21875 338.113281 636.121094 337.625 635.011719 337.164062 C 633.898438 336.707031 632.777344 336.273438 631.648438 335.867188 C 630.515625 335.464844 629.375 335.085938 628.226562 334.738281 C 627.074219 334.390625 625.917969 334.070312 624.753906 333.777344 C 623.585938 333.484375 622.414062 333.222656 621.238281 332.988281 C 620.058594 332.753906 618.875 332.546875 617.6875 332.371094 C 616.496094 332.195312 615.304688 332.046875 614.109375 331.929688 C 612.914062 331.8125 611.714844 331.722656 610.515625 331.664062 C 609.316406 331.605469 608.113281 331.574219 606.914062 331.574219 Z M 606.914062 441.710938 C 605.710938 441.710938 604.511719 441.652344 603.3125 441.535156 C 602.117188 441.414062 600.929688 441.238281 599.75 441.003906 C 598.570312 440.769531 597.40625 440.480469 596.253906 440.128906 C 595.105469 439.78125 593.972656 439.375 592.863281 438.914062 C 591.753906 438.457031 590.667969 437.941406 589.605469 437.375 C 588.546875 436.808594 587.515625 436.191406 586.515625 435.523438 C 585.515625 434.855469 584.550781 434.140625 583.621094 433.378906 C 582.691406 432.613281 581.804688 431.808594 580.953125 430.957031 C 580.101562 430.109375 579.296875 429.21875 578.535156 428.289062 C 577.769531 427.359375 577.054688 426.394531 576.386719 425.394531 C 575.71875 424.394531 575.101562 423.363281 574.535156 422.304688 C 573.96875 421.246094 573.457031 420.160156 572.996094 419.046875 C 572.535156 417.9375 572.128906 416.804688 571.78125 415.65625 C 571.433594 414.503906 571.140625 413.339844 570.90625 412.160156 C 570.671875 410.980469 570.496094 409.792969 570.378906 408.597656 C 570.257812 407.402344 570.199219 406.203125 570.199219 405 C 570.199219 403.796875 570.257812 402.597656 570.378906 401.402344 C 570.496094 400.203125 570.671875 399.015625 570.90625 397.835938 C 571.140625 396.65625 571.433594 395.492188 571.78125 394.34375 C 572.128906 393.191406 572.535156 392.0625 572.996094 390.949219 C 573.457031 389.839844 573.96875 388.753906 574.535156 387.695312 C 575.101562 386.632812 575.71875 385.601562 576.386719 384.601562 C 577.054688 383.601562 577.769531 382.640625 578.535156 381.710938 C 579.296875 380.78125 580.101562 379.890625 580.953125 379.039062 C 581.804688 378.191406 582.691406 377.382812 583.621094 376.621094 C 584.550781 375.859375 585.515625 375.140625 586.515625 374.472656 C 587.515625 373.804688 588.546875 373.1875 589.605469 372.621094 C 590.667969 372.054688 591.753906 371.542969 592.863281 371.082031 C 593.972656 370.621094 595.105469 370.21875 596.253906 369.867188 C 597.40625 369.519531 598.570312 369.226562 599.75 368.992188 C 600.929688 368.757812 602.117188 368.582031 603.3125 368.464844 C 604.511719 368.347656 605.710938 368.289062 606.914062 368.289062 C 608.113281 368.289062 609.3125 368.347656 610.511719 368.464844 C 611.707031 368.582031 612.894531 368.757812 614.074219 368.992188 C 615.253906 369.226562 616.417969 369.519531 617.570312 369.867188 C 618.71875 370.21875 619.851562 370.621094 620.960938 371.082031 C 622.070312 371.542969 623.15625 372.054688 624.21875 372.621094 C 625.277344 373.1875 626.308594 373.804688 627.308594 374.472656 C 628.308594 375.140625 629.273438 375.859375 630.203125 376.621094 C 631.132812 377.382812 632.019531 378.191406 632.871094 379.039062 C 633.722656 379.890625 634.527344 380.78125 635.289062 381.710938 C 636.054688 382.640625 636.769531 383.605469 637.4375 384.601562 C 638.105469 385.601562 638.722656 386.632812 639.289062 387.695312 C 639.855469 388.753906 640.367188 389.839844 640.828125 390.949219 C 641.289062 392.0625 641.695312 393.191406 642.042969 394.34375 C 642.390625 395.492188 642.683594 396.65625 642.917969 397.835938 C 643.152344 399.015625 643.328125 400.203125 643.445312 401.402344 C 643.566406 402.597656 643.625 403.796875 643.625 405 C 643.625 406.203125 643.566406 407.402344 643.445312 408.597656 C 643.328125 409.792969 643.152344 410.980469 642.917969 412.160156 C 642.683594 413.339844 642.390625 414.503906 642.042969 415.65625 C 641.695312 416.804688 641.289062 417.9375 640.828125 419.046875 C 640.367188 420.160156 639.855469 421.246094 639.289062 422.304688 C 638.722656 423.363281 638.105469 424.394531 637.4375 425.394531 C 636.769531 426.394531 636.054688 427.359375 635.289062 428.289062 C 634.527344 429.21875 633.722656 430.109375 632.871094 430.957031 C 632.019531 431.808594 631.132812 432.613281 630.203125 433.378906 C 629.273438 434.140625 628.308594 434.855469 627.308594 435.523438 C 626.308594 436.191406 625.277344 436.808594 624.21875 437.375 C 623.15625 437.941406 622.070312 438.457031 620.960938 438.914062 C 619.851562 439.375 618.71875 439.78125 617.570312 440.128906 C 616.417969 440.480469 615.253906 440.769531 614.074219 441.003906 C 612.894531 441.238281 611.707031 441.414062 610.511719 441.535156 C 609.3125 441.652344 608.113281 441.710938 606.914062 441.710938 Z M 405 331.574219 C 403.796875 331.574219 402.597656 331.605469 401.394531 331.664062 C 400.195312 331.722656 399 331.8125 397.800781 331.929688 C 396.605469 332.046875 395.414062 332.195312 394.226562 332.371094 C 393.035156 332.546875 391.851562 332.753906 390.675781 332.988281 C 389.496094 333.222656 388.324219 333.484375 387.160156 333.777344 C 385.992188 334.070312 384.835938 334.390625 383.683594 334.738281 C 382.535156 335.085938 381.394531 335.464844 380.261719 335.867188 C 379.132812 336.273438 378.011719 336.707031 376.902344 337.164062 C 375.792969 337.625 374.691406 338.113281 373.605469 338.625 C 372.519531 339.140625 371.449219 339.679688 370.386719 340.246094 C 369.328125 340.8125 368.28125 341.402344 367.253906 342.023438 C 366.222656 342.640625 365.207031 343.28125 364.207031 343.949219 C 363.207031 344.617188 362.226562 345.308594 361.261719 346.023438 C 360.296875 346.742188 359.347656 347.480469 358.421875 348.242188 C 357.492188 349.003906 356.582031 349.789062 355.691406 350.597656 C 354.800781 351.402344 353.929688 352.230469 353.082031 353.082031 C 352.230469 353.929688 351.402344 354.800781 350.597656 355.691406 C 349.789062 356.582031 349.003906 357.492188 348.242188 358.421875 C 347.480469 359.347656 346.742188 360.296875 346.023438 361.261719 C 345.308594 362.226562 344.617188 363.207031 343.949219 364.207031 C 343.28125 365.207031 342.640625 366.222656 342.023438 367.253906 C 341.402344 368.28125 340.8125 369.328125 340.246094 370.386719 C 339.679688 371.449219 339.140625 372.519531 338.625 373.605469 C 338.113281 374.691406 337.625 375.792969 337.164062 376.902344 C 336.707031 378.011719 336.273438 379.132812 335.867188 380.261719 C 335.464844 381.394531 335.085938 382.535156 334.738281 383.683594 C 334.390625 384.835938 334.070312 385.992188 333.777344 387.160156 C 333.484375 388.324219 333.222656 389.496094 332.988281 390.675781 C 332.753906 391.851562 332.546875 393.035156 332.371094 394.226562 C 332.195312 395.414062 332.046875 396.605469 331.929688 397.800781 C 331.8125 399 331.722656 400.195312 331.664062 401.394531 C 331.605469 402.597656 331.574219 403.796875 331.574219 405 C 331.574219 406.199219 331.605469 407.402344 331.664062 408.601562 C 331.722656 409.800781 331.8125 411 331.929688 412.195312 C 332.046875 413.390625 332.195312 414.582031 332.371094 415.773438 C 332.546875 416.960938 332.753906 418.144531 332.988281 419.324219 C 333.222656 420.5 333.484375 421.671875 333.777344 422.839844 C 334.070312 424.003906 334.390625 425.164062 334.738281 426.3125 C 335.085938 427.460938 335.464844 428.601562 335.867188 429.734375 C 336.273438 430.867188 336.707031 431.988281 337.164062 433.097656 C 337.625 434.207031 338.113281 435.304688 338.625 436.390625 C 339.140625 437.476562 339.679688 438.550781 340.246094 439.609375 C 340.8125 440.671875 341.402344 441.714844 342.023438 442.746094 C 342.640625 443.777344 343.28125 444.792969 343.949219 445.789062 C 344.617188 446.789062 345.308594 447.773438 346.023438 448.738281 C 346.742188 449.703125 347.480469 450.648438 348.242188 451.578125 C 349.003906 452.507812 349.789062 453.417969 350.597656 454.308594 C 351.402344 455.195312 352.230469 456.066406 353.082031 456.917969 C 353.929688 457.765625 354.800781 458.59375 355.691406 459.402344 C 356.582031 460.207031 357.492188 460.992188 358.421875 461.753906 C 359.347656 462.519531 360.296875 463.257812 361.261719 463.972656 C 362.226562 464.6875 363.207031 465.378906 364.207031 466.046875 C 365.207031 466.714844 366.222656 467.359375 367.253906 467.976562 C 368.28125 468.59375 369.328125 469.1875 370.386719 469.753906 C 371.449219 470.320312 372.519531 470.859375 373.605469 471.371094 C 374.691406 471.886719 375.792969 472.375 376.902344 472.832031 C 378.011719 473.292969 379.132812 473.726562 380.261719 474.128906 C 381.394531 474.535156 382.535156 474.910156 383.683594 475.261719 C 384.835938 475.609375 385.992188 475.929688 387.160156 476.222656 C 388.324219 476.511719 389.496094 476.777344 390.675781 477.011719 C 391.851562 477.246094 393.035156 477.449219 394.226562 477.628906 C 395.414062 477.804688 396.605469 477.949219 397.800781 478.070312 C 399 478.1875 400.195312 478.273438 401.394531 478.332031 C 402.597656 478.390625 403.796875 478.421875 405 478.421875 C 406.199219 478.421875 407.402344 478.390625 408.601562 478.332031 C 409.800781 478.273438 411 478.1875 412.195312 478.070312 C 413.390625 477.949219 414.582031 477.804688 415.773438 477.628906 C 416.960938 477.449219 418.144531 477.246094 419.324219 477.011719 C 420.5 476.777344 421.671875 476.511719 422.839844 476.222656 C 424.003906 475.929688 425.164062 475.609375 426.3125 475.261719 C 427.460938 474.910156 428.601562 474.535156 429.734375 474.128906 C 430.867188 473.726562 431.988281 473.292969 433.097656 472.832031 C 434.207031 472.375 435.304688 471.886719 436.390625 471.371094 C 437.476562 470.859375 438.550781 470.320312 439.609375 469.753906 C 440.671875 469.1875 441.714844 468.59375 442.746094 467.976562 C 443.777344 467.359375 444.792969 466.714844 445.789062 466.046875 C 446.789062 465.378906 447.773438 464.6875 448.738281 463.972656 C 449.703125 463.257812 450.648438 462.519531 451.578125 461.753906 C 452.507812 460.992188 453.417969 460.207031 454.308594 459.402344 C 455.195312 458.59375 456.066406 457.765625 456.917969 456.917969 C 457.765625 456.066406 458.59375 455.195312 459.402344 454.308594 C 460.207031 453.417969 460.992188 452.507812 461.753906 451.578125 C 462.519531 450.648438 463.257812 449.703125 463.972656 448.738281 C 464.6875 447.773438 465.378906 446.789062 466.046875 445.789062 C 466.714844 444.792969 467.359375 443.777344 467.976562 442.746094 C 468.59375 441.714844 469.1875 440.671875 469.753906 439.609375 C 470.320312 438.550781 470.859375 437.476562 471.371094 436.390625 C 471.886719 435.304688 472.375 434.207031 472.832031 433.097656 C 473.292969 431.988281 473.726562 430.867188 474.128906 429.734375 C 474.535156 428.601562 474.910156 427.460938 475.261719 426.3125 C 475.609375 425.164062 475.929688 424.003906 476.222656 422.839844 C 476.511719 421.671875 476.777344 420.5 477.011719 419.324219 C 477.246094 418.144531 477.449219 416.960938 477.628906 415.773438 C 477.804688 414.582031 477.949219 413.390625 478.070312 412.195312 C 478.1875 411 478.273438 409.800781 478.332031 408.601562 C 478.394531 407.402344 478.421875 406.199219 478.421875 405 C 478.421875 403.796875 478.394531 402.597656 478.332031 401.394531 C 478.273438 400.195312 478.1875 399 478.070312 397.800781 C 477.949219 396.605469 477.804688 395.414062 477.628906 394.226562 C 477.449219 393.035156 477.246094 391.851562 477.011719 390.675781 C 476.777344 389.496094 476.511719 388.324219 476.222656 387.160156 C 475.929688 385.992188 475.609375 384.835938 475.261719 383.683594 C 474.910156 382.535156 474.535156 381.394531 474.128906 380.261719 C 473.726562 379.132812 473.292969 378.011719 472.832031 376.902344 C 472.375 375.792969 471.886719 374.691406 471.371094 373.605469 C 470.859375 372.519531 470.320312 371.449219 469.753906 370.386719 C 469.1875 369.328125 468.59375 368.28125 467.976562 367.253906 C 467.359375 366.222656 466.714844 365.207031 466.046875 364.207031 C 465.378906 363.207031 464.6875 362.226562 463.972656 361.261719 C 463.257812 360.296875 462.519531 359.347656 461.753906 358.421875 C 460.992188 357.492188 460.207031 356.582031 459.402344 355.691406 C 458.59375 354.800781 457.765625 353.929688 456.917969 353.082031 C 456.066406 352.230469 455.195312 351.402344 454.308594 350.597656 C 453.417969 349.789062 452.507812 349.003906 451.578125 348.242188 C 450.648438 347.480469 449.703125 346.742188 448.738281 346.023438 C 447.773438 345.308594 446.789062 344.617188 445.789062 343.949219 C 444.792969 343.28125 443.777344 342.640625 442.746094 342.023438 C 441.714844 341.402344 440.671875 340.8125 439.609375 340.246094 C 438.550781 339.679688 437.476562 339.140625 436.390625 338.625 C 435.304688 338.113281 434.207031 337.625 433.097656 337.164062 C 431.988281 336.707031 430.867188 336.273438 429.734375 335.867188 C 428.601562 335.464844 427.460938 335.085938 426.3125 334.738281 C 425.164062 334.390625 424.003906 334.070312 422.839844 333.777344 C 421.671875 333.484375 420.5 333.222656 419.324219 332.988281 C 418.144531 332.753906 416.960938 332.546875 415.773438 332.371094 C 414.582031 332.195312 413.390625 332.046875 412.195312 331.929688 C 411 331.8125 409.800781 331.722656 408.601562 331.664062 C 407.402344 331.605469 406.199219 331.574219 405 331.574219 Z M 405 441.710938 C 403.796875 441.710938 402.597656 441.652344 401.402344 441.535156 C 400.203125 441.414062 399.015625 441.238281 397.835938 441.003906 C 396.65625 440.769531 395.492188 440.480469 394.34375 440.128906 C 393.191406 439.78125 392.0625 439.375 390.949219 438.914062 C 389.839844 438.457031 388.753906 437.941406 387.691406 437.375 C 386.632812 436.808594 385.601562 436.191406 384.601562 435.523438 C 383.601562 434.855469 382.640625 434.140625 381.710938 433.378906 C 380.78125 432.613281 379.890625 431.808594 379.039062 430.957031 C 378.191406 430.109375 377.382812 429.21875 376.621094 428.289062 C 375.859375 427.359375 375.140625 426.394531 374.472656 425.394531 C 373.804688 424.394531 373.1875 423.363281 372.621094 422.304688 C 372.054688 421.246094 371.542969 420.160156 371.082031 419.046875 C 370.621094 417.9375 370.21875 416.804688 369.867188 415.65625 C 369.519531 414.503906 369.226562 413.339844 368.992188 412.160156 C 368.757812 410.980469 368.582031 409.792969 368.464844 408.597656 C 368.347656 407.402344 368.289062 406.203125 368.289062 405 C 368.289062 403.796875 368.347656 402.597656 368.464844 401.402344 C 368.582031 400.203125 368.757812 399.015625 368.992188 397.835938 C 369.226562 396.65625 369.519531 395.492188 369.867188 394.34375 C 370.21875 393.191406 370.621094 392.0625 371.082031 390.949219 C 371.542969 389.839844 372.054688 388.753906 372.621094 387.695312 C 373.1875 386.632812 373.804688 385.601562 374.472656 384.601562 C 375.140625 383.601562 375.859375 382.640625 376.621094 381.710938 C 377.382812 380.78125 378.191406 379.890625 379.039062 379.039062 C 379.890625 378.191406 380.78125 377.382812 381.710938 376.621094 C 382.640625 375.859375 383.605469 375.140625 384.601562 374.472656 C 385.601562 373.804688 386.632812 373.1875 387.691406 372.621094 C 388.753906 372.054688 389.839844 371.542969 390.949219 371.082031 C 392.0625 370.621094 393.191406 370.21875 394.34375 369.867188 C 395.492188 369.519531 396.65625 369.226562 397.835938 368.992188 C 399.015625 368.757812 400.203125 368.582031 401.402344 368.464844 C 402.597656 368.347656 403.796875 368.289062 405 368.289062 C 406.203125 368.289062 407.402344 368.347656 408.597656 368.464844 C 409.792969 368.582031 410.980469 368.757812 412.160156 368.992188 C 413.339844 369.226562 414.503906 369.519531 415.65625 369.867188 C 416.804688 370.21875 417.9375 370.621094 419.046875 371.082031 C 420.160156 371.542969 421.246094 372.054688 422.304688 372.621094 C 423.363281 373.1875 424.394531 373.804688 425.394531 374.472656 C 426.394531 375.140625 427.359375 375.859375 428.289062 376.621094 C 429.21875 377.382812 430.109375 378.191406 430.957031 379.039062 C 431.808594 379.890625 432.613281 380.78125 433.378906 381.710938 C 434.140625 382.640625 434.855469 383.605469 435.523438 384.601562 C 436.191406 385.601562 436.808594 386.632812 437.375 387.695312 C 437.941406 388.753906 438.457031 389.839844 438.914062 390.949219 C 439.375 392.0625 439.78125 393.191406 440.128906 394.34375 C 440.480469 395.492188 440.769531 396.65625 441.003906 397.835938 C 441.238281 399.015625 441.414062 400.203125 441.535156 401.402344 C 441.652344 402.597656 441.710938 403.796875 441.710938 405 C 441.710938 406.203125 441.652344 407.402344 441.535156 408.597656 C 441.414062 409.792969 441.238281 410.980469 441.003906 412.160156 C 440.769531 413.339844 440.480469 414.503906 440.128906 415.65625 C 439.78125 416.804688 439.375 417.9375 438.914062 419.046875 C 438.457031 420.160156 437.941406 421.246094 437.375 422.304688 C 436.808594 423.363281 436.191406 424.394531 435.523438 425.394531 C 434.855469 426.394531 434.140625 427.359375 433.378906 428.289062 C 432.613281 429.21875 431.808594 430.109375 430.957031 430.957031 C 430.109375 431.808594 429.21875 432.613281 428.289062 433.378906 C 427.359375 434.140625 426.394531 434.855469 425.394531 435.523438 C 424.394531 436.191406 423.363281 436.808594 422.304688 437.375 C 421.246094 437.941406 420.160156 438.457031 419.046875 438.914062 C 417.9375 439.375 416.804688 439.78125 415.65625 440.128906 C 414.503906 440.480469 413.339844 440.769531 412.160156 441.003906 C 410.980469 441.238281 409.792969 441.414062 408.597656 441.535156 C 407.402344 441.652344 406.203125 441.710938 405 441.710938 Z M 405 441.710938 " fill-opacity="1" fill-rule="nonzero"/></g></svg>