<svg xmlns="http://www.w3.org/2000/svg" xmlns:xlink="http://www.w3.org/1999/xlink" width="500" zoomAndPan="magnify" viewBox="0 0 375 374.999991" height="500" preserveAspectRatio="xMidYMid meet" version="1.0"><defs><clipPath id="2d34fbc38e"><path d="M 2.308594 2.308594 L 372.808594 2.308594 L 372.808594 372.808594 L 2.308594 372.808594 Z M 2.308594 2.308594 " clip-rule="nonzero"/></clipPath></defs><g clip-path="url(#2d34fbc38e)"><path fill="#f6f0e7" d="M 186.691406 332.457031 C 107.292969 332.011719 43.015625 267.726562 42.578125 188.328125 C 42.140625 107.957031 107.972656 42.128906 188.34375 42.578125 C 267.746094 43.023438 332.019531 107.308594 332.457031 186.703125 C 332.898438 267.078125 267.066406 332.90625 186.691406 332.457031 Z M 372.597656 180.808594 C 372.410156 180.53125 372.265625 180.316406 372.078125 180.039062 L 358.007812 173.75 C 357.824219 173.492188 357.675781 173.285156 357.496094 173.023438 C 356.792969 164.746094 355.511719 156.636719 353.675781 148.738281 C 353.769531 148.4375 353.84375 148.199219 353.9375 147.894531 L 365.394531 137.582031 C 365.644531 137.363281 365.746094 137.011719 365.652344 136.6875 C 364.425781 132.375 363.042969 128.128906 361.519531 123.953125 C 361.402344 123.636719 361.117188 123.414062 360.78125 123.378906 L 345.457031 121.765625 C 345.144531 121.726562 344.867188 121.527344 344.746094 121.234375 C 341.539062 113.632812 337.796875 106.308594 333.566406 99.316406 C 333.402344 99.046875 333.398438 98.710938 333.554688 98.433594 L 341.238281 85.082031 C 341.40625 84.792969 341.394531 84.429688 341.207031 84.148438 C 338.703125 80.4375 336.070312 76.816406 333.3125 73.300781 C 332.996094 73.1875 332.75 73.097656 332.433594 72.980469 L 317.359375 76.183594 C 317.058594 76.082031 316.824219 76.003906 316.523438 75.898438 C 311.15625 69.703125 305.347656 63.894531 299.148438 58.523438 C 299.046875 58.222656 298.96875 57.984375 298.863281 57.683594 L 302.066406 42.617188 C 302.136719 42.285156 302.011719 41.941406 301.746094 41.738281 C 298.230469 38.976562 294.613281 36.339844 290.902344 33.839844 C 290.621094 33.652344 290.257812 33.640625 289.96875 33.808594 L 276.617188 41.488281 C 276.339844 41.644531 276.003906 41.640625 275.730469 41.476562 C 268.738281 37.246094 261.417969 33.503906 253.816406 30.296875 C 253.523438 30.171875 253.320312 29.902344 253.289062 29.585938 L 251.671875 14.261719 C 251.636719 13.921875 251.417969 13.636719 251.097656 13.523438 C 246.921875 11.996094 242.675781 10.613281 238.363281 9.386719 C 238.039062 9.296875 237.691406 9.394531 237.46875 9.644531 L 227.152344 21.097656 C 226.851562 21.191406 226.613281 21.269531 226.3125 21.363281 C 218.410156 19.527344 210.300781 18.242188 202.027344 17.542969 C 201.769531 17.359375 201.5625 17.214844 201.304688 17.03125 L 195.019531 2.957031 C 194.738281 2.769531 194.523438 2.625 194.242188 2.4375 C 192.015625 2.359375 189.773438 2.316406 187.527344 2.316406 C 185.277344 2.316406 183.039062 2.359375 180.808594 2.4375 C 180.53125 2.625 180.3125 2.769531 180.035156 2.957031 L 173.75 17.03125 C 173.492188 17.210938 173.285156 17.359375 173.023438 17.542969 C 164.75 18.238281 156.640625 19.523438 148.742188 21.359375 C 148.4375 21.265625 148.199219 21.1875 147.894531 21.09375 L 137.585938 9.640625 C 137.359375 9.390625 137.011719 9.289062 136.6875 9.382812 C 132.375 10.609375 128.128906 11.988281 123.953125 13.519531 C 123.636719 13.632812 123.414062 13.917969 123.378906 14.253906 L 121.761719 29.578125 C 121.730469 29.894531 121.527344 30.167969 121.234375 30.289062 C 113.632812 33.496094 106.3125 37.238281 99.320312 41.46875 C 99.046875 41.632812 98.710938 41.636719 98.433594 41.484375 L 85.082031 33.792969 C 84.792969 33.628906 84.429688 33.640625 84.152344 33.832031 C 80.4375 36.332031 76.816406 38.964844 73.300781 41.722656 C 73.035156 41.929688 72.914062 42.273438 72.980469 42.601562 L 76.183594 57.675781 C 76.082031 57.976562 76.003906 58.210938 75.902344 58.515625 C 69.703125 63.878906 63.894531 69.6875 58.527344 75.886719 C 58.222656 75.988281 57.988281 76.070312 57.683594 76.171875 L 42.613281 72.972656 C 42.296875 73.082031 42.050781 73.171875 41.734375 73.289062 C 38.976562 76.804688 36.34375 80.421875 33.839844 84.132812 C 33.828125 84.472656 33.816406 84.734375 33.808594 85.066406 L 41.488281 98.421875 C 41.648438 98.695312 41.640625 99.03125 41.476562 99.304688 C 37.246094 106.296875 33.503906 113.617188 30.296875 121.21875 C 30.039062 121.40625 29.839844 121.558594 29.585938 121.75 L 14.257812 123.363281 C 13.925781 123.398438 13.636719 123.621094 13.523438 123.9375 C 11.996094 128.113281 10.617188 132.359375 9.386719 136.671875 C 9.296875 136.992188 9.394531 137.339844 9.644531 137.566406 L 21.101562 147.882812 C 21.195312 148.183594 21.269531 148.421875 21.367188 148.722656 C 19.527344 156.621094 18.242188 164.734375 17.542969 173.007812 C 17.359375 173.265625 17.214844 173.472656 17.03125 173.734375 L 2.960938 180.019531 C 2.773438 180.296875 2.625 180.515625 2.4375 180.792969 C 2.359375 183.019531 2.316406 185.261719 2.316406 187.511719 C 2.316406 189.757812 2.359375 192 2.4375 194.226562 C 2.625 194.507812 2.769531 194.71875 2.957031 194.996094 L 17.03125 201.289062 C 17.214844 201.546875 17.359375 201.75 17.542969 202.011719 C 18.238281 210.285156 19.527344 218.394531 21.363281 226.296875 C 21.265625 226.597656 21.191406 226.835938 21.097656 227.140625 L 9.640625 237.453125 C 9.390625 237.675781 9.289062 238.023438 9.382812 238.347656 C 10.609375 242.660156 11.992188 246.90625 13.515625 251.082031 C 13.78125 251.289062 13.988281 251.449219 14.253906 251.660156 L 29.578125 253.273438 C 29.835938 253.460938 30.035156 253.613281 30.289062 253.800781 C 33.5 261.402344 37.238281 268.726562 41.46875 275.71875 C 41.632812 275.988281 41.640625 276.324219 41.480469 276.601562 L 33.796875 289.953125 C 33.628906 290.242188 33.640625 290.605469 33.828125 290.886719 C 36.332031 294.601562 38.964844 298.21875 41.722656 301.734375 C 41.929688 301.996094 42.273438 302.121094 42.601562 302.054688 L 57.675781 298.851562 C 57.976562 298.953125 58.214844 299.035156 58.515625 299.132812 C 63.882812 305.335938 69.6875 311.144531 75.890625 316.511719 C 75.988281 316.8125 76.070312 317.050781 76.171875 317.351562 L 72.96875 332.421875 C 72.898438 332.75 73.023438 333.09375 73.285156 333.300781 C 76.804688 336.058594 80.421875 338.695312 84.136719 341.195312 C 84.414062 341.382812 84.777344 341.394531 85.070312 341.230469 L 98.417969 333.546875 C 98.695312 333.386719 99.035156 333.390625 99.304688 333.558594 C 106.296875 337.789062 113.617188 341.53125 121.21875 344.742188 C 121.511719 344.863281 121.714844 345.132812 121.75 345.453125 L 123.363281 360.773438 C 123.398438 361.113281 123.621094 361.398438 123.9375 361.511719 C 128.113281 363.039062 132.359375 364.421875 136.671875 365.648438 C 136.992188 365.742188 137.34375 365.636719 137.566406 365.390625 L 147.878906 353.9375 C 148.183594 353.84375 148.421875 353.765625 148.726562 353.671875 C 156.625 355.507812 164.730469 356.792969 173.007812 357.496094 C 173.269531 357.675781 173.472656 357.820312 173.734375 358.007812 L 180.019531 372.074219 C 180.296875 372.265625 180.511719 372.410156 180.789062 372.597656 C 183.019531 372.675781 185.261719 372.71875 187.507812 372.71875 C 189.757812 372.71875 192 372.675781 194.226562 372.597656 C 194.507812 372.410156 194.71875 372.265625 194.996094 372.078125 L 201.289062 358.007812 C 201.546875 357.824219 201.75 357.675781 202.011719 357.496094 C 210.285156 356.800781 218.394531 355.511719 226.296875 353.675781 C 226.597656 353.769531 226.835938 353.84375 227.140625 353.9375 L 237.453125 365.394531 C 237.675781 365.644531 238.023438 365.746094 238.347656 365.652344 C 242.660156 364.425781 246.90625 363.046875 251.082031 361.519531 C 251.402344 361.402344 251.621094 361.117188 251.65625 360.78125 L 253.273438 345.457031 C 253.308594 345.144531 253.507812 344.867188 253.800781 344.746094 C 261.402344 341.539062 268.726562 337.796875 275.71875 333.566406 C 275.988281 333.402344 276.324219 333.398438 276.601562 333.554688 L 289.953125 341.238281 C 290.242188 341.40625 290.605469 341.394531 290.886719 341.207031 C 294.601562 338.703125 298.21875 336.070312 301.734375 333.3125 C 301.996094 333.105469 302.121094 332.761719 302.054688 332.433594 L 298.851562 317.359375 C 298.953125 317.058594 299.035156 316.824219 299.132812 316.523438 C 305.335938 311.152344 311.144531 305.347656 316.511719 299.148438 C 316.8125 299.046875 317.050781 298.96875 317.351562 298.863281 L 332.421875 302.066406 C 332.75 302.136719 333.09375 302.011719 333.300781 301.746094 C 336.058594 298.230469 338.695312 294.613281 341.195312 290.902344 C 341.382812 290.621094 341.394531 290.257812 341.230469 289.96875 L 333.546875 276.617188 C 333.386719 276.339844 333.390625 276.003906 333.558594 275.730469 C 337.789062 268.738281 341.53125 261.417969 344.742188 253.816406 C 344.863281 253.523438 345.132812 253.320312 345.453125 253.289062 L 360.773438 251.671875 C 361.113281 251.636719 361.398438 251.417969 361.511719 251.097656 C 363.039062 246.921875 364.421875 242.675781 365.648438 238.363281 C 365.742188 238.039062 365.640625 237.691406 365.390625 237.46875 L 353.933594 227.152344 C 353.839844 226.851562 353.765625 226.613281 353.671875 226.3125 C 355.507812 218.410156 356.792969 210.300781 357.488281 202.027344 C 357.675781 201.769531 357.820312 201.5625 358.007812 201.304688 L 372.074219 195.019531 C 372.265625 194.738281 372.410156 194.523438 372.597656 194.242188 C 372.675781 192.015625 372.71875 189.773438 372.71875 187.527344 C 372.71875 185.277344 372.675781 183.035156 372.597656 180.808594 " fill-opacity="1" fill-rule="nonzero"/></g><path fill="#f6f0e7" d="M 268.816406 211.566406 C 268.816406 214.648438 266.320312 217.144531 263.234375 217.144531 L 248.847656 217.144531 C 246.761719 217.144531 244.851562 215.964844 243.917969 214.101562 L 242.480469 211.21875 C 240.996094 208.253906 242.722656 204.6875 245.96875 204.007812 L 262.183594 200.628906 C 265.601562 199.914062 268.816406 202.527344 268.816406 206.023438 Z M 227.050781 234.710938 L 188.496094 234.710938 L 149.933594 234.707031 C 148.554688 234.707031 147.433594 233.585938 147.433594 232.207031 C 147.433594 230.824219 148.554688 229.707031 149.933594 229.707031 L 188.496094 229.707031 L 227.054688 229.714844 C 228.433594 229.714844 229.554688 230.828125 229.554688 232.210938 C 229.554688 233.589844 228.433594 234.710938 227.050781 234.710938 Z M 227.050781 245.210938 L 188.496094 245.207031 L 149.933594 245.207031 C 148.554688 245.207031 147.433594 244.085938 147.433594 242.707031 C 147.433594 241.324219 148.554688 240.207031 149.933594 240.207031 L 227.050781 240.207031 C 228.433594 240.207031 229.554688 241.328125 229.554688 242.710938 C 229.554688 244.089844 228.433594 245.210938 227.050781 245.210938 Z M 134.511719 211.214844 L 133.070312 214.09375 C 132.136719 215.960938 130.230469 217.136719 128.144531 217.136719 L 113.753906 217.136719 C 110.671875 217.136719 108.171875 214.640625 108.171875 211.558594 L 108.171875 206.015625 C 108.171875 202.519531 111.386719 199.90625 114.808594 200.621094 L 131.019531 204.003906 C 134.265625 204.679688 135.996094 208.246094 134.511719 211.214844 Z M 109.019531 176.648438 L 132.921875 140.714844 C 137.078125 134.460938 144.046875 130.726562 151.554688 130.726562 L 188.5 130.730469 L 225.441406 130.730469 C 232.949219 130.730469 239.917969 134.464844 244.074219 140.71875 L 267.976562 176.65625 C 270.183594 179.980469 267.800781 184.429688 263.808594 184.429688 L 188.496094 184.425781 L 113.1875 184.425781 C 109.191406 184.421875 106.808594 179.972656 109.019531 176.648438 Z M 329.484375 271.945312 L 284.703125 271.945312 C 285.769531 270.609375 286.410156 268.925781 286.410156 267.089844 L 286.410156 200.828125 C 286.410156 190.878906 283.546875 181.144531 278.183594 172.78125 L 286.21875 172.78125 C 289.300781 172.78125 291.800781 170.285156 291.800781 167.199219 L 291.800781 161.660156 C 291.800781 158.164062 288.585938 155.550781 285.164062 156.261719 L 269.410156 159.554688 L 252.957031 134.816406 C 246.816406 125.578125 236.53125 120.066406 225.441406 120.066406 L 215.839844 120.066406 L 215.839844 120.058594 L 215.835938 120.0625 L 151.554688 120.0625 C 140.46875 120.0625 130.179688 125.574219 124.039062 134.808594 L 107.585938 159.546875 L 91.832031 156.253906 C 88.410156 155.542969 85.195312 158.15625 85.195312 161.652344 L 85.195312 167.191406 C 85.195312 170.273438 87.695312 172.769531 90.777344 172.769531 L 98.808594 172.773438 C 93.445312 181.136719 90.582031 190.867188 90.582031 200.820312 L 90.582031 231.148438 L 90.578125 253.542969 L 90.578125 267.082031 C 90.578125 268.917969 91.21875 270.601562 92.28125 271.933594 L 45.539062 271.933594 C 43.917969 271.933594 42.601562 273.246094 42.601562 274.867188 C 42.601562 276.488281 43.917969 277.808594 45.539062 277.808594 L 142.472656 277.8125 C 144.09375 277.8125 145.410156 276.496094 145.410156 274.871094 C 145.410156 273.25 144.09375 271.933594 142.472656 271.933594 L 119.804688 271.933594 C 120.867188 270.601562 121.507812 268.917969 121.507812 267.082031 L 121.507812 253.542969 L 255.480469 253.550781 L 255.480469 267.089844 C 255.480469 268.925781 256.121094 270.609375 257.179688 271.941406 L 208.078125 271.941406 C 206.453125 271.941406 205.136719 273.253906 205.136719 274.875 C 205.136719 276.496094 206.453125 277.8125 208.074219 277.8125 L 329.484375 277.820312 C 331.105469 277.820312 332.421875 276.503906 332.421875 274.882812 C 332.421875 273.257812 331.105469 271.945312 329.484375 271.945312 Z M 183.597656 271.933594 L 161.074219 271.933594 C 159.453125 271.933594 158.136719 273.25 158.136719 274.871094 C 158.136719 276.496094 159.453125 277.8125 161.074219 277.8125 L 183.597656 277.8125 C 185.21875 277.8125 186.535156 276.496094 186.535156 274.875 C 186.535156 273.253906 185.21875 271.933594 183.597656 271.933594 " fill-opacity="1" fill-rule="nonzero"/></svg>