<svg xmlns="http://www.w3.org/2000/svg" xmlns:xlink="http://www.w3.org/1999/xlink" width="500" zoomAndPan="magnify" viewBox="0 0 375 374.999991" height="500" preserveAspectRatio="xMidYMid meet" version="1.0"><defs><clipPath id="8057819124"><path d="M 0 9.4375 L 375 9.4375 L 375 365.6875 L 0 365.6875 Z M 0 9.4375 " clip-rule="nonzero"/></clipPath></defs><g clip-path="url(#8057819124)"><path fill="#b21100" d="M 104.292969 114.527344 L 118.835938 114.527344 C 120.558594 121.273438 123.257812 127.71875 126.707031 133.492188 L 116.363281 143.835938 C 114.636719 145.558594 114.636719 148.484375 116.363281 150.28125 L 134.425781 168.347656 C 136.226562 170.144531 139.148438 170.144531 140.949219 168.347656 L 151.214844 158.003906 C 157.0625 161.527344 163.433594 164.148438 170.179688 165.875 L 170.179688 180.414062 C 170.179688 182.964844 172.203125 184.988281 174.753906 184.988281 L 200.238281 184.988281 C 202.789062 184.988281 204.8125 182.890625 204.8125 180.414062 L 204.8125 165.875 C 211.558594 164.148438 217.929688 161.453125 223.773438 158.003906 L 234.042969 168.347656 C 235.84375 170.144531 238.765625 170.144531 240.566406 168.347656 L 258.554688 150.28125 C 260.355469 148.484375 260.355469 145.558594 258.554688 143.835938 L 248.285156 133.492188 C 251.808594 127.71875 254.433594 121.273438 256.15625 114.527344 L 270.699219 114.527344 C 273.246094 114.527344 275.269531 112.503906 275.269531 109.957031 L 275.269531 84.46875 C 275.269531 81.921875 273.171875 79.898438 270.699219 79.898438 L 256.15625 79.898438 C 254.433594 73.152344 251.734375 66.78125 248.285156 60.933594 L 258.554688 50.664062 C 260.355469 48.867188 260.355469 45.941406 258.554688 44.21875 L 240.566406 26.152344 C 238.765625 24.355469 235.84375 24.355469 234.042969 26.152344 L 223.773438 36.421875 C 217.929688 32.898438 211.558594 30.277344 204.8125 28.550781 L 204.8125 14.011719 C 204.8125 11.460938 202.710938 9.4375 200.238281 9.4375 L 174.753906 9.4375 C 172.203125 9.4375 170.179688 11.460938 170.179688 14.011719 L 170.179688 28.628906 C 163.433594 30.277344 157.0625 32.976562 151.214844 36.496094 L 140.949219 26.230469 C 139.148438 24.429688 136.226562 24.429688 134.425781 26.230469 L 116.363281 44.292969 C 114.636719 46.015625 114.636719 48.941406 116.363281 50.738281 L 126.707031 61.007812 C 123.183594 66.855469 120.558594 73.226562 118.835938 79.972656 L 104.292969 79.972656 C 101.746094 79.972656 99.722656 82.070312 99.722656 84.546875 L 99.722656 110.03125 C 99.722656 112.503906 101.820312 114.527344 104.292969 114.527344 Z M 187.496094 54.488281 C 211.105469 54.488281 230.296875 73.601562 230.296875 97.289062 C 228.046875 153.957031 147.019531 153.957031 144.84375 97.289062 C 144.769531 73.601562 163.882812 54.488281 187.496094 54.488281 Z M 249.636719 196.53125 L 323.09375 196.53125 C 329.089844 196.53125 334.636719 200.128906 337.710938 206.050781 C 337.710938 206.125 352.476562 235.285156 352.550781 235.285156 C 352.550781 235.359375 355.925781 241.878906 355.847656 241.957031 L 270.472656 241.957031 L 270.398438 241.878906 L 270.324219 241.878906 L 259.828125 221.042969 C 254.882812 211.371094 245.511719 205.449219 235.320312 205.601562 C 238.390625 199.902344 243.789062 196.53125 249.636719 196.53125 Z M -3.34375 233.335938 C 0.402344 233.636719 11.046875 232.359375 13.746094 234.609375 C 13.746094 234.683594 10.074219 241.804688 10.074219 241.804688 C 9.996094 241.804688 5.351562 241.804688 5.050781 241.804688 C 0.777344 241.878906 -2.820312 238.132812 -3.34375 233.335938 Z M 353.300781 272.539062 C 354.050781 274.113281 353.75 276.136719 354.273438 277.785156 C 354.050781 277.261719 353.902344 276.734375 353.902344 276.136719 C 353.75 288.054688 338.460938 287.980469 338.234375 276.136719 C 338.234375 276.511719 338.160156 276.960938 338.007812 277.335938 C 338.160156 273.363281 339.582031 268.789062 343.78125 267.441406 C 346.253906 266.539062 349.101562 267.289062 350.976562 269.089844 C 351.050781 269.089844 351.050781 269.164062 351.050781 269.164062 C 352.101562 270.140625 352.851562 271.261719 353.300781 272.539062 Z M 373.914062 323.808594 C 374.363281 323.359375 374.8125 322.910156 375.1875 322.460938 C 375.113281 324.558594 375.9375 329.578125 372.863281 329.65625 C 372.863281 329.65625 354.726562 329.65625 354.726562 329.65625 C 354.050781 329.65625 353.449219 329.28125 353 328.753906 C 355.398438 328.679688 363.121094 328.980469 365.292969 328.457031 C 368.515625 327.707031 371.515625 326.058594 373.914062 323.808594 Z M 378.636719 271.039062 L 375.414062 290.300781 L 375.339844 290.675781 L 371.890625 310.914062 C 370.992188 316.460938 366.867188 320.511719 362.144531 320.511719 L 303.679688 320.511719 L 304.804688 314.0625 L 320.542969 314.0625 C 323.316406 314.140625 325.492188 310.992188 324.292969 308.441406 C 324.292969 308.441406 319.34375 296.898438 319.34375 296.898438 C 317.246094 292.027344 312.75 288.128906 306.976562 286.40625 L 306.976562 286.328125 C 307.050781 286.253906 306.976562 286.253906 306.976562 286.179688 C 306.902344 286.105469 306.902344 286.03125 306.902344 286.03125 C 306.976562 285.953125 306.976562 285.953125 306.902344 285.953125 C 306.304688 284.007812 305.628906 281.980469 304.652344 280.109375 L 330.664062 280.109375 C 334.710938 297.722656 358.324219 297.199219 361.695312 279.507812 C 360.347656 279.660156 358.921875 280.257812 357.574219 280.035156 C 365.292969 279.582031 372.714844 275.910156 378.636719 271.039062 Z M 311.851562 300.046875 L 314.324219 305.96875 L 306.152344 305.96875 L 307.425781 298.546875 C 307.425781 298.472656 307.425781 298.398438 307.503906 298.398438 C 307.652344 297.5 307.726562 296.597656 307.800781 295.699219 C 309.601562 296.75 311.023438 298.324219 311.851562 300.046875 Z M 293.859375 357.015625 C 294.382812 356.488281 294.757812 355.964844 295.210938 355.363281 C 294.984375 358.289062 296.410156 365.410156 292.0625 365.558594 C 292.0625 365.558594 271.449219 365.558594 271.449219 365.558594 C 270.25 365.558594 269.125 364.734375 268.597656 363.460938 C 270.324219 363.386719 280.59375 363.609375 282.089844 363.3125 C 286.664062 362.785156 290.863281 360.386719 293.859375 357.015625 Z M 270.773438 301.097656 C 274.445312 316.613281 253.382812 321.257812 252.332031 304.394531 C 252.410156 292.027344 267.476562 289.554688 270.773438 301.097656 Z M 278.71875 299.523438 C 276.621094 289.476562 265.078125 282.28125 255.332031 286.78125 C 249.785156 289.027344 245.738281 294.5 244.539062 300.347656 C 244.539062 300.347656 143.195312 300.347656 143.195312 300.347656 C 142.894531 298.773438 142.445312 297.199219 141.695312 295.773438 C 134.277344 280.183594 113.214844 283.03125 109.089844 299.523438 C 101.296875 297.5 94.398438 292.625 89.300781 286.40625 C 89.300781 286.328125 89.300781 286.328125 89.378906 286.328125 C 89.378906 286.253906 89.378906 286.253906 89.453125 286.179688 L 89.453125 286.105469 C 89.527344 286.03125 89.527344 285.953125 89.527344 285.953125 C 90.5 283.332031 92.074219 280.78125 94.097656 278.910156 C 97.324219 275.460938 101.894531 274.261719 106.390625 274.035156 C 107.589844 274.488281 280.59375 274.035156 281.941406 274.1875 C 286.363281 274.035156 290.636719 275.835938 293.710938 278.910156 L 293.785156 278.910156 C 295.882812 281.007812 297.457031 283.554688 298.433594 286.328125 C 296.632812 288.503906 294.609375 290.675781 292.359375 292.402344 C 292.136719 292.625 291.910156 292.777344 291.6875 292.925781 C 291.535156 293.074219 291.460938 293.152344 291.386719 293.152344 C 290.488281 293.898438 289.511719 294.5 288.464844 295.25 L 288.386719 295.25 C 285.464844 297.199219 282.167969 298.621094 278.71875 299.523438 Z M 80.082031 293.226562 C 80.082031 293.449219 80.082031 293.824219 80.15625 293.976562 C 80.082031 294.050781 80.082031 294.050781 80.15625 294.050781 C 80.082031 294.125 80.082031 294.125 80.15625 294.125 C 80.082031 294.199219 80.082031 294.199219 80.15625 294.199219 C 80.082031 294.273438 80.082031 294.273438 80.15625 294.273438 C 80.082031 297.046875 81.429688 303.046875 81.804688 305.894531 L 60.667969 305.894531 L 63.21875 299.972656 C 64.941406 295.925781 70.1875 293.152344 76.035156 293.152344 L 80.082031 293.152344 Z M 296.035156 299.972656 C 294.984375 300.722656 293.933594 301.472656 292.8125 302.21875 L 292.734375 302.21875 C 288.464844 304.84375 283.816406 306.792969 278.945312 307.84375 C 275.496094 327.855469 248.660156 328.457031 244.613281 308.515625 C 246.1875 308.441406 249.261719 308.890625 250.535156 307.765625 C 249.410156 308.816406 246.039062 308.367188 244.613281 308.441406 C 244.613281 308.441406 143.347656 308.441406 143.347656 308.441406 C 141.996094 308.367188 138.550781 308.816406 137.425781 307.765625 C 138.625 308.890625 141.847656 308.367188 143.347656 308.515625 C 139.222656 328.457031 112.464844 327.929688 109.015625 307.84375 C 101.371094 306.191406 94.398438 302.445312 88.550781 297.273438 C 88.550781 297.347656 90.652344 309.417969 90.652344 309.566406 C 90.726562 309.566406 90.726562 309.640625 90.726562 309.640625 C 90.726562 309.640625 90.726562 309.640625 90.652344 309.714844 C 91.925781 317.0625 95.222656 336.402344 96.574219 344.046875 C 97.699219 350.644531 102.570312 355.441406 108.117188 355.441406 L 279.917969 355.441406 C 285.539062 355.441406 290.410156 350.644531 291.460938 344.046875 L 295.285156 321.484375 C 295.285156 321.484375 297.308594 310.089844 297.308594 310.089844 C 297.308594 309.941406 297.308594 309.867188 297.382812 309.714844 C 297.308594 309.640625 297.308594 309.640625 297.308594 309.640625 C 297.308594 309.640625 297.308594 309.640625 297.382812 309.566406 C 297.382812 309.417969 299.480469 297.421875 299.480469 297.273438 C 298.355469 298.246094 297.15625 299.148438 296.035156 299.972656 Z M 236.066406 345.097656 C 235.320312 346.21875 234.042969 346.894531 232.621094 346.894531 L 155.265625 346.894531 C 152.414062 346.96875 150.316406 343.820312 151.515625 341.273438 C 151.515625 341.273438 157.0625 328.15625 157.0625 328.15625 C 160.363281 320.433594 169.429688 315.1875 179.550781 315.1875 L 208.410156 315.1875 C 218.527344 315.1875 227.597656 320.359375 230.894531 328.15625 C 230.894531 328.15625 236.441406 341.273438 236.441406 341.273438 C 236.96875 342.546875 236.816406 343.972656 236.066406 345.097656 Z M 108.117188 363.460938 L 119.359375 363.460938 C 118.835938 364.734375 117.710938 365.558594 116.511719 365.558594 L 95.898438 365.558594 C 91.476562 365.410156 92.976562 358.289062 92.75 355.363281 C 96.273438 360.3125 101.96875 363.460938 108.117188 363.460938 Z M 12.921875 328.679688 L 21.992188 328.679688 C 21.617188 329.28125 20.941406 329.578125 20.339844 329.578125 L 2.128906 329.578125 C -0.945312 329.503906 -0.121094 324.484375 -0.195312 322.382812 C 3.027344 326.28125 7.824219 328.679688 12.921875 328.679688 Z M 83.15625 314.0625 L 84.28125 320.511719 L 12.921875 320.511719 C 8.199219 320.511719 4.074219 316.460938 3.175781 310.914062 L -0.273438 290.828125 L -3.644531 271.039062 C 1.226562 275.011719 7 278.160156 13.21875 279.507812 C 16.59375 297.273438 40.28125 297.875 44.328125 280.183594 L 83.304688 280.183594 C 82.480469 281.683594 81.804688 283.40625 81.355469 285.128906 C 81.355469 285.128906 81.355469 285.128906 81.355469 285.207031 L 75.960938 285.207031 C 66.816406 285.207031 58.71875 289.925781 55.722656 296.972656 L 50.773438 308.515625 C 50.25 309.792969 50.398438 311.214844 51.148438 312.339844 C 51.898438 313.464844 53.171875 314.140625 54.523438 314.140625 L 83.15625 314.140625 Z M 38.257812 262.195312 C 36.757812 261.070312 35.109375 260.09375 33.382812 259.570312 C 33.308594 259.496094 33.308594 259.496094 33.308594 259.570312 C 30.609375 258.59375 27.539062 258.671875 24.839844 259.421875 C 19.441406 260.917969 15.167969 265.566406 13.59375 270.964844 C 13.519531 271.039062 13.519531 271.113281 13.519531 271.1875 C 13.519531 271.1875 13.445312 271.1875 13.445312 271.261719 C 8.273438 269.765625 3.402344 266.914062 -0.347656 263.09375 C -0.421875 263.09375 -0.496094 263.019531 -0.496094 262.941406 C -1.472656 262.042969 -2.21875 261.070312 -3.046875 260.167969 C -0.570312 253.421875 5.5 249.449219 12.171875 250.050781 C 12.621094 250.050781 112.839844 250.050781 113.363281 250.050781 C 113.289062 250.050781 111.265625 254.25 111.191406 254.324219 C 111.191406 254.324219 103.019531 266.316406 103.019531 266.316406 L 103.019531 266.390625 C 98.070312 266.914062 93.425781 268.941406 89.675781 272.164062 C 89.601562 272.164062 44.328125 272.164062 44.253906 272.164062 C 43.429688 268.191406 41.328125 264.667969 38.257812 262.195312 Z M 264.25 247.578125 C 266.351562 251.699219 271.597656 262.042969 273.621094 266.089844 L 114.335938 266.089844 C 116.660156 261.445312 121.457031 252.148438 123.78125 247.503906 C 123.78125 247.503906 135.324219 224.714844 135.324219 224.714844 C 136.601562 222.316406 138.324219 219.992188 140.421875 218.195312 C 143.722656 215.34375 147.992188 213.621094 152.339844 213.621094 C 152.339844 213.621094 235.617188 213.621094 235.617188 213.621094 C 239.441406 213.695312 243.1875 214.820312 246.1875 217.21875 C 246.261719 217.21875 246.261719 217.292969 246.335938 217.292969 C 252.183594 220.742188 257.355469 234.835938 260.652344 240.53125 C 260.804688 240.90625 263.953125 247.050781 264.25 247.578125 Z M 364.84375 241.804688 L 361.171875 234.609375 C 361.171875 234.609375 361.246094 234.609375 361.246094 234.535156 C 364.019531 232.359375 374.964844 233.558594 378.335938 233.261719 C 377.738281 238.058594 374.214844 241.804688 369.867188 241.804688 C 369.640625 241.878906 364.996094 241.878906 364.84375 241.804688 Z M 354.949219 261.742188 C 351.203125 259.046875 346.105469 258.070312 341.683594 259.644531 C 341.609375 259.570312 341.609375 259.570312 341.609375 259.644531 C 340.484375 259.945312 339.433594 260.394531 338.460938 261.070312 C 338.234375 261.144531 338.007812 261.445312 337.710938 261.519531 C 334.035156 263.917969 331.5625 267.816406 330.589844 272.085938 C 330.589844 272.085938 298.132812 272.085938 298.132812 272.085938 C 295.582031 269.839844 292.585938 268.191406 289.363281 267.214844 C 289.289062 267.140625 289.289062 267.140625 289.210938 267.140625 C 287.113281 266.464844 284.863281 266.242188 282.691406 266.089844 C 282.617188 266.015625 274.519531 249.976562 274.445312 249.902344 C 274.445312 249.902344 362.070312 249.902344 362.070312 249.902344 C 362.070312 249.902344 362.746094 249.902344 362.746094 249.902344 C 369.339844 249.375 375.414062 253.347656 377.960938 260.019531 C 373.765625 265.265625 367.84375 269.316406 361.394531 271.113281 C 360.421875 267.589844 358.472656 264.515625 355.699219 262.269531 C 355.550781 262.117188 355.398438 261.96875 355.175781 261.894531 C 355.101562 261.820312 355.023438 261.894531 354.949219 261.742188 Z M 36.683594 276.0625 C 36.683594 276.660156 36.757812 277.183594 36.980469 277.710938 C 36.757812 277.335938 36.683594 276.960938 36.605469 276.511719 C 36.082031 287.828125 21.617188 287.902344 20.941406 276.585938 C 20.492188 270.738281 26.414062 264.742188 32.035156 267.964844 C 32.183594 267.964844 32.183594 268.039062 32.335938 268.191406 C 32.410156 268.191406 32.410156 268.191406 32.484375 268.265625 C 32.484375 268.265625 32.484375 268.265625 32.558594 268.265625 C 32.785156 268.414062 32.933594 268.488281 33.160156 268.714844 C 33.683594 269.089844 34.207031 269.539062 34.582031 270.140625 C 36.007812 271.636719 36.683594 273.8125 36.683594 276.0625 Z M 117.484375 241.878906 L 19.140625 241.878906 C 21.242188 237.90625 34.957031 210.699219 37.355469 206.050781 C 40.355469 200.128906 45.902344 196.53125 51.898438 196.53125 L 125.355469 196.53125 C 132.175781 196.382812 138.25 201.554688 141.023438 208.148438 C 140.347656 208.449219 139.75 208.824219 139.148438 209.199219 C 137.800781 210.023438 136.523438 210.847656 135.324219 211.898438 L 135.25 211.898438 C 128.65625 216.769531 121.535156 234.835938 117.5625 241.804688 Z M 81.132812 285.804688 C 81.058594 285.953125 81.058594 286.105469 80.980469 286.179688 C 81.058594 286.105469 81.058594 285.953125 81.132812 285.804688 Z M 135.476562 302.59375 C 137.347656 317.660156 117.484375 320.058594 116.8125 304.394531 C 116.8125 304.992188 116.660156 305.59375 116.4375 306.117188 C 117.035156 304.542969 116.660156 302.746094 117.1875 301.171875 C 117.710938 299.148438 118.910156 297.273438 120.410156 295.847656 C 126.257812 290.527344 134.800781 295.324219 135.476562 302.59375 Z M 81.207031 285.730469 C 81.28125 285.503906 81.28125 285.355469 81.355469 285.128906 L 81.507812 285.128906 C 81.355469 285.28125 81.207031 285.503906 81.207031 285.730469 Z M 115.3125 307.46875 C 115.164062 307.542969 115.085938 307.617188 115.011719 307.691406 C 115.164062 307.617188 115.238281 307.542969 115.3125 307.46875 Z M 109.839844 308.066406 C 110.816406 308.21875 111.789062 308.441406 112.6875 308.441406 C 111.789062 308.515625 110.816406 308.21875 109.839844 308.066406 Z M 271.296875 305.292969 C 271.449219 305.894531 271.671875 306.417969 271.972656 306.867188 C 271.597656 306.34375 271.371094 305.820312 271.296875 305.292969 Z M 275.871094 308.367188 C 276.621094 308.21875 277.371094 308.140625 278.117188 307.992188 C 277.070312 308.140625 276.019531 308.515625 274.972656 308.367188 C 275.269531 308.441406 275.570312 308.441406 275.871094 308.367188 Z M 272.570312 307.46875 C 272.722656 307.542969 272.796875 307.617188 272.871094 307.691406 C 272.796875 307.691406 272.722656 307.617188 272.570312 307.46875 Z M 223.398438 331.378906 L 226.546875 338.800781 L 161.410156 338.800781 L 164.558594 331.378906 C 166.582031 326.65625 172.730469 323.359375 179.550781 323.359375 L 208.410156 323.359375 C 215.15625 323.359375 221.375 326.65625 223.398438 331.378906 Z M 223.398438 331.378906 " fill-opacity="1" fill-rule="nonzero"/></g></svg>