<svg xmlns="http://www.w3.org/2000/svg" xmlns:xlink="http://www.w3.org/1999/xlink" width="500" zoomAndPan="magnify" viewBox="0 0 375 374.999991" height="500" preserveAspectRatio="xMidYMid meet" version="1.0"><defs><clipPath id="4c02ad5aa5"><path d="M 282 135 L 368.722656 135 L 368.722656 229 L 282 229 Z M 282 135 " clip-rule="nonzero"/></clipPath><clipPath id="934b613d84"><path d="M 109 100 L 302 100 L 302 365.140625 L 109 365.140625 Z M 109 100 " clip-rule="nonzero"/></clipPath></defs><path fill="#b21100" d="M 52.738281 218.867188 C 51.339844 218.867188 49.945312 218.9375 48.554688 219.074219 C 47.160156 219.210938 45.78125 219.414062 44.410156 219.6875 C 43.035156 219.960938 41.683594 220.300781 40.34375 220.707031 C 39.003906 221.113281 37.691406 221.582031 36.398438 222.117188 C 35.105469 222.652344 33.84375 223.25 32.609375 223.910156 C 31.375 224.570312 30.175781 225.285156 29.015625 226.0625 C 27.851562 226.839844 26.730469 227.671875 25.648438 228.558594 C 24.566406 229.449219 23.53125 230.386719 22.542969 231.375 C 21.554688 232.363281 20.617188 233.398438 19.730469 234.480469 C 18.84375 235.5625 18.011719 236.683594 17.234375 237.84375 C 16.457031 239.007812 15.738281 240.207031 15.078125 241.441406 C 14.417969 242.671875 13.820312 243.9375 13.285156 245.230469 C 12.75 246.519531 12.28125 247.835938 11.875 249.175781 C 11.46875 250.511719 11.128906 251.867188 10.855469 253.238281 C 10.582031 254.609375 10.378906 255.992188 10.242188 257.386719 C 10.105469 258.777344 10.035156 260.171875 10.035156 261.570312 C 10.035156 262.96875 10.105469 264.363281 10.242188 265.757812 C 10.378906 267.148438 10.582031 268.53125 10.855469 269.902344 C 11.128906 271.273438 11.46875 272.628906 11.875 273.964844 C 12.28125 275.304688 12.75 276.621094 13.285156 277.914062 C 13.820312 279.203125 14.417969 280.46875 15.078125 281.699219 C 15.738281 282.933594 16.457031 284.132812 17.234375 285.296875 C 18.011719 286.457031 18.84375 287.582031 19.730469 288.660156 C 20.617188 289.742188 21.554688 290.777344 22.542969 291.765625 C 23.53125 292.753906 24.566406 293.695312 25.648438 294.582031 C 26.730469 295.46875 27.851562 296.300781 29.015625 297.078125 C 30.179688 297.855469 31.375 298.574219 32.609375 299.230469 C 33.84375 299.890625 35.105469 300.488281 36.398438 301.023438 C 37.691406 301.558594 39.003906 302.027344 40.34375 302.433594 C 41.683594 302.839844 43.035156 303.179688 44.410156 303.453125 C 45.78125 303.726562 47.160156 303.929688 48.554688 304.066406 C 49.945312 304.207031 51.339844 304.273438 52.738281 304.273438 C 54.136719 304.273438 55.535156 304.207031 56.925781 304.066406 C 58.316406 303.929688 59.699219 303.726562 61.070312 303.453125 C 62.441406 303.179688 63.796875 302.839844 65.136719 302.433594 C 66.472656 302.027344 67.789062 301.558594 69.082031 301.023438 C 70.375 300.488281 71.636719 299.890625 72.871094 299.230469 C 74.101562 298.574219 75.300781 297.855469 76.464844 297.078125 C 77.628906 296.300781 78.75 295.46875 79.832031 294.582031 C 80.910156 293.695312 81.945312 292.753906 82.933594 291.765625 C 83.925781 290.777344 84.863281 289.742188 85.75 288.660156 C 86.636719 287.582031 87.46875 286.457031 88.246094 285.296875 C 89.023438 284.132812 89.742188 282.933594 90.402344 281.699219 C 91.058594 280.46875 91.65625 279.203125 92.191406 277.914062 C 92.726562 276.621094 93.199219 275.304688 93.605469 273.964844 C 94.011719 272.628906 94.351562 271.273438 94.621094 269.902344 C 94.894531 268.53125 95.101562 267.148438 95.238281 265.757812 C 95.375 264.363281 95.441406 262.96875 95.441406 261.570312 C 95.441406 260.171875 95.371094 258.777344 95.230469 257.386719 C 95.09375 255.996094 94.886719 254.613281 94.613281 253.242188 C 94.339844 251.871094 93.996094 250.519531 93.589844 249.179688 C 93.183594 247.84375 92.710938 246.527344 92.175781 245.238281 C 91.640625 243.945312 91.042969 242.683594 90.382812 241.453125 C 89.722656 240.21875 89.003906 239.023438 88.226562 237.859375 C 87.449219 236.699219 86.617188 235.578125 85.730469 234.496094 C 84.84375 233.414062 83.90625 232.378906 82.917969 231.390625 C 81.929688 230.402344 80.894531 229.464844 79.8125 228.578125 C 78.734375 227.691406 77.613281 226.859375 76.449219 226.082031 C 75.289062 225.304688 74.089844 224.585938 72.859375 223.925781 C 71.625 223.265625 70.363281 222.667969 69.070312 222.132812 C 67.78125 221.597656 66.464844 221.125 65.128906 220.71875 C 63.792969 220.3125 62.4375 219.972656 61.066406 219.699219 C 59.695312 219.421875 58.316406 219.21875 56.921875 219.078125 C 55.53125 218.9375 54.136719 218.867188 52.738281 218.867188 Z M 52.738281 298.199219 C 51.539062 298.199219 50.339844 298.140625 49.144531 298.023438 C 47.949219 297.90625 46.765625 297.730469 45.585938 297.496094 C 44.410156 297.261719 43.246094 296.96875 42.097656 296.621094 C 40.945312 296.273438 39.816406 295.867188 38.707031 295.40625 C 37.597656 294.949219 36.515625 294.433594 35.457031 293.871094 C 34.398438 293.304688 33.367188 292.6875 32.371094 292.019531 C 31.371094 291.351562 30.40625 290.636719 29.480469 289.875 C 28.550781 289.113281 27.664062 288.308594 26.8125 287.457031 C 25.964844 286.609375 25.160156 285.71875 24.398438 284.792969 C 23.636719 283.863281 22.921875 282.898438 22.253906 281.902344 C 21.589844 280.902344 20.972656 279.875 20.40625 278.816406 C 19.839844 277.757812 19.328125 276.671875 18.867188 275.5625 C 18.410156 274.453125 18.003906 273.324219 17.65625 272.175781 C 17.308594 271.023438 17.015625 269.859375 16.785156 268.683594 C 16.550781 267.503906 16.375 266.320312 16.257812 265.125 C 16.140625 263.929688 16.082031 262.730469 16.082031 261.53125 C 16.082031 260.328125 16.140625 259.132812 16.257812 257.9375 C 16.375 256.742188 16.550781 255.554688 16.789062 254.378906 C 17.023438 253.199219 17.3125 252.035156 17.664062 250.886719 C 18.011719 249.738281 18.414062 248.609375 18.875 247.5 C 19.335938 246.390625 19.847656 245.304688 20.414062 244.246094 C 20.980469 243.1875 21.597656 242.160156 22.265625 241.160156 C 22.933594 240.164062 23.648438 239.199219 24.410156 238.273438 C 25.171875 237.34375 25.980469 236.457031 26.828125 235.609375 C 27.679688 234.757812 28.566406 233.953125 29.496094 233.191406 C 30.425781 232.429688 31.386719 231.71875 32.386719 231.050781 C 33.386719 230.382812 34.414062 229.765625 35.472656 229.203125 C 36.53125 228.636719 37.617188 228.125 38.726562 227.664062 C 39.835938 227.207031 40.964844 226.800781 42.117188 226.453125 C 43.265625 226.105469 44.429688 225.816406 45.605469 225.582031 C 46.785156 225.347656 47.972656 225.171875 49.164062 225.054688 C 50.359375 224.9375 51.558594 224.878906 52.757812 224.882812 C 53.960938 224.882812 55.160156 224.941406 56.351562 225.058594 C 57.546875 225.179688 58.734375 225.355469 59.914062 225.589844 C 61.089844 225.824219 62.253906 226.117188 63.402344 226.464844 C 64.550781 226.816406 65.679688 227.21875 66.789062 227.679688 C 67.898438 228.140625 68.984375 228.652344 70.042969 229.222656 C 71.101562 229.789062 72.128906 230.40625 73.125 231.074219 C 74.125 231.742188 75.085938 232.457031 76.015625 233.21875 C 76.941406 233.980469 77.832031 234.785156 78.679688 235.636719 C 79.527344 236.484375 80.332031 237.375 81.09375 238.304688 C 81.855469 239.234375 82.570312 240.195312 83.234375 241.195312 C 83.902344 242.195312 84.515625 243.222656 85.082031 244.28125 C 85.648438 245.34375 86.160156 246.425781 86.617188 247.535156 C 87.078125 248.648438 87.480469 249.777344 87.828125 250.925781 C 88.175781 252.074219 88.464844 253.238281 88.699219 254.417969 C 88.933594 255.59375 89.109375 256.78125 89.226562 257.976562 C 89.34375 259.171875 89.398438 260.371094 89.398438 261.570312 C 89.398438 262.769531 89.335938 263.96875 89.214844 265.160156 C 89.097656 266.355469 88.917969 267.539062 88.683594 268.714844 C 88.449219 269.890625 88.15625 271.054688 87.804688 272.203125 C 87.457031 273.347656 87.050781 274.476562 86.589844 275.585938 C 86.132812 276.691406 85.617188 277.777344 85.050781 278.832031 C 84.484375 279.890625 83.867188 280.917969 83.199219 281.914062 C 82.535156 282.914062 81.820312 283.875 81.058594 284.800781 C 80.296875 285.730469 79.492188 286.617188 78.640625 287.464844 C 77.792969 288.3125 76.90625 289.117188 75.976562 289.878906 C 75.050781 290.636719 74.085938 291.351562 73.089844 292.019531 C 72.09375 292.683594 71.0625 293.300781 70.007812 293.867188 C 68.949219 294.433594 67.863281 294.945312 66.757812 295.402344 C 65.648438 295.863281 64.519531 296.265625 63.371094 296.617188 C 62.222656 296.964844 61.0625 297.257812 59.886719 297.492188 C 58.710938 297.726562 57.523438 297.902344 56.328125 298.019531 C 55.136719 298.136719 53.9375 298.199219 52.738281 298.199219 Z M 52.738281 298.199219 " fill-opacity="1" fill-rule="nonzero"/><path fill="#b21100" d="M 63.769531 236.304688 C 62.476562 235.761719 61.125 235.488281 59.722656 235.488281 L 56.335938 235.488281 C 55.652344 235.492188 54.980469 235.558594 54.308594 235.695312 C 53.640625 235.828125 52.992188 236.027344 52.363281 236.289062 C 51.730469 236.550781 51.132812 236.871094 50.566406 237.25 C 50 237.628906 49.476562 238.0625 48.992188 238.542969 C 48.511719 239.023438 48.082031 239.550781 47.699219 240.117188 C 47.320312 240.683594 47 241.28125 46.738281 241.910156 C 46.476562 242.542969 46.277344 243.191406 46.144531 243.859375 C 46.011719 244.527344 45.941406 245.203125 45.941406 245.886719 L 45.941406 253.804688 L 42.917969 253.804688 C 42.515625 253.804688 42.132812 253.878906 41.761719 254.035156 C 41.390625 254.1875 41.0625 254.40625 40.78125 254.6875 C 40.496094 254.972656 40.277344 255.300781 40.125 255.667969 C 39.972656 256.039062 39.894531 256.425781 39.894531 256.824219 C 39.894531 257.226562 39.972656 257.613281 40.125 257.980469 C 40.277344 258.351562 40.496094 258.679688 40.78125 258.960938 C 41.0625 259.246094 41.390625 259.464844 41.761719 259.617188 C 42.132812 259.769531 42.515625 259.847656 42.917969 259.847656 L 45.941406 259.847656 L 45.941406 284.660156 C 45.941406 285.0625 46.015625 285.445312 46.167969 285.816406 C 46.324219 286.1875 46.542969 286.511719 46.824219 286.796875 C 47.109375 287.082031 47.433594 287.296875 47.804688 287.453125 C 48.175781 287.605469 48.5625 287.683594 48.960938 287.683594 C 49.363281 287.683594 49.75 287.605469 50.117188 287.453125 C 50.488281 287.296875 50.816406 287.082031 51.097656 286.796875 C 51.382812 286.511719 51.601562 286.1875 51.753906 285.816406 C 51.90625 285.445312 51.984375 285.0625 51.984375 284.660156 L 51.984375 259.910156 L 59.117188 259.910156 C 59.515625 259.910156 59.902344 259.832031 60.273438 259.679688 C 60.644531 259.523438 60.96875 259.304688 61.253906 259.023438 C 61.535156 258.738281 61.753906 258.414062 61.910156 258.042969 C 62.0625 257.671875 62.136719 257.285156 62.136719 256.886719 C 62.136719 256.484375 62.0625 256.101562 61.910156 255.730469 C 61.753906 255.359375 61.535156 255.03125 61.253906 254.75 C 60.96875 254.464844 60.644531 254.246094 60.273438 254.09375 C 59.902344 253.941406 59.515625 253.863281 59.117188 253.863281 L 51.984375 253.863281 L 51.984375 245.945312 C 51.984375 245.660156 52.015625 245.378906 52.074219 245.097656 C 52.128906 244.820312 52.214844 244.546875 52.324219 244.285156 C 52.433594 244.023438 52.566406 243.773438 52.726562 243.535156 C 52.886719 243.296875 53.066406 243.078125 53.265625 242.878906 C 53.46875 242.675781 53.6875 242.496094 53.925781 242.335938 C 54.164062 242.175781 54.414062 242.042969 54.675781 241.933594 C 54.9375 241.824219 55.210938 241.738281 55.488281 241.683594 C 55.769531 241.625 56.050781 241.597656 56.335938 241.59375 L 59.722656 241.59375 C 60.3125 241.59375 60.875 241.714844 61.414062 241.957031 C 61.789062 242.113281 62.179688 242.191406 62.585938 242.191406 C 62.992188 242.195312 63.382812 242.117188 63.757812 241.960938 C 64.132812 241.808594 64.464844 241.585938 64.75 241.300781 C 65.039062 241.015625 65.261719 240.683594 65.417969 240.308594 C 65.574219 239.933594 65.652344 239.542969 65.652344 239.136719 C 65.65625 238.730469 65.578125 238.339844 65.421875 237.964844 C 65.269531 237.589844 65.046875 237.257812 64.761719 236.972656 C 64.476562 236.683594 64.144531 236.460938 63.769531 236.304688 Z M 63.769531 236.304688 " fill-opacity="1" fill-rule="nonzero"/><path fill="#b21100" d="M 61.988281 112.789062 C 63.386719 112.789062 64.78125 112.71875 66.171875 112.582031 C 67.566406 112.445312 68.945312 112.242188 70.320312 111.96875 C 71.691406 111.695312 73.046875 111.355469 74.382812 110.949219 C 75.722656 110.542969 77.039062 110.074219 78.328125 109.539062 C 79.621094 109.003906 80.882812 108.40625 82.117188 107.746094 C 83.351562 107.085938 84.550781 106.367188 85.710938 105.589844 C 86.875 104.816406 87.996094 103.984375 89.078125 103.09375 C 90.160156 102.207031 91.195312 101.269531 92.183594 100.28125 C 93.171875 99.292969 94.109375 98.257812 94.996094 97.175781 C 95.886719 96.09375 96.71875 94.972656 97.492188 93.808594 C 98.269531 92.648438 98.988281 91.449219 99.648438 90.214844 C 100.308594 88.980469 100.90625 87.71875 101.441406 86.425781 C 101.976562 85.132812 102.445312 83.820312 102.851562 82.480469 C 103.257812 81.144531 103.597656 79.789062 103.871094 78.414062 C 104.144531 77.042969 104.347656 75.664062 104.484375 74.269531 C 104.621094 72.878906 104.691406 71.484375 104.691406 70.085938 C 104.691406 68.6875 104.621094 67.292969 104.484375 65.898438 C 104.347656 64.507812 104.144531 63.125 103.871094 61.753906 C 103.597656 60.382812 103.257812 59.027344 102.851562 57.6875 C 102.445312 56.351562 101.976562 55.035156 101.441406 53.742188 C 100.90625 52.449219 100.308594 51.1875 99.648438 49.953125 C 98.988281 48.722656 98.269531 47.523438 97.492188 46.359375 C 96.71875 45.199219 95.886719 44.074219 94.996094 42.996094 C 94.109375 41.914062 93.171875 40.878906 92.183594 39.890625 C 91.195312 38.898438 90.160156 37.960938 89.078125 37.074219 C 87.996094 36.1875 86.875 35.355469 85.710938 34.578125 C 84.550781 33.800781 83.351562 33.082031 82.117188 32.425781 C 80.882812 31.765625 79.621094 31.167969 78.328125 30.632812 C 77.039062 30.097656 75.722656 29.625 74.382812 29.21875 C 73.046875 28.8125 71.691406 28.476562 70.320312 28.203125 C 68.945312 27.929688 67.566406 27.722656 66.171875 27.585938 C 64.78125 27.449219 63.386719 27.382812 61.988281 27.382812 C 60.589844 27.382812 59.195312 27.449219 57.800781 27.585938 C 56.410156 27.722656 55.027344 27.929688 53.65625 28.203125 C 52.285156 28.476562 50.929688 28.8125 49.589844 29.21875 C 48.253906 29.625 46.9375 30.097656 45.644531 30.632812 C 44.351562 31.167969 43.089844 31.765625 41.855469 32.425781 C 40.625 33.082031 39.425781 33.800781 38.261719 34.578125 C 37.101562 35.355469 35.976562 36.1875 34.898438 37.074219 C 33.816406 37.960938 32.78125 38.898438 31.792969 39.890625 C 30.800781 40.878906 29.863281 41.914062 28.976562 42.996094 C 28.089844 44.074219 27.257812 45.199219 26.480469 46.359375 C 25.703125 47.523438 24.984375 48.722656 24.328125 49.953125 C 23.667969 51.1875 23.070312 52.449219 22.535156 53.742188 C 22 55.035156 21.527344 56.351562 21.121094 57.6875 C 20.71875 59.027344 20.378906 60.382812 20.105469 61.753906 C 19.832031 63.125 19.625 64.507812 19.488281 65.898438 C 19.351562 67.292969 19.285156 68.6875 19.285156 70.085938 C 19.285156 71.484375 19.355469 72.878906 19.496094 74.269531 C 19.632812 75.660156 19.839844 77.039062 20.113281 78.410156 C 20.390625 79.78125 20.730469 81.136719 21.136719 82.472656 C 21.542969 83.8125 22.015625 85.125 22.550781 86.417969 C 23.085938 87.707031 23.683594 88.972656 24.34375 90.203125 C 25.003906 91.4375 25.722656 92.632812 26.5 93.796875 C 27.277344 94.957031 28.109375 96.078125 28.996094 97.160156 C 29.882812 98.238281 30.820312 99.273438 31.808594 100.261719 C 32.796875 101.25 33.832031 102.191406 34.914062 103.078125 C 35.992188 103.964844 37.113281 104.796875 38.277344 105.574219 C 39.4375 106.351562 40.636719 107.070312 41.871094 107.726562 C 43.101562 108.386719 44.363281 108.984375 45.65625 109.523438 C 46.945312 110.058594 48.261719 110.527344 49.597656 110.9375 C 50.9375 111.34375 52.289062 111.683594 53.660156 111.957031 C 55.03125 112.230469 56.414062 112.4375 57.804688 112.578125 C 59.195312 112.714844 60.589844 112.785156 61.988281 112.789062 Z M 61.988281 33.425781 C 63.1875 33.425781 64.386719 33.484375 65.582031 33.601562 C 66.777344 33.71875 67.960938 33.894531 69.140625 34.128906 C 70.316406 34.363281 71.480469 34.65625 72.628906 35.003906 C 73.777344 35.351562 74.90625 35.757812 76.015625 36.214844 C 77.125 36.675781 78.210938 37.1875 79.269531 37.753906 C 80.328125 38.320312 81.355469 38.9375 82.355469 39.605469 C 83.351562 40.269531 84.316406 40.984375 85.242188 41.746094 C 86.171875 42.507812 87.058594 43.3125 87.910156 44.164062 C 88.757812 45.011719 89.5625 45.902344 90.324219 46.828125 C 91.085938 47.757812 91.800781 48.71875 92.46875 49.71875 C 93.136719 50.714844 93.75 51.746094 94.316406 52.804688 C 94.882812 53.863281 95.398438 54.945312 95.855469 56.054688 C 96.316406 57.164062 96.71875 58.292969 97.066406 59.445312 C 97.417969 60.59375 97.707031 61.753906 97.941406 62.933594 C 98.175781 64.109375 98.351562 65.296875 98.46875 66.492188 C 98.585938 67.6875 98.648438 68.882812 98.648438 70.085938 C 98.648438 71.285156 98.585938 72.484375 98.46875 73.679688 C 98.351562 74.875 98.175781 76.058594 97.941406 77.238281 C 97.707031 78.414062 97.417969 79.578125 97.066406 80.726562 C 96.71875 81.875 96.316406 83.003906 95.855469 84.113281 C 95.398438 85.222656 94.882812 86.308594 94.316406 87.367188 C 93.75 88.425781 93.136719 89.453125 92.46875 90.453125 C 91.800781 91.449219 91.085938 92.414062 90.324219 93.339844 C 89.5625 94.269531 88.757812 95.15625 87.910156 96.007812 C 87.058594 96.855469 86.171875 97.660156 85.242188 98.421875 C 84.316406 99.183594 83.351562 99.898438 82.355469 100.566406 C 81.355469 101.234375 80.328125 101.847656 79.269531 102.414062 C 78.210938 102.980469 77.125 103.492188 76.015625 103.953125 C 74.90625 104.414062 73.777344 104.816406 72.628906 105.164062 C 71.480469 105.515625 70.316406 105.804688 69.140625 106.039062 C 67.960938 106.273438 66.777344 106.449219 65.582031 106.566406 C 64.386719 106.683594 63.1875 106.742188 61.988281 106.742188 C 60.785156 106.742188 59.589844 106.683594 58.394531 106.566406 C 57.199219 106.449219 56.011719 106.273438 54.835938 106.039062 C 53.65625 105.804688 52.496094 105.515625 51.347656 105.164062 C 50.195312 104.816406 49.066406 104.414062 47.957031 103.953125 C 46.847656 103.492188 45.765625 102.980469 44.707031 102.414062 C 43.648438 101.847656 42.617188 101.234375 41.621094 100.566406 C 40.621094 99.898438 39.660156 99.183594 38.730469 98.421875 C 37.804688 97.660156 36.914062 96.855469 36.066406 96.007812 C 35.214844 95.15625 34.410156 94.269531 33.648438 93.339844 C 32.886719 92.414062 32.171875 91.449219 31.507812 90.453125 C 30.839844 89.453125 30.222656 88.425781 29.65625 87.367188 C 29.089844 86.308594 28.578125 85.222656 28.117188 84.113281 C 27.660156 83.003906 27.253906 81.875 26.90625 80.726562 C 26.558594 79.578125 26.265625 78.414062 26.03125 77.238281 C 25.796875 76.058594 25.621094 74.875 25.503906 73.679688 C 25.386719 72.484375 25.328125 71.285156 25.328125 70.085938 C 25.328125 68.882812 25.390625 67.6875 25.507812 66.492188 C 25.625 65.296875 25.804688 64.113281 26.039062 62.933594 C 26.273438 61.757812 26.566406 60.59375 26.914062 59.445312 C 27.261719 58.296875 27.667969 57.167969 28.128906 56.0625 C 28.585938 54.953125 29.101562 53.867188 29.664062 52.808594 C 30.230469 51.75 30.847656 50.722656 31.515625 49.726562 C 32.183594 48.726562 32.898438 47.765625 33.660156 46.835938 C 34.421875 45.910156 35.226562 45.019531 36.074219 44.171875 C 36.921875 43.324219 37.8125 42.519531 38.738281 41.757812 C 39.667969 40.996094 40.628906 40.28125 41.628906 39.613281 C 42.625 38.945312 43.652344 38.328125 44.710938 37.761719 C 45.769531 37.199219 46.855469 36.683594 47.964844 36.222656 C 49.070312 35.765625 50.199219 35.359375 51.347656 35.011719 C 52.496094 34.664062 53.660156 34.371094 54.835938 34.136719 C 56.015625 33.902344 57.199219 33.722656 58.394531 33.605469 C 59.589844 33.488281 60.789062 33.425781 61.988281 33.425781 Z M 61.988281 33.425781 " fill-opacity="1" fill-rule="nonzero"/><path fill="#b21100" d="M 45.757812 93.566406 L 78.246094 93.566406 C 78.859375 93.566406 79.46875 93.507812 80.070312 93.386719 C 80.671875 93.269531 81.253906 93.089844 81.820312 92.855469 C 82.386719 92.621094 82.925781 92.335938 83.433594 91.992188 C 83.945312 91.652344 84.417969 91.265625 84.851562 90.832031 C 85.285156 90.398438 85.671875 89.925781 86.011719 89.417969 C 86.351562 88.90625 86.640625 88.367188 86.875 87.800781 C 87.109375 87.234375 87.285156 86.652344 87.40625 86.050781 C 87.527344 85.449219 87.585938 84.84375 87.585938 84.230469 L 87.585938 55.910156 C 87.582031 55.296875 87.523438 54.691406 87.402344 54.089844 C 87.28125 53.492188 87.101562 52.90625 86.867188 52.34375 C 86.632812 51.777344 86.34375 51.238281 86.003906 50.730469 C 85.660156 50.222656 85.273438 49.75 84.839844 49.316406 C 84.40625 48.882812 83.9375 48.496094 83.429688 48.15625 C 82.917969 47.816406 82.382812 47.527344 81.816406 47.292969 C 81.25 47.054688 80.667969 46.878906 80.066406 46.757812 C 79.464844 46.636719 78.859375 46.574219 78.246094 46.574219 L 45.757812 46.574219 C 45.144531 46.574219 44.539062 46.636719 43.9375 46.757812 C 43.339844 46.878906 42.753906 47.054688 42.1875 47.292969 C 41.625 47.527344 41.085938 47.816406 40.578125 48.15625 C 40.066406 48.496094 39.597656 48.882812 39.164062 49.316406 C 38.730469 49.75 38.34375 50.222656 38.003906 50.730469 C 37.664062 51.238281 37.375 51.777344 37.140625 52.34375 C 36.902344 52.90625 36.726562 53.492188 36.605469 54.089844 C 36.484375 54.691406 36.421875 55.296875 36.417969 55.910156 L 36.417969 84.230469 C 36.417969 84.84375 36.480469 85.449219 36.597656 86.050781 C 36.71875 86.652344 36.894531 87.234375 37.128906 87.800781 C 37.367188 88.367188 37.652344 88.90625 37.992188 89.417969 C 38.335938 89.925781 38.722656 90.398438 39.15625 90.832031 C 39.589844 91.265625 40.058594 91.652344 40.570312 91.992188 C 41.078125 92.335938 41.617188 92.621094 42.183594 92.855469 C 42.75 93.089844 43.335938 93.269531 43.9375 93.386719 C 44.539062 93.507812 45.144531 93.566406 45.757812 93.566406 Z M 42.464844 55.910156 C 42.464844 55.472656 42.546875 55.054688 42.714844 54.648438 C 42.882812 54.246094 43.121094 53.890625 43.429688 53.582031 C 43.738281 53.273438 44.09375 53.035156 44.496094 52.867188 C 44.902344 52.699219 45.320312 52.617188 45.757812 52.617188 L 78.246094 52.617188 C 78.683594 52.617188 79.105469 52.699219 79.507812 52.867188 C 79.910156 53.035156 80.265625 53.273438 80.574219 53.582031 C 80.886719 53.890625 81.125 54.246094 81.289062 54.648438 C 81.457031 55.054688 81.539062 55.472656 81.539062 55.910156 L 81.539062 84.230469 C 81.539062 84.664062 81.457031 85.085938 81.289062 85.488281 C 81.125 85.894531 80.886719 86.25 80.574219 86.558594 C 80.265625 86.867188 79.910156 87.105469 79.507812 87.273438 C 79.105469 87.4375 78.683594 87.523438 78.246094 87.523438 L 45.757812 87.523438 C 45.320312 87.523438 44.902344 87.4375 44.496094 87.273438 C 44.09375 87.105469 43.738281 86.867188 43.429688 86.558594 C 43.121094 86.25 42.882812 85.894531 42.714844 85.488281 C 42.546875 85.085938 42.464844 84.664062 42.464844 84.230469 Z M 42.464844 55.910156 " fill-opacity="1" fill-rule="nonzero"/><path fill="#b21100" d="M 61.988281 84.257812 C 62.855469 84.257812 63.714844 84.175781 64.5625 84.003906 C 65.414062 83.835938 66.242188 83.585938 67.042969 83.253906 C 67.84375 82.921875 68.605469 82.515625 69.324219 82.035156 C 70.046875 81.550781 70.714844 81.003906 71.328125 80.390625 C 71.9375 79.777344 72.488281 79.109375 72.96875 78.390625 C 73.449219 77.667969 73.855469 76.90625 74.1875 76.105469 C 74.519531 75.304688 74.769531 74.480469 74.941406 73.628906 C 75.109375 72.777344 75.195312 71.917969 75.195312 71.050781 C 75.195312 70.183594 75.109375 69.324219 74.941406 68.476562 C 74.769531 67.625 74.519531 66.800781 74.1875 65.996094 C 73.855469 65.195312 73.449219 64.4375 72.96875 63.714844 C 72.488281 62.992188 71.9375 62.328125 71.328125 61.714844 C 70.714844 61.101562 70.046875 60.550781 69.324219 60.070312 C 68.605469 59.589844 67.84375 59.183594 67.042969 58.851562 C 66.242188 58.519531 65.414062 58.269531 64.5625 58.097656 C 63.714844 57.929688 62.855469 57.84375 61.988281 57.84375 C 61.121094 57.84375 60.261719 57.929688 59.410156 58.097656 C 58.558594 58.269531 57.734375 58.519531 56.933594 58.851562 C 56.132812 59.183594 55.371094 59.589844 54.648438 60.070312 C 53.929688 60.550781 53.261719 61.101562 52.648438 61.714844 C 52.035156 62.328125 51.488281 62.992188 51.007812 63.714844 C 50.523438 64.4375 50.117188 65.195312 49.785156 65.996094 C 49.453125 66.800781 49.203125 67.625 49.035156 68.476562 C 48.863281 69.324219 48.78125 70.183594 48.78125 71.050781 C 48.78125 71.917969 48.863281 72.777344 49.035156 73.628906 C 49.203125 74.480469 49.453125 75.304688 49.785156 76.105469 C 50.117188 76.90625 50.523438 77.667969 51.007812 78.390625 C 51.488281 79.109375 52.035156 79.777344 52.648438 80.390625 C 53.261719 81.003906 53.929688 81.550781 54.648438 82.035156 C 55.371094 82.515625 56.132812 82.921875 56.933594 83.253906 C 57.734375 83.585938 58.558594 83.835938 59.410156 84.003906 C 60.261719 84.175781 61.121094 84.257812 61.988281 84.257812 Z M 61.988281 63.890625 C 62.457031 63.890625 62.921875 63.933594 63.386719 64.027344 C 63.847656 64.117188 64.292969 64.253906 64.726562 64.433594 C 65.164062 64.613281 65.574219 64.835938 65.964844 65.097656 C 66.359375 65.359375 66.71875 65.65625 67.050781 65.988281 C 67.382812 66.320312 67.683594 66.683594 67.941406 67.074219 C 68.203125 67.464844 68.425781 67.875 68.605469 68.3125 C 68.785156 68.746094 68.921875 69.195312 69.011719 69.65625 C 69.105469 70.117188 69.148438 70.582031 69.148438 71.050781 C 69.148438 71.523438 69.105469 71.988281 69.011719 72.449219 C 68.921875 72.910156 68.785156 73.359375 68.605469 73.792969 C 68.425781 74.226562 68.203125 74.640625 67.941406 75.03125 C 67.683594 75.421875 67.382812 75.785156 67.050781 76.117188 C 66.71875 76.449219 66.359375 76.746094 65.964844 77.007812 C 65.574219 77.269531 65.164062 77.488281 64.726562 77.667969 C 64.292969 77.847656 63.847656 77.984375 63.386719 78.078125 C 62.921875 78.167969 62.457031 78.214844 61.988281 78.214844 C 61.515625 78.214844 61.050781 78.167969 60.589844 78.078125 C 60.128906 77.984375 59.679688 77.847656 59.246094 77.667969 C 58.8125 77.488281 58.398438 77.269531 58.007812 77.007812 C 57.617188 76.746094 57.253906 76.449219 56.921875 76.117188 C 56.589844 75.785156 56.292969 75.421875 56.03125 75.03125 C 55.769531 74.640625 55.550781 74.226562 55.371094 73.792969 C 55.191406 73.359375 55.054688 72.910156 54.960938 72.449219 C 54.871094 71.988281 54.824219 71.523438 54.824219 71.050781 C 54.835938 70.589844 54.890625 70.128906 54.988281 69.675781 C 55.085938 69.222656 55.230469 68.785156 55.414062 68.359375 C 55.597656 67.933594 55.820312 67.527344 56.082031 67.144531 C 56.347656 66.761719 56.644531 66.410156 56.976562 66.085938 C 57.308594 65.761719 57.667969 65.46875 58.054688 65.214844 C 58.441406 64.960938 58.851562 64.746094 59.28125 64.570312 C 59.710938 64.394531 60.152344 64.261719 60.609375 64.175781 C 61.0625 64.085938 61.523438 64.039062 61.988281 64.039062 Z M 61.988281 63.890625 " fill-opacity="1" fill-rule="nonzero"/><path fill="#b21100" d="M 78.308594 57.90625 C 78.308594 58.175781 78.257812 58.433594 78.152344 58.679688 C 78.050781 58.929688 77.902344 59.148438 77.714844 59.335938 C 77.523438 59.527344 77.304688 59.671875 77.058594 59.777344 C 76.808594 59.878906 76.550781 59.929688 76.28125 59.929688 C 76.015625 59.929688 75.753906 59.878906 75.507812 59.777344 C 75.257812 59.671875 75.039062 59.527344 74.851562 59.335938 C 74.660156 59.148438 74.515625 58.929688 74.410156 58.679688 C 74.308594 58.433594 74.257812 58.175781 74.257812 57.90625 C 74.257812 57.636719 74.308594 57.378906 74.410156 57.128906 C 74.515625 56.882812 74.660156 56.664062 74.851562 56.472656 C 75.039062 56.285156 75.257812 56.136719 75.507812 56.035156 C 75.753906 55.933594 76.015625 55.878906 76.28125 55.878906 C 76.550781 55.878906 76.808594 55.933594 77.058594 56.035156 C 77.304688 56.136719 77.523438 56.285156 77.714844 56.472656 C 77.902344 56.664062 78.050781 56.882812 78.152344 57.128906 C 78.257812 57.378906 78.308594 57.636719 78.308594 57.90625 Z M 78.308594 57.90625 " fill-opacity="1" fill-rule="nonzero"/><g clip-path="url(#4c02ad5aa5)"><path fill="#b21100" d="M 368.226562 178.582031 C 368.226562 177.203125 368.15625 175.832031 368.023438 174.460938 C 367.890625 173.089844 367.691406 171.726562 367.425781 170.375 C 367.160156 169.023438 366.832031 167.6875 366.4375 166.371094 C 366.042969 165.050781 365.585938 163.753906 365.066406 162.476562 C 364.546875 161.203125 363.964844 159.957031 363.324219 158.734375 C 362.683594 157.515625 361.984375 156.332031 361.230469 155.179688 C 360.476562 154.027344 359.664062 152.914062 358.804688 151.84375 C 357.941406 150.769531 357.027344 149.738281 356.066406 148.753906 C 355.101562 147.769531 354.09375 146.832031 353.042969 145.945312 C 351.988281 145.058594 350.894531 144.222656 349.761719 143.441406 C 348.628906 142.660156 347.457031 141.9375 346.253906 141.265625 C 345.050781 140.597656 343.816406 139.988281 342.554688 139.441406 C 341.292969 138.890625 340.003906 138.402344 338.695312 137.980469 C 337.382812 137.554688 336.058594 137.195312 334.710938 136.898438 C 333.367188 136.601562 332.011719 136.371094 330.644531 136.203125 C 329.277344 136.039062 327.90625 135.941406 326.527344 135.910156 C 325.152344 135.875 323.777344 135.910156 322.402344 136.011719 C 321.027344 136.109375 319.664062 136.277344 318.304688 136.511719 C 316.949219 136.742188 315.605469 137.039062 314.277344 137.402344 C 312.949219 137.765625 311.640625 138.191406 310.351562 138.679688 C 309.066406 139.171875 307.804688 139.722656 306.570312 140.332031 C 305.335938 140.941406 304.132812 141.613281 302.964844 142.339844 C 301.796875 143.066406 300.664062 143.847656 299.570312 144.6875 C 298.476562 145.523438 297.425781 146.410156 296.417969 147.351562 C 295.410156 148.289062 294.449219 149.273438 293.539062 150.304688 C 292.625 151.335938 291.765625 152.410156 290.957031 153.523438 C 290.148438 154.640625 289.394531 155.789062 288.695312 156.976562 C 288 158.164062 287.359375 159.382812 286.78125 160.632812 C 286.203125 161.882812 285.683594 163.15625 285.226562 164.457031 C 284.773438 165.757812 284.378906 167.074219 284.050781 168.410156 C 283.722656 169.75 283.460938 171.097656 283.261719 172.460938 C 283.0625 173.824219 282.933594 175.195312 282.867188 176.570312 C 282.800781 177.945312 282.800781 179.320312 282.871094 180.695312 C 282.9375 182.074219 283.070312 183.441406 283.269531 184.804688 C 283.472656 186.167969 283.738281 187.515625 284.066406 188.851562 C 284.398438 190.191406 284.792969 191.507812 285.25 192.808594 C 285.710938 194.105469 286.230469 195.378906 286.808594 196.628906 C 287.390625 197.875 288.03125 199.09375 288.730469 200.28125 C 289.429688 201.464844 290.183594 202.617188 290.996094 203.730469 C 291.804688 204.84375 292.667969 205.914062 293.582031 206.945312 C 294.496094 207.976562 295.457031 208.957031 296.46875 209.894531 C 297.476562 210.832031 298.527344 211.71875 299.625 212.554688 C 300.71875 213.390625 301.851562 214.167969 303.023438 214.894531 C 304.191406 215.621094 305.394531 216.289062 306.632812 216.898438 C 307.867188 217.507812 309.128906 218.054688 310.414062 218.542969 C 311.703125 219.03125 313.011719 219.453125 314.34375 219.8125 C 315.671875 220.175781 317.015625 220.46875 318.371094 220.699219 C 319.730469 220.929688 321.097656 221.09375 322.46875 221.195312 C 322.390625 223.039062 322.035156 224.832031 321.410156 226.574219 L 327.0625 228.71875 C 327.984375 226.296875 328.476562 223.785156 328.542969 221.195312 C 329.875 221.101562 331.203125 220.941406 332.519531 220.722656 C 333.835938 220.503906 335.140625 220.226562 336.433594 219.882812 C 337.722656 219.542969 338.996094 219.140625 340.25 218.679688 C 341.503906 218.21875 342.734375 217.703125 343.9375 217.125 C 345.144531 216.550781 346.320312 215.917969 347.464844 215.230469 C 348.613281 214.546875 349.722656 213.808594 350.800781 213.015625 C 351.875 212.226562 352.914062 211.386719 353.910156 210.496094 C 354.910156 209.609375 355.863281 208.675781 356.773438 207.699219 C 357.683594 206.722656 358.546875 205.703125 359.359375 204.644531 C 360.175781 203.585938 360.9375 202.492188 361.652344 201.363281 C 362.363281 200.230469 363.019531 199.070312 363.625 197.878906 C 364.226562 196.6875 364.773438 195.46875 365.261719 194.226562 C 365.75 192.984375 366.179688 191.722656 366.550781 190.4375 C 366.921875 189.152344 367.230469 187.855469 367.480469 186.542969 C 367.726562 185.230469 367.914062 183.910156 368.039062 182.578125 C 368.164062 181.25 368.226562 179.917969 368.226562 178.582031 Z M 325.523438 215.148438 C 324.320312 215.148438 323.121094 215.089844 321.925781 214.972656 C 320.730469 214.855469 319.542969 214.679688 318.367188 214.445312 C 317.1875 214.210938 316.023438 213.917969 314.875 213.570312 C 313.726562 213.21875 312.597656 212.816406 311.484375 212.355469 C 310.375 211.894531 309.292969 211.382812 308.234375 210.816406 C 307.171875 210.25 306.144531 209.632812 305.144531 208.964844 C 304.148438 208.296875 303.183594 207.582031 302.253906 206.820312 C 301.328125 206.058594 300.4375 205.25 299.589844 204.402344 C 298.738281 203.550781 297.933594 202.664062 297.171875 201.734375 C 296.410156 200.804688 295.699219 199.839844 295.03125 198.839844 C 294.363281 197.84375 293.746094 196.8125 293.183594 195.753906 C 292.617188 194.695312 292.105469 193.609375 291.644531 192.5 C 291.1875 191.386719 290.78125 190.257812 290.433594 189.109375 C 290.085938 187.957031 289.796875 186.792969 289.5625 185.617188 C 289.328125 184.4375 289.152344 183.25 289.035156 182.054688 C 288.917969 180.859375 288.863281 179.660156 288.863281 178.460938 C 288.863281 177.257812 288.921875 176.0625 289.042969 174.867188 C 289.160156 173.671875 289.339844 172.484375 289.574219 171.304688 C 289.808594 170.128906 290.101562 168.964844 290.453125 167.816406 C 290.800781 166.664062 291.207031 165.535156 291.667969 164.425781 C 292.128906 163.316406 292.644531 162.234375 293.210938 161.175781 C 293.777344 160.117188 294.394531 159.085938 295.0625 158.089844 C 295.734375 157.089844 296.449219 156.128906 297.210938 155.199219 C 297.976562 154.273438 298.78125 153.386719 299.632812 152.535156 C 300.484375 151.6875 301.371094 150.882812 302.300781 150.121094 C 303.230469 149.363281 304.195312 148.648438 305.195312 147.984375 C 306.195312 147.316406 307.226562 146.699219 308.285156 146.136719 C 309.347656 145.570312 310.429688 145.058594 311.542969 144.601562 C 312.652344 144.144531 313.78125 143.742188 314.933594 143.394531 C 316.082031 143.046875 317.246094 142.757812 318.425781 142.523438 C 319.605469 142.292969 320.792969 142.117188 321.988281 142.003906 C 323.183594 141.886719 324.382812 141.828125 325.582031 141.832031 C 326.785156 141.832031 327.980469 141.894531 329.175781 142.015625 C 330.371094 142.132812 331.558594 142.3125 332.738281 142.546875 C 333.914062 142.785156 335.078125 143.078125 336.226562 143.429688 C 337.375 143.78125 338.503906 144.1875 339.613281 144.648438 C 340.722656 145.109375 341.804688 145.625 342.863281 146.191406 C 343.921875 146.761719 344.949219 147.378906 345.949219 148.050781 C 346.945312 148.71875 347.90625 149.4375 348.835938 150.199219 C 349.761719 150.964844 350.648438 151.769531 351.496094 152.621094 C 352.34375 153.472656 353.148438 154.363281 353.910156 155.292969 C 354.667969 156.222656 355.382812 157.191406 356.046875 158.191406 C 356.710938 159.191406 357.328125 160.222656 357.890625 161.28125 C 358.453125 162.34375 358.964844 163.429688 359.421875 164.539062 C 359.878906 165.648438 360.28125 166.78125 360.628906 167.929688 C 360.972656 169.082031 361.261719 170.246094 361.492188 171.425781 C 361.726562 172.601562 361.898438 173.789062 362.011719 174.984375 C 362.128906 176.179688 362.183594 177.378906 362.179688 178.582031 C 362.175781 179.78125 362.113281 180.972656 361.992188 182.167969 C 361.867188 183.359375 361.6875 184.542969 361.449219 185.714844 C 361.214844 186.890625 360.917969 188.050781 360.566406 189.195312 C 360.214844 190.339844 359.808594 191.46875 359.347656 192.574219 C 358.886719 193.679688 358.371094 194.757812 357.804688 195.816406 C 357.238281 196.871094 356.621094 197.894531 355.953125 198.890625 C 355.285156 199.886719 354.570312 200.84375 353.808594 201.769531 C 353.046875 202.695312 352.242188 203.582031 351.394531 204.425781 C 350.546875 205.273438 349.660156 206.074219 348.730469 206.835938 C 347.804688 207.59375 346.84375 208.308594 345.847656 208.972656 C 344.847656 209.636719 343.824219 210.253906 342.765625 210.816406 C 341.710938 211.382812 340.628906 211.894531 339.519531 212.351562 C 338.414062 212.8125 337.285156 213.214844 336.140625 213.5625 C 334.992188 213.910156 333.832031 214.203125 332.660156 214.4375 C 331.484375 214.671875 330.300781 214.847656 329.109375 214.96875 C 327.914062 215.085938 326.71875 215.148438 325.523438 215.148438 Z M 325.523438 215.148438 " fill-opacity="1" fill-rule="nonzero"/></g><path fill="#b21100" d="M 352.902344 162.804688 C 352.65625 162.554688 352.375 162.351562 352.054688 162.199219 C 352.183594 161.902344 352.257812 161.589844 352.28125 161.261719 C 352.304688 160.9375 352.277344 160.617188 352.199219 160.304688 C 352.121094 159.988281 351.996094 159.691406 351.820312 159.417969 C 351.644531 159.140625 351.433594 158.902344 351.179688 158.695312 C 350.910156 158.46875 350.605469 158.296875 350.273438 158.175781 C 349.941406 158.054688 349.597656 157.996094 349.246094 157.996094 C 348.894531 157.996094 348.550781 158.054688 348.21875 158.175781 C 347.886719 158.296875 347.582031 158.46875 347.3125 158.695312 C 346.15625 159.285156 344.957031 159.769531 343.714844 160.144531 C 342.785156 159.40625 341.769531 158.800781 340.675781 158.339844 C 339.582031 157.875 338.441406 157.566406 337.261719 157.414062 C 336.082031 157.261719 334.902344 157.269531 333.726562 157.4375 C 332.546875 157.605469 331.414062 157.929688 330.328125 158.410156 C 329.238281 158.890625 328.234375 159.507812 327.3125 160.261719 C 326.390625 161.015625 325.589844 161.878906 324.90625 162.851562 C 324.21875 163.824219 323.679688 164.871094 323.28125 165.992188 C 322.882812 167.113281 322.644531 168.265625 322.558594 169.453125 C 321.015625 169.242188 319.503906 168.886719 318.027344 168.382812 C 316.550781 167.878906 315.140625 167.238281 313.785156 166.460938 C 312.433594 165.683594 311.167969 164.785156 309.992188 163.761719 C 308.8125 162.742188 307.746094 161.617188 306.785156 160.386719 C 306.5 160.015625 306.148438 159.726562 305.726562 159.519531 C 305.308594 159.3125 304.863281 159.210938 304.398438 159.210938 C 303.921875 159.210938 303.46875 159.316406 303.046875 159.527344 C 302.621094 159.742188 302.265625 160.039062 301.980469 160.417969 C 301.445312 161.289062 301.015625 162.210938 300.6875 163.175781 C 300.355469 164.144531 300.136719 165.136719 300.023438 166.152344 C 299.910156 167.167969 299.910156 168.183594 300.019531 169.199219 C 300.132812 170.214844 300.351562 171.207031 300.679688 172.175781 C 300 172.753906 299.648438 173.488281 299.621094 174.378906 C 299.589844 176.210938 299.914062 177.980469 300.589844 179.679688 C 301.265625 181.382812 302.242188 182.890625 303.519531 184.203125 C 303.296875 184.859375 303.296875 185.511719 303.519531 186.167969 C 304.378906 188.785156 305.910156 190.921875 308.113281 192.574219 C 305.816406 193.304688 303.472656 193.558594 301.074219 193.328125 C 300.746094 193.3125 300.421875 193.34375 300.105469 193.433594 C 299.789062 193.519531 299.496094 193.652344 299.222656 193.835938 C 298.949219 194.019531 298.714844 194.242188 298.511719 194.5 C 298.3125 194.757812 298.15625 195.042969 298.050781 195.355469 C 297.941406 195.671875 297.886719 196 297.886719 196.335938 C 297.890625 196.671875 297.945312 196.996094 298.054688 197.316406 C 298.164062 197.632812 298.320312 197.921875 298.527344 198.1875 C 298.734375 198.453125 298.976562 198.675781 299.257812 198.859375 C 301.765625 200.433594 304.425781 201.660156 307.25 202.546875 C 310.070312 203.433594 312.957031 203.945312 315.910156 204.089844 C 316.925781 204.09375 317.929688 204.023438 318.933594 203.878906 C 322.074219 203.605469 325.113281 202.910156 328.058594 201.785156 C 331 200.660156 333.730469 199.152344 336.25 197.257812 C 339.0625 195.023438 341.429688 192.386719 343.351562 189.351562 C 345.273438 186.3125 346.644531 183.046875 347.460938 179.546875 C 347.839844 177.984375 348.101562 176.40625 348.25 174.804688 C 348.25 174.019531 348.25 173.230469 348.429688 172.417969 L 348.429688 171.933594 C 350.175781 170.386719 351.738281 168.675781 353.113281 166.792969 C 353.34375 166.507812 353.511719 166.1875 353.625 165.835938 C 353.734375 165.484375 353.78125 165.128906 353.761719 164.761719 C 353.742188 164.394531 353.660156 164.042969 353.511719 163.703125 C 353.363281 163.367188 353.160156 163.066406 352.902344 162.804688 Z M 342.386719 172.203125 C 342.386719 172.898438 342.386719 173.59375 342.386719 174.257812 C 342.25 175.59375 342.027344 176.914062 341.722656 178.21875 C 341.078125 181.066406 339.976562 183.730469 338.421875 186.203125 C 336.867188 188.675781 334.945312 190.820312 332.652344 192.632812 C 330.546875 194.171875 328.265625 195.394531 325.816406 196.296875 C 323.367188 197.203125 320.839844 197.753906 318.238281 197.953125 C 316.207031 198.234375 314.191406 198.140625 312.195312 197.679688 C 314.152344 196.921875 315.976562 195.914062 317.664062 194.660156 C 318.109375 194.292969 318.425781 193.839844 318.609375 193.296875 C 318.792969 192.75 318.820312 192.199219 318.691406 191.636719 C 318.542969 191.070312 318.25 190.585938 317.820312 190.1875 C 317.386719 189.785156 316.882812 189.535156 316.304688 189.429688 C 314.597656 189.246094 313.042969 188.652344 311.648438 187.648438 C 312.339844 187.34375 312.84375 186.847656 313.160156 186.167969 C 313.398438 185.722656 313.515625 185.25 313.515625 184.746094 C 313.515625 184.242188 313.398438 183.769531 313.160156 183.328125 L 312.980469 183.054688 C 312.542969 182.320312 311.90625 181.859375 311.074219 181.664062 C 310.277344 181.5 309.542969 181.1875 308.871094 180.726562 C 308.203125 180.265625 307.648438 179.691406 307.207031 179.003906 C 307.820312 178.972656 308.375 178.773438 308.867188 178.40625 C 309.359375 178.035156 309.707031 177.5625 309.910156 176.980469 C 310.113281 176.398438 310.136719 175.8125 309.980469 175.21875 C 309.824219 174.621094 309.511719 174.121094 309.050781 173.714844 C 308.265625 173.066406 307.640625 172.292969 307.167969 171.390625 C 306.695312 170.488281 306.417969 169.53125 306.332031 168.515625 C 309.09375 170.796875 312.15625 172.566406 315.511719 173.824219 C 318.863281 175.082031 322.332031 175.761719 325.914062 175.863281 C 326.386719 175.890625 326.835938 175.804688 327.265625 175.605469 C 327.691406 175.410156 328.050781 175.121094 328.332031 174.742188 C 328.625 174.378906 328.820312 173.964844 328.921875 173.511719 C 329.023438 173.054688 329.015625 172.597656 328.90625 172.144531 C 328.785156 171.597656 328.722656 171.042969 328.726562 170.480469 C 328.726562 170.019531 328.769531 169.5625 328.859375 169.109375 C 328.949219 168.65625 329.085938 168.214844 329.261719 167.789062 C 329.4375 167.359375 329.65625 166.953125 329.910156 166.570312 C 330.167969 166.183594 330.460938 165.828125 330.789062 165.503906 C 331.113281 165.175781 331.46875 164.882812 331.855469 164.625 C 332.238281 164.371094 332.644531 164.152344 333.074219 163.976562 C 333.5 163.800781 333.941406 163.664062 334.394531 163.574219 C 334.847656 163.484375 335.304688 163.441406 335.765625 163.441406 C 336.738281 163.433594 337.667969 163.625 338.558594 164.011719 C 339.449219 164.402344 340.222656 164.957031 340.875 165.675781 C 341.113281 165.929688 341.386719 166.144531 341.691406 166.3125 C 341.539062 167.03125 341.640625 167.71875 341.992188 168.367188 C 342.179688 168.742188 342.441406 169.054688 342.777344 169.304688 C 342.425781 170.238281 342.292969 171.207031 342.386719 172.203125 Z M 342.386719 172.203125 " fill-opacity="1" fill-rule="nonzero"/><path fill="#b21100" d="M 283.90625 81.144531 C 285.03125 81.148438 286.152344 81.09375 287.273438 80.984375 C 288.390625 80.875 289.503906 80.710938 290.605469 80.492188 C 291.710938 80.273438 292.800781 80 293.875 79.675781 C 294.953125 79.351562 296.011719 78.972656 297.050781 78.542969 C 298.089844 78.113281 299.105469 77.632812 300.097656 77.105469 C 301.089844 76.574219 302.054688 76 302.988281 75.375 C 303.925781 74.75 304.828125 74.082031 305.695312 73.371094 C 306.566406 72.65625 307.398438 71.902344 308.195312 71.109375 C 308.992188 70.3125 309.746094 69.480469 310.460938 68.613281 C 311.175781 67.746094 311.84375 66.84375 312.46875 65.90625 C 313.09375 64.972656 313.671875 64.011719 314.203125 63.019531 C 314.734375 62.027344 315.214844 61.011719 315.648438 59.972656 C 316.078125 58.933594 316.457031 57.878906 316.785156 56.800781 C 317.109375 55.726562 317.382812 54.636719 317.605469 53.53125 C 317.824219 52.429688 317.992188 51.320312 318.101562 50.199219 C 318.210938 49.082031 318.269531 47.957031 318.269531 46.835938 C 318.269531 45.710938 318.214844 44.585938 318.105469 43.46875 C 317.996094 42.347656 317.832031 41.238281 317.613281 40.136719 C 317.394531 39.03125 317.121094 37.941406 316.796875 36.867188 C 316.46875 35.789062 316.089844 34.730469 315.660156 33.691406 C 315.230469 32.652344 314.753906 31.636719 314.222656 30.644531 C 313.691406 29.652344 313.117188 28.6875 312.492188 27.753906 C 311.867188 26.820312 311.199219 25.917969 310.484375 25.046875 C 309.773438 24.175781 309.019531 23.34375 308.222656 22.546875 C 307.429688 21.753906 306.597656 21 305.726562 20.285156 C 304.859375 19.570312 303.957031 18.902344 303.023438 18.277344 C 302.085938 17.652344 301.125 17.074219 300.132812 16.542969 C 299.140625 16.011719 298.125 15.53125 297.085938 15.101562 C 296.046875 14.667969 294.988281 14.289062 293.914062 13.964844 C 292.839844 13.636719 291.75 13.363281 290.644531 13.144531 C 289.542969 12.925781 288.429688 12.757812 287.3125 12.648438 C 286.191406 12.539062 285.070312 12.484375 283.945312 12.480469 C 282.820312 12.480469 281.699219 12.535156 280.582031 12.648438 C 279.460938 12.757812 278.351562 12.921875 277.246094 13.140625 C 276.144531 13.359375 275.054688 13.632812 273.976562 13.957031 C 272.902344 14.285156 271.84375 14.664062 270.804688 15.09375 C 269.765625 15.523438 268.75 16.003906 267.757812 16.53125 C 266.765625 17.0625 265.804688 17.640625 264.867188 18.265625 C 263.933594 18.890625 263.03125 19.558594 262.160156 20.273438 C 261.292969 20.984375 260.460938 21.738281 259.664062 22.535156 C 258.867188 23.328125 258.113281 24.160156 257.398438 25.03125 C 256.6875 25.898438 256.019531 26.800781 255.394531 27.738281 C 254.769531 28.671875 254.191406 29.636719 253.660156 30.628906 C 253.128906 31.621094 252.648438 32.632812 252.21875 33.671875 C 251.789062 34.710938 251.410156 35.769531 251.082031 36.847656 C 250.757812 37.921875 250.484375 39.011719 250.265625 40.113281 C 250.046875 41.21875 249.878906 42.328125 249.769531 43.449219 C 249.660156 44.566406 249.605469 45.691406 249.605469 46.8125 C 249.605469 47.9375 249.660156 49.058594 249.773438 50.175781 C 249.882812 51.292969 250.046875 52.40625 250.269531 53.507812 C 250.488281 54.609375 250.761719 55.695312 251.089844 56.769531 C 251.414062 57.847656 251.792969 58.902344 252.222656 59.941406 C 252.652344 60.980469 253.132812 61.992188 253.664062 62.984375 C 254.191406 63.976562 254.769531 64.9375 255.394531 65.871094 C 256.019531 66.804688 256.6875 67.707031 257.398438 68.574219 C 258.109375 69.445312 258.863281 70.277344 259.660156 71.070312 C 260.453125 71.867188 261.285156 72.621094 262.152344 73.332031 C 263.019531 74.046875 263.921875 74.714844 264.855469 75.339844 C 265.789062 75.964844 266.75 76.542969 267.738281 77.074219 C 268.730469 77.605469 269.746094 78.085938 270.78125 78.515625 C 271.820312 78.945312 272.875 79.328125 273.949219 79.652344 C 275.023438 79.980469 276.113281 80.253906 277.214844 80.476562 C 278.316406 80.695312 279.425781 80.863281 280.542969 80.976562 C 281.664062 81.085938 282.78125 81.144531 283.90625 81.144531 Z M 283.90625 18.707031 C 284.832031 18.707031 285.757812 18.75 286.679688 18.839844 C 287.601562 18.929688 288.519531 19.066406 289.429688 19.246094 C 290.335938 19.425781 291.234375 19.648438 292.121094 19.917969 C 293.011719 20.1875 293.882812 20.496094 294.738281 20.851562 C 295.59375 21.207031 296.433594 21.601562 297.25 22.035156 C 298.066406 22.472656 298.863281 22.949219 299.632812 23.460938 C 300.40625 23.976562 301.148438 24.527344 301.867188 25.117188 C 302.582031 25.703125 303.269531 26.324219 303.925781 26.980469 C 304.582031 27.632812 305.203125 28.320312 305.792969 29.035156 C 306.378906 29.75 306.929688 30.496094 307.445312 31.265625 C 307.960938 32.035156 308.4375 32.828125 308.875 33.644531 C 309.3125 34.464844 309.710938 35.300781 310.066406 36.15625 C 310.421875 37.011719 310.734375 37.882812 311.003906 38.769531 C 311.273438 39.65625 311.496094 40.554688 311.679688 41.464844 C 311.859375 42.375 311.996094 43.289062 312.085938 44.210938 C 312.179688 45.132812 312.222656 46.058594 312.222656 46.984375 C 312.222656 47.914062 312.179688 48.835938 312.089844 49.757812 C 312 50.683594 311.863281 51.597656 311.683594 52.507812 C 311.5 53.414062 311.277344 54.3125 311.007812 55.199219 C 310.738281 56.089844 310.425781 56.960938 310.074219 57.816406 C 309.71875 58.671875 309.324219 59.507812 308.886719 60.328125 C 308.449219 61.144531 307.972656 61.9375 307.457031 62.710938 C 306.941406 63.480469 306.390625 64.222656 305.804688 64.941406 C 305.214844 65.65625 304.59375 66.34375 303.9375 66.996094 C 303.285156 67.652344 302.597656 68.273438 301.882812 68.863281 C 301.164062 69.449219 300.421875 70.003906 299.648438 70.515625 C 298.878906 71.03125 298.085938 71.507812 297.269531 71.945312 C 296.449219 72.382812 295.613281 72.777344 294.757812 73.132812 C 293.902344 73.488281 293.027344 73.796875 292.140625 74.066406 C 291.253906 74.335938 290.355469 74.558594 289.449219 74.742188 C 288.539062 74.921875 287.621094 75.058594 286.699219 75.148438 C 285.777344 75.238281 284.851562 75.285156 283.925781 75.28125 C 283 75.28125 282.074219 75.238281 281.152344 75.144531 C 280.230469 75.054688 279.316406 74.917969 278.40625 74.738281 C 277.496094 74.554688 276.597656 74.332031 275.710938 74.0625 C 274.824219 73.792969 273.953125 73.480469 273.097656 73.125 C 272.242188 72.769531 271.40625 72.371094 270.585938 71.933594 C 269.769531 71.496094 268.976562 71.019531 268.207031 70.507812 C 267.4375 69.992188 266.691406 69.4375 265.976562 68.851562 C 265.261719 68.261719 264.574219 67.640625 263.921875 66.984375 C 263.265625 66.328125 262.644531 65.640625 262.054688 64.925781 C 261.46875 64.207031 260.917969 63.464844 260.402344 62.691406 C 259.890625 61.921875 259.414062 61.125 258.976562 60.308594 C 258.542969 59.492188 258.148438 58.652344 257.792969 57.796875 C 257.4375 56.941406 257.128906 56.070312 256.859375 55.183594 C 256.589844 54.292969 256.367188 53.394531 256.1875 52.488281 C 256.007812 51.578125 255.871094 50.660156 255.78125 49.738281 C 255.691406 48.816406 255.648438 47.890625 255.648438 46.964844 C 255.648438 46.039062 255.695312 45.117188 255.789062 44.195312 C 255.878906 43.277344 256.015625 42.363281 256.195312 41.453125 C 256.378906 40.546875 256.601562 39.652344 256.871094 38.765625 C 257.140625 37.878906 257.453125 37.011719 257.808594 36.15625 C 258.164062 35.300781 258.558594 34.464844 258.996094 33.652344 C 259.429688 32.835938 259.90625 32.042969 260.421875 31.273438 C 260.933594 30.503906 261.484375 29.761719 262.074219 29.046875 C 262.660156 28.332031 263.28125 27.648438 263.933594 26.992188 C 264.589844 26.339844 265.273438 25.71875 265.988281 25.132812 C 266.703125 24.542969 267.445312 23.992188 268.214844 23.480469 C 268.984375 22.964844 269.777344 22.488281 270.59375 22.054688 C 271.40625 21.617188 272.242188 21.222656 273.097656 20.867188 C 273.953125 20.511719 274.820312 20.199219 275.707031 19.929688 C 276.59375 19.664062 277.488281 19.4375 278.394531 19.253906 C 279.304688 19.074219 280.21875 18.9375 281.136719 18.847656 C 282.058594 18.753906 282.980469 18.707031 283.90625 18.707031 Z M 283.90625 18.707031 " fill-opacity="1" fill-rule="nonzero"/><path fill="#b21100" d="M 278.648438 66.488281 L 279.707031 66.488281 L 279.707031 67.273438 L 279.523438 68.875 C 279.480469 69.546875 279.597656 70.1875 279.867188 70.804688 C 280.140625 71.417969 280.539062 71.933594 281.066406 72.351562 C 281.757812 72.859375 282.535156 73.097656 283.394531 73.078125 C 284.101562 73.074219 284.789062 72.945312 285.449219 72.683594 C 291.996094 69.265625 297.96875 65.035156 303.371094 59.992188 C 311.257812 51.40625 312.074219 41.859375 305.726562 33.546875 C 305.453125 33.09375 298.835938 22.96875 281.214844 24.300781 L 280.792969 24.300781 C 276.472656 24.964844 262.148438 28.167969 259.214844 42.433594 C 259.003906 42.886719 256.222656 61.019531 278.648438 66.488281 Z M 264.957031 43.914062 C 267.042969 33.726562 277.226562 31.128906 281.488281 30.496094 C 295.210938 29.527344 300.136719 36.539062 300.46875 37.144531 C 305.183594 43.429688 304.578125 49.59375 298.625 56.0625 C 294.710938 59.765625 290.417969 62.957031 285.75 65.640625 C 285.761719 65.035156 285.683594 64.441406 285.507812 63.859375 C 284.722656 61.53125 282.003906 60.835938 279.765625 60.59375 C 263.265625 56.304688 264.898438 44.304688 264.957031 43.914062 Z M 264.957031 43.914062 " fill-opacity="1" fill-rule="nonzero"/><path fill="#b21100" d="M 275.082031 48.476562 C 275.445312 48.480469 275.792969 48.414062 276.128906 48.277344 C 276.464844 48.144531 276.761719 47.949219 277.019531 47.695312 C 277.277344 47.441406 277.476562 47.144531 277.617188 46.8125 C 277.757812 46.476562 277.832031 46.128906 277.832031 45.765625 C 277.832031 45.402344 277.765625 45.054688 277.625 44.71875 C 277.488281 44.386719 277.292969 44.089844 277.035156 43.832031 C 276.777344 43.578125 276.484375 43.378906 276.148438 43.242188 C 275.8125 43.105469 275.464844 43.035156 275.101562 43.035156 C 274.738281 43.039062 274.390625 43.109375 274.058594 43.25 C 273.722656 43.390625 273.429688 43.589844 273.175781 43.847656 C 272.917969 44.105469 272.726562 44.402344 272.589844 44.738281 C 272.453125 45.074219 272.386719 45.425781 272.390625 45.785156 C 272.390625 46.144531 272.460938 46.488281 272.597656 46.816406 C 272.734375 47.144531 272.925781 47.4375 273.179688 47.6875 C 273.433594 47.941406 273.722656 48.136719 274.050781 48.273438 C 274.382812 48.40625 274.726562 48.476562 275.082031 48.476562 Z M 275.082031 48.476562 " fill-opacity="1" fill-rule="nonzero"/><path fill="#b21100" d="M 285.570312 48.476562 C 285.929688 48.480469 286.28125 48.414062 286.617188 48.277344 C 286.953125 48.144531 287.25 47.949219 287.507812 47.695312 C 287.765625 47.441406 287.964844 47.144531 288.105469 46.8125 C 288.246094 46.476562 288.316406 46.128906 288.320312 45.765625 C 288.320312 45.402344 288.25 45.054688 288.113281 44.71875 C 287.976562 44.386719 287.777344 44.089844 287.523438 43.832031 C 287.265625 43.578125 286.96875 43.378906 286.636719 43.242188 C 286.300781 43.105469 285.949219 43.035156 285.589844 43.035156 C 285.226562 43.039062 284.878906 43.109375 284.542969 43.25 C 284.210938 43.390625 283.914062 43.589844 283.660156 43.847656 C 283.40625 44.105469 283.210938 44.402344 283.078125 44.738281 C 282.941406 45.074219 282.875 45.425781 282.878906 45.785156 C 282.878906 46.144531 282.945312 46.488281 283.082031 46.816406 C 283.21875 47.144531 283.414062 47.4375 283.667969 47.6875 C 283.917969 47.941406 284.210938 48.136719 284.539062 48.273438 C 284.867188 48.40625 285.210938 48.476562 285.570312 48.476562 Z M 285.570312 48.476562 " fill-opacity="1" fill-rule="nonzero"/><path fill="#b21100" d="M 298.777344 45.785156 C 298.777344 46.148438 298.707031 46.496094 298.570312 46.828125 C 298.429688 47.160156 298.234375 47.453125 297.980469 47.710938 C 297.722656 47.964844 297.429688 48.160156 297.097656 48.300781 C 296.761719 48.4375 296.417969 48.507812 296.054688 48.507812 C 295.695312 48.507812 295.347656 48.4375 295.015625 48.300781 C 294.679688 48.160156 294.386719 47.964844 294.132812 47.710938 C 293.878906 47.453125 293.679688 47.160156 293.542969 46.828125 C 293.40625 46.496094 293.335938 46.148438 293.335938 45.785156 C 293.335938 45.425781 293.40625 45.078125 293.542969 44.746094 C 293.679688 44.414062 293.878906 44.117188 294.132812 43.863281 C 294.386719 43.609375 294.679688 43.410156 295.015625 43.273438 C 295.347656 43.136719 295.695312 43.066406 296.054688 43.066406 C 296.417969 43.066406 296.761719 43.136719 297.097656 43.273438 C 297.429688 43.410156 297.722656 43.609375 297.980469 43.863281 C 298.234375 44.117188 298.429688 44.414062 298.570312 44.746094 C 298.707031 45.078125 298.777344 45.425781 298.777344 45.785156 Z M 298.777344 45.785156 " fill-opacity="1" fill-rule="nonzero"/><path fill="#b21100" d="M 113.269531 323.195312 L 121.222656 319.964844 L 123.496094 325.5625 L 115.546875 328.796875 Z M 113.269531 323.195312 " fill-opacity="1" fill-rule="nonzero"/><path fill="#b21100" d="M 60.386719 328.664062 C 63.195312 330.535156 66.21875 331.953125 69.453125 332.925781 L 71.265625 327.152344 C 68.648438 326.351562 66.199219 325.195312 63.921875 323.675781 Z M 60.386719 328.664062 " fill-opacity="1" fill-rule="nonzero"/><path fill="#b21100" d="M 79.425781 328.8125 L 78.789062 334.859375 C 80.9375 335.070312 83.234375 335.191406 85.589844 335.191406 L 88.25 335.191406 L 88.039062 329.148438 C 85.160156 329.238281 82.289062 329.128906 79.425781 328.8125 Z M 79.425781 328.8125 " fill-opacity="1" fill-rule="nonzero"/><path fill="#b21100" d="M 103.242188 327.242188 C 101.035156 327.664062 98.859375 328.027344 96.804688 328.300781 L 97.589844 334.34375 C 99.855469 334.011719 102.242188 333.648438 104.691406 333.164062 C 104.902344 333.148438 105.101562 333.097656 105.296875 333.015625 L 107.199219 332.257812 L 104.933594 326.667969 Z M 103.242188 327.242188 " fill-opacity="1" fill-rule="nonzero"/><path fill="#b21100" d="M 49.292969 311.859375 C 49.796875 315.441406 51.097656 318.703125 53.191406 321.652344 L 58.179688 318.238281 C 56.703125 316.132812 55.746094 313.816406 55.308594 311.285156 Z M 49.292969 311.859375 " fill-opacity="1" fill-rule="nonzero"/><path fill="#b21100" d="M 112.640625 58.660156 C 114.566406 58.664062 116.480469 58.816406 118.382812 59.113281 L 119.289062 53.070312 C 117.085938 52.734375 114.867188 52.5625 112.640625 52.554688 C 111.558594 52.546875 110.480469 52.597656 109.40625 52.707031 L 110.132812 58.75 C 110.964844 58.664062 111.800781 58.632812 112.640625 58.660156 Z M 112.640625 58.660156 " fill-opacity="1" fill-rule="nonzero"/><path fill="#b21100" d="M 148.785156 94.472656 L 154.828125 93.65625 C 154.429688 90.519531 153.804688 87.425781 152.957031 84.378906 L 147.152344 85.980469 C 147.886719 88.777344 148.433594 91.605469 148.785156 94.472656 Z M 148.785156 94.472656 " fill-opacity="1" fill-rule="nonzero"/><path fill="#b21100" d="M 137.300781 60.382812 C 134.632812 58.441406 131.761719 56.871094 128.6875 55.667969 L 126.449219 61.261719 C 129.035156 62.289062 131.453125 63.617188 133.703125 65.25 Z M 137.300781 60.382812 " fill-opacity="1" fill-rule="nonzero"/><path fill="#b21100" d="M 149.570312 75.402344 C 148.160156 72.421875 146.425781 69.640625 144.371094 67.0625 L 139.6875 70.839844 C 141.4375 73.03125 142.917969 75.386719 144.128906 77.914062 Z M 149.570312 75.402344 " fill-opacity="1" fill-rule="nonzero"/><path fill="#b21100" d="M 249.152344 51.769531 L 248.457031 45.726562 C 245.894531 46.007812 243.355469 46.429688 240.839844 46.996094 L 242.109375 52.890625 C 244.4375 52.390625 246.785156 52.019531 249.152344 51.769531 Z M 249.152344 51.769531 " fill-opacity="1" fill-rule="nonzero"/><path fill="#b21100" d="M 220.652344 64.886719 L 215.90625 61.167969 C 213.832031 63.824219 212.21875 66.734375 211.070312 69.902344 L 216.753906 71.957031 C 217.6875 69.402344 218.988281 67.042969 220.652344 64.886719 Z M 220.652344 64.886719 " fill-opacity="1" fill-rule="nonzero"/><path fill="#b21100" d="M 233.949219 55.398438 L 231.683594 49.777344 C 228.667969 50.984375 225.828125 52.515625 223.160156 54.371094 L 226.636719 59.324219 C 228.917969 57.730469 231.359375 56.417969 233.949219 55.398438 Z M 233.949219 55.398438 " fill-opacity="1" fill-rule="nonzero"/><path fill="#b21100" d="M 215.484375 88.21875 C 215.125 86.339844 214.953125 84.445312 214.96875 82.535156 C 214.96875 81.789062 214.96875 80.976562 214.96875 80.089844 L 208.925781 79.664062 C 208.925781 80.664062 208.925781 81.628906 208.925781 82.6875 C 208.90625 85.070312 209.136719 87.425781 209.621094 89.757812 Z M 215.484375 88.21875 " fill-opacity="1" fill-rule="nonzero"/><path fill="#b21100" d="M 310.410156 237.300781 L 313.039062 242.742188 C 316.082031 241.308594 318.832031 239.445312 321.289062 237.152344 L 317.121094 232.769531 C 315.113281 234.621094 312.878906 236.132812 310.410156 237.300781 Z M 310.410156 237.300781 " fill-opacity="1" fill-rule="nonzero"/><path fill="#b21100" d="M 293.910156 242.015625 L 294.785156 248.0625 C 297.910156 247.605469 300.992188 246.960938 304.035156 246.128906 L 302.433594 240.292969 C 299.625 241.039062 296.785156 241.613281 293.910156 242.015625 Z M 293.910156 242.015625 " fill-opacity="1" fill-rule="nonzero"/><path fill="#b21100" d="M 187.679688 168.246094 C 186.5 168.246094 185.324219 168.304688 184.152344 168.417969 C 182.980469 168.535156 181.8125 168.707031 180.65625 168.9375 C 179.5 169.167969 178.359375 169.453125 177.230469 169.796875 C 176.101562 170.136719 174.996094 170.535156 173.90625 170.984375 C 172.816406 171.4375 171.753906 171.941406 170.710938 172.496094 C 169.671875 173.050781 168.664062 173.65625 167.683594 174.3125 C 166.703125 174.964844 165.757812 175.667969 164.84375 176.414062 C 163.933594 177.164062 163.0625 177.953125 162.226562 178.789062 C 161.394531 179.621094 160.605469 180.492188 159.855469 181.40625 C 159.109375 182.316406 158.40625 183.261719 157.753906 184.242188 C 157.097656 185.222656 156.492188 186.234375 155.9375 187.273438 C 155.378906 188.3125 154.875 189.375 154.425781 190.464844 C 153.976562 191.554688 153.578125 192.664062 153.234375 193.792969 C 152.894531 194.917969 152.609375 196.0625 152.378906 197.21875 C 152.148438 198.375 151.976562 199.539062 151.859375 200.710938 C 151.742188 201.886719 151.6875 203.0625 151.6875 204.238281 C 151.6875 205.417969 151.742188 206.59375 151.859375 207.769531 C 151.976562 208.941406 152.148438 210.105469 152.378906 211.261719 C 152.609375 212.417969 152.894531 213.558594 153.234375 214.6875 C 153.578125 215.816406 153.976562 216.925781 154.425781 218.015625 C 154.875 219.101562 155.378906 220.167969 155.9375 221.207031 C 156.492188 222.246094 157.097656 223.257812 157.75 224.238281 C 158.40625 225.21875 159.109375 226.164062 159.855469 227.074219 C 160.605469 227.984375 161.394531 228.859375 162.226562 229.691406 C 163.0625 230.523438 163.933594 231.316406 164.84375 232.0625 C 165.757812 232.8125 166.703125 233.511719 167.683594 234.167969 C 168.664062 234.824219 169.671875 235.429688 170.710938 235.984375 C 171.753906 236.539062 172.816406 237.042969 173.90625 237.492188 C 174.996094 237.945312 176.101562 238.339844 177.230469 238.683594 C 178.359375 239.027344 179.5 239.3125 180.65625 239.542969 C 181.8125 239.773438 182.980469 239.945312 184.152344 240.0625 C 185.324219 240.175781 186.5 240.234375 187.679688 240.234375 C 188.859375 240.234375 190.035156 240.175781 191.207031 240.0625 C 192.382812 239.945312 193.546875 239.773438 194.703125 239.542969 C 195.859375 239.3125 197 239.027344 198.128906 238.683594 C 199.257812 238.339844 200.367188 237.945312 201.453125 237.492188 C 202.542969 237.042969 203.609375 236.539062 204.648438 235.984375 C 205.6875 235.429688 206.695312 234.824219 207.675781 234.167969 C 208.65625 233.511719 209.601562 232.8125 210.515625 232.0625 C 211.425781 231.316406 212.296875 230.523438 213.132812 229.691406 C 213.964844 228.859375 214.757812 227.984375 215.503906 227.074219 C 216.25 226.164062 216.953125 225.21875 217.609375 224.238281 C 218.261719 223.257812 218.867188 222.246094 219.425781 221.207031 C 219.980469 220.167969 220.484375 219.101562 220.933594 218.015625 C 221.386719 216.925781 221.78125 215.816406 222.125 214.6875 C 222.464844 213.558594 222.753906 212.417969 222.984375 211.261719 C 223.210938 210.105469 223.386719 208.941406 223.5 207.769531 C 223.617188 206.59375 223.675781 205.417969 223.675781 204.238281 C 223.671875 203.0625 223.613281 201.886719 223.5 200.710938 C 223.382812 199.539062 223.207031 198.375 222.976562 197.21875 C 222.746094 196.0625 222.460938 194.921875 222.117188 193.792969 C 221.773438 192.667969 221.378906 191.558594 220.925781 190.46875 C 220.476562 189.382812 219.972656 188.316406 219.414062 187.277344 C 218.859375 186.238281 218.253906 185.230469 217.597656 184.25 C 216.945312 183.269531 216.242188 182.324219 215.496094 181.414062 C 214.746094 180.503906 213.957031 179.628906 213.121094 178.796875 C 212.289062 177.964844 211.417969 177.171875 210.507812 176.425781 C 209.59375 175.675781 208.648438 174.976562 207.671875 174.320312 C 206.691406 173.664062 205.679688 173.058594 204.640625 172.503906 C 203.601562 171.949219 202.539062 171.445312 201.449219 170.992188 C 200.359375 170.542969 199.253906 170.144531 198.125 169.800781 C 196.996094 169.460938 195.855469 169.171875 194.699219 168.941406 C 193.542969 168.710938 192.378906 168.539062 191.207031 168.421875 C 190.035156 168.304688 188.859375 168.246094 187.679688 168.246094 Z M 210.738281 185.140625 C 206.914062 186.179688 203.035156 186.945312 199.105469 187.4375 C 197.546875 182.835938 195.320312 178.582031 192.425781 174.683594 C 194.203125 174.96875 195.941406 175.410156 197.640625 176.011719 C 199.335938 176.609375 200.96875 177.355469 202.53125 178.246094 C 204.097656 179.140625 205.566406 180.164062 206.945312 181.324219 C 208.324219 182.480469 209.589844 183.753906 210.738281 185.140625 Z M 187.226562 231.679688 C 184.609375 228.269531 182.59375 224.53125 181.183594 220.46875 C 185.210938 220.210938 189.242188 220.210938 193.269531 220.46875 C 191.875 224.539062 189.863281 228.277344 187.226562 231.679688 Z M 179.519531 214.453125 C 179.046875 212.179688 178.746094 209.882812 178.613281 207.5625 L 195.960938 207.5625 C 195.84375 209.894531 195.539062 212.203125 195.054688 214.484375 C 189.878906 214.074219 184.699219 214.066406 179.519531 214.453125 Z M 192.9375 187.949219 C 189.171875 188.160156 185.402344 188.160156 181.636719 187.949219 C 183.015625 184.265625 184.898438 180.863281 187.289062 177.734375 C 189.6875 180.855469 191.574219 184.257812 192.9375 187.949219 Z M 187.167969 194.265625 C 189.613281 194.265625 192.152344 194.265625 194.8125 193.964844 C 195.386719 196.453125 195.769531 198.972656 195.960938 201.519531 L 178.644531 201.519531 C 178.789062 198.980469 179.152344 196.472656 179.730469 193.996094 C 182.058594 194.207031 184.507812 194.328125 187.105469 194.328125 Z M 172.660156 201.460938 L 157.882812 201.460938 C 158.210938 197.730469 159.21875 194.195312 160.902344 190.851562 C 165.113281 191.996094 169.386719 192.832031 173.71875 193.359375 C 173.144531 196.050781 172.769531 198.773438 172.597656 201.519531 Z M 172.660156 207.503906 C 172.792969 210.03125 173.097656 212.539062 173.566406 215.027344 C 169.316406 215.554688 165.125 216.378906 160.996094 217.507812 C 159.386719 214.355469 158.378906 211.019531 157.972656 207.503906 Z M 201.976562 207.503906 L 217.539062 207.503906 C 217.074219 211.28125 215.925781 214.835938 214.09375 218.171875 C 209.757812 216.832031 205.34375 215.824219 200.855469 215.148438 C 201.410156 212.648438 201.792969 210.117188 202.003906 207.5625 Z M 201.976562 201.460938 C 201.820312 198.710938 201.445312 195.988281 200.855469 193.300781 C 205.433594 192.625 209.9375 191.617188 214.367188 190.277344 C 216.1875 193.757812 217.273438 197.457031 217.628906 201.367188 Z M 182.058594 174.804688 C 179.214844 178.667969 177.019531 182.867188 175.46875 187.40625 C 171.765625 186.976562 168.097656 186.332031 164.46875 185.472656 C 166.664062 182.730469 169.261719 180.445312 172.265625 178.621094 C 175.265625 176.796875 178.492188 175.546875 181.9375 174.863281 Z M 164.347656 222.945312 C 167.875 222.171875 171.429688 221.585938 175.015625 221.195312 C 176.421875 225.621094 178.4375 229.75 181.0625 233.585938 C 177.753906 232.8125 174.664062 231.515625 171.800781 229.691406 C 168.933594 227.863281 166.449219 225.617188 164.347656 222.945312 Z M 193.210938 233.644531 C 195.917969 229.8125 197.992188 225.660156 199.4375 221.195312 C 203.257812 221.703125 207.023438 222.46875 210.738281 223.492188 C 208.496094 226.152344 205.871094 228.351562 202.859375 230.097656 C 199.851562 231.839844 196.632812 233.023438 193.210938 233.644531 Z M 193.210938 233.644531 " fill-opacity="1" fill-rule="nonzero"/><path fill="#b21100" d="M 202.003906 296.566406 L 174.351562 296.566406 C 173.867188 296.566406 173.382812 296.613281 172.90625 296.710938 C 172.429688 296.804688 171.96875 296.945312 171.519531 297.132812 C 171.070312 297.316406 170.644531 297.546875 170.238281 297.816406 C 169.835938 298.085938 169.460938 298.390625 169.117188 298.734375 C 168.773438 299.078125 168.464844 299.453125 168.195312 299.859375 C 167.925781 300.261719 167.699219 300.6875 167.511719 301.136719 C 167.324219 301.585938 167.183594 302.050781 167.089844 302.527344 C 166.996094 303.003906 166.949219 303.484375 166.949219 303.972656 C 166.949219 304.457031 166.996094 304.9375 167.089844 305.417969 C 167.183594 305.894531 167.324219 306.355469 167.511719 306.804688 C 167.699219 307.253906 167.925781 307.679688 168.195312 308.085938 C 168.464844 308.488281 168.773438 308.863281 169.117188 309.207031 C 169.460938 309.550781 169.835938 309.859375 170.238281 310.128906 C 170.644531 310.398438 171.070312 310.625 171.519531 310.8125 C 171.96875 311 172.429688 311.140625 172.90625 311.234375 C 173.382812 311.328125 173.867188 311.375 174.351562 311.375 L 202.003906 311.375 C 202.492188 311.375 202.972656 311.328125 203.449219 311.234375 C 203.925781 311.140625 204.390625 311 204.839844 310.8125 C 205.289062 310.625 205.714844 310.398438 206.117188 310.128906 C 206.523438 309.859375 206.898438 309.550781 207.242188 309.207031 C 207.585938 308.863281 207.890625 308.488281 208.160156 308.085938 C 208.433594 307.679688 208.660156 307.253906 208.847656 306.804688 C 209.03125 306.355469 209.171875 305.894531 209.265625 305.417969 C 209.363281 304.9375 209.410156 304.457031 209.410156 303.972656 C 209.410156 303.484375 209.363281 303.003906 209.265625 302.527344 C 209.171875 302.050781 209.03125 301.585938 208.847656 301.136719 C 208.660156 300.6875 208.433594 300.261719 208.160156 299.859375 C 207.890625 299.453125 207.585938 299.078125 207.242188 298.734375 C 206.898438 298.390625 206.523438 298.085938 206.117188 297.816406 C 205.714844 297.546875 205.289062 297.316406 204.839844 297.132812 C 204.390625 296.945312 203.925781 296.804688 203.449219 296.710938 C 202.972656 296.613281 202.492188 296.566406 202.003906 296.566406 Z M 202.003906 305.332031 L 174.351562 305.332031 C 174.171875 305.332031 174 305.296875 173.832031 305.226562 C 173.664062 305.160156 173.519531 305.0625 173.390625 304.933594 C 173.261719 304.804688 173.164062 304.660156 173.097656 304.492188 C 173.027344 304.324219 172.992188 304.152344 172.992188 303.972656 C 172.996094 303.792969 173.035156 303.621094 173.105469 303.457031 C 173.175781 303.292969 173.273438 303.144531 173.398438 303.019531 C 173.527344 302.890625 173.671875 302.792969 173.835938 302.722656 C 174 302.652344 174.171875 302.617188 174.351562 302.613281 L 202.003906 302.613281 C 202.183594 302.613281 202.359375 302.644531 202.527344 302.714844 C 202.691406 302.785156 202.839844 302.882812 202.96875 303.011719 C 203.09375 303.136719 203.191406 303.285156 203.261719 303.453125 C 203.332031 303.617188 203.363281 303.792969 203.363281 303.972656 C 203.363281 304.152344 203.332031 304.324219 203.261719 304.492188 C 203.191406 304.660156 203.09375 304.804688 202.96875 304.933594 C 202.839844 305.0625 202.691406 305.160156 202.527344 305.226562 C 202.359375 305.296875 202.183594 305.332031 202.003906 305.332031 Z M 202.003906 305.332031 " fill-opacity="1" fill-rule="nonzero"/><g clip-path="url(#934b613d84)"><path fill="#b21100" d="M 293.335938 314.035156 C 293.0625 313.28125 292.367188 311.464844 291.550781 309.382812 C 290.433594 306.359375 288.320312 300.980469 288.046875 299.621094 C 288.046875 294.242188 288.320312 288.769531 288.558594 283.449219 C 289.214844 273.785156 289.273438 264.113281 288.742188 254.4375 C 287.679688 244.59375 285.445312 235.023438 282.03125 225.726562 L 277.015625 210.3125 C 276.296875 208.03125 275.933594 205.695312 275.929688 203.304688 L 275.929688 162.535156 C 275.925781 161.691406 275.621094 160.976562 275.019531 160.386719 C 274.417969 159.789062 273.695312 159.5 272.84375 159.511719 C 271.144531 159.53125 269.464844 159.722656 267.804688 160.078125 C 266.144531 160.4375 264.535156 160.957031 262.976562 161.636719 C 261.421875 162.316406 259.945312 163.144531 258.554688 164.117188 C 257.164062 165.09375 255.882812 166.199219 254.710938 167.429688 L 254.710938 107.347656 C 254.71875 106.882812 254.683594 106.421875 254.597656 105.960938 C 254.511719 105.503906 254.382812 105.058594 254.207031 104.628906 C 254.03125 104.195312 253.816406 103.785156 253.558594 103.398438 C 253.300781 103.007812 253.003906 102.652344 252.675781 102.320312 C 252.34375 101.992188 251.984375 101.699219 251.597656 101.445312 C 251.207031 101.1875 250.796875 100.972656 250.363281 100.800781 C 249.929688 100.628906 249.484375 100.5 249.027344 100.417969 C 248.566406 100.332031 248.105469 100.296875 247.640625 100.308594 L 128.867188 100.308594 C 128.414062 100.308594 127.964844 100.351562 127.519531 100.441406 C 127.074219 100.527344 126.644531 100.660156 126.222656 100.835938 C 125.804688 101.007812 125.40625 101.222656 125.03125 101.472656 C 124.652344 101.726562 124.304688 102.015625 123.984375 102.335938 C 123.664062 102.65625 123.378906 103.007812 123.128906 103.386719 C 122.878906 103.761719 122.664062 104.160156 122.492188 104.582031 C 122.320312 105 122.191406 105.433594 122.105469 105.878906 C 122.019531 106.324219 121.976562 106.773438 121.976562 107.226562 L 121.976562 163.53125 L 118.804688 163.53125 C 118.191406 163.53125 117.585938 163.589844 116.988281 163.710938 C 116.386719 163.828125 115.804688 164.003906 115.238281 164.238281 C 114.671875 164.472656 114.136719 164.757812 113.625 165.097656 C 113.117188 165.4375 112.644531 165.824219 112.210938 166.253906 C 111.777344 166.6875 111.390625 167.15625 111.050781 167.664062 C 110.710938 168.171875 110.421875 168.710938 110.183594 169.273438 C 109.949219 169.839844 109.773438 170.421875 109.652344 171.023438 C 109.53125 171.621094 109.46875 172.226562 109.464844 172.839844 L 109.464844 186.015625 C 109.472656 186.851562 109.589844 187.667969 109.816406 188.472656 C 110.046875 189.273438 110.375 190.035156 110.804688 190.75 C 111.234375 191.464844 111.75 192.109375 112.355469 192.6875 C 112.960938 193.261719 113.628906 193.75 114.363281 194.144531 C 113.628906 194.542969 112.960938 195.03125 112.363281 195.605469 C 111.761719 196.183594 111.246094 196.828125 110.816406 197.546875 C 110.390625 198.261719 110.0625 199.019531 109.839844 199.820312 C 109.613281 200.625 109.5 201.441406 109.496094 202.273438 L 109.496094 215.453125 C 109.503906 216.285156 109.617188 217.101562 109.84375 217.90625 C 110.066406 218.707031 110.394531 219.464844 110.820312 220.179688 C 111.25 220.894531 111.761719 221.539062 112.363281 222.117188 C 112.964844 222.695312 113.628906 223.183594 114.363281 223.582031 C 113.628906 223.980469 112.964844 224.46875 112.363281 225.046875 C 111.761719 225.621094 111.25 226.269531 110.820312 226.984375 C 110.394531 227.699219 110.066406 228.457031 109.84375 229.257812 C 109.617188 230.0625 109.503906 230.878906 109.496094 231.710938 L 109.496094 244.886719 C 109.5 245.722656 109.617188 246.542969 109.839844 247.347656 C 110.0625 248.152344 110.390625 248.914062 110.816406 249.628906 C 111.246094 250.347656 111.761719 250.996094 112.363281 251.578125 C 112.960938 252.15625 113.628906 252.648438 114.363281 253.046875 C 113.625 253.441406 112.957031 253.925781 112.351562 254.503906 C 111.746094 255.078125 111.226562 255.722656 110.796875 256.441406 C 110.363281 257.15625 110.035156 257.914062 109.8125 258.71875 C 109.585938 259.523438 109.46875 260.34375 109.464844 261.175781 L 109.464844 274.324219 C 109.46875 274.9375 109.53125 275.542969 109.652344 276.140625 C 109.773438 276.742188 109.949219 277.324219 110.183594 277.886719 C 110.421875 278.453125 110.710938 278.988281 111.050781 279.496094 C 111.390625 280.003906 111.777344 280.476562 112.210938 280.90625 C 112.644531 281.339844 113.117188 281.726562 113.625 282.066406 C 114.136719 282.402344 114.671875 282.691406 115.238281 282.925781 C 115.804688 283.15625 116.386719 283.335938 116.988281 283.453125 C 117.585938 283.574219 118.191406 283.632812 118.804688 283.632812 L 121.976562 283.632812 L 121.976562 312.523438 C 121.976562 312.976562 122.023438 313.425781 122.109375 313.871094 C 122.199219 314.316406 122.328125 314.746094 122.5 315.164062 C 122.675781 315.585938 122.886719 315.984375 123.136719 316.359375 C 123.390625 316.738281 123.675781 317.085938 123.996094 317.40625 C 124.3125 317.730469 124.660156 318.015625 125.039062 318.269531 C 125.414062 318.519531 125.8125 318.734375 126.230469 318.910156 C 126.648438 319.085938 127.078125 319.21875 127.523438 319.308594 C 127.964844 319.398438 128.414062 319.441406 128.867188 319.445312 L 182.210938 319.445312 C 188.011719 326.304688 194.058594 331.925781 204.632812 333.046875 L 212.25 363.238281 C 212.332031 363.570312 212.46875 363.882812 212.660156 364.171875 C 212.847656 364.460938 213.082031 364.710938 213.355469 364.917969 C 213.628906 365.128906 213.933594 365.285156 214.261719 365.390625 C 214.589844 365.496094 214.925781 365.542969 215.273438 365.535156 L 215.90625 365.535156 L 299.378906 348.125 C 300.234375 347.945312 300.890625 347.484375 301.34375 346.734375 C 301.816406 346 301.929688 345.214844 301.675781 344.378906 Z M 128.023438 107.347656 C 128.003906 107.226562 128.011719 107.101562 128.046875 106.984375 C 128.082031 106.863281 128.140625 106.753906 128.222656 106.660156 C 128.300781 106.566406 128.398438 106.492188 128.511719 106.4375 C 128.625 106.382812 128.742188 106.355469 128.867188 106.351562 L 247.640625 106.351562 C 247.878906 106.359375 248.082031 106.449219 248.25 106.617188 C 248.421875 106.785156 248.507812 106.988281 248.515625 107.226562 L 248.515625 165.949219 C 248.515625 167.882812 248.515625 170.058594 248.515625 171.992188 C 248.515625 173.925781 248.515625 176.527344 248.515625 178.039062 C 247.910156 180.292969 247.617188 182.589844 247.640625 184.929688 L 247.097656 231.894531 L 244.738281 233.765625 L 244.738281 119.195312 C 244.742188 118.75 244.699219 118.308594 244.613281 117.871094 C 244.527344 117.433594 244.402344 117.007812 244.230469 116.59375 C 244.0625 116.183594 243.855469 115.792969 243.609375 115.421875 C 243.363281 115.046875 243.082031 114.703125 242.765625 114.390625 C 242.453125 114.074219 242.109375 113.792969 241.738281 113.542969 C 241.371094 113.292969 240.980469 113.085938 240.566406 112.914062 C 240.15625 112.742188 239.730469 112.613281 239.292969 112.527344 C 238.855469 112.4375 238.414062 112.394531 237.96875 112.394531 L 139.023438 112.394531 C 138.578125 112.394531 138.136719 112.4375 137.703125 112.527344 C 137.265625 112.613281 136.84375 112.742188 136.433594 112.910156 C 136.023438 113.082031 135.632812 113.289062 135.261719 113.535156 C 134.890625 113.785156 134.550781 114.0625 134.234375 114.378906 C 133.921875 114.691406 133.640625 115.035156 133.394531 115.402344 C 133.148438 115.773438 132.9375 116.164062 132.769531 116.574219 C 132.597656 116.984375 132.46875 117.410156 132.382812 117.84375 C 132.296875 118.28125 132.253906 118.722656 132.253906 119.164062 L 132.253906 164.042969 L 131.074219 163.773438 L 130.347656 163.773438 C 129.605469 163.726562 128.859375 163.726562 128.113281 163.773438 Z M 225.789062 289.042969 L 139.023438 289.042969 C 138.824219 289.042969 138.652344 288.972656 138.511719 288.828125 C 138.367188 288.6875 138.296875 288.515625 138.296875 288.316406 L 138.296875 279.976562 L 139.355469 279.007812 C 140.847656 277.515625 141.996094 275.796875 142.808594 273.851562 C 143.617188 271.902344 144.03125 269.875 144.039062 267.765625 C 144.039062 267.132812 144.039062 266.496094 144.039062 265.890625 C 144.039062 265.289062 144.039062 265.5 144.039062 265.289062 C 144.039062 265.078125 144.039062 264.472656 143.828125 264.046875 C 143.617188 263.625 143.433594 263.503906 143.375 263.503906 C 143.3125 263.503906 143.164062 262.808594 143.042969 262.445312 C 142.953125 262.199219 142.855469 261.957031 142.738281 261.722656 C 142.738281 261.417969 142.46875 261.085938 142.316406 260.785156 L 141.925781 260.058594 L 141.5625 259.0625 C 141.378906 258.820312 141.230469 258.578125 141.078125 258.335938 L 140.292969 257.460938 L 139.75 256.796875 L 138.992188 256.070312 L 138.539062 255.648438 L 138.539062 250.539062 C 138.902344 250.207031 139.265625 249.90625 139.597656 249.542969 C 141.109375 248.0625 142.269531 246.347656 143.082031 244.398438 C 143.894531 242.445312 144.296875 240.414062 144.28125 238.300781 C 144.28125 237.664062 144.28125 237.03125 144.28125 236.425781 C 144.28125 235.820312 144.28125 236.003906 144.28125 235.820312 C 144.28125 235.640625 144.28125 235.003906 144.070312 234.613281 C 143.859375 234.21875 143.917969 234.128906 143.859375 233.886719 C 143.796875 233.644531 143.648438 233.191406 143.527344 232.828125 C 143.4375 232.582031 143.335938 232.339844 143.222656 232.105469 C 143.222656 231.800781 142.953125 231.46875 142.800781 231.167969 L 142.40625 230.441406 L 141.5625 229.597656 L 141.078125 228.902344 L 140.441406 228.113281 C 140.261719 227.902344 140.082031 227.660156 139.898438 227.480469 C 139.71875 227.300781 139.386719 226.964844 139.144531 226.726562 L 138.539062 226.179688 L 138.539062 221.195312 L 139.597656 220.226562 C 141.097656 218.742188 142.253906 217.023438 143.066406 215.074219 C 143.878906 213.125 144.28125 211.097656 144.28125 208.984375 C 144.28125 208.351562 144.28125 207.714844 144.28125 207.109375 C 144.28125 206.507812 144.28125 206.6875 144.28125 206.507812 C 144.28125 206.324219 144.28125 205.691406 144.070312 205.296875 C 143.859375 204.90625 143.917969 204.8125 143.859375 204.570312 C 143.796875 204.332031 143.648438 203.878906 143.527344 203.515625 C 143.4375 203.265625 143.335938 203.027344 143.222656 202.789062 C 143.101562 202.46875 142.960938 202.15625 142.800781 201.851562 L 142.40625 201.125 L 141.5625 200.039062 C 141.382812 199.820312 141.222656 199.585938 141.078125 199.34375 L 140.441406 198.589844 L 139.898438 197.921875 L 139.144531 197.199219 L 138.539062 196.652344 L 138.539062 191.636719 C 138.914062 191.339844 139.265625 191.015625 139.597656 190.671875 C 141.105469 189.1875 142.265625 187.472656 143.078125 185.523438 C 143.890625 183.574219 144.292969 181.539062 144.28125 179.425781 C 144.28125 178.792969 144.28125 178.160156 144.28125 177.554688 C 144.28125 176.949219 144.28125 177.128906 144.28125 176.949219 C 144.28125 176.769531 144.28125 176.132812 144.070312 175.710938 C 143.859375 175.289062 143.917969 175.257812 143.859375 175.015625 C 143.796875 174.773438 143.648438 174.320312 143.527344 173.957031 C 143.4375 173.710938 143.335938 173.46875 143.222656 173.230469 C 143.101562 172.910156 142.960938 172.597656 142.800781 172.296875 L 142.40625 171.570312 L 141.5625 170.695312 C 141.382812 170.472656 141.222656 170.242188 141.078125 170 L 140.441406 169.242188 L 139.898438 168.578125 L 139.144531 167.851562 L 138.539062 167.308594 L 138.539062 119.195312 C 138.53125 118.992188 138.597656 118.816406 138.742188 118.671875 C 138.886719 118.527344 139.0625 118.460938 139.265625 118.46875 L 237.96875 118.46875 C 238.167969 118.46875 238.339844 118.539062 238.480469 118.683594 C 238.625 118.824219 238.695312 118.996094 238.695312 119.195312 L 238.695312 239.570312 C 235.351562 243.449219 232.5625 247.695312 230.328125 252.308594 C 228.09375 256.917969 226.492188 261.738281 225.519531 266.769531 C 224.191406 274.210938 224.28125 281.636719 225.789062 289.042969 Z M 133.582031 200.671875 C 134.257812 201.121094 134.871094 201.644531 135.417969 202.246094 C 135.964844 202.84375 136.433594 203.5 136.816406 204.214844 C 137.203125 204.929688 137.492188 205.679688 137.691406 206.464844 C 137.894531 207.253906 137.992188 208.050781 137.996094 208.863281 C 137.984375 210.179688 137.714844 211.441406 137.191406 212.648438 C 136.667969 213.851562 135.925781 214.910156 134.972656 215.816406 C 134.070312 216.78125 133.011719 217.527344 131.796875 218.054688 C 130.582031 218.578125 129.316406 218.839844 127.992188 218.835938 L 118.804688 218.835938 C 118.367188 218.839844 117.949219 218.761719 117.546875 218.597656 C 117.144531 218.433594 116.785156 218.199219 116.476562 217.890625 C 116.167969 217.585938 115.929688 217.230469 115.761719 216.828125 C 115.59375 216.425781 115.511719 216.007812 115.511719 215.574219 L 115.511719 202.273438 C 115.511719 201.839844 115.59375 201.421875 115.761719 201.019531 C 115.929688 200.617188 116.167969 200.261719 116.476562 199.957031 C 116.785156 199.648438 117.144531 199.414062 117.546875 199.25 C 117.949219 199.085938 118.367188 199.007812 118.804688 199.011719 L 128.113281 199.011719 C 130.109375 199 131.929688 199.554688 133.582031 200.671875 Z M 133.582031 230.109375 C 134.257812 230.558594 134.871094 231.082031 135.417969 231.679688 C 135.964844 232.28125 136.433594 232.9375 136.816406 233.652344 C 137.203125 234.367188 137.492188 235.117188 137.691406 235.902344 C 137.894531 236.6875 137.992188 237.488281 137.996094 238.300781 C 137.984375 239.621094 137.714844 240.886719 137.191406 242.097656 C 136.667969 243.308594 135.929688 244.371094 134.972656 245.28125 C 134.503906 245.734375 134 246.148438 133.460938 246.519531 C 131.804688 247.617188 129.980469 248.160156 127.992188 248.152344 L 118.804688 248.152344 C 118.367188 248.15625 117.949219 248.074219 117.546875 247.914062 C 117.144531 247.75 116.785156 247.511719 116.476562 247.207031 C 116.167969 246.898438 115.929688 246.546875 115.761719 246.144531 C 115.59375 245.742188 115.511719 245.324219 115.511719 244.886719 L 115.511719 231.710938 C 115.511719 231.277344 115.59375 230.855469 115.761719 230.457031 C 115.929688 230.054688 116.167969 229.699219 116.476562 229.394531 C 116.785156 229.085938 117.144531 228.851562 117.546875 228.6875 C 117.949219 228.523438 118.367188 228.445312 118.804688 228.449219 L 128.113281 228.449219 C 130.125 228.480469 131.949219 229.085938 133.582031 230.261719 Z M 115.449219 172.6875 C 115.449219 172.253906 115.535156 171.832031 115.703125 171.433594 C 115.867188 171.03125 116.105469 170.675781 116.417969 170.371094 C 116.726562 170.0625 117.082031 169.828125 117.484375 169.664062 C 117.890625 169.5 118.308594 169.421875 118.742188 169.425781 L 128.050781 169.425781 C 130.042969 169.40625 131.867188 169.949219 133.523438 171.054688 C 134.199219 171.503906 134.8125 172.027344 135.359375 172.628906 C 135.90625 173.226562 136.371094 173.882812 136.757812 174.597656 C 137.140625 175.3125 137.433594 176.0625 137.632812 176.847656 C 137.832031 177.636719 137.933594 178.433594 137.933594 179.246094 C 137.925781 180.5625 137.660156 181.824219 137.136719 183.03125 C 136.609375 184.238281 135.871094 185.292969 134.914062 186.195312 C 134.011719 187.164062 132.953125 187.910156 131.738281 188.4375 C 130.523438 188.960938 129.253906 189.222656 127.929688 189.21875 L 118.804688 189.21875 C 118.371094 189.21875 117.953125 189.136719 117.550781 188.972656 C 117.148438 188.804688 116.792969 188.570312 116.484375 188.265625 C 116.175781 187.960938 115.9375 187.605469 115.769531 187.207031 C 115.601562 186.808594 115.515625 186.390625 115.511719 185.957031 Z M 118.742188 277.4375 C 118.308594 277.441406 117.890625 277.359375 117.484375 277.199219 C 117.082031 277.035156 116.726562 276.796875 116.417969 276.492188 C 116.105469 276.183594 115.867188 275.832031 115.703125 275.429688 C 115.535156 275.027344 115.449219 274.609375 115.449219 274.171875 L 115.449219 261.175781 C 115.449219 260.742188 115.535156 260.324219 115.703125 259.921875 C 115.867188 259.519531 116.105469 259.164062 116.417969 258.859375 C 116.726562 258.550781 117.082031 258.316406 117.484375 258.152344 C 117.890625 257.988281 118.308594 257.910156 118.742188 257.914062 L 128.050781 257.914062 C 130.046875 257.902344 131.871094 258.457031 133.523438 259.574219 C 134.199219 260.023438 134.8125 260.546875 135.359375 261.148438 C 135.90625 261.746094 136.371094 262.402344 136.757812 263.117188 C 137.140625 263.832031 137.433594 264.582031 137.632812 265.367188 C 137.832031 266.15625 137.933594 266.953125 137.933594 267.765625 C 137.921875 269.082031 137.65625 270.34375 137.128906 271.550781 C 136.605469 272.753906 135.867188 273.8125 134.914062 274.71875 C 134.445312 275.171875 133.941406 275.585938 133.402344 275.957031 C 131.746094 277.066406 129.925781 277.609375 127.929688 277.589844 L 118.804688 277.589844 Z M 127.960938 312.375 L 127.960938 283.480469 C 128.707031 283.527344 129.453125 283.527344 130.199219 283.480469 L 130.953125 283.480469 L 132.101562 283.269531 L 132.101562 288.46875 C 132.101562 288.914062 132.144531 289.351562 132.230469 289.789062 C 132.320312 290.222656 132.449219 290.648438 132.617188 291.058594 C 132.789062 291.46875 132.996094 291.859375 133.242188 292.230469 C 133.488281 292.597656 133.769531 292.941406 134.085938 293.253906 C 134.398438 293.570312 134.742188 293.851562 135.109375 294.097656 C 135.480469 294.34375 135.871094 294.550781 136.28125 294.722656 C 136.691406 294.890625 137.113281 295.019531 137.550781 295.109375 C 137.988281 295.195312 138.425781 295.238281 138.871094 295.238281 L 227.332031 295.238281 C 227.878906 297.121094 228.53125 298.964844 229.296875 300.769531 C 229.417969 301.089844 229.539062 301.394531 229.65625 301.675781 L 230.203125 302.945312 L 231.351562 305.332031 C 231.621094 305.964844 231.953125 306.570312 232.226562 307.085938 C 233.074219 308.65625 234.070312 310.347656 235.25 312.039062 C 235.394531 312.21875 235.453125 312.417969 235.429688 312.644531 C 235.46875 312.785156 235.46875 312.925781 235.429688 313.070312 C 235.355469 313.226562 235.246094 313.347656 235.097656 313.433594 C 234.949219 313.523438 234.789062 313.5625 234.613281 313.550781 L 128.867188 313.550781 C 128.742188 313.550781 128.617188 313.519531 128.503906 313.464844 C 128.386719 313.410156 128.289062 313.332031 128.207031 313.234375 C 128.128906 313.132812 128.070312 313.023438 128.039062 312.898438 C 128.003906 312.777344 128 312.652344 128.023438 312.523438 Z M 217.417969 358.824219 L 210.710938 332.410156 C 211.289062 331.824219 211.582031 331.121094 211.585938 330.296875 C 211.585938 329.894531 211.507812 329.507812 211.355469 329.136719 C 211.203125 328.769531 210.984375 328.441406 210.699219 328.15625 C 210.417969 327.875 210.089844 327.65625 209.71875 327.503906 C 209.347656 327.347656 208.964844 327.273438 208.5625 327.273438 C 206.855469 327.332031 205.164062 327.203125 203.488281 326.886719 C 201.808594 326.570312 200.183594 326.074219 198.617188 325.394531 C 197.050781 324.71875 195.574219 323.878906 194.195312 322.875 C 192.8125 321.871094 191.558594 320.726562 190.429688 319.445312 L 234.433594 319.445312 C 235.066406 319.445312 235.6875 319.363281 236.300781 319.195312 C 236.910156 319.027344 237.488281 318.777344 238.03125 318.453125 C 238.574219 318.128906 239.066406 317.734375 239.503906 317.277344 C 239.9375 316.816406 240.304688 316.308594 240.605469 315.75 C 240.902344 315.191406 241.121094 314.601562 241.257812 313.984375 C 241.394531 313.363281 241.449219 312.738281 241.417969 312.105469 C 241.382812 311.472656 241.269531 310.855469 241.066406 310.253906 C 240.867188 309.65625 240.589844 309.089844 240.234375 308.566406 L 239.902344 308.019531 C 239.539062 307.445312 239.148438 306.84375 238.816406 306.269531 C 238.484375 305.695312 237.9375 304.757812 237.546875 304.003906 C 237.261719 303.546875 237.011719 303.070312 236.789062 302.582031 C 235.972656 300.980469 235.28125 299.316406 234.613281 297.65625 L 234.070312 296.203125 C 233.769531 295.328125 233.527344 294.480469 233.253906 293.605469 C 232.984375 292.730469 232.742188 292.09375 232.558594 291.308594 L 232.558594 290.734375 C 230.605469 283.214844 230.292969 275.632812 231.621094 267.976562 C 232.511719 263.285156 234.019531 258.800781 236.136719 254.519531 C 238.257812 250.242188 240.914062 246.324219 244.105469 242.773438 C 246.460938 240.15625 249.09375 237.851562 251.992188 235.851562 L 253.261719 234.945312 L 253.683594 184.929688 C 253.703125 183.265625 253.933594 181.632812 254.378906 180.03125 L 254.621094 179.488281 L 254.621094 179.308594 C 254.878906 178.457031 255.195312 177.632812 255.566406 176.828125 C 255.941406 176.023438 256.363281 175.246094 256.84375 174.5 C 257.324219 173.753906 257.851562 173.046875 258.425781 172.371094 C 259.003906 171.699219 259.625 171.070312 260.289062 170.480469 C 260.953125 169.894531 261.652344 169.351562 262.390625 168.863281 C 263.128906 168.371094 263.894531 167.933594 264.695312 167.546875 C 265.492188 167.160156 266.3125 166.832031 267.15625 166.558594 C 268 166.285156 268.859375 166.074219 269.730469 165.917969 L 269.730469 203.363281 C 269.792969 206.363281 270.304688 209.285156 271.273438 212.128906 L 276.261719 227.570312 C 279.535156 236.371094 281.679688 245.4375 282.699219 254.769531 C 283.257812 264.179688 283.257812 273.589844 282.699219 282.996094 C 282.425781 288.347656 282.183594 293.90625 282.152344 299.410156 C 282.152344 300.648438 282.667969 302.429688 286.082031 311.496094 C 286.835938 313.460938 287.503906 315.125 287.683594 315.726562 L 295.148438 342.6875 Z M 217.417969 358.824219 " fill-opacity="1" fill-rule="nonzero"/></g></svg>