<svg xmlns="http://www.w3.org/2000/svg" xmlns:xlink="http://www.w3.org/1999/xlink" width="500" zoomAndPan="magnify" viewBox="0 0 375 374.999991" height="500" preserveAspectRatio="xMidYMid meet" version="1.0"><defs><clipPath id="d17f05c45b"><path d="M 8 45 L 362 45 L 362 323 L 8 323 Z M 8 45 " clip-rule="nonzero"/></clipPath><clipPath id="5eb935b71b"><path d="M 23.308594 7.773438 L 396.503906 62.925781 L 351.550781 367.121094 L -21.648438 311.96875 Z M 23.308594 7.773438 " clip-rule="nonzero"/></clipPath><clipPath id="112e0c8960"><path d="M 23.308594 7.773438 L 396.503906 62.925781 L 351.550781 367.121094 L -21.648438 311.96875 Z M 23.308594 7.773438 " clip-rule="nonzero"/></clipPath><clipPath id="b68e79482d"><path d="M 43 82 L 194 82 L 194 216 L 43 216 Z M 43 82 " clip-rule="nonzero"/></clipPath><clipPath id="3a035733bb"><path d="M 23.308594 7.773438 L 396.503906 62.925781 L 351.550781 367.121094 L -21.648438 311.96875 Z M 23.308594 7.773438 " clip-rule="nonzero"/></clipPath><clipPath id="54d35654ee"><path d="M 23.308594 7.773438 L 396.503906 62.925781 L 351.550781 367.121094 L -21.648438 311.96875 Z M 23.308594 7.773438 " clip-rule="nonzero"/></clipPath><clipPath id="c7110ba9db"><path d="M 198 159 L 319 159 L 319 288 L 198 288 Z M 198 159 " clip-rule="nonzero"/></clipPath><clipPath id="ab0cd2e661"><path d="M 23.308594 7.773438 L 396.503906 62.925781 L 351.550781 367.121094 L -21.648438 311.96875 Z M 23.308594 7.773438 " clip-rule="nonzero"/></clipPath><clipPath id="686f551322"><path d="M 23.308594 7.773438 L 396.503906 62.925781 L 351.550781 367.121094 L -21.648438 311.96875 Z M 23.308594 7.773438 " clip-rule="nonzero"/></clipPath><clipPath id="b6ecdc9f3d"><path d="M 197 80 L 211 80 L 211 99 L 197 99 Z M 197 80 " clip-rule="nonzero"/></clipPath><clipPath id="d567ed3b42"><path d="M 23.308594 7.773438 L 396.503906 62.925781 L 351.550781 367.121094 L -21.648438 311.96875 Z M 23.308594 7.773438 " clip-rule="nonzero"/></clipPath><clipPath id="5d84c33d0e"><path d="M 23.308594 7.773438 L 396.503906 62.925781 L 351.550781 367.121094 L -21.648438 311.96875 Z M 23.308594 7.773438 " clip-rule="nonzero"/></clipPath><clipPath id="2cf368844a"><path d="M 210 78 L 227 78 L 227 95 L 210 95 Z M 210 78 " clip-rule="nonzero"/></clipPath><clipPath id="3b41d13ed3"><path d="M 23.308594 7.773438 L 396.503906 62.925781 L 351.550781 367.121094 L -21.648438 311.96875 Z M 23.308594 7.773438 " clip-rule="nonzero"/></clipPath><clipPath id="8099056db0"><path d="M 23.308594 7.773438 L 396.503906 62.925781 L 351.550781 367.121094 L -21.648438 311.96875 Z M 23.308594 7.773438 " clip-rule="nonzero"/></clipPath><clipPath id="19007e386f"><path d="M 235 92 L 303 92 L 303 99 L 235 99 Z M 235 92 " clip-rule="nonzero"/></clipPath><clipPath id="7c35590dfd"><path d="M 23.308594 7.773438 L 396.503906 62.925781 L 351.550781 367.121094 L -21.648438 311.96875 Z M 23.308594 7.773438 " clip-rule="nonzero"/></clipPath><clipPath id="e0e4ae5767"><path d="M 23.308594 7.773438 L 396.503906 62.925781 L 351.550781 367.121094 L -21.648438 311.96875 Z M 23.308594 7.773438 " clip-rule="nonzero"/></clipPath><clipPath id="e02456dad9"><path d="M 225 119 L 326 119 L 326 127 L 225 127 Z M 225 119 " clip-rule="nonzero"/></clipPath><clipPath id="c3c7e41d8e"><path d="M 23.308594 7.773438 L 396.503906 62.925781 L 351.550781 367.121094 L -21.648438 311.96875 Z M 23.308594 7.773438 " clip-rule="nonzero"/></clipPath><clipPath id="20a757ab37"><path d="M 23.308594 7.773438 L 396.503906 62.925781 L 351.550781 367.121094 L -21.648438 311.96875 Z M 23.308594 7.773438 " clip-rule="nonzero"/></clipPath><clipPath id="a27d47b444"><path d="M 58 239 L 164 239 L 164 247 L 58 247 Z M 58 239 " clip-rule="nonzero"/></clipPath><clipPath id="ec48d394d6"><path d="M 23.308594 7.773438 L 396.503906 62.925781 L 351.550781 367.121094 L -21.648438 311.96875 Z M 23.308594 7.773438 " clip-rule="nonzero"/></clipPath><clipPath id="1b91229c50"><path d="M 23.308594 7.773438 L 396.503906 62.925781 L 351.550781 367.121094 L -21.648438 311.96875 Z M 23.308594 7.773438 " clip-rule="nonzero"/></clipPath><clipPath id="c86b980822"><path d="M 69 261 L 175 261 L 175 271 L 69 271 Z M 69 261 " clip-rule="nonzero"/></clipPath><clipPath id="bc7932ced3"><path d="M 23.308594 7.773438 L 396.503906 62.925781 L 351.550781 367.121094 L -21.648438 311.96875 Z M 23.308594 7.773438 " clip-rule="nonzero"/></clipPath><clipPath id="75d4b12d66"><path d="M 23.308594 7.773438 L 396.503906 62.925781 L 351.550781 367.121094 L -21.648438 311.96875 Z M 23.308594 7.773438 " clip-rule="nonzero"/></clipPath><clipPath id="4882e49cdb"><path d="M 58 137 L 79 137 L 79 163 L 58 163 Z M 58 137 " clip-rule="nonzero"/></clipPath><clipPath id="4b9720ab6b"><path d="M 23.308594 7.773438 L 396.503906 62.925781 L 351.550781 367.121094 L -21.648438 311.96875 Z M 23.308594 7.773438 " clip-rule="nonzero"/></clipPath><clipPath id="45c9c18e7d"><path d="M 23.308594 7.773438 L 396.503906 62.925781 L 351.550781 367.121094 L -21.648438 311.96875 Z M 23.308594 7.773438 " clip-rule="nonzero"/></clipPath><clipPath id="3d12e865b7"><path d="M 74 130 L 93 130 L 93 153 L 74 153 Z M 74 130 " clip-rule="nonzero"/></clipPath><clipPath id="81b38a854a"><path d="M 23.308594 7.773438 L 396.503906 62.925781 L 351.550781 367.121094 L -21.648438 311.96875 Z M 23.308594 7.773438 " clip-rule="nonzero"/></clipPath><clipPath id="4c79cf4c46"><path d="M 23.308594 7.773438 L 396.503906 62.925781 L 351.550781 367.121094 L -21.648438 311.96875 Z M 23.308594 7.773438 " clip-rule="nonzero"/></clipPath><clipPath id="579190a2a7"><path d="M 91 108 L 102 108 L 102 141 L 91 141 Z M 91 108 " clip-rule="nonzero"/></clipPath><clipPath id="e5b0c2c23e"><path d="M 23.308594 7.773438 L 396.503906 62.925781 L 351.550781 367.121094 L -21.648438 311.96875 Z M 23.308594 7.773438 " clip-rule="nonzero"/></clipPath><clipPath id="13596678e6"><path d="M 23.308594 7.773438 L 396.503906 62.925781 L 351.550781 367.121094 L -21.648438 311.96875 Z M 23.308594 7.773438 " clip-rule="nonzero"/></clipPath><clipPath id="64099ad260"><path d="M 82 116 L 91 116 L 91 127 L 82 127 Z M 82 116 " clip-rule="nonzero"/></clipPath><clipPath id="a294deaa61"><path d="M 23.308594 7.773438 L 396.503906 62.925781 L 351.550781 367.121094 L -21.648438 311.96875 Z M 23.308594 7.773438 " clip-rule="nonzero"/></clipPath><clipPath id="46e4fbfd74"><path d="M 23.308594 7.773438 L 396.503906 62.925781 L 351.550781 367.121094 L -21.648438 311.96875 Z M 23.308594 7.773438 " clip-rule="nonzero"/></clipPath><clipPath id="3e7ad3c2cd"><path d="M 101 120 L 111 120 L 111 131 L 101 131 Z M 101 120 " clip-rule="nonzero"/></clipPath><clipPath id="0db5e761ee"><path d="M 23.308594 7.773438 L 396.503906 62.925781 L 351.550781 367.121094 L -21.648438 311.96875 Z M 23.308594 7.773438 " clip-rule="nonzero"/></clipPath><clipPath id="bb775ec42d"><path d="M 23.308594 7.773438 L 396.503906 62.925781 L 351.550781 367.121094 L -21.648438 311.96875 Z M 23.308594 7.773438 " clip-rule="nonzero"/></clipPath></defs><g clip-path="url(#d17f05c45b)"><g clip-path="url(#5eb935b71b)"><g clip-path="url(#112e0c8960)"><path fill="#b21100" d="M 361.527344 280.375 L 359.113281 96.457031 C 358.960938 84.605469 358.148438 72.332031 350.226562 63.878906 C 341.746094 54.820312 328.699219 53.675781 316.054688 53.265625 L 70 45.40625 C 59.800781 45.082031 49.25 44.734375 38.9375 47.265625 C 28.351562 49.851562 21.578125 53.058594 16.1875 62.617188 C 15.355469 64.09375 14.738281 66.582031 14.402344 68.65625 L 14.3125 68.65625 L 8.480469 280.992188 C 8.203125 291.828125 8.507812 303.074219 15.527344 311.074219 C 20.511719 316.757812 27.472656 319.246094 34.855469 320.335938 C 39.472656 321.019531 44.246094 321.15625 48.792969 321.167969 L 316.066406 322.347656 C 331.300781 322.402344 346.574219 320.941406 355.074219 309.796875 C 361.292969 301.710938 361.667969 291.257812 361.527344 280.375 Z M 350.339844 306.179688 C 343.078125 315.691406 328.867188 316.417969 316.105469 316.375 L 48.832031 315.179688 C 37.804688 315.132812 26.488281 314.476562 20.03125 307.113281 C 14.429688 300.722656 14.195312 291.195312 14.46875 281.140625 L 19.96875 72.6875 L 20.3125 69.527344 C 20.589844 67.957031 21.039062 66.179688 21.390625 65.570312 C 25.796875 57.769531 30.800781 55.421875 40.351562 53.082031 C 49.867188 50.757812 59.988281 51.085938 69.792969 51.394531 L 315.847656 59.242188 C 327.242188 59.605469 338.941406 60.597656 345.839844 67.960938 C 352.304688 74.863281 352.972656 85.410156 353.128906 96.527344 L 355.539062 280.457031 C 355.679688 290.636719 355.386719 299.578125 350.339844 306.179688 Z M 350.339844 306.179688 " fill-opacity="1" fill-rule="nonzero"/></g></g></g><g clip-path="url(#b68e79482d)"><g clip-path="url(#3a035733bb)"><g clip-path="url(#54d35654ee)"><path fill="#b21100" d="M 167.097656 182.792969 C 167.121094 182.75 167.167969 182.742188 167.1875 182.714844 C 167.207031 182.6875 167.179688 182.667969 167.199219 182.640625 C 171.4375 175.460938 174.414062 167.386719 175.707031 158.652344 C 176.316406 154.515625 176.476562 150.421875 176.335938 146.378906 C 176.339844 146.347656 176.375 146.320312 176.363281 146.289062 C 176.367188 146.257812 176.339844 146.253906 176.34375 146.222656 C 175.765625 131.941406 170.582031 118.578125 162.066406 107.777344 C 172.195312 103.191406 182.386719 98.6875 192.605469 94.40625 C 193.621094 93.988281 194.101562 92.8125 193.667969 91.796875 C 193.25 90.78125 192.074219 90.316406 191.058594 90.734375 C 180.476562 95.164062 169.9375 99.84375 159.449219 104.59375 C 149.441406 93.390625 135.617188 85.476562 119.617188 83.113281 C 83.335938 77.75 49.441406 102.917969 44.078125 139.199219 C 38.71875 175.480469 63.882812 209.378906 100.164062 214.738281 C 127.636719 218.800781 153.71875 205.324219 167.097656 182.792969 Z M 164.53125 179.171875 L 112.359375 153.640625 L 172.347656 148.628906 C 172.363281 151.75 172.21875 154.894531 171.75 158.066406 C 170.621094 165.707031 168.070312 172.78125 164.53125 179.171875 Z M 109.585938 149.863281 L 167.511719 124.882812 C 170.113281 131.089844 171.761719 137.726562 172.246094 144.636719 Z M 141.644531 114.976562 C 141.933594 115.601562 142.523438 115.996094 143.152344 116.089844 C 143.53125 116.144531 143.9375 116.097656 144.300781 115.921875 C 148.921875 113.746094 153.628906 111.632812 158.292969 109.492188 C 161.234375 113.109375 163.804688 117.023438 165.886719 121.21875 L 112.273438 144.347656 L 140.980469 94.71875 C 146.445312 97.863281 151.382812 101.789062 155.609375 106.347656 C 151.277344 108.332031 146.898438 110.285156 142.605469 112.320312 C 141.597656 112.789062 141.175781 113.96875 141.644531 114.976562 Z M 48.019531 139.78125 C 53.058594 105.664062 84.917969 82.023438 119.019531 87.066406 C 125.605469 88.039062 131.792969 90.027344 137.464844 92.832031 L 104.054688 150.582031 C 103.550781 150.863281 103.136719 151.277344 103.019531 151.875 C 103 152.007812 103.074219 152.128906 103.066406 152.265625 L 102.761719 152.789062 L 103.121094 152.640625 C 103.25 153.230469 103.539062 153.765625 104.097656 154.046875 L 162.464844 182.632812 C 149.578125 202.667969 125.78125 214.5 100.71875 210.796875 C 66.617188 205.742188 42.980469 173.882812 48.019531 139.78125 Z M 48.019531 139.78125 " fill-opacity="1" fill-rule="nonzero"/></g></g></g><g clip-path="url(#c7110ba9db)"><g clip-path="url(#ab0cd2e661)"><g clip-path="url(#686f551322)"><path fill="#b21100" d="M 310.210938 266.859375 C 309.449219 266.074219 308.183594 266.023438 307.390625 266.796875 C 306.820312 267.34375 306.78125 268.105469 307.019531 268.800781 C 304.195312 266.480469 301.796875 264.097656 299.863281 261.582031 C 298.679688 260.039062 297.5625 258.355469 296.457031 256.683594 C 292.824219 251.199219 289.050781 245.558594 282.15625 243.460938 C 278.71875 243.109375 275.15625 243.613281 271.925781 244.886719 C 269.746094 238.941406 266.898438 233.265625 263.410156 227.972656 C 263.082031 227.476562 262.585938 227.203125 261.972656 227.082031 L 255.496094 226.308594 L 254.628906 220.957031 C 254.476562 219.996094 253.699219 219.328125 252.695312 219.273438 L 247.453125 219.191406 C 246.957031 217.980469 246.75 216.660156 246.867188 215.355469 C 246.9375 214.582031 246.539062 213.847656 245.871094 213.457031 C 245.175781 213.089844 244.355469 213.125 243.734375 213.570312 L 234.964844 219.800781 L 224.257812 205.113281 C 222.585938 202.808594 220.863281 200.433594 220.1875 197.828125 C 219.65625 195.722656 219.894531 192.945312 221.679688 191.488281 C 222.132812 191.109375 222.417969 190.539062 222.414062 189.9375 C 222.410156 189.355469 222.15625 188.777344 221.6875 188.402344 L 210.460938 179.121094 L 210.058594 165.328125 L 214.96875 168.585938 C 215.894531 169.183594 217.125 168.953125 217.738281 168.03125 C 218.351562 167.105469 218.105469 165.871094 217.179688 165.257812 L 209.359375 160.0625 C 208.617188 159.566406 207.625 159.636719 206.9375 160.226562 L 199.050781 167.125 C 198.222656 167.847656 198.144531 169.113281 198.867188 169.941406 C 199.195312 170.3125 199.625 170.53125 200.074219 170.597656 C 200.632812 170.679688 201.222656 170.519531 201.679688 170.128906 L 206.09375 166.261719 L 206.828125 190.816406 L 201.867188 190.898438 C 200.757812 190.917969 199.890625 191.816406 199.910156 192.925781 C 199.933594 193.914062 200.65625 194.726562 201.605469 194.867188 C 201.710938 194.882812 201.816406 194.882812 201.941406 194.886719 L 206.945312 194.796875 L 207.632812 218.007812 L 201.832031 218.394531 C 200.730469 218.460938 199.898438 219.414062 199.980469 220.515625 C 200.039062 221.476562 200.773438 222.230469 201.671875 222.367188 C 201.808594 222.386719 201.960938 222.394531 202.101562 222.382812 L 207.75 222.003906 L 208.445312 245.582031 C 206.527344 245.5625 204.613281 245.523438 202.707031 245.320312 C 201.617188 245.203125 200.625 245.996094 200.496094 247.082031 C 200.382812 248.15625 201.128906 249.128906 202.183594 249.28125 C 202.210938 249.285156 202.226562 249.289062 202.257812 249.292969 C 204.359375 249.527344 206.457031 249.574219 208.558594 249.59375 L 209.445312 279.578125 L 227.238281 279.351562 L 227.390625 285.382812 C 227.414062 286.367188 228.140625 287.167969 229.089844 287.308594 C 229.210938 287.324219 229.316406 287.324219 229.441406 287.328125 C 230.550781 287.308594 231.410156 286.375 231.386719 285.28125 L 231.222656 279.308594 L 248.835938 279.085938 C 248.933594 281.003906 249.019531 282.921875 249.015625 284.828125 C 249.019531 285.828125 249.757812 286.660156 250.722656 286.800781 C 250.8125 286.8125 250.917969 286.816406 251.011719 286.8125 C 252.117188 286.824219 253.015625 285.925781 253.011719 284.820312 C 253.019531 282.882812 252.921875 280.949219 252.824219 279.015625 L 270.433594 278.789062 L 270.472656 283.820312 C 270.480469 284.820312 271.21875 285.636719 272.167969 285.777344 C 272.273438 285.792969 272.378906 285.792969 272.472656 285.789062 C 273.578125 285.785156 274.464844 284.886719 274.460938 283.777344 L 274.425781 278.71875 L 293.421875 278.46875 L 293.589844 284.085938 C 293.613281 285.074219 294.355469 285.859375 295.289062 285.996094 C 295.410156 286.015625 295.515625 286.015625 295.640625 286.019531 C 296.75 285.984375 297.609375 285.066406 297.570312 283.96875 L 297.410156 278.414062 L 312.21875 278.21875 L 309.464844 282.808594 C 308.894531 283.75 309.207031 284.980469 310.152344 285.535156 C 310.394531 285.679688 310.640625 285.761719 310.898438 285.800781 C 311.664062 285.914062 312.46875 285.570312 312.898438 284.851562 L 317.726562 276.804688 C 318.191406 276.046875 318.078125 275.058594 317.453125 274.398438 Z M 210.613281 184.429688 L 217.542969 190.15625 C 217.324219 190.476562 217.179688 190.855469 217.003906 191.214844 C 216.636719 190.882812 216.160156 190.671875 215.640625 190.660156 L 210.789062 190.738281 Z M 297.148438 269.664062 C 297.113281 268.566406 296.183594 267.675781 295.101562 267.730469 C 293.988281 267.765625 293.128906 268.683594 293.167969 269.78125 L 293.300781 274.488281 L 274.382812 274.734375 L 274.339844 268.996094 C 274.335938 267.890625 273.460938 267.054688 272.328125 267.007812 C 271.222656 267.015625 270.335938 267.914062 270.355469 269.023438 L 270.394531 274.789062 L 252.523438 275.019531 C 252.375 273.308594 252.230469 271.597656 252 269.921875 C 251.855469 268.824219 250.863281 268.046875 249.75 268.203125 C 248.667969 268.367188 247.890625 269.359375 248.050781 270.457031 C 248.253906 271.992188 248.378906 273.535156 248.519531 275.074219 L 231.109375 275.296875 L 230.960938 269.746094 C 230.925781 268.648438 230 267.730469 228.914062 267.800781 C 227.804688 267.820312 226.945312 268.753906 226.96875 269.847656 L 227.109375 275.335938 L 213.300781 275.523438 L 212.527344 249.460938 C 214.402344 249.351562 216.289062 249.261719 218.160156 248.984375 C 219.242188 248.824219 219.992188 247.8125 219.832031 246.714844 C 219.671875 245.613281 218.671875 244.898438 217.5625 245.027344 C 215.847656 245.28125 214.132812 245.363281 212.410156 245.460938 L 211.707031 221.726562 L 217.359375 221.347656 C 218.457031 221.28125 219.289062 220.328125 219.207031 219.226562 C 219.140625 218.125 218.234375 217.285156 217.085938 217.359375 L 211.59375 217.730469 L 210.910156 194.707031 L 215.699219 194.632812 C 215.820312 194.632812 215.898438 194.523438 216.011719 194.492188 C 215.851562 195.867188 215.914062 197.320312 216.296875 198.792969 C 217.152344 202.144531 219.195312 204.949219 221.011719 207.429688 L 232.878906 223.71875 C 233.535156 224.585938 234.761719 224.796875 235.640625 224.175781 L 243.15625 218.832031 C 243.429688 219.992188 243.863281 221.117188 244.449219 222.140625 C 244.808594 222.746094 245.828125 223.113281 246.527344 223.15625 L 250.941406 223.238281 L 251.773438 228.417969 C 251.921875 229.300781 252.59375 229.9375 253.496094 230.085938 L 260.546875 230.925781 C 264.003906 236.324219 266.800781 242.144531 268.835938 248.238281 C 269.015625 248.789062 269.441406 249.234375 269.976562 249.453125 C 270.511719 249.671875 271.132812 249.640625 271.648438 249.363281 C 274.699219 247.753906 278.257812 247.066406 281.304688 247.332031 C 286.464844 248.925781 289.667969 253.746094 293.078125 258.859375 C 294.246094 260.613281 295.402344 262.367188 296.652344 263.980469 C 299.445312 267.636719 303.082031 271.015625 307.5625 274.257812 L 297.265625 274.398438 Z M 297.148438 269.664062 " fill-opacity="1" fill-rule="nonzero"/></g></g></g><g clip-path="url(#b6ecdc9f3d)"><g clip-path="url(#d567ed3b42)"><g clip-path="url(#5d84c33d0e)"><path fill="#b21100" d="M 210.128906 93.832031 C 209.855469 92.761719 208.769531 92.125 207.695312 92.410156 L 204.515625 93.246094 C 205.335938 92.15625 206.167969 91.015625 206.722656 89.640625 C 207.578125 87.585938 207.589844 85.433594 206.765625 83.730469 C 205.636719 81.398438 202.957031 80.1875 200.6875 80.988281 C 199.3125 81.460938 198.269531 82.691406 197.957031 84.195312 C 197.65625 85.597656 198.070312 86.964844 199.027344 87.859375 C 199.824219 88.605469 201.226562 88.472656 201.976562 87.664062 C 202.726562 86.851562 202.804688 85.496094 202.007812 84.75 C 202.3125 84.65625 202.929688 84.945312 203.191406 85.460938 C 203.507812 86.121094 203.457031 87.097656 203.046875 88.097656 C 202.625 89.097656 201.914062 90.050781 200.933594 91.382812 C 199.957031 92.679688 198.980469 94.105469 198.476562 95.84375 C 198.28125 96.535156 198.464844 97.269531 198.972656 97.789062 C 199.277344 98.113281 199.679688 98.308594 200.101562 98.371094 C 200.355469 98.410156 200.632812 98.40625 200.890625 98.320312 L 208.707031 96.277344 C 209.765625 95.988281 210.402344 94.902344 210.128906 93.832031 Z M 210.128906 93.832031 " fill-opacity="1" fill-rule="nonzero"/></g></g></g><g clip-path="url(#2cf368844a)"><g clip-path="url(#3b41d13ed3)"><g clip-path="url(#8099056db0)"><path fill="#b21100" d="M 217.363281 94.054688 C 217.527344 94.078125 217.710938 94.105469 217.878906 94.117188 C 221.769531 94.398438 225.519531 91.375 226.058594 87.503906 C 226.574219 83.921875 224.238281 80.273438 220.863281 79.117188 C 220.222656 78.238281 219.011719 78.027344 218.121094 78.648438 C 218.070312 78.671875 218.03125 78.710938 218 78.738281 C 217.984375 78.734375 217.96875 78.734375 217.9375 78.746094 C 214.042969 79 210.726562 82.503906 210.71875 86.40625 C 210.707031 90.121094 213.695312 93.511719 217.363281 94.054688 Z M 218.195312 82.714844 C 218.382812 82.699219 218.554688 82.675781 218.71875 82.609375 C 218.875 82.691406 219.035156 82.746094 219.210938 82.789062 C 220.988281 83.160156 222.367188 85.144531 222.117188 86.953125 C 221.867188 88.742188 219.984375 90.261719 218.171875 90.132812 C 216.339844 90.0625 214.722656 88.226562 214.730469 86.414062 C 214.722656 84.585938 216.378906 82.832031 218.195312 82.714844 Z M 218.195312 82.714844 " fill-opacity="1" fill-rule="nonzero"/></g></g></g><g clip-path="url(#19007e386f)"><g clip-path="url(#7c35590dfd)"><g clip-path="url(#e0e4ae5767)"><path fill="#b21100" d="M 237.609375 98.351562 C 237.789062 98.378906 237.988281 98.378906 238.175781 98.359375 C 255.660156 95.859375 273.691406 96.449219 291.121094 97.027344 L 300.601562 97.335938 C 301.699219 97.375 302.625 96.515625 302.667969 95.414062 C 302.707031 94.3125 301.796875 93.394531 300.742188 93.347656 L 291.261719 93.039062 C 273.664062 92.464844 255.453125 91.863281 237.625 94.40625 C 236.539062 94.570312 235.777344 95.578125 235.9375 96.660156 C 236.050781 97.554688 236.75 98.226562 237.609375 98.351562 Z M 237.609375 98.351562 " fill-opacity="1" fill-rule="nonzero"/></g></g></g><g clip-path="url(#e02456dad9)"><g clip-path="url(#c3c7e41d8e)"><g clip-path="url(#20a757ab37)"><path fill="#b21100" d="M 227.476562 126.476562 C 227.714844 126.515625 227.949219 126.503906 228.203125 126.449219 C 245.84375 122.570312 264.277344 123.128906 282.097656 123.65625 L 323.367188 124.902344 C 324.46875 124.941406 325.382812 124.0625 325.421875 122.960938 C 325.445312 121.859375 324.628906 120.9375 323.480469 120.90625 L 282.210938 119.664062 C 264.144531 119.128906 245.453125 118.5625 227.332031 122.554688 C 226.253906 122.792969 225.574219 123.863281 225.816406 124.925781 C 225.996094 125.769531 226.679688 126.359375 227.476562 126.476562 Z M 227.476562 126.476562 " fill-opacity="1" fill-rule="nonzero"/></g></g></g><g clip-path="url(#a27d47b444)"><g clip-path="url(#ec48d394d6)"><g clip-path="url(#1b91229c50)"><path fill="#b21100" d="M 163.011719 241.835938 C 162.945312 240.734375 162.003906 239.917969 160.890625 239.96875 C 127.617188 242.210938 93.867188 242.816406 60.558594 241.765625 C 59.457031 241.726562 58.53125 242.585938 58.503906 243.691406 C 58.476562 244.714844 59.226562 245.578125 60.203125 245.722656 C 60.277344 245.734375 60.355469 245.730469 60.429688 245.742188 C 93.875 246.796875 127.765625 246.199219 161.164062 243.941406 C 162.25 243.886719 163.082031 242.933594 163.011719 241.835938 Z M 163.011719 241.835938 " fill-opacity="1" fill-rule="nonzero"/></g></g></g><g clip-path="url(#c86b980822)"><g clip-path="url(#bc7932ced3)"><g clip-path="url(#75d4b12d66)"><path fill="#b21100" d="M 172.816406 261.996094 C 139.113281 264.128906 104.925781 265.59375 71.210938 266.371094 C 70.101562 266.390625 69.242188 267.308594 69.265625 268.402344 C 69.289062 269.390625 70.03125 270.191406 70.960938 270.328125 C 71.066406 270.34375 71.191406 270.347656 71.296875 270.347656 C 105.074219 269.578125 139.324219 268.109375 173.074219 265.96875 C 174.175781 265.902344 175.007812 264.949219 174.9375 263.863281 C 174.871094 262.761719 173.902344 261.925781 172.816406 261.996094 Z M 172.816406 261.996094 " fill-opacity="1" fill-rule="nonzero"/></g></g></g><g clip-path="url(#4882e49cdb)"><g clip-path="url(#4b9720ab6b)"><g clip-path="url(#45c9c18e7d)"><path fill="#b21100" d="M 75.617188 150.867188 C 74.3125 149.921875 72.84375 149.582031 71.539062 149.265625 C 71.152344 149.175781 70.765625 149.074219 70.398438 148.972656 C 70.695312 147.804688 70.9375 146.578125 70.925781 145.304688 C 70.941406 142.0625 69.011719 138.382812 65.433594 137.855469 C 65.40625 137.847656 65.359375 137.84375 65.328125 137.839844 C 62.582031 137.496094 59.75 139.410156 58.90625 142.207031 C 58.1875 144.589844 58.84375 147.3125 60.644531 149.359375 C 61.832031 150.703125 63.449219 151.710938 65.371094 152.316406 C 64.660156 155.871094 65.355469 158.859375 67.320312 160.75 C 68.234375 161.636719 69.453125 162.21875 70.761719 162.410156 C 71.214844 162.476562 71.671875 162.5 72.136719 162.476562 C 73.964844 162.375 75.636719 161.5625 76.734375 160.265625 C 77.835938 158.953125 78.34375 157.167969 78.136719 155.339844 C 77.933594 153.511719 77.003906 151.886719 75.617188 150.867188 Z M 66.480469 148.242188 C 66.410156 148.292969 66.34375 148.34375 66.273438 148.410156 C 65.175781 148.019531 64.277344 147.441406 63.632812 146.714844 C 62.761719 145.742188 62.40625 144.429688 62.730469 143.371094 C 63.023438 142.429688 64.007812 141.683594 64.835938 141.792969 C 64.851562 141.792969 64.851562 141.792969 64.867188 141.796875 C 66.101562 141.976562 66.957031 143.765625 66.949219 145.285156 C 66.945312 146.25 66.738281 147.21875 66.480469 148.242188 Z M 73.703125 157.683594 C 73.3125 158.148438 72.671875 158.4375 71.941406 158.480469 C 71.214844 158.527344 70.527344 158.289062 70.097656 157.871094 C 68.710938 156.546875 69.113281 153.914062 69.347656 152.859375 C 69.351562 152.84375 69.351562 152.84375 69.351562 152.828125 C 69.792969 152.957031 70.226562 153.050781 70.640625 153.144531 C 71.667969 153.386719 72.632812 153.605469 73.285156 154.070312 C 73.769531 154.433594 74.121094 155.070312 74.199219 155.789062 C 74.277344 156.523438 74.097656 157.21875 73.703125 157.683594 Z M 73.703125 157.683594 " fill-opacity="1" fill-rule="nonzero"/></g></g></g><g clip-path="url(#3d12e865b7)"><g clip-path="url(#81b38a854a)"><g clip-path="url(#4c79cf4c46)"><path fill="#b21100" d="M 77.859375 130.917969 C 76.445312 131.644531 73.355469 134.0625 75.195312 140.726562 C 75.984375 143.621094 77.730469 146.355469 80.535156 149.089844 C 81.53125 150.050781 82.757812 151.121094 84.324219 151.753906 C 84.832031 151.953125 85.363281 152.09375 85.890625 152.167969 C 87.304688 152.378906 88.707031 152.125 89.84375 151.417969 C 91.449219 150.410156 92.457031 148.578125 92.789062 146.121094 C 93.3125 142.1875 92.113281 138.015625 89.601562 134.957031 C 86.214844 130.847656 81.273438 129.148438 77.859375 130.917969 Z M 87.714844 148.046875 C 87.253906 148.332031 86.503906 148.328125 85.777344 148.050781 C 84.863281 147.683594 84.019531 146.929688 83.308594 146.242188 C 81.027344 144 79.625 141.855469 79.027344 139.664062 C 78.285156 136.988281 78.542969 135.042969 79.675781 134.441406 C 80.121094 134.21875 80.75 134.140625 81.441406 134.242188 C 82.960938 134.46875 84.878906 135.519531 86.464844 137.472656 C 88.300781 139.710938 89.15625 142.742188 88.78125 145.605469 C 88.648438 146.816406 88.253906 147.710938 87.714844 148.046875 Z M 87.714844 148.046875 " fill-opacity="1" fill-rule="nonzero"/></g></g></g><g clip-path="url(#579190a2a7)"><g clip-path="url(#e5b0c2c23e)"><g clip-path="url(#13596678e6)"><path fill="#b21100" d="M 93.375 108.273438 C 92.328125 108.59375 91.734375 109.722656 92.054688 110.765625 C 94.902344 119.992188 96.871094 129.53125 97.945312 139.109375 C 98.054688 140.03125 98.765625 140.734375 99.636719 140.863281 C 99.800781 140.890625 99.972656 140.882812 100.15625 140.878906 C 101.25 140.75 102.042969 139.761719 101.914062 138.667969 C 100.816406 128.824219 98.773438 119.042969 95.867188 109.59375 C 95.535156 108.53125 94.421875 107.953125 93.375 108.273438 Z M 93.375 108.273438 " fill-opacity="1" fill-rule="nonzero"/></g></g></g><g clip-path="url(#64099ad260)"><g clip-path="url(#a294deaa61)"><g clip-path="url(#46e4fbfd74)"><path fill="#b21100" d="M 85.714844 126.316406 C 85.910156 126.34375 86.125 126.359375 86.339844 126.347656 C 88.898438 126.296875 90.351562 123.835938 90.476562 121.441406 C 90.554688 119.671875 90.066406 118.203125 89.042969 117.21875 C 88.222656 116.421875 86.972656 116.039062 85.828125 116.207031 C 84.773438 116.375 83.902344 116.96875 83.417969 117.847656 C 83.292969 118.0625 83.226562 118.296875 83.191406 118.539062 C 82.722656 119.527344 82.214844 120.789062 82.285156 122.199219 C 82.378906 124.054688 83.699219 126.019531 85.714844 126.316406 Z M 86.480469 120.929688 C 86.484375 121.019531 86.480469 121.128906 86.480469 121.25 C 86.457031 121.832031 86.199219 122.316406 86.261719 121.988281 C 86.246094 121.679688 86.347656 121.308594 86.480469 120.929688 Z M 86.480469 120.929688 " fill-opacity="1" fill-rule="nonzero"/></g></g></g><g clip-path="url(#3e7ad3c2cd)"><g clip-path="url(#0db5e761ee)"><g clip-path="url(#bb775ec42d)"><path fill="#b21100" d="M 110.097656 128.292969 C 110.867188 127.160156 111.15625 125.804688 110.882812 124.550781 C 110.585938 123.230469 109.675781 122.097656 108.410156 121.433594 C 107.921875 121.179688 107.410156 121.027344 106.898438 120.933594 C 106.386719 120.335938 105.566406 120.078125 104.777344 120.328125 C 102.277344 121.113281 100.683594 123.703125 101.125 126.226562 C 101.492188 128.402344 103.335938 130.074219 105.425781 130.382812 C 105.878906 130.449219 106.339844 130.441406 106.792969 130.382812 C 108.109375 130.210938 109.316406 129.433594 110.097656 128.292969 Z M 106.824219 126.023438 C 106.667969 126.246094 106.441406 126.414062 106.238281 126.445312 C 105.773438 126.484375 105.144531 126.054688 105.066406 125.550781 C 105.042969 125.394531 105.054688 125.210938 105.109375 125.050781 C 105.414062 125.0625 105.742188 125.019531 106.039062 124.894531 C 106.167969 124.851562 106.378906 124.882812 106.5625 124.972656 C 106.777344 125.082031 106.9375 125.257812 106.976562 125.417969 C 107.027344 125.578125 106.960938 125.816406 106.824219 126.023438 Z M 106.824219 126.023438 " fill-opacity="1" fill-rule="nonzero"/></g></g></g></svg>