<svg xmlns="http://www.w3.org/2000/svg" xmlns:xlink="http://www.w3.org/1999/xlink" width="500" zoomAndPan="magnify" viewBox="0 0 375 374.999991" height="500" preserveAspectRatio="xMidYMid meet" version="1.0"><defs><clipPath id="8d89dc61d0"><path d="M 65 220 L 368.246094 220 L 368.246094 340 L 65 340 Z M 65 220 " clip-rule="nonzero"/></clipPath><clipPath id="b9c1bc7c78"><path d="M 6.746094 237 L 76 237 L 76 349 L 6.746094 349 Z M 6.746094 237 " clip-rule="nonzero"/></clipPath></defs><g clip-path="url(#8d89dc61d0)"><path fill="#b21111" d="M 70.488281 339.871094 C 68.371094 339.871094 66.253906 338.8125 65.617188 336.480469 C 64.769531 333.726562 66.042969 330.761719 69.007812 329.917969 C 105.429688 317 124.703125 320.597656 145.246094 324.621094 C 178.707031 331.1875 216.613281 338.386719 349.820312 261.511719 C 356.386719 257.699219 357.867188 252.195312 357.867188 248.382812 C 357.867188 242.03125 354.480469 235.886719 349.183594 232.921875 C 346.007812 231.015625 340.289062 229.535156 333.511719 233.558594 C 324.40625 238.851562 316.148438 243.9375 308.101562 248.804688 C 248.378906 284.382812 212.589844 306.199219 129.148438 265.535156 C 126.609375 264.476562 125.550781 261.300781 126.820312 258.761719 C 127.878906 256.21875 131.269531 255.371094 133.597656 256.429688 C 163.882812 271.253906 186.964844 277.394531 207.507812 277.394531 C 207.507812 277.394531 207.929688 277.394531 207.929688 277.394531 C 208.355469 276.972656 208.988281 276.972656 209.625 276.972656 C 209.625 276.972656 209.835938 276.972656 209.835938 276.972656 C 215.554688 276.972656 218.730469 272.3125 219.578125 267.867188 C 220 265.960938 220.425781 259.183594 212.589844 256.429688 L 154.140625 237.792969 C 127.667969 229.113281 114.113281 235.675781 92.089844 246.476562 C 86.371094 249.230469 79.804688 252.40625 72.394531 255.582031 C 69.851562 256.855469 66.886719 255.582031 65.617188 253.042969 C 64.558594 250.289062 65.617188 247.324219 68.371094 246.265625 C 75.359375 243.300781 81.5 240.335938 87.429688 237.371094 C 110.300781 226.570312 126.820312 218.3125 157.105469 228.050781 L 215.765625 246.476562 C 227.625 250.289062 231.4375 260.664062 229.957031 269.347656 C 229.53125 271.253906 229.109375 273.160156 228.050781 275.066406 C 252.191406 269.984375 274.214844 256.855469 302.382812 239.699219 C 310.640625 234.828125 318.902344 229.746094 328.21875 224.453125 C 336.902344 219.582031 346.21875 219.582031 354.054688 223.816406 C 362.738281 228.898438 368.246094 238.21875 368.246094 248.382812 C 368.246094 257.488281 363.160156 265.535156 354.691406 270.621094 C 218.519531 349.398438 178.492188 341.777344 143.339844 335 C 124.066406 331.1875 105.855469 327.796875 72.183594 339.871094 C 71.546875 339.871094 70.910156 339.871094 70.488281 339.871094 Z M 70.488281 339.871094 " fill-opacity="1" fill-rule="evenodd"/></g><g clip-path="url(#b9c1bc7c78)"><path fill="#b21111" d="M 62.230469 348.128906 L 20.296875 348.128906 C 12.460938 348.128906 6.746094 342.199219 6.746094 334.574219 L 6.746094 250.925781 C 6.746094 243.300781 12.886719 237.371094 20.296875 237.371094 L 62.230469 237.371094 C 69.640625 237.371094 75.78125 243.511719 75.78125 250.925781 L 75.78125 334.574219 C 75.359375 341.988281 69.640625 348.128906 62.230469 348.128906 Z M 20.296875 247.746094 C 18.390625 247.746094 16.910156 249.230469 16.910156 250.925781 L 16.910156 334.574219 C 16.910156 336.480469 18.390625 337.964844 20.296875 337.964844 L 62.230469 337.964844 C 63.710938 337.964844 65.40625 336.480469 65.40625 334.574219 L 65.40625 250.925781 C 65.40625 249.230469 63.921875 247.746094 62.230469 247.746094 Z M 20.296875 247.746094 " fill-opacity="1" fill-rule="evenodd"/></g><path fill="#b21111" d="M 41.261719 289.042969 C 32.582031 289.042969 25.167969 281.84375 25.167969 272.949219 C 25.167969 264.054688 32.582031 256.855469 41.261719 256.855469 C 50.15625 256.855469 57.570312 264.054688 57.570312 272.949219 C 57.570312 281.84375 50.15625 289.042969 41.261719 289.042969 Z M 41.261719 267.441406 C 38.085938 267.441406 35.546875 269.984375 35.546875 273.160156 C 35.546875 276.550781 38.085938 279.089844 41.261719 279.089844 C 44.652344 279.089844 47.191406 276.550781 47.191406 273.160156 C 47.191406 269.984375 44.652344 267.441406 41.261719 267.441406 Z M 41.261719 267.441406 " fill-opacity="1" fill-rule="evenodd"/><path fill="#b21111" d="M 212.589844 213.652344 C 211.742188 213.652344 211.105469 213.441406 210.472656 213.015625 C 210.261719 212.804688 209.835938 212.804688 209.625 212.382812 C 147.363281 166.636719 114.113281 113.695312 120.679688 71.550781 C 123.644531 52.492188 134.445312 38.089844 150.964844 32.371094 C 169.597656 26.019531 191.625 31.738281 211.953125 49.101562 C 232.285156 31.738281 254.519531 25.59375 273.582031 32.371094 C 290.097656 38.300781 301.535156 52.703125 304.5 71.972656 C 311.066406 114.328125 277.816406 166.847656 216.191406 212.382812 C 215.765625 212.804688 215.554688 212.804688 215.132812 213.015625 C 214.285156 213.652344 213.4375 213.652344 212.589844 213.652344 Z M 166.210938 40.417969 C 161.976562 40.417969 157.953125 40.84375 154.140625 42.324219 C 141.433594 46.773438 132.960938 57.996094 130.632812 73.246094 C 128.515625 87.644531 127.878906 138.683594 212.589844 202.214844 C 296.664062 139.105469 296.027344 87.859375 293.910156 73.878906 C 291.582031 58.210938 282.6875 46.773438 269.769531 42.324219 C 253.460938 36.609375 233.34375 42.960938 215.132812 60.113281 C 214.917969 60.328125 214.285156 60.539062 213.648438 60.960938 C 213.226562 61.175781 212.378906 61.597656 211.320312 61.597656 C 210.894531 61.597656 209.835938 61.175781 209.414062 60.960938 C 208.777344 60.539062 208.355469 60.328125 207.929688 60.113281 C 194.375 47.195312 179.765625 40.417969 166.210938 40.417969 Z M 166.210938 40.417969 " fill-opacity="1" fill-rule="evenodd"/><path fill="#b21111" d="M 145.667969 107.976562 C 143.339844 107.976562 141.222656 106.070312 140.585938 103.742188 C 136.984375 85.953125 141.007812 69.433594 151.175781 59.480469 C 160.070312 50.585938 172.5625 47.410156 186.117188 50.375 C 188.871094 51.007812 190.566406 53.550781 189.929688 56.515625 C 189.292969 59.054688 186.753906 60.960938 183.789062 60.328125 C 173.835938 57.996094 164.726562 60.328125 158.164062 66.46875 C 150.328125 74.09375 147.574219 87.011719 150.539062 101.410156 C 151.175781 104.164062 149.480469 106.917969 146.515625 107.550781 C 146.515625 107.976562 145.878906 107.976562 145.667969 107.976562 Z M 145.667969 107.976562 " fill-opacity="1" fill-rule="evenodd"/><path fill="#b21111" d="M 229.320312 177.015625 C 227.835938 177.015625 226.355469 176.378906 225.507812 175.109375 C 223.8125 173.203125 223.8125 169.8125 226.144531 167.910156 C 242.238281 153.71875 254.519531 139.320312 262.144531 124.917969 C 263.628906 122.589844 266.59375 121.316406 269.34375 122.800781 C 271.886719 124.28125 272.734375 127.246094 271.25 130 C 262.992188 145.25 250.074219 160.496094 232.921875 175.53125 C 231.648438 176.589844 230.589844 177.015625 229.320312 177.015625 Z M 229.320312 177.015625 " fill-opacity="1" fill-rule="evenodd"/></svg>