<svg xmlns="http://www.w3.org/2000/svg" xmlns:xlink="http://www.w3.org/1999/xlink" width="851" zoomAndPan="magnify" viewBox="0 0 638.25 236.249991" height="315" preserveAspectRatio="xMidYMid meet" version="1.0"><defs><g/><clipPath id="2d69afef6c"><path d="M 4 40.667969 L 632 40.667969 L 632 202.757812 L 4 202.757812 Z M 4 40.667969 " clip-rule="nonzero"/></clipPath></defs><g clip-path="url(#2d69afef6c)"><path fill="#b21111" d="M 550.921875 40.675781 L 85.734375 40.675781 C 40.984375 40.675781 4.703125 76.957031 4.703125 121.707031 C 4.703125 166.460938 40.984375 202.742188 85.734375 202.742188 L 550.921875 202.742188 C 595.675781 202.742188 631.957031 166.460938 631.957031 121.707031 C 631.957031 76.957031 595.675781 40.675781 550.921875 40.675781 " fill-opacity="1" fill-rule="nonzero"/></g><path fill="#ffffff" d="M 87.59375 67.300781 C 57.441406 67.300781 32.910156 91.832031 32.910156 121.984375 C 32.910156 152.136719 57.441406 176.667969 87.59375 176.667969 L 549.0625 176.667969 C 579.214844 176.667969 603.746094 152.136719 603.746094 121.984375 C 603.746094 91.832031 579.214844 67.300781 549.0625 67.300781 Z M 549.0625 182.199219 L 87.59375 182.199219 C 54.394531 182.199219 27.382812 155.1875 27.382812 121.984375 C 27.382812 88.78125 54.394531 61.773438 87.59375 61.773438 L 549.0625 61.773438 C 582.265625 61.773438 609.277344 88.78125 609.277344 121.984375 C 609.277344 155.1875 582.265625 182.199219 549.0625 182.199219 " fill-opacity="1" fill-rule="nonzero"/><g fill="#ffffff" fill-opacity="1"><g transform="translate(229.874924, 167.886542)"><g><path d="M 48.953125 -43.691406 C 48.953125 -44.613281 48.953125 -45.53125 49.085938 -46.453125 C 49.480469 -48.691406 49.613281 -50.929688 50.402344 -53.035156 C 51.324219 -55.796875 51.980469 -58.5625 51.980469 -61.457031 C 51.980469 -61.984375 52.113281 -62.507812 52.113281 -62.902344 C 52.769531 -66.71875 53.296875 -70.40625 53.824219 -74.222656 C 54.351562 -77.117188 54.613281 -80.011719 53.957031 -82.90625 C 53.824219 -83.566406 53.5625 -84.355469 53.164062 -85.011719 C 52.246094 -86.195312 51.191406 -87.25 50.140625 -88.304688 C 49.613281 -88.828125 48.953125 -89.09375 48.296875 -89.222656 L 42.375 -90.671875 C 40.925781 -91.066406 40.53125 -90.933594 39.742188 -89.488281 C 37.636719 -85.144531 35.664062 -80.539062 34.480469 -75.800781 C 33.953125 -73.039062 33.425781 -70.273438 33.164062 -67.378906 C 33.03125 -65.011719 32.242188 -62.902344 30.792969 -60.796875 L 20.660156 -44.875 C 17.765625 -40.53125 15.265625 -35.792969 11.710938 -31.847656 C 11.449219 -31.582031 11.316406 -31.1875 11.054688 -30.792969 L 6.84375 -25.925781 C 6.578125 -25.660156 5.921875 -25.53125 5.660156 -25.660156 C 4.34375 -26.1875 3.027344 -26.714844 1.84375 -27.371094 C 1.054688 -27.898438 0.261719 -28.292969 -0.65625 -27.898438 C -0.921875 -26.976562 -0.65625 -26.320312 0 -25.660156 L 2.632812 -23.6875 L 3.816406 -22.636719 C 2.105469 -20.398438 4.210938 -22.503906 2.367188 -20.660156 L -1.183594 -16.976562 C -3.421875 -14.34375 -5.660156 -11.582031 -7.765625 -8.816406 C -5.394531 -5.527344 -8.289062 -1.316406 -1.578125 -2.367188 C 1.183594 -1.449219 -2.632812 -4.078125 0.394531 -4.34375 C 1.183594 -4.472656 1.578125 -4.738281 2.105469 -5.265625 C 4.34375 -8.949219 7.238281 -12.371094 9.476562 -16.316406 C 10.527344 -18.027344 12.105469 -20.132812 14.34375 -20.925781 C 16.582031 -21.449219 18.949219 -22.109375 21.054688 -22.765625 C 23.820312 -23.820312 26.582031 -24.609375 28.953125 -26.453125 C 29.347656 -26.714844 29.871094 -26.847656 30.398438 -27.109375 L 30.792969 -25.003906 C 31.1875 -19.214844 31.582031 -13.554688 33.292969 -8.027344 L 34.085938 -4.871094 C 34.085938 -4.472656 34.085938 -3.683594 33.953125 -3.683594 C 33.164062 -3.289062 33.425781 -2.632812 33.425781 -2.105469 C 34.214844 1.183594 35.398438 4.34375 37.242188 7.238281 C 37.769531 8.027344 38.558594 8.554688 39.347656 9.210938 C 39.875 9.605469 40.664062 10 41.585938 9.738281 C 41.585938 8.160156 42.902344 8.683594 43.953125 8.554688 C 43.953125 8.289062 43.953125 8.027344 44.085938 7.894531 L 44.480469 7.371094 L 45.664062 8.554688 C 45.796875 7.371094 45.929688 6.316406 45.929688 5.265625 C 45.929688 3.816406 45.796875 2.367188 45.796875 0.921875 C 45.664062 -1.183594 45.53125 -3.160156 45.136719 -5.265625 C 44.742188 -7.894531 44.480469 -10.527344 45.136719 -13.160156 C 45.269531 -14.082031 45.402344 -14.871094 45.402344 -15.792969 C 45.53125 -19.214844 45.53125 -22.765625 45.53125 -26.054688 C 45.796875 -26.320312 45.929688 -26.453125 46.058594 -26.453125 C 46.058594 -26.582031 46.191406 -26.582031 46.324219 -26.714844 C 47.242188 -27.242188 47.507812 -28.820312 46.71875 -28.953125 C 46.453125 -28.6875 46.324219 -28.292969 45.796875 -27.765625 C 45.796875 -28.6875 45.796875 -29.347656 46.453125 -29.609375 C 47.507812 -30.003906 47.507812 -30.792969 47.640625 -31.714844 C 47.640625 -32.898438 47.902344 -34.214844 47.902344 -35.398438 C 47.902344 -36.191406 48.296875 -36.714844 48.953125 -37.109375 C 52.507812 -39.214844 55.796875 -41.585938 59.484375 -43.425781 C 60.140625 -43.691406 60.929688 -43.953125 61.195312 -44.742188 C 60.273438 -45.136719 59.613281 -45.664062 58.824219 -45.929688 C 58.296875 -46.191406 57.640625 -46.324219 57.113281 -46.191406 C 55.269531 -46.058594 53.5625 -45.53125 51.851562 -44.613281 L 49.21875 -43.425781 Z M 23.949219 -40.269531 C 28.558594 -48.691406 31.976562 -56.457031 30.925781 -42.242188 C 30.792969 -40.136719 30.664062 -37.902344 30.664062 -35.792969 C 30.53125 -34.875 30.269531 -34.347656 29.347656 -33.953125 C 19.476562 -27.503906 16.1875 -30.136719 23.949219 -40.269531 Z M 23.949219 -40.269531 "/></g></g></g><g fill="#ffffff" fill-opacity="1"><g transform="translate(293.034056, 167.886542)"><g><path d="M 1.84375 4.078125 C 1.710938 5.132812 1.84375 6.316406 1.972656 7.371094 L 1.972656 8.554688 C 2.105469 9.34375 2.5 9.871094 3.027344 10.132812 L 4.871094 10.660156 L 8.289062 11.84375 C 8.554688 11.976562 8.816406 12.371094 8.683594 13.027344 C 8.683594 15.132812 8.554688 17.109375 8.683594 19.214844 C 8.554688 20.53125 8.421875 21.976562 8.816406 23.160156 C 8.949219 24.347656 9.476562 25.265625 9.476562 26.582031 L 9.738281 26.976562 C 10.527344 28.425781 11.582031 29.609375 12.898438 29.871094 C 13.6875 30.003906 14.210938 30.136719 14.871094 30.664062 C 15.265625 30.925781 15.792969 31.058594 16.316406 30.792969 C 16.714844 30.664062 17.109375 30.53125 17.503906 30.003906 C 17.765625 29.476562 18.027344 29.082031 18.421875 28.820312 C 19.476562 28.292969 20.003906 27.503906 20.660156 26.582031 C 21.714844 25.003906 22.371094 23.03125 22.898438 21.054688 C 23.292969 20.398438 23.425781 19.738281 23.160156 18.949219 C 23.160156 18.6875 23.160156 18.292969 23.292969 18.027344 C 23.292969 17.109375 23.554688 16.1875 23.6875 15.265625 C 23.820312 14.34375 24.082031 14.082031 24.609375 13.949219 C 25.660156 13.6875 26.582031 13.554688 27.636719 13.421875 C 28.558594 13.160156 29.347656 13.160156 30.136719 12.898438 C 32.375 12.238281 34.875 11.582031 37.109375 10.792969 C 37.375 10.792969 37.636719 10.660156 37.902344 10.527344 L 44.347656 7.5 C 45.136719 7.238281 45.664062 6.976562 45.929688 6.054688 C 46.058594 5.789062 46.324219 5.660156 46.453125 5.527344 C 46.847656 5.265625 47.242188 4.871094 47.769531 4.605469 C 48.429688 4.210938 48.953125 3.683594 49.347656 3.027344 L 51.71875 0.132812 C 51.980469 -0.132812 52.246094 -0.394531 52.375 -0.65625 C 51.851562 -0.921875 51.71875 -0.65625 51.585938 -0.394531 C 49.613281 1.578125 47.507812 2.632812 45.53125 3.421875 C 43.425781 4.210938 41.191406 4.871094 39.214844 5.132812 C 37.902344 5.394531 36.453125 5.660156 35.136719 5.789062 C 33.03125 6.054688 31.1875 6.183594 29.347656 6.183594 C 26.847656 6.316406 24.476562 6.054688 21.976562 5.921875 L 20.925781 5.921875 C 20.660156 5.789062 20.53125 5.394531 20.53125 4.871094 L 20.53125 4.472656 C 21.449219 2.105469 22.371094 -0.921875 23.292969 -3.160156 C 24.082031 -4.871094 23.6875 -6.976562 24.476562 -8.683594 C 25.660156 -11.054688 27.898438 -16.449219 29.082031 -18.820312 C 29.609375 -19.871094 30.398438 -20.925781 30.925781 -21.976562 C 31.320312 -22.765625 31.582031 -23.6875 32.109375 -24.476562 C 33.03125 -26.054688 33.292969 -27.636719 33.425781 -29.476562 C 33.425781 -29.742188 33.425781 -30.003906 33.292969 -30.269531 C 32.769531 -31.320312 32.242188 -32.375 31.582031 -32.898438 C 30.53125 -33.425781 29.871094 -34.085938 29.214844 -34.875 C 28.558594 -35.53125 28.164062 -35.53125 27.503906 -34.875 C 26.714844 -34.085938 25.792969 -33.292969 25.136719 -32.375 C 23.292969 -30.269531 23.6875 -30.792969 21.582031 -28.6875 C 18.027344 -25.265625 17.371094 -25.136719 15.132812 -22.503906 C 11.84375 -18.554688 6.710938 -16.054688 8.421875 -21.054688 C 9.082031 -22.898438 12.371094 -27.765625 13.6875 -28.820312 C 14.609375 -30.925781 18.554688 -34.347656 19.609375 -35.53125 C 21.054688 -36.585938 25.265625 -39.742188 26.453125 -40.925781 C 27.109375 -41.453125 29.347656 -43.03125 29.742188 -43.558594 C 30.53125 -44.085938 32.375 -44.875 32.898438 -45.796875 C 33.03125 -46.324219 33.425781 -46.847656 33.953125 -46.980469 C 34.875 -47.902344 36.058594 -47.902344 36.714844 -47.507812 C 36.980469 -47.242188 37.109375 -47.242188 37.375 -47.113281 C 37.636719 -47.507812 37.636719 -47.902344 37.503906 -48.035156 C 36.714844 -49.347656 36.058594 -50.664062 35.269531 -51.71875 C 34.214844 -52.769531 28.6875 -56.457031 27.765625 -57.378906 C 27.109375 -58.035156 26.582031 -58.167969 25.925781 -57.773438 C 24.214844 -57.246094 22.765625 -56.71875 21.1875 -56.0625 C 20.660156 -55.796875 20.003906 -55.535156 19.34375 -55.007812 C 18.027344 -54.085938 13.292969 -50.269531 12.105469 -49.347656 C 9.605469 -47.640625 6.976562 -43.691406 4.871094 -41.058594 C 2.632812 -37.769531 0.394531 -32.503906 -0.261719 -29.871094 C -0.65625 -26.976562 -1.183594 -21.1875 -0.527344 -19.476562 C -0.394531 -19.34375 0.394531 -16.316406 0.527344 -16.1875 C 1.054688 -15.265625 1.972656 -14.609375 2.894531 -13.816406 C 3.554688 -13.421875 6.316406 -11.449219 7.105469 -12.105469 C 11.710938 -11.582031 17.238281 -16.449219 16.976562 -16.976562 C 17.238281 -17.109375 17.371094 -16.84375 17.238281 -16.449219 C 17.371094 -16.1875 17.238281 -15.921875 17.109375 -15.660156 C 16.316406 -13.160156 12.765625 -5.660156 12.105469 -3.160156 C 12.105469 -2.632812 10.265625 4.078125 9.605469 4.605469 C 8.816406 4.738281 8.027344 4.078125 7.105469 4.078125 L 4.738281 3.683594 L 1.84375 3.027344 Z M 18.027344 23.425781 C 17.898438 23.160156 17.632812 22.898438 17.503906 22.503906 C 17.632812 21.449219 17.503906 20.398438 17.765625 19.34375 C 17.632812 18.292969 17.765625 17.109375 18.027344 15.921875 C 18.027344 15.398438 18.292969 14.871094 18.6875 14.738281 C 19.738281 14.34375 20.660156 14.210938 21.714844 14.210938 C 21.976562 14.210938 22.109375 14.609375 21.976562 15.003906 C 21.976562 15.265625 21.976562 15.398438 21.84375 15.660156 L 19.34375 21.582031 C 18.949219 22.238281 18.554688 23.03125 18.027344 23.425781 Z M 18.027344 23.425781 "/></g></g></g><g fill="#ffffff" fill-opacity="1"><g transform="translate(339.61391, 167.886542)"><g><path d="M 21.320312 -20.660156 C 20.132812 -16.1875 20.792969 -13.949219 21.449219 -9.871094 C 22.238281 -5.394531 32.898438 -5.921875 35.398438 -7.371094 C 35.792969 -7.632812 36.058594 -8.027344 37.109375 -7.765625 C 37.503906 -8.160156 37.636719 -8.289062 38.558594 -8.683594 C 39.742188 -9.34375 40.007812 -9.476562 40.925781 -10.394531 C 42.113281 -10.921875 42.242188 -11.316406 43.425781 -11.582031 C 46.058594 -13.6875 49.480469 -17.371094 51.191406 -19.609375 C 51.851562 -19.871094 51.71875 -20.265625 51.980469 -20.53125 C 52.902344 -21.320312 54.085938 -25.53125 55.140625 -26.320312 L 55.929688 -27.898438 C 56.457031 -28.820312 55.402344 -32.769531 54.085938 -30.398438 C 52.640625 -28.292969 51.851562 -26.714844 50.929688 -25.136719 C 48.429688 -21.054688 43.03125 -15.921875 40.007812 -14.609375 C 35.398438 -13.160156 30.792969 -14.34375 31.1875 -16.054688 C 31.1875 -16.582031 31.714844 -18.949219 32.769531 -23.425781 C 33.558594 -24.476562 33.425781 -25.925781 33.953125 -27.109375 C 34.480469 -28.164062 35.003906 -29.347656 34.875 -30.136719 C 35.664062 -31.320312 35.398438 -30.398438 35.792969 -31.320312 C 36.980469 -34.214844 37.109375 -36.847656 38.03125 -39.347656 C 37.636719 -39.609375 37.902344 -40.136719 37.636719 -40.664062 C 36.453125 -41.320312 38.164062 -41.453125 36.191406 -41.320312 C 35.664062 -41.453125 35.792969 -41.585938 34.480469 -41.191406 C 33.6875 -40.136719 33.164062 -39.347656 32.769531 -38.164062 C 31.714844 -36.714844 30.53125 -35.136719 29.742188 -33.425781 C 29.082031 -31.976562 28.953125 -32.503906 28.164062 -30.792969 C 27.765625 -30.136719 27.503906 -29.347656 26.582031 -28.425781 C 25.53125 -27.109375 24.871094 -27.765625 23.820312 -26.320312 C 22.109375 -24.214844 17.898438 -24.082031 14.738281 -22.371094 C 13.949219 -22.109375 13.6875 -24.347656 13.160156 -25.003906 C 12.5 -25.53125 13.160156 -27.503906 13.421875 -28.558594 C 14.082031 -29.871094 14.34375 -31.058594 14.609375 -32.375 C 14.871094 -33.164062 15.132812 -36.847656 15.792969 -37.769531 C 16.582031 -40.925781 19.476562 -47.113281 20.265625 -50.402344 C 20.265625 -50.929688 20.398438 -51.457031 20.003906 -51.71875 C 19.476562 -52.246094 19.476562 -52.902344 18.949219 -53.035156 C 18.292969 -53.957031 17.371094 -54.480469 16.054688 -54.480469 C 14.738281 -54.351562 16.1875 -53.429688 14.210938 -52.375 C 13.554688 -51.71875 12.632812 -51.71875 11.710938 -51.324219 C 11.054688 -50.929688 10.394531 -50.664062 10 -49.746094 C 8.949219 -48.164062 8.289062 -46.71875 7.632812 -45.269531 C 6.449219 -42.507812 -0.65625 -31.582031 -1.316406 -28.558594 C -2.105469 -26.453125 -2.367188 -24.082031 -1.972656 -23.03125 C -1.316406 -18.6875 -1.183594 -17.765625 2.105469 -15.792969 C 3.027344 -15.265625 6.054688 -14.609375 7.238281 -14.609375 C 8.683594 -15.003906 11.582031 -14.871094 13.816406 -16.054688 C 16.054688 -17.503906 19.476562 -19.34375 21.320312 -21.1875 Z M 21.320312 -20.660156 "/></g></g></g><g fill="#ffffff" fill-opacity="1"><g transform="translate(392.509673, 167.886542)"><g><path d="M 6.054688 -41.585938 C 5.660156 -40.796875 5.527344 -40.269531 5.660156 -39.742188 C 5.921875 -38.820312 5.527344 -38.296875 5.132812 -37.503906 C 5.132812 -37.503906 4.871094 -37.109375 4.871094 -36.847656 C 4.078125 -35.003906 1.710938 -32.109375 0.65625 -29.476562 C -0.921875 -26.847656 1.84375 -29.609375 1.84375 -29.609375 C 1.183594 -28.6875 1.054688 -27.898438 0.394531 -26.976562 C 0.261719 -26.847656 0.132812 -26.320312 0 -26.320312 C -0.921875 -26.1875 -0.65625 -25.53125 -0.921875 -25.398438 C -0.921875 -24.609375 -1.183594 -23.949219 -1.316406 -23.292969 C -1.84375 -22.238281 -1.578125 -19.214844 -1.972656 -17.632812 C -1.972656 -16.976562 -1.972656 -16.054688 -1.710938 -15.265625 C -1.710938 -13.554688 -1.054688 -11.710938 -0.394531 -10 C 0.789062 -8.683594 2.105469 -7.632812 3.421875 -7.105469 C 5.394531 -6.316406 7.105469 -4.472656 8.949219 -5.132812 C 14.738281 -2.894531 23.6875 -10.792969 25.003906 -12.5 C 29.476562 -15.132812 31.453125 -22.371094 34.214844 -27.371094 C 32.375 -27.765625 33.820312 -29.609375 33.164062 -30.925781 C 32.769531 -30.269531 32.769531 -30.269531 32.769531 -30.136719 C 32.109375 -28.03125 30.664062 -26.453125 29.476562 -24.742188 C 23.160156 -18.027344 27.109375 -16.582031 16.1875 -12.632812 C 15.398438 -12.5 14.738281 -12.238281 14.082031 -12.765625 C 13.292969 -13.027344 12.632812 -13.554688 12.105469 -13.816406 C 11.710938 -14.34375 11.1875 -14.871094 11.054688 -15.792969 C 10.921875 -16.976562 11.449219 -23.6875 11.449219 -25.003906 C 11.582031 -27.371094 11.582031 -26.847656 12.632812 -29.476562 C 12.765625 -29.742188 13.027344 -30.136719 13.027344 -30.53125 C 13.292969 -31.847656 10.921875 -26.847656 11.449219 -28.425781 C 12.105469 -29.609375 12.632812 -31.1875 13.160156 -32.375 L 13.816406 -34.347656 C 14.871094 -36.453125 15.792969 -38.03125 16.582031 -39.742188 C 16.976562 -41.058594 16.84375 -41.980469 16.316406 -42.636719 C 15.792969 -43.164062 14.476562 -43.824219 14.082031 -44.347656 C 12.765625 -45.136719 9.476562 -42.769531 8.027344 -42.507812 C 7.632812 -42.242188 7.371094 -42.113281 6.976562 -41.585938 L 6.84375 -41.453125 C 6.449219 -41.320312 6.316406 -41.453125 6.054688 -41.585938 Z M 19.738281 -56.851562 C 19.214844 -57.773438 18.554688 -58.429688 17.632812 -58.824219 C 17.109375 -58.957031 16.449219 -59.085938 15.921875 -59.351562 C 15.792969 -59.484375 15.660156 -59.351562 15.398438 -59.21875 C 15.132812 -59.085938 14.871094 -59.085938 14.871094 -59.351562 C 14.738281 -59.484375 14.476562 -59.484375 14.210938 -59.351562 C 13.949219 -59.351562 13.6875 -59.085938 13.421875 -58.824219 L 12.632812 -57.640625 C 12.238281 -56.851562 11.582031 -56.191406 11.582031 -55.402344 C 11.582031 -55.269531 11.1875 -55.007812 11.1875 -54.746094 C 10.792969 -54.085938 10.527344 -53.691406 10.265625 -53.035156 C 10.132812 -52.507812 9.871094 -52.113281 9.871094 -51.71875 L 9.476562 -51.191406 C 10 -51.058594 10.394531 -51.058594 10.921875 -51.058594 C 11.316406 -51.058594 11.582031 -51.058594 11.976562 -50.796875 C 12.5 -50.535156 13.027344 -50.402344 13.816406 -50.929688 C 14.082031 -51.191406 14.476562 -51.457031 14.738281 -51.324219 C 15.398438 -51.457031 16.449219 -51.980469 16.714844 -52.375 L 18.027344 -53.957031 C 18.292969 -54.21875 18.292969 -54.480469 18.292969 -54.613281 C 18.421875 -55.140625 18.6875 -55.402344 18.949219 -55.796875 C 19.214844 -56.0625 19.34375 -56.457031 19.738281 -56.851562 Z M 19.738281 -56.851562 "/></g></g></g></svg>