<svg xmlns="http://www.w3.org/2000/svg" xmlns:xlink="http://www.w3.org/1999/xlink" width="500" zoomAndPan="magnify" viewBox="0 0 375 374.999991" height="500" preserveAspectRatio="xMidYMid meet" version="1.0"><defs><clipPath id="af8c145e92"><path d="M 0 51.328125 L 375 51.328125 L 375 323.578125 L 0 323.578125 Z M 0 51.328125 " clip-rule="nonzero"/></clipPath></defs><g clip-path="url(#af8c145e92)"><path fill="#b21111" d="M 356.769531 205.605469 L 339.960938 205.605469 L 339.960938 197.691406 C 339.960938 197.09375 339.929688 196.503906 339.871094 195.914062 C 339.8125 195.320312 339.726562 194.734375 339.609375 194.152344 C 339.492188 193.570312 339.347656 192.996094 339.175781 192.425781 C 339.003906 191.859375 338.800781 191.300781 338.574219 190.753906 C 338.347656 190.203125 338.09375 189.667969 337.8125 189.144531 C 337.535156 188.621094 337.226562 188.113281 336.898438 187.617188 C 336.566406 187.125 336.214844 186.648438 335.839844 186.191406 C 335.460938 185.730469 335.0625 185.292969 334.644531 184.871094 C 334.222656 184.453125 333.785156 184.054688 333.324219 183.675781 C 332.867188 183.300781 332.390625 182.945312 331.894531 182.617188 C 331.402344 182.285156 330.894531 181.980469 330.371094 181.699219 C 329.847656 181.421875 329.3125 181.167969 328.761719 180.941406 C 328.214844 180.710938 327.65625 180.511719 327.085938 180.339844 C 326.519531 180.167969 325.945312 180.023438 325.363281 179.90625 C 324.78125 179.789062 324.191406 179.703125 323.601562 179.644531 C 323.011719 179.582031 322.417969 179.554688 321.824219 179.554688 L 284.976562 179.554688 C 284.382812 179.554688 283.789062 179.582031 283.199219 179.644531 C 282.609375 179.703125 282.019531 179.789062 281.4375 179.90625 C 280.855469 180.023438 280.28125 180.167969 279.714844 180.339844 C 279.144531 180.511719 278.585938 180.710938 278.039062 180.941406 C 277.488281 181.167969 276.953125 181.421875 276.429688 181.699219 C 275.90625 181.980469 275.398438 182.285156 274.90625 182.617188 C 274.410156 182.945312 273.933594 183.300781 273.476562 183.675781 C 273.015625 184.054688 272.578125 184.453125 272.15625 184.871094 C 271.738281 185.292969 271.339844 185.730469 270.960938 186.191406 C 270.585938 186.648438 270.230469 187.125 269.902344 187.617188 C 269.574219 188.113281 269.265625 188.621094 268.988281 189.144531 C 268.707031 189.667969 268.453125 190.203125 268.226562 190.753906 C 267.996094 191.300781 267.796875 191.859375 267.625 192.425781 C 267.453125 192.996094 267.308594 193.570312 267.191406 194.152344 C 267.074219 194.734375 266.988281 195.320312 266.929688 195.914062 C 266.871094 196.503906 266.839844 197.09375 266.839844 197.691406 L 266.839844 226.5625 L 108.15625 226.5625 L 108.15625 197.691406 C 108.15625 197.09375 108.128906 196.503906 108.066406 195.914062 C 108.007812 195.320312 107.921875 194.734375 107.804688 194.152344 C 107.6875 193.570312 107.542969 192.996094 107.371094 192.425781 C 107.199219 191.859375 107 191.300781 106.769531 190.753906 C 106.542969 190.203125 106.289062 189.667969 106.011719 189.144531 C 105.730469 188.621094 105.425781 188.113281 105.09375 187.617188 C 104.765625 187.125 104.410156 186.648438 104.035156 186.191406 C 103.65625 185.730469 103.257812 185.292969 102.839844 184.871094 C 102.417969 184.453125 101.980469 184.054688 101.519531 183.675781 C 101.0625 183.300781 100.585938 182.945312 100.09375 182.617188 C 99.597656 182.285156 99.089844 181.980469 98.566406 181.699219 C 98.042969 181.421875 97.507812 181.167969 96.957031 180.941406 C 96.410156 180.710938 95.851562 180.511719 95.285156 180.339844 C 94.714844 180.167969 94.140625 180.023438 93.558594 179.90625 C 92.976562 179.789062 92.390625 179.703125 91.796875 179.644531 C 91.207031 179.582031 90.617188 179.554688 90.023438 179.554688 L 53.171875 179.554688 C 52.578125 179.554688 51.984375 179.582031 51.394531 179.644531 C 50.804688 179.703125 50.21875 179.789062 49.636719 179.90625 C 49.054688 180.023438 48.476562 180.167969 47.910156 180.339844 C 47.339844 180.511719 46.785156 180.710938 46.234375 180.941406 C 45.6875 181.167969 45.152344 181.421875 44.625 181.699219 C 44.101562 181.980469 43.59375 182.285156 43.101562 182.617188 C 42.609375 182.945312 42.132812 183.300781 41.671875 183.675781 C 41.214844 184.054688 40.773438 184.453125 40.355469 184.871094 C 39.933594 185.292969 39.535156 185.730469 39.160156 186.191406 C 38.78125 186.648438 38.429688 187.125 38.097656 187.617188 C 37.769531 188.113281 37.464844 188.621094 37.183594 189.144531 C 36.902344 189.667969 36.648438 190.203125 36.421875 190.753906 C 36.195312 191.300781 35.996094 191.859375 35.820312 192.425781 C 35.648438 192.996094 35.503906 193.570312 35.386719 194.152344 C 35.273438 194.734375 35.183594 195.320312 35.125 195.914062 C 35.066406 196.503906 35.035156 197.09375 35.035156 197.691406 L 35.035156 205.605469 L 18.226562 205.605469 C 17.632812 205.605469 17.039062 205.636719 16.449219 205.695312 C 15.859375 205.753906 15.273438 205.839844 14.691406 205.957031 C 14.109375 206.074219 13.53125 206.21875 12.964844 206.390625 C 12.394531 206.5625 11.839844 206.765625 11.289062 206.992188 C 10.742188 207.21875 10.207031 207.472656 9.679688 207.753906 C 9.15625 208.035156 8.648438 208.339844 8.15625 208.667969 C 7.664062 209 7.1875 209.351562 6.726562 209.730469 C 6.269531 210.105469 5.828125 210.503906 5.410156 210.925781 C 4.988281 211.34375 4.589844 211.785156 4.214844 212.242188 C 3.835938 212.703125 3.484375 213.175781 3.152344 213.671875 C 2.824219 214.164062 2.519531 214.671875 2.238281 215.195312 C 1.957031 215.71875 1.703125 216.257812 1.476562 216.804688 C 1.25 217.351562 1.050781 217.910156 0.875 218.480469 C 0.703125 219.046875 0.558594 219.621094 0.441406 220.207031 C 0.328125 220.789062 0.238281 221.375 0.179688 221.964844 C 0.121094 222.554688 0.0898438 223.148438 0.0898438 223.742188 L 0.0898438 279.179688 C 0.0898438 279.773438 0.121094 280.367188 0.179688 280.957031 C 0.238281 281.550781 0.328125 282.136719 0.441406 282.71875 C 0.558594 283.300781 0.703125 283.875 0.875 284.441406 C 1.050781 285.011719 1.25 285.570312 1.476562 286.117188 C 1.703125 286.667969 1.957031 287.203125 2.238281 287.726562 C 2.519531 288.25 2.824219 288.757812 3.152344 289.25 C 3.484375 289.746094 3.835938 290.222656 4.214844 290.679688 C 4.589844 291.140625 4.988281 291.578125 5.410156 292 C 5.828125 292.417969 6.269531 292.816406 6.726562 293.195312 C 7.1875 293.570312 7.664062 293.925781 8.15625 294.253906 C 8.648438 294.585938 9.15625 294.890625 9.679688 295.167969 C 10.207031 295.449219 10.742188 295.703125 11.289062 295.929688 C 11.839844 296.160156 12.394531 296.359375 12.964844 296.53125 C 13.53125 296.703125 14.109375 296.847656 14.691406 296.964844 C 15.273438 297.082031 15.859375 297.167969 16.449219 297.226562 C 17.039062 297.285156 17.632812 297.316406 18.226562 297.316406 L 35.035156 297.316406 L 35.035156 305.234375 C 35.035156 305.828125 35.066406 306.417969 35.125 307.011719 C 35.183594 307.601562 35.269531 308.1875 35.386719 308.769531 C 35.503906 309.351562 35.648438 309.925781 35.820312 310.496094 C 35.996094 311.0625 36.195312 311.621094 36.421875 312.171875 C 36.648438 312.71875 36.902344 313.253906 37.183594 313.777344 C 37.464844 314.300781 37.769531 314.8125 38.097656 315.304688 C 38.429688 315.796875 38.78125 316.273438 39.160156 316.734375 C 39.535156 317.191406 39.933594 317.632812 40.355469 318.050781 C 40.773438 318.472656 41.214844 318.871094 41.671875 319.246094 C 42.132812 319.625 42.609375 319.976562 43.101562 320.308594 C 43.59375 320.636719 44.101562 320.941406 44.625 321.222656 C 45.148438 321.503906 45.6875 321.757812 46.234375 321.984375 C 46.785156 322.210938 47.339844 322.410156 47.910156 322.582031 C 48.476562 322.757812 49.054688 322.902344 49.636719 323.019531 C 50.21875 323.132812 50.804688 323.222656 51.394531 323.28125 C 51.984375 323.339844 52.578125 323.367188 53.171875 323.371094 L 90.023438 323.371094 C 90.617188 323.367188 91.207031 323.339844 91.796875 323.28125 C 92.390625 323.222656 92.976562 323.132812 93.558594 323.019531 C 94.140625 322.902344 94.714844 322.757812 95.285156 322.582031 C 95.851562 322.410156 96.410156 322.210938 96.957031 321.984375 C 97.507812 321.757812 98.042969 321.503906 98.566406 321.222656 C 99.089844 320.941406 99.597656 320.636719 100.09375 320.308594 C 100.585938 319.976562 101.0625 319.625 101.519531 319.246094 C 101.980469 318.871094 102.417969 318.472656 102.839844 318.050781 C 103.257812 317.632812 103.65625 317.191406 104.035156 316.734375 C 104.410156 316.273438 104.765625 315.796875 105.09375 315.304688 C 105.425781 314.8125 105.730469 314.300781 106.011719 313.777344 C 106.289062 313.253906 106.542969 312.71875 106.769531 312.171875 C 107 311.621094 107.199219 311.0625 107.371094 310.496094 C 107.542969 309.925781 107.6875 309.351562 107.804688 308.769531 C 107.921875 308.1875 108.007812 307.601562 108.066406 307.011719 C 108.128906 306.417969 108.15625 305.828125 108.15625 305.234375 L 108.15625 276.359375 L 121.949219 276.359375 C 141.703125 293.058594 162.453125 308.402344 184.207031 322.394531 C 184.695312 322.710938 185.222656 322.953125 185.78125 323.121094 C 186.339844 323.285156 186.914062 323.367188 187.5 323.367188 C 188.082031 323.367188 188.65625 323.285156 189.214844 323.121094 C 189.777344 322.953125 190.300781 322.710938 190.792969 322.394531 C 212.542969 308.402344 233.296875 293.058594 253.046875 276.359375 L 266.839844 276.359375 L 266.839844 305.234375 C 266.839844 305.828125 266.871094 306.417969 266.929688 307.011719 C 266.988281 307.601562 267.074219 308.1875 267.191406 308.769531 C 267.308594 309.351562 267.453125 309.925781 267.625 310.496094 C 267.796875 311.0625 267.996094 311.621094 268.226562 312.171875 C 268.453125 312.71875 268.707031 313.253906 268.988281 313.777344 C 269.265625 314.300781 269.574219 314.8125 269.902344 315.304688 C 270.230469 315.796875 270.585938 316.273438 270.960938 316.734375 C 271.339844 317.191406 271.738281 317.632812 272.15625 318.050781 C 272.578125 318.472656 273.015625 318.871094 273.476562 319.246094 C 273.933594 319.625 274.410156 319.976562 274.90625 320.304688 C 275.398438 320.636719 275.90625 320.941406 276.429688 321.222656 C 276.953125 321.503906 277.488281 321.757812 278.039062 321.984375 C 278.585938 322.210938 279.144531 322.410156 279.714844 322.582031 C 280.28125 322.757812 280.855469 322.902344 281.4375 323.019531 C 282.019531 323.132812 282.609375 323.222656 283.199219 323.28125 C 283.789062 323.339844 284.382812 323.367188 284.976562 323.371094 L 321.824219 323.371094 C 322.417969 323.367188 323.011719 323.339844 323.601562 323.28125 C 324.191406 323.222656 324.78125 323.132812 325.363281 323.019531 C 325.945312 322.902344 326.519531 322.757812 327.085938 322.582031 C 327.65625 322.410156 328.214844 322.210938 328.761719 321.984375 C 329.3125 321.757812 329.847656 321.503906 330.371094 321.222656 C 330.894531 320.941406 331.402344 320.636719 331.894531 320.308594 C 332.390625 319.976562 332.867188 319.625 333.324219 319.246094 C 333.785156 318.871094 334.222656 318.472656 334.644531 318.050781 C 335.0625 317.632812 335.460938 317.191406 335.839844 316.734375 C 336.214844 316.273438 336.566406 315.796875 336.898438 315.304688 C 337.226562 314.8125 337.535156 314.300781 337.8125 313.777344 C 338.09375 313.253906 338.347656 312.71875 338.574219 312.171875 C 338.800781 311.621094 339.003906 311.0625 339.175781 310.496094 C 339.347656 309.925781 339.492188 309.351562 339.609375 308.769531 C 339.726562 308.1875 339.8125 307.601562 339.871094 307.011719 C 339.929688 306.417969 339.960938 305.828125 339.960938 305.234375 L 339.960938 297.316406 L 356.769531 297.316406 C 357.363281 297.316406 357.957031 297.285156 358.546875 297.226562 C 359.136719 297.167969 359.726562 297.082031 360.308594 296.964844 C 360.890625 296.847656 361.464844 296.703125 362.03125 296.53125 C 362.601562 296.359375 363.160156 296.160156 363.707031 295.929688 C 364.253906 295.703125 364.792969 295.449219 365.316406 295.167969 C 365.839844 294.890625 366.347656 294.585938 366.839844 294.253906 C 367.335938 293.925781 367.8125 293.570312 368.269531 293.195312 C 368.730469 292.816406 369.167969 292.417969 369.589844 292 C 370.007812 291.578125 370.40625 291.140625 370.78125 290.679688 C 371.160156 290.222656 371.511719 289.746094 371.84375 289.25 C 372.171875 288.757812 372.480469 288.25 372.757812 287.726562 C 373.039062 287.203125 373.292969 286.667969 373.519531 286.117188 C 373.746094 285.570312 373.949219 285.011719 374.121094 284.441406 C 374.292969 283.875 374.4375 283.300781 374.554688 282.71875 C 374.671875 282.136719 374.757812 281.550781 374.816406 280.957031 C 374.875 280.367188 374.90625 279.773438 374.90625 279.179688 L 374.90625 223.742188 C 374.90625 223.148438 374.875 222.554688 374.816406 221.964844 C 374.757812 221.375 374.671875 220.789062 374.554688 220.207031 C 374.4375 219.621094 374.292969 219.046875 374.121094 218.480469 C 373.949219 217.910156 373.746094 217.351562 373.519531 216.804688 C 373.292969 216.257812 373.039062 215.71875 372.757812 215.195312 C 372.480469 214.671875 372.171875 214.164062 371.84375 213.671875 C 371.511719 213.175781 371.160156 212.703125 370.78125 212.242188 C 370.40625 211.785156 370.007812 211.34375 369.589844 210.925781 C 369.167969 210.503906 368.730469 210.105469 368.269531 209.730469 C 367.8125 209.351562 367.335938 209 366.839844 208.667969 C 366.347656 208.339844 365.839844 208.035156 365.316406 207.753906 C 364.792969 207.472656 364.253906 207.21875 363.707031 206.992188 C 363.160156 206.765625 362.601562 206.5625 362.03125 206.390625 C 361.464844 206.21875 360.890625 206.074219 360.308594 205.957031 C 359.726562 205.839844 359.136719 205.753906 358.546875 205.695312 C 357.957031 205.636719 357.363281 205.605469 356.769531 205.605469 Z M 18.230469 285.226562 C 17.832031 285.226562 17.441406 285.1875 17.050781 285.109375 C 16.660156 285.03125 16.285156 284.917969 15.917969 284.765625 C 15.550781 284.613281 15.203125 284.425781 14.871094 284.207031 C 14.542969 283.984375 14.238281 283.734375 13.957031 283.453125 C 13.675781 283.171875 13.425781 282.867188 13.203125 282.539062 C 12.984375 282.207031 12.796875 281.859375 12.644531 281.492188 C 12.492188 281.125 12.378906 280.75 12.300781 280.359375 C 12.222656 279.972656 12.183594 279.578125 12.183594 279.179688 L 12.183594 223.742188 C 12.183594 223.34375 12.222656 222.953125 12.300781 222.5625 C 12.378906 222.175781 12.492188 221.796875 12.644531 221.429688 C 12.796875 221.0625 12.984375 220.714844 13.203125 220.386719 C 13.425781 220.054688 13.675781 219.75 13.957031 219.46875 C 14.238281 219.1875 14.542969 218.9375 14.871094 218.71875 C 15.203125 218.496094 15.550781 218.308594 15.917969 218.160156 C 16.285156 218.007812 16.660156 217.890625 17.050781 217.8125 C 17.441406 217.734375 17.832031 217.695312 18.230469 217.695312 L 35.039062 217.695312 L 35.039062 285.226562 Z M 96.066406 305.234375 C 96.066406 305.628906 96.027344 306.023438 95.949219 306.414062 C 95.871094 306.800781 95.757812 307.179688 95.605469 307.546875 C 95.453125 307.914062 95.265625 308.261719 95.046875 308.589844 C 94.824219 308.921875 94.574219 309.226562 94.292969 309.507812 C 94.015625 309.785156 93.707031 310.039062 93.378906 310.257812 C 93.046875 310.480469 92.699219 310.664062 92.335938 310.816406 C 91.96875 310.96875 91.589844 311.085938 91.199219 311.160156 C 90.8125 311.238281 90.417969 311.277344 90.023438 311.277344 L 53.171875 311.277344 C 52.773438 311.277344 52.382812 311.238281 51.992188 311.160156 C 51.605469 311.085938 51.226562 310.96875 50.859375 310.816406 C 50.492188 310.664062 50.144531 310.480469 49.816406 310.257812 C 49.484375 310.039062 49.179688 309.785156 48.898438 309.507812 C 48.617188 309.226562 48.367188 308.921875 48.148438 308.589844 C 47.925781 308.261719 47.742188 307.914062 47.589844 307.546875 C 47.4375 307.179688 47.320312 306.800781 47.242188 306.414062 C 47.167969 306.023438 47.128906 305.628906 47.125 305.234375 L 47.125 197.6875 C 47.128906 197.289062 47.167969 196.898438 47.242188 196.507812 C 47.320312 196.117188 47.4375 195.742188 47.589844 195.375 C 47.742188 195.007812 47.925781 194.660156 48.148438 194.328125 C 48.367188 194 48.617188 193.695312 48.898438 193.414062 C 49.179688 193.132812 49.484375 192.882812 49.816406 192.660156 C 50.144531 192.441406 50.492188 192.253906 50.859375 192.101562 C 51.226562 191.949219 51.605469 191.835938 51.992188 191.757812 C 52.382812 191.679688 52.773438 191.640625 53.171875 191.640625 L 90.023438 191.640625 C 90.417969 191.640625 90.8125 191.679688 91.199219 191.757812 C 91.589844 191.835938 91.96875 191.949219 92.335938 192.101562 C 92.699219 192.253906 93.046875 192.441406 93.378906 192.660156 C 93.707031 192.882812 94.015625 193.132812 94.292969 193.414062 C 94.574219 193.695312 94.824219 194 95.046875 194.328125 C 95.265625 194.660156 95.453125 195.007812 95.605469 195.375 C 95.757812 195.742188 95.871094 196.117188 95.949219 196.507812 C 96.027344 196.898438 96.066406 197.289062 96.066406 197.6875 Z M 187.5 310.101562 C 170.566406 298.972656 154.964844 287.671875 140.886719 276.359375 L 234.109375 276.359375 C 220.035156 287.671875 204.429688 298.972656 187.496094 310.101562 Z M 108.15625 264.269531 L 108.15625 238.652344 L 266.839844 238.652344 L 266.839844 264.269531 Z M 327.871094 305.234375 C 327.871094 305.628906 327.832031 306.023438 327.753906 306.414062 C 327.675781 306.800781 327.5625 307.179688 327.410156 307.546875 C 327.257812 307.914062 327.070312 308.261719 326.851562 308.589844 C 326.628906 308.921875 326.378906 309.226562 326.097656 309.507812 C 325.816406 309.785156 325.511719 310.039062 325.183594 310.257812 C 324.851562 310.480469 324.503906 310.664062 324.136719 310.816406 C 323.769531 310.96875 323.394531 311.085938 323.003906 311.160156 C 322.613281 311.238281 322.222656 311.277344 321.824219 311.277344 L 284.976562 311.277344 C 284.578125 311.277344 284.1875 311.238281 283.796875 311.160156 C 283.40625 311.085938 283.03125 310.96875 282.664062 310.816406 C 282.296875 310.664062 281.949219 310.480469 281.617188 310.257812 C 281.289062 310.039062 280.984375 309.785156 280.703125 309.507812 C 280.421875 309.226562 280.171875 308.921875 279.949219 308.589844 C 279.730469 308.261719 279.542969 307.914062 279.390625 307.546875 C 279.238281 307.179688 279.125 306.800781 279.046875 306.414062 C 278.96875 306.023438 278.929688 305.628906 278.929688 305.234375 L 278.929688 197.6875 C 278.929688 197.289062 278.96875 196.898438 279.046875 196.507812 C 279.125 196.117188 279.238281 195.742188 279.390625 195.375 C 279.542969 195.007812 279.730469 194.660156 279.949219 194.328125 C 280.171875 194 280.421875 193.695312 280.703125 193.414062 C 280.984375 193.132812 281.289062 192.882812 281.617188 192.660156 C 281.949219 192.441406 282.296875 192.253906 282.664062 192.101562 C 283.03125 191.949219 283.40625 191.835938 283.796875 191.757812 C 284.1875 191.679688 284.578125 191.640625 284.976562 191.640625 L 321.824219 191.640625 C 322.222656 191.640625 322.613281 191.679688 323.003906 191.757812 C 323.394531 191.835938 323.769531 191.949219 324.136719 192.101562 C 324.503906 192.253906 324.851562 192.441406 325.183594 192.660156 C 325.511719 192.882812 325.816406 193.132812 326.097656 193.414062 C 326.378906 193.695312 326.628906 194 326.851562 194.328125 C 327.070312 194.660156 327.257812 195.007812 327.410156 195.375 C 327.5625 195.742188 327.675781 196.117188 327.753906 196.507812 C 327.832031 196.898438 327.871094 197.289062 327.871094 197.6875 Z M 362.816406 279.179688 C 362.816406 279.578125 362.777344 279.972656 362.699219 280.359375 C 362.621094 280.75 362.507812 281.128906 362.355469 281.492188 C 362.203125 281.859375 362.015625 282.207031 361.796875 282.539062 C 361.574219 282.867188 361.324219 283.171875 361.042969 283.453125 C 360.761719 283.734375 360.457031 283.984375 360.128906 284.207031 C 359.796875 284.425781 359.449219 284.613281 359.082031 284.765625 C 358.714844 284.917969 358.339844 285.03125 357.949219 285.109375 C 357.558594 285.1875 357.167969 285.226562 356.769531 285.226562 L 339.960938 285.226562 L 339.960938 217.695312 L 356.769531 217.695312 C 357.167969 217.695312 357.558594 217.734375 357.949219 217.8125 C 358.339844 217.890625 358.714844 218.007812 359.082031 218.160156 C 359.449219 218.308594 359.796875 218.496094 360.128906 218.71875 C 360.457031 218.9375 360.761719 219.1875 361.042969 219.46875 C 361.324219 219.75 361.574219 220.054688 361.796875 220.386719 C 362.015625 220.714844 362.203125 221.0625 362.355469 221.429688 C 362.507812 221.796875 362.621094 222.175781 362.699219 222.5625 C 362.777344 222.953125 362.816406 223.34375 362.816406 223.742188 Z M 43.828125 165.585938 L 150.167969 165.585938 C 151.179688 165.585938 152.128906 165.347656 153.019531 164.871094 C 153.910156 164.394531 154.636719 163.738281 155.195312 162.898438 L 168.507812 142.972656 L 189.507812 194.464844 C 189.734375 195.019531 190.035156 195.53125 190.414062 195.996094 C 190.796875 196.464844 191.234375 196.863281 191.734375 197.199219 C 192.230469 197.535156 192.765625 197.789062 193.34375 197.964844 C 193.917969 198.140625 194.503906 198.226562 195.105469 198.226562 L 195.164062 198.226562 C 195.769531 198.222656 196.359375 198.128906 196.9375 197.945312 C 197.511719 197.761719 198.050781 197.496094 198.546875 197.152344 C 199.046875 196.808594 199.480469 196.398438 199.855469 195.921875 C 200.230469 195.445312 200.527344 194.925781 200.746094 194.363281 L 225.855469 129.359375 L 236.140625 160.472656 C 236.339844 161.074219 236.628906 161.632812 237.003906 162.144531 C 237.378906 162.660156 237.824219 163.101562 238.339844 163.472656 C 238.855469 163.84375 239.414062 164.128906 240.019531 164.324219 C 240.625 164.519531 241.246094 164.617188 241.882812 164.617188 L 331.441406 164.617188 L 331.601562 164.589844 C 332.253906 164.574219 332.886719 164.457031 333.496094 164.234375 C 334.109375 164.015625 334.671875 163.707031 335.183594 163.304688 C 335.695312 162.902344 336.132812 162.429688 336.492188 161.886719 C 336.847656 161.347656 337.113281 160.761719 337.28125 160.132812 C 345.570312 129.089844 340.996094 100.101562 324.398438 78.511719 C 311.308594 61.488281 292.074219 51.328125 272.9375 51.328125 L 272.890625 51.328125 C 227.765625 51.351562 198.6875 81.835938 187.503906 96.179688 C 176.320312 81.835938 147.242188 51.347656 102.113281 51.328125 L 102.070312 51.328125 C 82.808594 51.328125 63.496094 61.582031 50.40625 78.757812 C 33.773438 100.582031 29.371094 129.84375 38.007812 161.148438 C 38.183594 161.785156 38.457031 162.378906 38.824219 162.925781 C 39.195312 163.476562 39.644531 163.949219 40.171875 164.351562 C 40.695312 164.753906 41.273438 165.058594 41.898438 165.269531 C 42.527344 165.480469 43.171875 165.589844 43.832031 165.589844 Z M 60.019531 86.085938 C 70.839844 71.890625 86.554688 63.417969 102.070312 63.417969 L 102.105469 63.417969 C 153.003906 63.445312 182.070312 109.300781 182.355469 109.757812 C 182.90625 110.648438 183.636719 111.347656 184.550781 111.855469 C 185.464844 112.367188 186.445312 112.621094 187.492188 112.621094 L 187.503906 112.621094 C 188.550781 112.621094 189.527344 112.367188 190.441406 111.859375 C 191.355469 111.347656 192.089844 110.652344 192.640625 109.761719 C 192.929688 109.300781 221.996094 63.445312 272.898438 63.414062 L 272.933594 63.414062 C 288.347656 63.414062 303.996094 71.808594 314.808594 85.878906 C 328.28125 103.402344 332.433594 126.929688 326.691406 152.523438 L 246.25 152.523438 L 232.035156 109.53125 C 231.839844 108.941406 231.558594 108.394531 231.195312 107.886719 C 230.832031 107.382812 230.398438 106.945312 229.898438 106.574219 C 229.398438 106.203125 228.851562 105.914062 228.261719 105.710938 C 227.671875 105.511719 227.066406 105.402344 226.445312 105.386719 C 225.820312 105.367188 225.207031 105.441406 224.609375 105.613281 C 224.007812 105.785156 223.449219 106.042969 222.929688 106.390625 C 222.410156 106.738281 221.957031 107.15625 221.570312 107.644531 C 221.179688 108.132812 220.875 108.667969 220.65625 109.25 L 194.953125 175.792969 L 175.40625 127.863281 C 175.199219 127.355469 174.925781 126.882812 174.59375 126.449219 C 174.257812 126.015625 173.871094 125.632812 173.429688 125.304688 C 172.992188 124.976562 172.515625 124.710938 172.003906 124.511719 C 171.492188 124.3125 170.964844 124.183594 170.417969 124.128906 C 169.871094 124.074219 169.328125 124.09375 168.785156 124.1875 C 168.246094 124.277344 167.726562 124.441406 167.230469 124.675781 C 166.734375 124.910156 166.277344 125.207031 165.863281 125.566406 C 165.445312 125.921875 165.085938 126.328125 164.78125 126.785156 L 146.941406 153.492188 L 48.546875 153.492188 C 42.5 127.625 46.503906 103.824219 60.027344 86.082031 Z M 60.019531 86.085938 " fill-opacity="1" fill-rule="nonzero"/></g></svg>