<svg xmlns="http://www.w3.org/2000/svg" xmlns:xlink="http://www.w3.org/1999/xlink" width="1080" zoomAndPan="magnify" viewBox="0 0 810 809.999993" height="1080" preserveAspectRatio="xMidYMid meet" version="1.0"><defs><clipPath id="d840655579"><path d="M 4 35.4375 L 807 35.4375 L 807 774.9375 L 4 774.9375 Z M 4 35.4375 " clip-rule="nonzero"/></clipPath></defs><g clip-path="url(#d840655579)"><path fill="#b21111" d="M 405.15625 313.671875 C 457.03125 313.671875 499.160156 271.542969 499.160156 219.667969 C 493.972656 95.015625 316.34375 95.015625 311.15625 219.667969 C 311.15625 271.542969 353.285156 313.671875 405.15625 313.671875 Z M 405.15625 142.015625 C 447.914062 142.015625 482.8125 176.910156 482.8125 219.667969 C 478.566406 322.628906 331.746094 322.628906 327.503906 219.667969 C 327.503906 176.910156 362.402344 142.015625 405.15625 142.015625 Z M 238.21875 262.582031 L 261.167969 262.582031 C 264.15625 272.484375 268.085938 282.074219 272.957031 291.191406 L 256.765625 307.382812 C 250.007812 314.140625 250.007812 325.144531 256.765625 331.90625 L 292.921875 368.058594 C 299.367188 374.820312 311 374.820312 317.441406 368.058594 C 317.441406 368.058594 333.632812 351.867188 333.632812 351.867188 C 342.75 356.742188 352.339844 360.828125 362.242188 363.65625 L 362.242188 386.609375 C 362.242188 396.195312 369.945312 403.898438 379.535156 403.898438 L 430.78125 403.898438 C 440.367188 403.898438 448.070312 396.195312 448.070312 386.609375 L 448.070312 363.65625 C 457.972656 360.671875 467.40625 356.742188 476.679688 351.867188 L 493.027344 368.058594 C 499.472656 374.820312 511.105469 374.820312 517.550781 368.058594 C 517.550781 368.058594 553.707031 331.90625 553.707031 331.90625 C 560.464844 325.460938 560.464844 313.828125 553.707031 307.382812 C 553.707031 307.382812 537.515625 291.191406 537.515625 291.191406 C 542.386719 282.074219 546.472656 272.484375 549.304688 262.582031 L 572.253906 262.582031 C 581.84375 262.582031 589.546875 254.878906 589.546875 245.292969 L 589.546875 194.046875 C 589.546875 184.457031 581.84375 176.753906 572.253906 176.753906 L 549.304688 176.753906 C 546.316406 166.851562 542.386719 157.261719 537.515625 148.144531 L 553.707031 131.953125 C 560.464844 125.507812 560.464844 113.878906 553.707031 107.433594 C 553.707031 107.433594 517.550781 71.277344 517.550781 71.277344 C 510.792969 64.519531 499.789062 64.519531 493.027344 71.277344 L 476.679688 87.46875 C 467.5625 82.59375 457.972656 78.507812 448.070312 75.679688 L 448.070312 52.730469 C 448.070312 43.140625 440.367188 35.4375 430.78125 35.4375 L 379.535156 35.4375 C 369.945312 35.4375 362.242188 43.140625 362.242188 52.730469 L 362.242188 75.679688 C 352.339844 78.664062 342.75 82.59375 333.632812 87.46875 L 317.285156 71.121094 C 310.527344 64.359375 299.523438 64.359375 292.761719 71.121094 L 256.609375 107.273438 C 249.851562 114.035156 249.851562 125.039062 256.609375 131.796875 L 272.800781 147.988281 C 267.925781 157.105469 263.996094 166.695312 261.011719 176.597656 L 238.058594 176.597656 C 228.472656 176.597656 220.769531 184.300781 220.769531 193.890625 L 220.769531 245.132812 C 220.769531 254.878906 228.628906 262.582031 238.21875 262.582031 Z M 237.117188 194.046875 C 237.117188 193.417969 237.589844 192.945312 238.21875 192.945312 L 267.457031 192.945312 C 271.226562 192.945312 274.371094 190.429688 275.316406 186.816406 C 278.460938 174.238281 283.488281 162.136719 290.25 150.976562 C 292.136719 147.832031 291.664062 143.742188 288.992188 141.070312 L 268.242188 120.480469 C 267.769531 120.007812 267.769531 119.378906 268.242188 119.066406 L 304.394531 82.910156 C 304.867188 82.4375 305.496094 82.59375 305.8125 82.910156 L 326.558594 103.503906 C 329.234375 106.175781 333.320312 106.644531 336.464844 104.761719 C 347.625 98 359.726562 93.128906 372.304688 89.828125 C 375.917969 88.882812 378.433594 85.582031 378.433594 81.96875 L 378.433594 52.730469 C 378.433594 52.101562 378.90625 51.628906 379.535156 51.628906 L 430.78125 51.628906 C 431.410156 51.628906 431.878906 52.101562 431.878906 52.730469 L 431.878906 81.96875 C 431.878906 85.738281 434.394531 88.882812 438.011719 89.828125 C 450.585938 92.96875 462.691406 98 473.851562 104.761719 C 476.996094 106.644531 481.238281 106.175781 483.753906 103.503906 L 504.503906 82.753906 C 504.976562 82.28125 505.605469 82.4375 505.917969 82.753906 L 542.074219 118.90625 C 542.074219 118.90625 542.074219 120.320312 542.074219 120.320312 L 521.480469 141.070312 C 518.808594 143.742188 518.335938 147.832031 520.222656 150.976562 C 526.980469 162.136719 532.011719 174.238281 535.15625 186.816406 C 536.097656 190.429688 539.242188 192.945312 543.015625 192.945312 L 572.253906 192.945312 C 572.882812 192.945312 573.355469 193.417969 573.355469 194.046875 L 573.355469 245.292969 C 573.355469 245.917969 572.882812 246.390625 572.253906 246.390625 L 543.015625 246.390625 C 539.242188 246.390625 535.941406 248.90625 535.15625 252.523438 C 532.011719 265.097656 526.980469 277.203125 520.222656 288.363281 C 518.335938 291.507812 518.808594 295.59375 521.480469 298.265625 L 542.074219 318.859375 C 542.074219 318.859375 542.074219 320.273438 542.074219 320.273438 L 505.917969 356.425781 L 511.734375 362.242188 C 506.546875 359.097656 488.46875 340.394531 483.753906 335.835938 C 481.082031 333.164062 476.996094 332.691406 473.851562 334.578125 C 462.53125 341.335938 450.585938 346.367188 438.011719 349.511719 C 434.394531 350.453125 431.878906 353.753906 431.878906 357.371094 L 431.878906 386.609375 C 431.878906 387.238281 431.410156 387.707031 430.78125 387.707031 L 379.535156 387.707031 C 378.90625 387.707031 378.433594 387.238281 378.433594 386.609375 L 378.433594 357.371094 C 378.433594 353.597656 375.917969 350.296875 372.304688 349.511719 C 359.726562 346.367188 347.625 341.335938 336.464844 334.578125 C 333.320312 332.691406 329.234375 333.164062 326.558594 335.835938 C 326.558594 335.835938 305.96875 356.425781 305.96875 356.425781 L 311.785156 362.242188 C 307.382812 360.042969 272.800781 324.675781 268.398438 320.273438 C 267.925781 319.800781 267.925781 319.171875 268.398438 318.859375 L 288.992188 298.265625 C 291.664062 295.59375 292.136719 291.507812 290.25 288.363281 C 283.488281 277.203125 278.617188 265.097656 275.316406 252.523438 C 274.371094 248.90625 271.070312 246.390625 267.457031 246.390625 L 238.21875 246.390625 C 237.589844 246.390625 237.117188 245.917969 237.117188 245.292969 Z M 559.363281 521.792969 C 559.363281 521.953125 559.363281 521.953125 559.363281 521.792969 Z M 804.742188 546.945312 C 802.386719 536.414062 796.414062 527.296875 789.023438 520.851562 C 798.613281 514.5625 804.902344 503.089844 804.902344 490.199219 C 805.84375 483.28125 801.128906 476.523438 794.054688 476.523438 C 782.578125 477.308594 756.640625 473.851562 746.738281 480.765625 L 721.273438 430.464844 C 712.472656 413.175781 695.808594 402.484375 677.574219 402.484375 L 530.125 402.484375 C 509.21875 402.171875 491.140625 417.105469 483.125 436.910156 L 334.890625 436.910156 C 332.535156 436.910156 330.332031 437.066406 327.976562 437.382812 C 319.957031 417.417969 301.722656 402.011719 280.660156 402.484375 C 280.660156 402.484375 133.210938 402.484375 133.210938 402.484375 C 114.976562 402.484375 98.15625 413.175781 89.355469 430.464844 L 63.890625 480.765625 C 53.988281 473.851562 27.890625 477.152344 16.574219 476.523438 C 9.5 476.367188 4.941406 483.28125 5.886719 490.199219 C 5.886719 503.089844 12.171875 514.5625 21.605469 520.851562 C 14.53125 526.980469 8.871094 535.628906 6.199219 545.53125 C 0.539062 560.621094 10.601562 595.519531 12.328125 611.082031 C 12.328125 611.082031 12.328125 680.089844 12.328125 680.089844 C 12.328125 692.351562 21.761719 702.410156 33.238281 702.410156 L 69.707031 702.410156 C 79.921875 702.410156 88.570312 694.550781 90.457031 684.175781 L 198.761719 684.175781 L 198.761719 750.355469 C 198.761719 763.714844 208.980469 774.5625 221.398438 774.5625 L 262.738281 774.5625 C 274.058594 774.5625 283.488281 765.601562 285.21875 753.96875 L 551.347656 753.96875 C 552.917969 765.601562 562.351562 774.5625 573.824219 774.5625 L 615.167969 774.5625 C 627.742188 774.5625 637.960938 763.714844 637.960938 750.355469 L 637.960938 684.175781 L 720.171875 684.175781 C 722.058594 694.550781 730.546875 702.410156 740.921875 702.410156 L 777.390625 702.410156 C 789.023438 702.410156 798.457031 692.351562 798.457031 680.089844 L 798.457031 610.609375 C 800.027344 595.992188 809.460938 561.40625 804.742188 546.945312 Z M 762.929688 492.871094 L 788.394531 492.871094 C 787.296875 502.460938 780.0625 510.003906 771.417969 510.003906 C 770.632812 510.003906 761.988281 510.003906 761.359375 509.847656 L 753.96875 495.386719 C 756.640625 493.8125 759.785156 492.871094 762.929688 492.871094 Z M 529.8125 418.988281 L 677.257812 418.988281 C 689.207031 418.988281 700.367188 426.222656 706.496094 438.011719 C 706.496094 438.011719 736.207031 496.488281 736.207031 496.644531 C 736.992188 498.6875 741.867188 507.804688 742.964844 510.003906 L 742.808594 509.847656 L 571.46875 509.847656 C 571.46875 509.847656 571.3125 509.847656 571.3125 509.847656 L 571.46875 509.847656 L 550.246094 468.035156 C 540.972656 449.800781 521.636719 436.753906 501.046875 436.910156 C 507.332031 425.75 518.179688 418.988281 529.8125 418.988281 Z M 334.578125 453.414062 L 501.832031 453.414062 C 515.820312 453.414062 528.867188 461.902344 535.941406 475.578125 C 546.472656 496.328125 567.695312 538.144531 578.226562 558.734375 L 258.339844 558.734375 C 262.898438 549.773438 272.484375 530.910156 277.042969 521.953125 C 292.292969 497.117188 299.207031 454.515625 334.578125 453.414062 Z M 542.074219 599.921875 C 532.011719 603.851562 524.625 612.652344 521.167969 622.871094 C 521.324219 622.242188 521.480469 621.769531 521.796875 621.140625 C 521.007812 623.183594 520.378906 625.226562 520.066406 627.273438 C 520.378906 625.855469 520.695312 624.285156 521.324219 622.871094 C 520.851562 624.285156 520.378906 625.855469 520.066406 627.273438 L 520.066406 627.113281 L 316.5 627.113281 C 308.640625 588.917969 257.394531 587.660156 247.964844 625.542969 C 232.242188 621.457031 218.253906 611.710938 208.351562 598.976562 C 213.378906 583.257812 228.472656 573.511719 244.976562 574.613281 C 244.820312 574.613281 244.503906 574.613281 244.347656 574.453125 C 248.277344 574.453125 252.207031 574.613281 256.136719 574.613281 L 475.894531 574.613281 C 513.304688 574.613281 550.71875 574.613281 588.128906 574.613281 C 605.421875 572.882812 622.871094 581.84375 628.058594 599.132812 C 616.269531 610.921875 604.949219 621.140625 588.289062 625.542969 C 584.515625 605.421875 561.40625 592.53125 542.074219 599.921875 Z M 573.195312 635.445312 C 572.570312 664.054688 535.941406 664.054688 535.3125 635.601562 C 535.941406 606.992188 572.570312 606.835938 573.195312 635.445312 Z M 300.9375 635.445312 C 300.308594 664.054688 263.839844 664.054688 263.054688 635.601562 C 263.683594 606.992188 300.308594 606.835938 300.9375 635.445312 Z M 73.792969 497.117188 C 73.636719 496.644531 103.660156 438.480469 103.660156 438.011719 C 109.632812 426.222656 120.792969 418.988281 132.898438 418.988281 L 280.34375 418.988281 C 294.019531 418.675781 306.28125 429.050781 311.785156 442.410156 C 286.003906 456.402344 277.832031 485.796875 264.625 510.003906 L 67.347656 510.003906 Z M 47.382812 492.871094 C 50.527344 492.871094 53.515625 493.8125 56.34375 495.542969 L 48.957031 510.003906 C 48.640625 510.164062 39.523438 510.164062 38.894531 510.164062 C 30.25 510.164062 23.019531 502.617188 21.917969 493.027344 L 47.382812 493.027344 Z M 69.546875 686.0625 L 33.078125 686.0625 C 26.949219 685.90625 28.679688 675.6875 28.363281 671.601562 C 33.394531 677.417969 40.152344 681.816406 47.542969 683.390625 C 52.257812 684.804688 67.664062 684.019531 72.851562 684.175781 C 72.0625 685.433594 70.804688 686.0625 69.546875 686.0625 Z M 54.613281 667.984375 C 44.242188 667.984375 36.539062 658.394531 35.125 648.648438 C 35.125 648.648438 28.363281 608.566406 28.363281 608.566406 C 28.363281 608.09375 28.050781 607.621094 28.050781 607.152344 C 28.050781 607.152344 21.605469 568.480469 21.605469 568.480469 C 31.507812 576.65625 42.984375 582.628906 55.558594 585.457031 C 62.316406 621.140625 109.789062 622.085938 117.964844 586.714844 L 196.246094 586.714844 C 194.675781 589.859375 193.101562 593.160156 192.316406 596.617188 L 181.46875 596.617188 C 163.078125 596.617188 146.886719 606.207031 140.757812 620.199219 L 130.855469 643.304688 C 129.753906 645.820312 130.066406 648.648438 131.640625 651.007812 C 133.054688 653.367188 135.726562 654.625 138.398438 654.625 L 195.933594 654.625 L 198.132812 667.511719 L 54.613281 667.511719 Z M 70.964844 578.699219 C 70.804688 565.652344 83.382812 556.0625 94.070312 562.664062 C 107.273438 570.839844 103.816406 596.777344 86.527344 596.777344 C 78.035156 596.933594 70.964844 588.757812 70.964844 578.699219 Z M 118.4375 574.613281 C 119.066406 578.699219 118.75 582.941406 117.808594 586.875 C 118.59375 582.941406 118.75 578.699219 118.4375 574.613281 Z M 189.644531 617.839844 C 189.800781 622.085938 192.316406 634.503906 192.945312 638.746094 L 150.503906 638.746094 L 155.535156 626.957031 C 158.992188 618.941406 169.523438 613.28125 181.15625 613.28125 L 189.488281 613.28125 C 189.488281 614.695312 189.644531 616.269531 189.644531 617.839844 Z M 117.808594 570.683594 C 118.121094 571.941406 118.277344 573.355469 118.4375 574.613281 C 114.035156 537.984375 66.5625 533.898438 56.03125 568.953125 C 43.140625 565.179688 31.035156 557.320312 22.703125 546.632812 C 26.949219 535.15625 36.695312 527.296875 47.542969 526.351562 L 256.292969 526.351562 C 253.152344 534.371094 240.261719 551.820312 235.546875 558.894531 C 226.113281 559.992188 215.738281 563.453125 208.820312 570.523438 L 117.808594 570.523438 Z M 262.738281 758.371094 L 221.242188 758.371094 C 212.4375 758.058594 215.265625 743.753906 214.953125 737.9375 C 227.058594 755.855469 249.535156 754.914062 268.398438 754.128906 C 267.296875 756.640625 265.097656 758.371094 262.738281 758.371094 Z M 621.457031 750.511719 C 621.457031 754.757812 618.46875 758.371094 615.011719 758.371094 L 573.667969 758.371094 C 571.152344 758.371094 569.109375 756.640625 568.011719 754.128906 C 568.480469 755.070312 578.699219 753.96875 579.957031 753.96875 C 595.363281 755.226562 612.652344 751.769531 621.613281 737.9375 L 621.613281 750.511719 Z M 629.628906 622.085938 C 627.113281 637.960938 624.285156 653.835938 621.613281 669.714844 C 621.613281 669.714844 613.910156 714.984375 613.910156 714.984375 C 611.710938 728.191406 601.964844 737.777344 590.804688 737.777344 L 245.761719 737.777344 C 234.445312 737.777344 224.699219 728.191406 222.5 714.984375 C 219.824219 699.421875 213.222656 660.753906 210.707031 645.820312 L 206.621094 621.296875 C 218.097656 631.671875 232.402344 639.375 247.648438 642.519531 C 254.566406 682.761719 308.324219 683.863281 316.5 643.777344 L 520.066406 643.777344 L 519.910156 643.621094 C 519.28125 640.949219 519.121094 638.273438 519.121094 635.445312 C 519.910156 680.875 580.113281 687.792969 588.917969 642.363281 C 604.007812 639.21875 617.996094 631.515625 629.785156 621.296875 Z M 627.429688 570.683594 C 618.941406 562.664062 607.621094 559.835938 596.304688 558.734375 C 596.304688 558.734375 579.957031 526.351562 579.800781 526.351562 L 579.957031 526.511719 L 762.773438 526.511719 C 773.621094 527.453125 783.367188 535.472656 787.609375 546.789062 C 778.648438 556.378906 767.644531 566.125 754.441406 569.109375 C 753.339844 565.496094 751.925781 562.035156 749.726562 558.894531 C 749.726562 558.894531 749.726562 559.050781 749.726562 559.050781 C 734.007812 534.84375 698.007812 543.171875 692.351562 570.839844 C 692.507812 570.683594 627.429688 570.683594 627.429688 570.683594 Z M 751.613281 561.878906 C 751.296875 561.09375 750.824219 560.464844 750.355469 559.679688 C 750.824219 560.464844 751.140625 561.25 751.613281 561.878906 Z M 739.351562 578.699219 C 739.035156 602.59375 708.226562 602.59375 707.914062 578.699219 C 708.226562 555.277344 738.566406 554.175781 739.351562 578.699219 Z M 781.949219 680.089844 C 781.949219 683.390625 779.90625 686.0625 777.234375 686.0625 L 740.765625 686.0625 C 739.507812 686.0625 738.25 685.277344 737.464844 684.175781 C 743.125 683.863281 758.214844 684.960938 763.402344 683.234375 C 770.632812 681.660156 777.234375 677.257812 781.949219 671.601562 Z M 782.421875 607.152344 C 782.421875 607.621094 782.109375 608.09375 782.109375 608.566406 C 782.109375 608.566406 775.347656 648.648438 775.347656 648.648438 C 773.460938 659.8125 765.289062 667.984375 755.855469 667.984375 L 638.589844 667.984375 L 640.789062 655.09375 L 672.230469 655.09375 C 677.886719 655.253906 682.132812 648.964844 679.773438 643.777344 C 679.773438 643.777344 669.871094 620.667969 669.871094 620.667969 C 665.785156 610.921875 656.667969 603.378906 645.035156 599.605469 L 645.191406 599.605469 C 644.089844 595.363281 642.519531 590.960938 640.476562 587.1875 L 692.664062 587.1875 C 700.839844 622.554688 748.152344 621.457031 755.070312 585.929688 C 767.332031 582.785156 779.121094 577.128906 788.867188 568.953125 Z M 643.460938 638.746094 C 644.089844 634.503906 646.449219 622.085938 646.605469 617.996094 C 654.152344 621.769531 656.667969 631.988281 659.8125 638.746094 Z M 705.710938 550.089844 C 705.398438 550.246094 705.082031 550.5625 704.769531 550.875 C 705.082031 550.5625 705.398438 550.246094 705.710938 550.089844 C 705.867188 550.089844 705.867188 550.089844 705.710938 550.089844 C 705.867188 550.089844 705.867188 550.089844 705.710938 550.089844 Z M 31.351562 575.710938 C 32.609375 576.5 33.707031 577.128906 34.964844 577.753906 C 33.078125 576.8125 31.351562 575.871094 29.777344 574.613281 C 30.09375 574.925781 30.722656 575.242188 31.351562 575.710938 Z M 95.484375 545.53125 C 95.644531 545.375 95.644531 545.53125 95.800781 545.53125 C 95.800781 545.53125 95.800781 545.53125 95.644531 545.6875 C 95.484375 545.53125 95.484375 545.53125 95.484375 545.53125 Z M 492.242188 683.234375 C 485.640625 667.671875 467.5625 657.296875 447.128906 657.296875 L 389.28125 657.296875 C 368.84375 657.296875 350.769531 667.671875 344.164062 683.234375 L 333.003906 709.640625 C 330.648438 714.828125 334.890625 721.117188 340.550781 720.960938 C 340.550781 720.960938 496.015625 720.960938 496.015625 720.960938 C 501.675781 721.117188 505.917969 714.828125 503.558594 709.640625 C 503.402344 709.640625 492.242188 683.234375 492.242188 683.234375 Z M 352.8125 704.609375 L 359.097656 689.679688 C 363.1875 680.089844 375.605469 673.488281 389.28125 673.488281 L 447.128906 673.488281 C 460.804688 673.488281 473.222656 680.089844 477.152344 689.679688 L 483.441406 704.609375 Z M 352.8125 704.609375 " fill-opacity="1" fill-rule="nonzero"/></g></svg>