<svg xmlns="http://www.w3.org/2000/svg" xmlns:xlink="http://www.w3.org/1999/xlink" width="851" zoomAndPan="magnify" viewBox="0 0 638.25 236.249991" height="315" preserveAspectRatio="xMidYMid meet" version="1.0"><defs><clipPath id="91c3639421"><path d="M 172 1.855469 L 257 1.855469 L 257 135 L 172 135 Z M 172 1.855469 " clip-rule="nonzero"/></clipPath><clipPath id="7179160046"><path d="M 275 1.855469 L 354 1.855469 L 354 135 L 275 135 Z M 275 1.855469 " clip-rule="nonzero"/></clipPath><clipPath id="b3c5a8bc94"><path d="M 366 1.855469 L 454 1.855469 L 454 135 L 366 135 Z M 366 1.855469 " clip-rule="nonzero"/></clipPath><clipPath id="eac896875b"><path d="M 464 1.855469 L 525 1.855469 L 525 62 L 464 62 Z M 464 1.855469 " clip-rule="nonzero"/></clipPath><clipPath id="ca54af67f7"><path d="M 46.851562 77 L 276 77 L 276 213 L 46.851562 213 Z M 46.851562 77 " clip-rule="nonzero"/></clipPath><clipPath id="4e4d65110d"><path d="M 254 184 L 313 184 L 313 233.617188 L 254 233.617188 Z M 254 184 " clip-rule="nonzero"/></clipPath></defs><g clip-path="url(#91c3639421)"><path fill="#b21111" d="M 189.230469 34.425781 L 176.3125 34.425781 C 178.667969 23.976562 183.175781 15.9375 189.835938 10.3125 C 196.492188 4.679688 204.363281 1.871094 213.429688 1.871094 C 220.035156 1.871094 226.195312 3.378906 231.90625 6.386719 C 237.617188 9.40625 242.039062 13.46875 245.171875 18.578125 C 248.296875 23.691406 249.867188 29.03125 249.867188 34.597656 C 249.867188 45.507812 244.441406 54.148438 233.585938 60.515625 C 239.671875 62.992188 244.667969 66.609375 248.570312 71.371094 C 254.085938 78.085938 256.835938 85.609375 256.835938 93.933594 C 256.835938 101.117188 254.945312 107.960938 251.15625 114.476562 C 247.367188 120.992188 242.199219 126.035156 235.652344 129.589844 C 229.109375 133.148438 221.789062 134.929688 213.691406 134.929688 C 202.78125 134.929688 193.683594 131.789062 186.390625 125.5 C 179.09375 119.214844 174.332031 109.984375 172.09375 97.808594 L 184.496094 97.808594 C 186.675781 106.019531 189.804688 111.960938 193.882812 115.640625 C 199.109375 120.292969 205.769531 122.613281 213.863281 122.613281 C 223.050781 122.613281 230.429688 119.859375 236 114.34375 C 241.570312 108.835938 244.351562 102.375 244.351562 94.96875 C 244.351562 90.03125 242.957031 85.410156 240.171875 81.101562 C 237.386719 76.796875 233.660156 73.554688 228.976562 71.371094 C 224.296875 69.1875 217.050781 67.839844 207.234375 67.320312 L 207.234375 55.699219 C 213.03125 55.699219 218.3125 54.675781 223.082031 52.640625 C 227.84375 50.601562 231.304688 48 233.457031 44.84375 C 235.609375 41.6875 236.6875 38.246094 236.6875 34.503906 C 236.6875 29 234.492188 24.230469 230.101562 20.210938 C 225.710938 16.199219 220.152344 14.183594 213.429688 14.183594 C 207.976562 14.183594 203.269531 15.71875 199.308594 18.789062 C 195.34375 21.867188 191.988281 27.074219 189.230469 34.425781 " fill-opacity="1" fill-rule="nonzero"/></g><g clip-path="url(#7179160046)"><path fill="#b21111" d="M 314.5 69.304688 C 307.136719 69.304688 300.855469 71.902344 295.648438 77.09375 C 290.445312 82.296875 287.847656 88.59375 287.847656 96.003906 C 287.847656 103.355469 290.445312 109.625 295.648438 114.820312 C 300.859375 120.019531 307.140625 122.613281 314.503906 122.613281 C 321.859375 122.613281 328.140625 120.019531 333.351562 114.820312 C 338.554688 109.625 341.15625 103.355469 341.15625 96.003906 C 341.15625 88.59375 338.550781 82.296875 333.347656 77.09375 C 328.140625 71.902344 321.859375 69.304688 314.5 69.304688 Z M 328.410156 1.871094 L 338.828125 8.675781 L 304.574219 60.515625 C 309.164062 58.964844 313.476562 58.191406 317.5 58.191406 C 327.566406 58.191406 336.105469 61.824219 343.121094 69.089844 C 350.136719 76.351562 353.644531 85.292969 353.644531 95.917969 C 353.644531 103.210938 351.953125 109.796875 348.558594 115.683594 C 345.167969 121.570312 340.355469 126.246094 334.113281 129.71875 C 327.875 133.191406 321.164062 134.929688 313.984375 134.929688 C 307.03125 134.929688 300.574219 133.25 294.625 129.894531 C 288.679688 126.539062 284.007812 121.8125 280.617188 115.722656 C 277.222656 109.636719 275.53125 103.125 275.53125 96.179688 C 275.53125 91.007812 276.578125 85.566406 278.675781 79.855469 C 280.777344 74.144531 284.53125 67.265625 289.9375 59.226562 L 328.410156 1.871094 " fill-opacity="1" fill-rule="nonzero"/></g><g clip-path="url(#b3c5a8bc94)"><path fill="#b21111" d="M 378.96875 68.660156 C 378.96875 82.96875 380.246094 93.785156 382.792969 101.109375 C 385.351562 108.433594 389.128906 113.996094 394.125 117.785156 C 399.117188 121.582031 404.402344 123.472656 409.972656 123.472656 C 415.597656 123.472656 420.851562 121.621094 425.730469 117.917969 C 430.613281 114.207031 434.316406 108.652344 436.839844 101.238281 C 439.996094 92.214844 441.578125 81.355469 441.578125 68.660156 C 441.578125 55.902344 440.167969 45.457031 437.359375 37.328125 C 434.542969 29.195312 430.65625 23.25 425.6875 19.484375 C 420.71875 15.71875 415.480469 13.839844 409.972656 13.839844 C 404.339844 13.839844 399.0625 15.71875 394.125 19.484375 C 389.183594 23.25 385.425781 28.792969 382.84375 36.117188 C 380.257812 43.449219 378.96875 54.296875 378.96875 68.660156 Z M 366.992188 68.441406 C 366.992188 51.734375 368.789062 38.816406 372.375 29.6875 C 375.964844 20.558594 381.035156 13.640625 387.578125 8.929688 C 394.125 4.222656 401.445312 1.871094 409.539062 1.871094 C 417.75 1.871094 425.183594 4.238281 431.847656 8.972656 C 438.507812 13.710938 443.773438 20.816406 447.648438 30.289062 C 451.527344 39.765625 453.460938 52.480469 453.460938 68.441406 C 453.460938 84.34375 451.550781 97.007812 447.734375 106.425781 C 443.914062 115.84375 438.648438 122.945312 431.933594 127.742188 C 425.214844 132.535156 417.75 134.929688 409.539062 134.929688 C 401.445312 134.929688 394.152344 132.601562 387.664062 127.957031 C 381.175781 123.304688 376.109375 116.371094 372.460938 107.15625 C 368.816406 97.941406 366.992188 85.035156 366.992188 68.441406 " fill-opacity="1" fill-rule="nonzero"/></g><g clip-path="url(#eac896875b)"><path fill="#b21111" d="M 513.925781 31.664062 C 513.925781 25.835938 512.058594 20.949219 508.324219 17.003906 C 504.589844 13.054688 500.054688 11.082031 494.714844 11.082031 C 489.320312 11.082031 484.679688 13.070312 480.804688 17.039062 C 476.929688 21.015625 474.992188 25.835938 474.992188 31.496094 C 474.992188 37.042969 476.941406 41.832031 480.847656 45.863281 C 484.757812 49.894531 489.34375 51.910156 494.628906 51.910156 C 499.914062 51.910156 504.449219 49.9375 508.238281 45.992188 C 512.027344 42.042969 513.925781 37.273438 513.925781 31.664062 Z M 524.167969 31.496094 C 524.167969 39.820312 521.273438 46.839844 515.472656 52.554688 C 509.667969 58.265625 502.644531 61.125 494.375 61.125 C 486.101562 61.125 479.101562 58.253906 473.355469 52.511719 C 467.613281 46.773438 464.742188 39.679688 464.742188 31.238281 C 464.742188 23.144531 467.6875 16.222656 473.574219 10.480469 C 479.460938 4.742188 486.472656 1.871094 494.628906 1.871094 C 502.785156 1.871094 509.742188 4.742188 515.519531 10.480469 C 521.285156 16.222656 524.167969 23.230469 524.167969 31.496094 " fill-opacity="1" fill-rule="nonzero"/></g><g clip-path="url(#ca54af67f7)"><path fill="#b21111" d="M 273.535156 212.148438 C 243.578125 212.210938 213.546875 210.289062 183.757812 205.960938 C 168.875 203.769531 154.046875 200.949219 139.367188 197.347656 C 124.703125 193.648438 110.140625 189.265625 96.03125 183.28125 C 88.980469 180.304688 82.035156 176.949219 75.355469 172.910156 C 68.695312 168.859375 62.226562 164.191406 56.710938 158.039062 L 54.6875 155.679688 C 54.03125 154.875 53.460938 153.96875 52.847656 153.113281 C 51.574219 151.449219 50.65625 149.429688 49.628906 147.550781 C 47.859375 143.53125 46.824219 139.054688 46.898438 134.519531 C 47.097656 130 48.386719 125.589844 50.453125 121.847656 C 52.488281 118.070312 55.097656 114.816406 57.9375 111.957031 C 63.640625 106.226562 70.226562 101.976562 76.972656 98.324219 C 83.75 94.726562 90.703125 91.644531 97.835938 89.121094 C 112.050781 83.996094 126.652344 80.34375 141.382812 77.738281 C 127.203125 82.496094 113.160156 87.558594 99.785156 93.828125 C 93.117188 96.996094 86.566406 100.347656 80.441406 104.253906 C 77.382812 106.207031 74.4375 108.292969 71.664062 110.523438 C 68.878906 112.738281 66.25 115.101562 63.96875 117.65625 C 59.390625 122.742188 56.226562 128.757812 56.394531 134.664062 C 56.519531 137.609375 57.261719 140.492188 58.589844 143.277344 C 59.445312 144.617188 60.074219 146.023438 61.144531 147.285156 C 61.648438 147.921875 62.089844 148.59375 62.632812 149.210938 L 64.320312 151.046875 C 68.890625 155.941406 74.785156 159.960938 80.90625 163.546875 C 87.050781 167.148438 93.664062 170.144531 100.359375 172.941406 C 107.058594 175.746094 113.957031 178.183594 120.9375 180.414062 C 127.898438 182.710938 135 184.65625 142.113281 186.546875 C 156.371094 190.25 170.835938 193.328125 185.398438 195.988281 C 199.964844 198.617188 214.621094 200.929688 229.363281 202.773438 L 240.421875 204.144531 L 251.503906 205.410156 L 273.730469 207.617188 L 273.757812 207.621094 C 275.003906 207.746094 275.914062 208.855469 275.792969 210.105469 C 275.671875 211.269531 274.679688 212.144531 273.535156 212.148438 " fill-opacity="1" fill-rule="nonzero"/></g><g clip-path="url(#4e4d65110d)"><path fill="#b21111" d="M 255.875 184.910156 L 265.546875 209.464844 L 254.582031 233.464844 L 312.78125 210.730469 L 255.875 184.910156 " fill-opacity="1" fill-rule="nonzero"/></g><path fill="#b21111" d="M 484.171875 77.738281 C 514.246094 82.210938 590.554688 102.140625 577.527344 144.574219 C 565.332031 178.167969 501.433594 194.277344 469.457031 200.074219 C 442.910156 204.9375 416.0625 207.398438 389.21875 207.429688 C 435.007812 199.046875 480.878906 191.027344 523.984375 173.472656 C 537.722656 167.59375 551.707031 160.824219 561.902344 149.863281 C 562.335938 149.316406 563.535156 147.847656 563.96875 147.328125 C 564.359375 146.742188 565.3125 145.269531 565.710938 144.671875 C 584.285156 111.660156 506.796875 86.019531 484.171875 77.738281 " fill-opacity="1" fill-rule="nonzero"/></svg>