<svg xmlns="http://www.w3.org/2000/svg" xmlns:xlink="http://www.w3.org/1999/xlink" width="336" zoomAndPan="magnify" viewBox="0 0 252 143.999998" height="192" preserveAspectRatio="xMidYMid meet" version="1.0"><defs><clipPath id="e87ce9539b"><path d="M 144.472656 68.644531 L 251.917969 68.644531 L 251.917969 128.847656 L 144.472656 128.847656 Z M 144.472656 68.644531 " clip-rule="nonzero"/></clipPath><clipPath id="2527ebd591"><path d="M 0 68 L 153 68 L 153 142.875 L 0 142.875 Z M 0 68 " clip-rule="nonzero"/></clipPath><clipPath id="e539d3d494"><path d="M 215 1.125 L 239 1.125 L 239 25 L 215 25 Z M 215 1.125 " clip-rule="nonzero"/></clipPath></defs><path fill="#b21100" d="M 93.019531 68.285156 C 93.019531 75.019531 90.417969 80.925781 85.28125 85.847656 C 80.171875 90.746094 74.023438 93.230469 67.011719 93.230469 C 60.074219 93.230469 53.96875 91.457031 48.863281 87.964844 C 45.246094 85.492188 42.472656 82.003906 40.578125 77.5625 C 39.882812 75.945312 39.308594 74.195312 38.855469 72.324219 C 38.761719 71.949219 38.675781 71.566406 38.589844 71.179688 L 38.511719 70.804688 C 38.296875 69.800781 39.0625 68.859375 40.085938 68.859375 L 51.546875 68.859375 C 52.386719 68.859375 53.128906 69.402344 53.378906 70.203125 C 53.664062 71.113281 53.984375 71.960938 54.34375 72.746094 C 56.699219 77.898438 60.652344 80.410156 66.367188 80.410156 C 69.710938 80.410156 72.546875 79.289062 75.039062 76.980469 C 77.492188 74.714844 78.683594 72.171875 78.683594 69.203125 C 78.683594 68.597656 78.648438 68.007812 78.566406 67.421875 C 78.386719 66.132812 78.011719 64.898438 77.433594 63.699219 C 76.886719 62.5625 76.152344 61.460938 75.234375 60.382812 C 73.011719 57.78125 69.171875 56.40625 63.820312 56.300781 L 63.519531 56.296875 C 62.640625 56.277344 61.941406 55.5625 61.941406 54.6875 L 61.941406 44.863281 C 61.941406 43.984375 62.644531 43.269531 63.523438 43.253906 L 63.828125 43.25 C 67.90625 43.179688 71.109375 42.203125 73.335938 40.347656 C 75.484375 38.5625 76.527344 36.328125 76.527344 33.527344 C 76.527344 30.578125 75.527344 28.148438 73.472656 26.097656 C 71.414062 24.046875 68.976562 23.050781 66.019531 23.050781 C 63.230469 23.050781 61.015625 23.722656 59.433594 25.046875 C 57.773438 26.449219 56.378906 28.789062 55.292969 32.011719 L 55.222656 32.222656 C 55 32.875 54.386719 33.316406 53.695312 33.316406 L 42.277344 33.316406 C 41.320312 33.316406 40.574219 32.484375 40.679688 31.53125 L 40.71875 31.1875 C 41.476562 24.421875 44.203125 19.164062 48.824219 15.5625 C 53.371094 12.023438 58.917969 10.230469 65.316406 10.230469 C 72.644531 10.230469 78.820312 12.367188 83.667969 16.585938 C 88.597656 20.875 91.09375 26.324219 91.09375 32.78125 C 91.09375 39.113281 88.570312 44.3125 83.574219 48.300781 C 82.75 48.957031 82.785156 50.226562 83.636719 50.847656 C 87.953125 53.992188 90.792969 57.765625 92.132812 62.128906 C 92.460938 63.21875 92.703125 64.347656 92.851562 65.507812 C 92.964844 66.414062 93.019531 67.339844 93.019531 68.285156 " fill-opacity="1" fill-rule="nonzero"/><path fill="#b21100" d="M 136.832031 74.613281 C 133.988281 77.453125 130.636719 78.835938 126.578125 78.835938 C 122.4375 78.835938 119.03125 77.460938 116.171875 74.636719 C 113.316406 71.8125 111.925781 68.453125 111.925781 64.363281 C 111.925781 64.257812 111.925781 64.152344 111.929688 64.050781 C 111.949219 62.96875 112.082031 61.929688 112.324219 60.933594 C 112.9375 58.417969 114.261719 56.152344 116.328125 54.074219 C 119.285156 51.097656 122.640625 49.652344 126.578125 49.652344 C 130.511719 49.652344 133.835938 51.078125 136.734375 54.011719 C 138.757812 56.0625 140.058594 58.320312 140.65625 60.867188 C 140.890625 61.847656 141.019531 62.875 141.042969 63.945312 C 141.050781 64.082031 141.050781 64.222656 141.050781 64.363281 C 141.050781 68.421875 139.675781 71.773438 136.832031 74.613281 Z M 155.386719 61.578125 C 154.796875 55.582031 151.988281 50.1875 147.019531 45.519531 C 141.421875 40.257812 134.832031 37.589844 127.429688 37.589844 L 127.378906 37.589844 L 127.324219 37.59375 L 126.238281 37.652344 L 140.320312 17.054688 C 140.914062 16.183594 140.695312 14.996094 139.828125 14.398438 L 132.101562 9.054688 C 131.230469 8.453125 130.039062 8.667969 129.4375 9.539062 L 102.890625 47.867188 C 99.933594 52.132812 98.1875 56.773438 97.683594 61.699219 C 97.582031 62.691406 97.53125 63.695312 97.53125 64.710938 C 97.53125 64.820312 97.53125 64.929688 97.535156 65.035156 C 97.613281 72.789062 100.492188 79.507812 106.097656 85.007812 C 111.773438 90.582031 118.703125 93.40625 126.695312 93.40625 C 134.703125 93.40625 141.582031 90.523438 147.144531 84.835938 C 152.507812 79.351562 155.316406 72.621094 155.496094 64.820312 C 155.503906 64.554688 155.507812 64.285156 155.507812 64.011719 C 155.507812 63.191406 155.46875 62.378906 155.386719 61.578125 " fill-opacity="1" fill-rule="nonzero"/><path fill="#b21100" d="M 199.957031 67.652344 C 199.394531 69.101562 198.746094 70.449219 198.003906 71.691406 C 197.972656 71.742188 197.941406 71.792969 197.910156 71.84375 C 195.066406 76.546875 191.578125 78.835938 187.253906 78.835938 C 182.667969 78.835938 179 76.542969 176.046875 71.828125 C 175.113281 70.347656 174.324219 68.707031 173.671875 66.914062 C 173.234375 65.714844 172.863281 64.453125 172.550781 63.117188 C 171.773438 59.796875 171.378906 56.0625 171.378906 51.933594 C 171.378906 43.582031 172.933594 36.804688 176 31.785156 C 178.917969 27.003906 182.523438 24.683594 187.019531 24.683594 C 191.363281 24.683594 194.910156 27.035156 197.867188 31.875 C 200.972656 36.949219 202.546875 43.578125 202.546875 51.582031 C 202.546875 57.828125 201.675781 63.214844 199.957031 67.652344 Z M 208.984375 22.046875 C 203.511719 14.207031 196.28125 10.230469 187.488281 10.230469 L 186.902344 10.230469 C 178.691406 10.230469 171.578125 14.042969 165.757812 21.5625 C 160.054688 28.933594 157.160156 39.265625 157.160156 52.285156 C 157.160156 55.59375 157.378906 58.75 157.824219 61.75 C 157.988281 62.878906 158.1875 63.988281 158.417969 65.074219 C 159.738281 71.34375 162.101562 76.859375 165.484375 81.554688 C 171.148438 89.417969 178.394531 93.40625 187.019531 93.40625 C 195.316406 93.40625 202.492188 89.519531 208.351562 81.859375 C 209.65625 80.152344 210.816406 78.308594 211.828125 76.328125 C 212.605469 74.8125 213.292969 73.21875 213.894531 71.546875 C 215.957031 65.816406 217 59.183594 217 51.699219 C 217 39.648438 214.300781 29.671875 208.984375 22.046875 " fill-opacity="1" fill-rule="nonzero"/><g clip-path="url(#e87ce9539b)"><path fill="#b21100" d="M 251.917969 87.71875 C 251.945312 89.632812 251.542969 91.539062 250.867188 93.226562 C 250.1875 94.925781 249.257812 96.417969 248.238281 97.738281 C 247.207031 99.050781 246.085938 100.21875 244.921875 101.277344 C 243.757812 102.335938 242.546875 103.296875 241.3125 104.171875 C 236.359375 107.679688 231.101562 110.210938 225.789062 112.445312 C 220.464844 114.652344 215.054688 116.492188 209.601562 118.101562 C 204.144531 119.703125 198.644531 121.085938 193.121094 122.304688 C 176.167969 125.996094 161.734375 128.0625 144.496094 128.839844 L 159.117188 120.703125 L 145.988281 114.339844 C 151.121094 114.195312 153.480469 113.980469 158.605469 113.691406 C 169.457031 113.070312 180.289062 112.140625 191.019531 110.640625 C 196.382812 109.886719 201.71875 108.984375 206.988281 107.863281 C 212.25 106.730469 217.464844 105.40625 222.5 103.71875 C 225.011719 102.867188 227.488281 101.945312 229.875 100.886719 C 231.066406 100.359375 232.242188 99.808594 233.375 99.214844 C 234.519531 98.632812 235.617188 97.996094 236.671875 97.328125 C 237.734375 96.664062 238.734375 95.953125 239.660156 95.199219 C 240.585938 94.449219 241.441406 93.65625 242.148438 92.824219 C 242.863281 91.992188 243.441406 91.128906 243.832031 90.273438 C 244.226562 89.417969 244.441406 88.574219 244.484375 87.71875 C 244.503906 86.863281 244.347656 85.992188 244.003906 85.089844 C 243.660156 84.1875 243.125 83.269531 242.441406 82.378906 C 241.761719 81.484375 240.941406 80.625 240.035156 79.800781 C 239.136719 78.980469 238.15625 78.195312 237.113281 77.460938 C 236.074219 76.722656 234.988281 76.015625 233.863281 75.355469 C 232.742188 74.683594 231.578125 74.058594 230.40625 73.453125 C 228.910156 72.691406 226.039062 71.433594 224.015625 70.570312 C 223.625 70.402344 223.386719 70.003906 223.425781 69.578125 C 223.476562 68.976562 224.050781 68.566406 224.636719 68.707031 C 231.5625 70.347656 241.78125 74.480469 246.246094 78.15625 C 246.707031 78.535156 247.441406 79.148438 248.15625 79.820312 C 250.167969 81.695312 251.503906 84.207031 251.851562 86.933594 C 251.890625 87.214844 251.914062 87.480469 251.917969 87.71875 " fill-opacity="1" fill-rule="nonzero"/></g><g clip-path="url(#2527ebd591)"><path fill="#b21100" d="M 152.148438 120.847656 L 110.027344 101.652344 L 113.957031 114.460938 C 107.492188 114.316406 99.722656 114.023438 93.375 113.65625 C 82.523438 113.023438 71.691406 112.078125 60.964844 110.566406 C 55.605469 109.808594 50.273438 108.898438 45.007812 107.773438 C 39.746094 106.636719 34.539062 105.308594 29.511719 103.621094 C 27 102.773438 24.53125 101.84375 22.148438 100.789062 C 20.960938 100.261719 19.785156 99.714844 18.65625 99.117188 C 17.511719 98.535156 16.414062 97.902344 15.363281 97.234375 C 14.308594 96.574219 13.308594 95.863281 12.386719 95.113281 C 11.464844 94.367188 10.621094 93.578125 9.914062 92.75 C 9.203125 91.929688 8.632812 91.074219 8.25 90.230469 C 7.859375 89.382812 7.648438 88.558594 7.605469 87.71875 C 7.585938 86.878906 7.734375 86.023438 8.074219 85.132812 C 8.410156 84.242188 8.941406 83.332031 9.617188 82.449219 C 10.296875 81.5625 11.113281 80.703125 12.007812 79.882812 C 12.90625 79.066406 13.882812 78.285156 14.921875 77.550781 C 15.957031 76.8125 17.039062 76.109375 18.164062 75.449219 C 19.28125 74.78125 20.441406 74.15625 21.617188 73.550781 C 22.707031 72.996094 24.523438 72.160156 25.742188 71.609375 C 25.855469 71.558594 25.957031 71.496094 26.046875 71.421875 C 26.738281 71.117188 27.410156 70.828125 28.011719 70.570312 C 28.40625 70.402344 28.644531 70.003906 28.605469 69.578125 C 28.5625 69.058594 28.121094 68.679688 27.621094 68.679688 C 27.546875 68.679688 27.46875 68.6875 27.394531 68.707031 C 26.910156 68.820312 26.410156 68.949219 25.898438 69.085938 C 19.070312 70.921875 9.9375 74.738281 5.78125 78.15625 C 5.324219 78.535156 4.589844 79.148438 3.871094 79.820312 C 1.863281 81.695312 0.527344 84.207031 0.175781 86.933594 C 0.140625 87.214844 0.117188 87.480469 0.113281 87.71875 C 0.0859375 89.632812 0.488281 91.539062 1.164062 93.226562 C 1.84375 94.925781 2.769531 96.417969 3.792969 97.738281 C 4.824219 99.050781 5.941406 100.21875 7.109375 101.277344 C 8.269531 102.335938 9.484375 103.296875 10.71875 104.171875 C 15.671875 107.679688 20.933594 110.210938 26.242188 112.445312 C 31.566406 114.652344 36.976562 116.492188 42.433594 118.101562 C 47.890625 119.703125 53.382812 121.085938 58.910156 122.304688 C 62.1875 123.019531 65.371094 123.671875 68.5 124.261719 C 81.160156 126.492188 94.253906 127.859375 107.019531 128.554688 C 109.34375 128.683594 111.660156 128.789062 113.957031 128.871094 L 110.316406 142.875 L 152.148438 120.847656 " fill-opacity="1" fill-rule="nonzero"/></g><g clip-path="url(#e539d3d494)"><path fill="#b21100" d="M 226.921875 5.722656 C 223.117188 5.722656 220.023438 8.816406 220.023438 12.621094 C 220.023438 16.425781 223.117188 19.519531 226.921875 19.519531 C 230.726562 19.519531 233.820312 16.425781 233.820312 12.621094 C 233.820312 8.816406 230.726562 5.722656 226.921875 5.722656 Z M 226.921875 24.117188 C 220.582031 24.117188 215.425781 18.960938 215.425781 12.621094 C 215.425781 6.28125 220.582031 1.125 226.921875 1.125 C 233.261719 1.125 238.417969 6.28125 238.417969 12.621094 C 238.417969 18.960938 233.261719 24.117188 226.921875 24.117188 " fill-opacity="1" fill-rule="nonzero"/></g></svg>