<svg xmlns="http://www.w3.org/2000/svg" xmlns:xlink="http://www.w3.org/1999/xlink" width="500" zoomAndPan="magnify" viewBox="0 0 375 374.999991" height="500" preserveAspectRatio="xMidYMid meet" version="1.0"><defs><clipPath id="9c48958eac"><path d="M 14 39.609375 L 361 39.609375 L 361 335.109375 L 14 335.109375 Z M 14 39.609375 " clip-rule="nonzero"/></clipPath></defs><g clip-path="url(#9c48958eac)"><path fill="#f6f0e7" d="M 296.1875 42.855469 C 288.078125 40.691406 279.425781 39.609375 271.042969 39.609375 C 252.386719 39.609375 234.003906 45.015625 218.320312 54.480469 C 213.457031 57.722656 187.5 80.433594 187.5 85.570312 C 187.5 80.433594 161.542969 57.722656 156.679688 54.75 C 140.996094 45.015625 122.613281 39.878906 103.957031 39.878906 C 95.574219 39.878906 87.195312 40.960938 78.8125 43.125 C 27.441406 57.183594 0.675781 125.855469 21.765625 172.898438 C 28.792969 188.851562 43.933594 209.941406 58.535156 219.402344 C 58.535156 219.402344 187.5 304.570312 187.5 335.390625 C 187.5 327.820312 195.070312 317.277344 206.425781 305.648438 C 205.34375 303.21875 204.804688 300.511719 204.804688 297.808594 L 204.804688 291.320312 C 197.234375 298.621094 191.554688 304.839844 187.5 310.246094 C 178.039062 298.078125 161.003906 281.316406 130.453125 257.523438 C 98.550781 232.652344 66.105469 211.023438 64.484375 210.210938 C 51.503906 201.828125 37.988281 182.363281 31.769531 168.304688 C 22.578125 147.757812 23.65625 120.179688 34.742188 96.386719 C 45.015625 74.488281 62.050781 59.074219 81.515625 53.667969 C 88.546875 51.777344 96.117188 50.695312 103.6875 50.695312 C 119.910156 50.695312 136.671875 55.289062 150.460938 63.941406 C 154.785156 66.644531 172.898438 82.867188 176.414062 88.277344 C 177.765625 93.140625 182.09375 96.386719 187.230469 96.386719 C 192.367188 96.386719 196.691406 92.871094 198.042969 88.277344 C 201.828125 82.867188 219.945312 66.644531 224 63.941406 C 237.789062 55.289062 254.550781 50.695312 270.773438 50.695312 C 278.34375 50.695312 285.644531 51.777344 292.941406 53.667969 C 312.410156 59.074219 329.441406 74.757812 339.714844 96.386719 C 350.800781 120.179688 352.152344 147.757812 342.691406 168.304688 C 341.066406 172.089844 338.90625 176.144531 336.203125 180.199219 C 339.445312 182.363281 342.148438 185.335938 344.042969 188.851562 C 347.558594 183.445312 350.53125 177.765625 352.964844 172.898438 C 374.324219 125.855469 347.558594 57.183594 296.1875 42.855469 Z M 296.1875 42.855469 " fill-opacity="1" fill-rule="nonzero"/></g><path fill="#f6f0e7" d="M 271.3125 145.59375 L 271.3125 188.039062 C 271.3125 194.257812 275.640625 198.585938 281.859375 198.585938 L 324.304688 198.585938 L 324.304688 243.195312 L 281.859375 243.195312 C 275.640625 243.195312 271.3125 247.519531 271.3125 253.738281 L 271.3125 296.1875 L 226.703125 296.1875 L 226.703125 254.011719 C 226.703125 247.792969 222.378906 243.464844 216.160156 243.464844 L 173.441406 243.464844 L 173.441406 198.585938 L 215.886719 198.585938 C 222.105469 198.585938 226.433594 194.257812 226.433594 188.039062 L 226.433594 145.59375 L 270.503906 145.59375 M 272.125 134.507812 L 225.621094 134.507812 C 220.214844 134.507812 215.886719 138.832031 215.886719 144.242188 L 215.886719 188.039062 L 172.089844 188.039062 C 166.683594 188.039062 162.355469 192.367188 162.355469 197.773438 L 162.355469 244.277344 C 162.355469 249.683594 166.683594 254.011719 172.089844 254.011719 L 215.886719 254.011719 L 215.886719 297.808594 C 215.886719 303.21875 220.214844 307.542969 225.621094 307.542969 L 271.855469 307.542969 C 277.261719 307.542969 281.585938 303.21875 281.585938 297.808594 L 281.585938 254.011719 L 325.386719 254.011719 C 330.792969 254.011719 335.121094 249.683594 335.121094 244.277344 L 335.121094 197.773438 C 335.121094 192.367188 330.792969 188.039062 325.386719 188.039062 L 281.859375 188.039062 L 281.859375 144.242188 C 281.859375 138.832031 277.53125 134.507812 272.125 134.507812 Z M 272.125 134.507812 " fill-opacity="1" fill-rule="nonzero"/></svg>