<svg xmlns="http://www.w3.org/2000/svg" xmlns:xlink="http://www.w3.org/1999/xlink" width="851" zoomAndPan="magnify" viewBox="0 0 638.25 236.249991" height="315" preserveAspectRatio="xMidYMid meet" version="1.0"><defs><g/><clipPath id="b7dc24acef"><path d="M 6.074219 64 L 584 64 L 584 220 L 6.074219 220 Z M 6.074219 64 " clip-rule="nonzero"/></clipPath><clipPath id="77a6db6aca"><path d="M 21 15.066406 L 568 15.066406 L 568 156 L 21 156 Z M 21 15.066406 " clip-rule="nonzero"/></clipPath><clipPath id="5b6c4eb64a"><path d="M 43 46.730469 L 499 46.730469 L 499 117.007812 L 43 117.007812 Z M 43 46.730469 " clip-rule="nonzero"/></clipPath></defs><g clip-path="url(#b7dc24acef)"><path fill="#000000" d="M 73.910156 64.0625 L 515.796875 64.0625 C 516.90625 64.0625 518.015625 64.089844 519.125 64.144531 C 520.234375 64.195312 521.339844 64.277344 522.445312 64.386719 C 523.550781 64.496094 524.652344 64.632812 525.75 64.796875 C 526.847656 64.957031 527.941406 65.148438 529.03125 65.363281 C 530.121094 65.582031 531.203125 65.824219 532.277344 66.09375 C 533.355469 66.363281 534.425781 66.660156 535.488281 66.980469 C 536.550781 67.304688 537.605469 67.652344 538.648438 68.027344 C 539.695312 68.398438 540.730469 68.800781 541.753906 69.222656 C 542.78125 69.648438 543.796875 70.097656 544.800781 70.574219 C 545.804688 71.046875 546.792969 71.546875 547.773438 72.070312 C 548.753906 72.59375 549.71875 73.140625 550.671875 73.710938 C 551.621094 74.28125 552.558594 74.875 553.484375 75.492188 C 554.40625 76.109375 555.3125 76.75 556.207031 77.410156 C 557.097656 78.070312 557.972656 78.753906 558.828125 79.457031 C 559.6875 80.164062 560.527344 80.886719 561.351562 81.632812 C 562.171875 82.378906 562.976562 83.144531 563.761719 83.929688 C 564.546875 84.714844 565.3125 85.519531 566.058594 86.339844 C 566.804688 87.164062 567.527344 88.003906 568.234375 88.859375 C 568.9375 89.71875 569.621094 90.59375 570.28125 91.484375 C 570.941406 92.378906 571.582031 93.285156 572.199219 94.207031 C 572.816406 95.132812 573.410156 96.070312 573.980469 97.019531 C 574.550781 97.972656 575.097656 98.9375 575.621094 99.917969 C 576.144531 100.898438 576.644531 101.886719 577.117188 102.890625 C 577.59375 103.894531 578.042969 104.910156 578.464844 105.9375 C 578.890625 106.960938 579.289062 107.996094 579.664062 109.042969 C 580.039062 110.085938 580.386719 111.140625 580.710938 112.203125 C 581.03125 113.265625 581.328125 114.335938 581.597656 115.414062 C 581.867188 116.488281 582.109375 117.570312 582.328125 118.660156 C 582.542969 119.75 582.734375 120.84375 582.894531 121.941406 C 583.058594 123.039062 583.195312 124.140625 583.304688 125.246094 C 583.414062 126.351562 583.496094 127.457031 583.546875 128.566406 C 583.601562 129.675781 583.628906 130.785156 583.628906 131.894531 L 583.628906 151.503906 C 583.628906 152.613281 583.601562 153.722656 583.546875 154.832031 C 583.496094 155.941406 583.414062 157.046875 583.304688 158.152344 C 583.195312 159.257812 583.058594 160.359375 582.894531 161.457031 C 582.734375 162.554688 582.542969 163.648438 582.328125 164.738281 C 582.109375 165.824219 581.867188 166.90625 581.597656 167.984375 C 581.328125 169.0625 581.03125 170.132812 580.710938 171.195312 C 580.386719 172.257812 580.039062 173.308594 579.664062 174.355469 C 579.289062 175.398438 578.890625 176.4375 578.464844 177.460938 C 578.042969 178.488281 577.59375 179.5 577.117188 180.503906 C 576.644531 181.507812 576.144531 182.5 575.621094 183.480469 C 575.097656 184.457031 574.550781 185.425781 573.980469 186.375 C 573.410156 187.328125 572.816406 188.265625 572.199219 189.1875 C 571.582031 190.113281 570.941406 191.019531 570.28125 191.910156 C 569.621094 192.800781 568.9375 193.675781 568.234375 194.535156 C 567.527344 195.394531 566.804688 196.234375 566.058594 197.058594 C 565.3125 197.878906 564.546875 198.683594 563.761719 199.46875 C 562.976562 200.253906 562.171875 201.019531 561.351562 201.765625 C 560.527344 202.507812 559.6875 203.234375 558.828125 203.9375 C 557.972656 204.644531 557.097656 205.324219 556.207031 205.988281 C 555.3125 206.648438 554.40625 207.289062 553.484375 207.902344 C 552.558594 208.519531 551.621094 209.113281 550.671875 209.683594 C 549.71875 210.257812 548.753906 210.804688 547.773438 211.328125 C 546.792969 211.851562 545.804688 212.347656 544.800781 212.824219 C 543.796875 213.296875 542.78125 213.746094 541.753906 214.171875 C 540.730469 214.597656 539.695312 214.996094 538.648438 215.371094 C 537.605469 215.746094 536.550781 216.09375 535.488281 216.414062 C 534.425781 216.738281 533.355469 217.035156 532.277344 217.304688 C 531.203125 217.574219 530.121094 217.816406 529.03125 218.03125 C 527.941406 218.25 526.847656 218.4375 525.75 218.601562 C 524.652344 218.765625 523.550781 218.902344 522.445312 219.007812 C 521.339844 219.117188 520.234375 219.199219 519.125 219.253906 C 518.015625 219.308594 516.90625 219.335938 515.796875 219.335938 L 73.910156 219.335938 C 72.800781 219.335938 71.691406 219.308594 70.582031 219.253906 C 69.472656 219.199219 68.367188 219.117188 67.261719 219.007812 C 66.15625 218.902344 65.054688 218.765625 63.957031 218.601562 C 62.859375 218.4375 61.765625 218.25 60.675781 218.03125 C 59.585938 217.816406 58.503906 217.574219 57.425781 217.304688 C 56.351562 217.035156 55.28125 216.738281 54.21875 216.414062 C 53.15625 216.09375 52.101562 215.746094 51.058594 215.371094 C 50.011719 214.996094 48.976562 214.597656 47.949219 214.171875 C 46.925781 213.746094 45.910156 213.296875 44.90625 212.824219 C 43.902344 212.347656 42.910156 211.851562 41.933594 211.328125 C 40.953125 210.804688 39.988281 210.257812 39.035156 209.683594 C 38.082031 209.113281 37.144531 208.519531 36.222656 207.902344 C 35.300781 207.289062 34.394531 206.648438 33.5 205.988281 C 32.609375 205.324219 31.734375 204.644531 30.875 203.9375 C 30.019531 203.234375 29.179688 202.507812 28.355469 201.765625 C 27.53125 201.019531 26.730469 200.253906 25.945312 199.46875 C 25.160156 198.683594 24.394531 197.878906 23.648438 197.058594 C 22.902344 196.234375 22.179688 195.394531 21.472656 194.535156 C 20.769531 193.675781 20.085938 192.800781 19.425781 191.910156 C 18.765625 191.019531 18.125 190.113281 17.507812 189.1875 C 16.890625 188.265625 16.296875 187.328125 15.726562 186.375 C 15.15625 185.425781 14.609375 184.457031 14.085938 183.480469 C 13.5625 182.5 13.0625 181.507812 12.589844 180.503906 C 12.113281 179.5 11.664062 178.488281 11.238281 177.460938 C 10.816406 176.4375 10.414062 175.398438 10.042969 174.355469 C 9.667969 173.308594 9.320312 172.257812 8.996094 171.195312 C 8.675781 170.132812 8.378906 169.0625 8.109375 167.984375 C 7.839844 166.90625 7.597656 165.824219 7.378906 164.738281 C 7.164062 163.648438 6.972656 162.554688 6.808594 161.457031 C 6.648438 160.359375 6.511719 159.257812 6.402344 158.152344 C 6.292969 157.046875 6.210938 155.941406 6.15625 154.832031 C 6.101562 153.722656 6.074219 152.613281 6.074219 151.503906 L 6.074219 131.894531 C 6.074219 130.785156 6.101562 129.675781 6.15625 128.566406 C 6.210938 127.457031 6.292969 126.351562 6.402344 125.246094 C 6.511719 124.140625 6.648438 123.039062 6.808594 121.941406 C 6.972656 120.84375 7.164062 119.75 7.378906 118.660156 C 7.597656 117.570312 7.839844 116.488281 8.109375 115.414062 C 8.378906 114.335938 8.675781 113.265625 8.996094 112.203125 C 9.320312 111.140625 9.667969 110.085938 10.042969 109.042969 C 10.414062 107.996094 10.816406 106.960938 11.238281 105.9375 C 11.664062 104.910156 12.113281 103.894531 12.589844 102.890625 C 13.0625 101.886719 13.5625 100.898438 14.085938 99.917969 C 14.609375 98.9375 15.15625 97.972656 15.726562 97.019531 C 16.296875 96.070312 16.890625 95.132812 17.507812 94.207031 C 18.125 93.285156 18.765625 92.378906 19.425781 91.484375 C 20.085938 90.59375 20.769531 89.71875 21.472656 88.859375 C 22.179688 88.003906 22.902344 87.164062 23.648438 86.339844 C 24.394531 85.519531 25.160156 84.714844 25.945312 83.929688 C 26.730469 83.144531 27.53125 82.378906 28.355469 81.632812 C 29.179688 80.886719 30.019531 80.164062 30.875 79.457031 C 31.734375 78.753906 32.609375 78.070312 33.5 77.410156 C 34.394531 76.75 35.300781 76.109375 36.222656 75.492188 C 37.144531 74.875 38.082031 74.28125 39.035156 73.710938 C 39.988281 73.140625 40.953125 72.59375 41.933594 72.070312 C 42.910156 71.546875 43.902344 71.046875 44.90625 70.574219 C 45.910156 70.097656 46.925781 69.648438 47.949219 69.222656 C 48.976562 68.800781 50.011719 68.398438 51.058594 68.027344 C 52.101562 67.652344 53.15625 67.304688 54.21875 66.980469 C 55.28125 66.660156 56.351562 66.363281 57.425781 66.09375 C 58.503906 65.824219 59.585938 65.582031 60.675781 65.363281 C 61.765625 65.148438 62.859375 64.957031 63.957031 64.796875 C 65.054688 64.632812 66.15625 64.496094 67.261719 64.386719 C 68.367188 64.277344 69.472656 64.195312 70.582031 64.144531 C 71.691406 64.089844 72.800781 64.0625 73.910156 64.0625 Z M 73.910156 64.0625 " fill-opacity="1" fill-rule="nonzero"/></g><path fill="#96200b" d="M 517.449219 198.488281 L 72.253906 198.488281 C 70.601562 198.488281 68.953125 198.40625 67.3125 198.246094 C 65.667969 198.082031 64.035156 197.839844 62.414062 197.519531 C 60.792969 197.195312 59.191406 196.792969 57.613281 196.316406 C 56.03125 195.835938 54.476562 195.28125 52.949219 194.648438 C 51.421875 194.015625 49.933594 193.308594 48.476562 192.53125 C 47.019531 191.75 45.601562 190.902344 44.230469 189.984375 C 42.855469 189.066406 41.53125 188.085938 40.253906 187.035156 C 38.976562 185.988281 37.753906 184.878906 36.585938 183.710938 C 35.414062 182.542969 34.308594 181.320312 33.257812 180.042969 C 32.210938 178.765625 31.226562 177.441406 30.308594 176.066406 C 29.394531 174.695312 28.542969 173.277344 27.765625 171.820312 C 26.988281 170.363281 26.28125 168.871094 25.648438 167.347656 C 25.015625 165.820312 24.460938 164.265625 23.980469 162.683594 C 23.5 161.105469 23.101562 159.503906 22.777344 157.882812 C 22.457031 156.261719 22.214844 154.628906 22.050781 152.984375 C 21.890625 151.339844 21.808594 149.691406 21.808594 148.039062 L 21.808594 89.566406 C 21.808594 88.730469 21.851562 87.898438 21.929688 87.066406 C 22.011719 86.234375 22.136719 85.410156 22.300781 84.589844 C 22.460938 83.773438 22.664062 82.960938 22.90625 82.164062 C 23.148438 81.363281 23.429688 80.578125 23.75 79.804688 C 24.070312 79.035156 24.425781 78.28125 24.820312 77.542969 C 25.214844 76.808594 25.644531 76.089844 26.105469 75.394531 C 26.570312 74.703125 27.070312 74.03125 27.597656 73.386719 C 28.128906 72.742188 28.6875 72.121094 29.277344 71.53125 C 29.871094 70.941406 30.488281 70.378906 31.132812 69.851562 C 31.78125 69.320312 32.449219 68.824219 33.144531 68.359375 C 33.839844 67.894531 34.554688 67.464844 35.292969 67.074219 C 36.027344 66.679688 36.78125 66.320312 37.554688 66.003906 C 38.324219 65.683594 39.109375 65.402344 39.910156 65.160156 C 40.710938 64.917969 41.519531 64.714844 42.339844 64.550781 C 43.15625 64.386719 43.984375 64.265625 44.816406 64.183594 C 45.644531 64.101562 46.480469 64.0625 47.316406 64.0625 L 542.390625 64.0625 C 543.226562 64.0625 544.058594 64.101562 544.890625 64.183594 C 545.722656 64.265625 546.546875 64.386719 547.367188 64.550781 C 548.1875 64.714844 548.996094 64.917969 549.796875 65.160156 C 550.59375 65.402344 551.378906 65.683594 552.152344 66.003906 C 552.925781 66.320312 553.679688 66.679688 554.414062 67.074219 C 555.152344 67.464844 555.867188 67.894531 556.5625 68.359375 C 557.257812 68.824219 557.925781 69.320312 558.574219 69.851562 C 559.21875 70.378906 559.835938 70.941406 560.425781 71.53125 C 561.019531 72.121094 561.578125 72.742188 562.109375 73.386719 C 562.636719 74.03125 563.136719 74.703125 563.597656 75.394531 C 564.0625 76.089844 564.492188 76.808594 564.886719 77.542969 C 565.28125 78.28125 565.636719 79.035156 565.957031 79.804688 C 566.277344 80.578125 566.558594 81.363281 566.800781 82.164062 C 567.042969 82.960938 567.246094 83.773438 567.40625 84.589844 C 567.570312 85.410156 567.691406 86.234375 567.773438 87.066406 C 567.855469 87.898438 567.898438 88.730469 567.898438 89.566406 L 567.898438 148.039062 C 567.898438 149.691406 567.816406 151.339844 567.65625 152.984375 C 567.492188 154.628906 567.25 156.261719 566.929688 157.882812 C 566.605469 159.503906 566.203125 161.105469 565.726562 162.683594 C 565.246094 164.265625 564.691406 165.820312 564.058594 167.347656 C 563.425781 168.871094 562.71875 170.363281 561.941406 171.820312 C 561.160156 173.277344 560.3125 174.695312 559.394531 176.066406 C 558.476562 177.441406 557.496094 178.765625 556.445312 180.042969 C 555.398438 181.320312 554.289062 182.542969 553.121094 183.710938 C 551.953125 184.878906 550.730469 185.988281 549.453125 187.035156 C 548.175781 188.085938 546.851562 189.066406 545.476562 189.984375 C 544.105469 190.902344 542.6875 191.75 541.230469 192.53125 C 539.773438 193.308594 538.28125 194.015625 536.757812 194.648438 C 535.230469 195.28125 533.675781 195.835938 532.09375 196.316406 C 530.515625 196.792969 528.914062 197.195312 527.292969 197.519531 C 525.671875 197.839844 524.039062 198.082031 522.394531 198.246094 C 520.75 198.40625 519.101562 198.488281 517.449219 198.488281 Z M 517.449219 198.488281 " fill-opacity="1" fill-rule="nonzero"/><g clip-path="url(#77a6db6aca)"><path fill="#b21111" d="M 87.53125 15.167969 L 502.175781 15.167969 C 503.25 15.167969 504.324219 15.195312 505.398438 15.246094 C 506.472656 15.300781 507.546875 15.378906 508.617188 15.484375 C 509.6875 15.589844 510.753906 15.722656 511.820312 15.878906 C 512.882812 16.035156 513.941406 16.21875 514.996094 16.429688 C 516.050781 16.640625 517.101562 16.875 518.144531 17.136719 C 519.1875 17.398438 520.222656 17.683594 521.253906 17.996094 C 522.28125 18.308594 523.304688 18.648438 524.316406 19.007812 C 525.328125 19.371094 526.332031 19.757812 527.324219 20.171875 C 528.320312 20.582031 529.304688 21.019531 530.273438 21.476562 C 531.246094 21.9375 532.207031 22.421875 533.15625 22.929688 C 534.105469 23.433594 535.039062 23.964844 535.964844 24.519531 C 536.886719 25.070312 537.792969 25.644531 538.6875 26.242188 C 539.582031 26.839844 540.460938 27.460938 541.324219 28.101562 C 542.191406 28.742188 543.039062 29.402344 543.871094 30.085938 C 544.699219 30.769531 545.515625 31.46875 546.3125 32.191406 C 547.109375 32.914062 547.886719 33.65625 548.648438 34.417969 C 549.410156 35.179688 550.148438 35.957031 550.871094 36.753906 C 551.59375 37.550781 552.296875 38.363281 552.980469 39.195312 C 553.660156 40.027344 554.324219 40.875 554.964844 41.738281 C 555.605469 42.601562 556.222656 43.480469 556.820312 44.375 C 557.417969 45.269531 557.996094 46.179688 558.546875 47.101562 C 559.101562 48.023438 559.628906 48.960938 560.136719 49.910156 C 560.644531 50.855469 561.128906 51.816406 561.585938 52.789062 C 562.046875 53.761719 562.484375 54.746094 562.894531 55.738281 C 563.308594 56.734375 563.695312 57.734375 564.054688 58.75 C 564.417969 59.761719 564.753906 60.78125 565.066406 61.8125 C 565.378906 62.839844 565.667969 63.878906 565.929688 64.921875 C 566.191406 65.964844 566.425781 67.011719 566.636719 68.070312 C 566.84375 69.125 567.027344 70.183594 567.1875 71.246094 C 567.34375 72.3125 567.476562 73.378906 567.582031 74.449219 C 567.6875 75.519531 567.765625 76.589844 567.820312 77.664062 C 567.871094 78.738281 567.898438 79.816406 567.898438 80.890625 L 567.898438 89.71875 C 567.898438 90.792969 567.871094 91.867188 567.820312 92.941406 C 567.765625 94.015625 567.6875 95.089844 567.582031 96.160156 C 567.476562 97.230469 567.34375 98.296875 567.1875 99.359375 C 567.027344 100.425781 566.84375 101.484375 566.636719 102.539062 C 566.425781 103.59375 566.191406 104.644531 565.929688 105.6875 C 565.667969 106.730469 565.378906 107.765625 565.066406 108.796875 C 564.753906 109.824219 564.417969 110.847656 564.054688 111.859375 C 563.695312 112.871094 563.308594 113.875 562.894531 114.867188 C 562.484375 115.863281 562.046875 116.84375 561.585938 117.816406 C 561.128906 118.789062 560.644531 119.75 560.136719 120.699219 C 559.628906 121.648438 559.101562 122.582031 558.546875 123.507812 C 557.996094 124.429688 557.417969 125.335938 556.820312 126.230469 C 556.222656 127.125 555.605469 128.003906 554.964844 128.867188 C 554.324219 129.734375 553.660156 130.582031 552.980469 131.410156 C 552.296875 132.242188 551.59375 133.058594 550.871094 133.855469 C 550.148438 134.652344 549.410156 135.429688 548.648438 136.191406 C 547.886719 136.953125 547.109375 137.691406 546.3125 138.414062 C 545.515625 139.136719 544.699219 139.839844 543.871094 140.523438 C 543.039062 141.203125 542.191406 141.867188 541.324219 142.507812 C 540.460938 143.148438 539.582031 143.765625 538.6875 144.363281 C 537.792969 144.960938 536.886719 145.539062 535.964844 146.089844 C 535.039062 146.644531 534.105469 147.171875 533.15625 147.679688 C 532.207031 148.1875 531.246094 148.671875 530.273438 149.128906 C 529.304688 149.589844 528.320312 150.027344 527.324219 150.4375 C 526.332031 150.847656 525.328125 151.234375 524.316406 151.597656 C 523.304688 151.960938 522.28125 152.296875 521.253906 152.609375 C 520.222656 152.921875 519.1875 153.210938 518.144531 153.472656 C 517.101562 153.730469 516.050781 153.96875 514.996094 154.175781 C 513.941406 154.386719 512.882812 154.570312 511.820312 154.730469 C 510.753906 154.886719 509.6875 155.019531 508.617188 155.125 C 507.546875 155.230469 506.472656 155.308594 505.398438 155.363281 C 504.324219 155.414062 503.25 155.441406 502.175781 155.441406 L 87.53125 155.441406 C 86.457031 155.441406 85.382812 155.414062 84.308594 155.363281 C 83.230469 155.308594 82.160156 155.230469 81.089844 155.125 C 80.019531 155.019531 78.953125 154.886719 77.886719 154.730469 C 76.824219 154.570312 75.765625 154.386719 74.710938 154.175781 C 73.65625 153.96875 72.605469 153.730469 71.5625 153.472656 C 70.519531 153.210938 69.484375 152.921875 68.453125 152.609375 C 67.425781 152.296875 66.402344 151.960938 65.390625 151.597656 C 64.378906 151.234375 63.375 150.847656 62.378906 150.4375 C 61.386719 150.027344 60.402344 149.589844 59.429688 149.128906 C 58.460938 148.671875 57.5 148.1875 56.550781 147.679688 C 55.601562 147.171875 54.664062 146.644531 53.742188 146.089844 C 52.820312 145.539062 51.914062 144.960938 51.019531 144.363281 C 50.125 143.765625 49.246094 143.148438 48.378906 142.507812 C 47.515625 141.867188 46.667969 141.203125 45.835938 140.523438 C 45.007812 139.839844 44.191406 139.136719 43.394531 138.414062 C 42.597656 137.691406 41.820312 136.953125 41.058594 136.191406 C 40.296875 135.429688 39.554688 134.652344 38.835938 133.855469 C 38.113281 133.058594 37.410156 132.242188 36.726562 131.410156 C 36.042969 130.582031 35.382812 129.734375 34.742188 128.867188 C 34.101562 128.003906 33.484375 127.125 32.886719 126.230469 C 32.289062 125.335938 31.710938 124.429688 31.160156 123.507812 C 30.605469 122.582031 30.078125 121.648438 29.570312 120.699219 C 29.0625 119.75 28.578125 118.789062 28.117188 117.816406 C 27.660156 116.84375 27.222656 115.863281 26.8125 114.867188 C 26.398438 113.875 26.011719 112.871094 25.652344 111.859375 C 25.289062 110.847656 24.949219 109.824219 24.640625 108.796875 C 24.328125 107.765625 24.039062 106.730469 23.777344 105.6875 C 23.515625 104.644531 23.28125 103.59375 23.070312 102.539062 C 22.863281 101.484375 22.679688 100.425781 22.519531 99.359375 C 22.363281 98.296875 22.230469 97.230469 22.125 96.160156 C 22.019531 95.089844 21.941406 94.015625 21.886719 92.941406 C 21.835938 91.867188 21.808594 90.792969 21.808594 89.71875 L 21.808594 80.890625 C 21.808594 79.816406 21.835938 78.738281 21.886719 77.664062 C 21.941406 76.589844 22.019531 75.519531 22.125 74.449219 C 22.230469 73.378906 22.363281 72.3125 22.519531 71.246094 C 22.679688 70.183594 22.863281 69.125 23.070312 68.070312 C 23.28125 67.011719 23.515625 65.964844 23.777344 64.921875 C 24.039062 63.878906 24.328125 62.839844 24.640625 61.8125 C 24.949219 60.78125 25.289062 59.761719 25.652344 58.75 C 26.011719 57.734375 26.398438 56.734375 26.8125 55.738281 C 27.222656 54.746094 27.660156 53.761719 28.117188 52.789062 C 28.578125 51.816406 29.0625 50.855469 29.570312 49.910156 C 30.078125 48.960938 30.605469 48.023438 31.160156 47.101562 C 31.710938 46.179688 32.289062 45.269531 32.886719 44.375 C 33.484375 43.480469 34.101562 42.601562 34.742188 41.738281 C 35.382812 40.875 36.042969 40.027344 36.726562 39.195312 C 37.410156 38.363281 38.113281 37.550781 38.835938 36.753906 C 39.554688 35.957031 40.296875 35.179688 41.058594 34.417969 C 41.820312 33.65625 42.597656 32.914062 43.394531 32.191406 C 44.191406 31.46875 45.007812 30.769531 45.835938 30.085938 C 46.667969 29.402344 47.515625 28.742188 48.378906 28.101562 C 49.246094 27.460938 50.125 26.839844 51.019531 26.242188 C 51.914062 25.644531 52.820312 25.070312 53.742188 24.519531 C 54.664062 23.964844 55.601562 23.433594 56.550781 22.929688 C 57.5 22.421875 58.460938 21.9375 59.429688 21.476562 C 60.402344 21.019531 61.386719 20.582031 62.378906 20.171875 C 63.375 19.757812 64.378906 19.371094 65.390625 19.007812 C 66.402344 18.648438 67.425781 18.308594 68.453125 17.996094 C 69.484375 17.683594 70.519531 17.398438 71.5625 17.136719 C 72.605469 16.875 73.65625 16.640625 74.710938 16.429688 C 75.765625 16.21875 76.824219 16.035156 77.886719 15.878906 C 78.953125 15.722656 80.019531 15.589844 81.089844 15.484375 C 82.160156 15.378906 83.230469 15.300781 84.308594 15.246094 C 85.382812 15.195312 86.457031 15.167969 87.53125 15.167969 Z M 87.53125 15.167969 " fill-opacity="1" fill-rule="nonzero"/></g><path fill="#96200b" d="M 122.238281 46.789062 L 145.015625 46.789062 C 150.152344 46.789062 154.070312 47.179688 156.761719 47.96875 C 160.382812 49.011719 163.484375 50.90625 166.070312 53.652344 C 168.769531 56.550781 170.734375 59.882812 171.964844 63.652344 C 173.3125 67.59375 173.984375 72.457031 173.984375 78.242188 C 173.984375 83.320312 173.355469 87.699219 172.089844 91.378906 C 170.546875 95.867188 168.34375 99.503906 165.480469 102.28125 C 163.316406 104.386719 160.398438 106.03125 156.722656 107.210938 C 153.96875 108.082031 150.292969 108.515625 145.691406 108.515625 L 122.238281 108.515625 Z M 134.699219 57.230469 L 134.699219 98.117188 L 144.007812 98.117188 C 147.488281 98.117188 150 97.917969 151.542969 97.527344 C 153.4375 97.09375 155.113281 96.238281 156.574219 94.957031 C 157.910156 93.75 158.996094 91.765625 159.839844 89 C 160.679688 86.234375 161.101562 82.464844 161.101562 77.695312 C 161.101562 72.921875 160.679688 69.257812 159.839844 66.703125 C 158.996094 64.148438 157.816406 62.15625 156.300781 60.726562 C 154.652344 59.214844 152.730469 58.246094 150.535156 57.820312 C 148.792969 57.429688 145.382812 57.230469 140.304688 57.230469 Z M 134.699219 57.230469 " fill-opacity="1" fill-rule="nonzero"/><path fill="#96200b" d="M 182.027344 78.03125 C 182.027344 71.742188 182.96875 66.464844 184.851562 62.199219 C 186.261719 59.035156 188.175781 56.214844 190.597656 53.734375 C 192.875 51.332031 195.535156 49.480469 198.578125 48.175781 C 202.421875 46.546875 206.855469 45.734375 211.882812 45.734375 C 220.976562 45.734375 228.253906 48.554688 233.714844 54.199219 C 239.175781 59.839844 241.90625 67.6875 241.90625 77.734375 C 241.90625 87.699219 239.195312 95.496094 233.777344 101.125 C 228.359375 106.753906 221.117188 109.566406 212.050781 109.570312 C 202.871094 109.570312 195.574219 106.769531 190.15625 101.167969 C 184.738281 95.570312 182.027344 87.855469 182.027344 78.03125 Z M 194.871094 77.609375 C 194.871094 84.597656 196.484375 89.898438 199.714844 93.503906 C 202.941406 97.113281 207.039062 98.917969 212.007812 98.914062 C 216.976562 98.914062 221.054688 97.125 224.242188 93.546875 C 227.425781 89.96875 229.019531 84.601562 229.019531 77.441406 C 229.019531 70.367188 227.46875 65.089844 224.367188 61.609375 C 221.265625 58.128906 217.144531 56.390625 212.007812 56.386719 C 206.871094 56.386719 202.730469 58.148438 199.585938 61.671875 C 196.445312 65.195312 194.871094 70.507812 194.871094 77.609375 Z M 194.871094 77.609375 " fill-opacity="1" fill-rule="nonzero"/><path fill="#96200b" d="M 251.757812 108.515625 L 251.757812 46.789062 L 263.882812 46.789062 L 289.148438 88.011719 L 289.148438 46.789062 L 300.726562 46.789062 L 300.726562 108.515625 L 288.222656 108.515625 L 263.335938 68.261719 L 263.335938 108.515625 Z M 251.757812 108.515625 " fill-opacity="1" fill-rule="nonzero"/><path fill="#96200b" d="M 369.574219 108.515625 L 356.011719 108.515625 L 350.625 94.496094 L 325.949219 94.496094 L 320.855469 108.519531 L 307.632812 108.519531 L 331.675781 46.789062 L 344.855469 46.789062 Z M 346.625 84.09375 L 338.121094 61.1875 L 329.78125 84.09375 Z M 346.625 84.09375 " fill-opacity="1" fill-rule="nonzero"/><path fill="#96200b" d="M 383.675781 108.515625 L 383.675781 57.230469 L 365.359375 57.230469 L 365.359375 46.789062 L 414.414062 46.789062 L 414.414062 57.230469 L 396.140625 57.230469 L 396.140625 108.515625 Z M 383.675781 108.515625 " fill-opacity="1" fill-rule="nonzero"/><path fill="#96200b" d="M 422.457031 108.515625 L 422.457031 46.789062 L 468.226562 46.789062 L 468.226562 57.230469 L 434.921875 57.230469 L 434.921875 70.914062 L 465.910156 70.914062 L 465.910156 81.316406 L 434.921875 81.316406 L 434.921875 98.117188 L 469.40625 98.117188 L 469.40625 108.515625 Z M 422.457031 108.515625 " fill-opacity="1" fill-rule="nonzero"/><path fill="#ffffff" d="M 122.238281 51.832031 L 145.015625 51.832031 C 150.152344 51.832031 154.070312 52.226562 156.761719 53.011719 C 160.382812 54.054688 163.484375 55.953125 166.070312 58.695312 C 168.769531 61.59375 170.734375 64.929688 171.964844 68.695312 C 173.3125 72.640625 173.984375 77.503906 173.984375 83.285156 C 173.984375 88.363281 173.355469 92.746094 172.089844 96.421875 C 170.546875 100.914062 168.34375 104.546875 165.480469 107.328125 C 163.316406 109.433594 160.398438 111.074219 156.722656 112.253906 C 153.96875 113.125 150.292969 113.558594 145.691406 113.558594 L 122.238281 113.558594 Z M 134.699219 62.273438 L 134.699219 103.160156 L 144.007812 103.160156 C 147.488281 103.160156 150 102.964844 151.542969 102.570312 C 153.4375 102.140625 155.113281 101.28125 156.574219 100.003906 C 157.910156 98.796875 158.996094 96.808594 159.839844 94.042969 C 160.679688 91.277344 161.101562 87.507812 161.101562 82.738281 C 161.101562 77.964844 160.679688 74.304688 159.839844 71.75 C 158.996094 69.191406 157.816406 67.199219 156.300781 65.769531 C 154.652344 64.257812 152.730469 63.289062 150.535156 62.863281 C 148.792969 62.472656 145.382812 62.273438 140.304688 62.273438 Z M 134.699219 62.273438 " fill-opacity="1" fill-rule="nonzero"/><path fill="#ffffff" d="M 182.027344 83.074219 C 182.027344 76.789062 182.96875 71.507812 184.851562 67.242188 C 186.261719 64.078125 188.175781 61.257812 190.597656 58.777344 C 192.875 56.375 195.535156 54.523438 198.578125 53.21875 C 202.421875 51.589844 206.855469 50.777344 211.882812 50.777344 C 220.976562 50.777344 228.253906 53.597656 233.714844 59.242188 C 239.175781 64.882812 241.90625 72.730469 241.90625 82.777344 C 241.90625 92.746094 239.195312 100.539062 233.777344 106.167969 C 228.359375 111.796875 221.117188 114.609375 212.050781 114.613281 C 202.871094 114.613281 195.574219 111.8125 190.15625 106.210938 C 184.738281 100.613281 182.027344 92.898438 182.027344 83.074219 Z M 194.871094 82.652344 C 194.871094 89.644531 196.484375 94.941406 199.714844 98.550781 C 202.941406 102.15625 207.039062 103.960938 212.007812 103.960938 C 216.976562 103.960938 221.054688 102.171875 224.242188 98.589844 C 227.425781 95.011719 229.019531 89.644531 229.019531 82.484375 C 229.019531 75.410156 227.46875 70.132812 224.367188 66.652344 C 221.265625 63.171875 217.144531 61.433594 212.007812 61.433594 C 206.871094 61.433594 202.730469 63.195312 199.585938 66.714844 C 196.445312 70.238281 194.871094 75.550781 194.871094 82.652344 Z M 194.871094 82.652344 " fill-opacity="1" fill-rule="nonzero"/><path fill="#ffffff" d="M 251.757812 113.558594 L 251.757812 51.832031 L 263.882812 51.832031 L 289.148438 93.054688 L 289.148438 51.832031 L 300.726562 51.832031 L 300.726562 113.558594 L 288.222656 113.558594 L 263.335938 73.304688 L 263.335938 113.558594 Z M 251.757812 113.558594 " fill-opacity="1" fill-rule="nonzero"/><path fill="#ffffff" d="M 369.574219 113.558594 L 356.011719 113.558594 L 350.625 99.539062 L 325.949219 99.539062 L 320.855469 113.558594 L 307.632812 113.558594 L 331.675781 51.832031 L 344.855469 51.832031 Z M 346.625 89.136719 L 338.121094 66.230469 L 329.78125 89.136719 Z M 346.625 89.136719 " fill-opacity="1" fill-rule="nonzero"/><path fill="#ffffff" d="M 383.675781 113.558594 L 383.675781 62.273438 L 365.359375 62.273438 L 365.359375 51.832031 L 414.414062 51.832031 L 414.414062 62.273438 L 396.140625 62.273438 L 396.140625 113.558594 Z M 383.675781 113.558594 " fill-opacity="1" fill-rule="nonzero"/><path fill="#ffffff" d="M 422.457031 113.558594 L 422.457031 51.832031 L 468.226562 51.832031 L 468.226562 62.273438 L 434.921875 62.273438 L 434.921875 75.960938 L 465.910156 75.960938 L 465.910156 86.359375 L 434.921875 86.359375 L 434.921875 103.160156 L 469.40625 103.160156 L 469.40625 113.558594 Z M 422.457031 113.558594 " fill-opacity="1" fill-rule="nonzero"/><path fill="#1e1e1e" d="M 628.816406 187.964844 L 609.976562 169.125 L 614.6875 164.410156 C 615.03125 164.070312 615.347656 163.707031 615.644531 163.320312 C 615.9375 162.9375 616.207031 162.535156 616.449219 162.113281 C 616.691406 161.695312 616.90625 161.261719 617.089844 160.816406 C 617.277344 160.367188 617.433594 159.910156 617.558594 159.441406 C 617.683594 158.972656 617.777344 158.5 617.839844 158.019531 C 617.902344 157.539062 617.9375 157.054688 617.9375 156.570312 C 617.9375 156.085938 617.902344 155.605469 617.839844 155.125 C 617.777344 154.644531 617.683594 154.171875 617.558594 153.703125 C 617.433594 153.234375 617.277344 152.777344 617.09375 152.328125 C 616.90625 151.882812 616.691406 151.449219 616.449219 151.027344 C 616.207031 150.609375 615.941406 150.207031 615.644531 149.824219 C 615.351562 149.4375 615.03125 149.074219 614.6875 148.730469 C 614.347656 148.390625 613.984375 148.070312 613.597656 147.777344 C 613.214844 147.480469 612.8125 147.210938 612.394531 146.96875 C 611.972656 146.726562 611.539062 146.515625 611.09375 146.328125 C 610.644531 146.144531 610.1875 145.988281 609.71875 145.863281 L 542.152344 127.757812 C 541.203125 127.5 540.234375 127.371094 539.25 127.371094 C 536.929688 127.382812 534.824219 128.054688 532.929688 129.390625 L 532.929688 129.386719 L 532.90625 129.40625 C 532.382812 129.773438 531.898438 130.183594 531.445312 130.632812 C 524.882812 136.257812 524.683594 138.109375 524.683594 138.109375 C 524.039062 139.335938 523.644531 140.640625 523.492188 142.019531 C 523.34375 143.398438 523.453125 144.757812 523.816406 146.097656 L 541.921875 213.664062 C 542.078125 214.25 542.285156 214.816406 542.535156 215.371094 C 542.789062 215.921875 543.082031 216.453125 543.421875 216.957031 C 543.757812 217.460938 544.136719 217.933594 544.550781 218.375 C 544.96875 218.820312 545.414062 219.222656 545.898438 219.59375 C 546.378906 219.960938 546.890625 220.289062 547.425781 220.574219 C 547.960938 220.863281 548.515625 221.101562 549.089844 221.296875 C 549.664062 221.492188 550.253906 221.636719 550.851562 221.738281 C 551.453125 221.835938 552.054688 221.886719 552.660156 221.886719 C 554.128906 221.886719 555.539062 221.605469 556.890625 221.042969 C 558.246094 220.476562 559.4375 219.675781 560.46875 218.632812 L 565.183594 213.917969 L 584.023438 232.761719 C 584.335938 233.070312 584.675781 233.351562 585.042969 233.59375 C 585.410156 233.839844 585.796875 234.046875 586.203125 234.214844 C 586.613281 234.382812 587.03125 234.507812 587.464844 234.59375 C 587.898438 234.679688 588.332031 234.722656 588.773438 234.722656 C 589.214844 234.722656 589.652344 234.679688 590.082031 234.59375 C 590.515625 234.507812 590.9375 234.382812 591.34375 234.214844 C 591.75 234.046875 592.136719 233.839844 592.503906 233.59375 C 592.871094 233.351562 593.210938 233.070312 593.523438 232.761719 L 624.058594 202.222656 L 628.820312 197.464844 C 629.132812 197.152344 629.410156 196.8125 629.652344 196.445312 C 629.898438 196.078125 630.105469 195.691406 630.273438 195.285156 C 630.441406 194.875 630.570312 194.457031 630.652344 194.023438 C 630.738281 193.589844 630.78125 193.15625 630.78125 192.714844 C 630.78125 192.273438 630.738281 191.835938 630.652344 191.402344 C 630.566406 190.972656 630.441406 190.550781 630.269531 190.144531 C 630.101562 189.738281 629.894531 189.351562 629.652344 188.984375 C 629.40625 188.617188 629.128906 188.277344 628.816406 187.964844 Z M 628.816406 187.964844 " fill-opacity="1" fill-rule="nonzero"/><path fill="#ffffff" d="M 617.722656 192.664062 L 598.132812 173.070312 L 604.644531 166.5625 C 605.09375 166.113281 605.476562 165.613281 605.792969 165.0625 C 606.109375 164.515625 606.351562 163.933594 606.515625 163.320312 C 606.679688 162.707031 606.761719 162.082031 606.761719 161.449219 C 606.761719 160.8125 606.679688 160.191406 606.515625 159.578125 C 606.351562 158.964844 606.109375 158.382812 605.792969 157.832031 C 605.476562 157.285156 605.09375 156.785156 604.644531 156.335938 C 604.195312 155.886719 603.695312 155.503906 603.144531 155.1875 C 602.597656 154.867188 602.015625 154.628906 601.402344 154.464844 L 538.839844 137.703125 C 538.535156 137.621094 538.226562 137.558594 537.914062 137.515625 C 537.601562 137.476562 537.285156 137.457031 536.96875 137.457031 C 536.652344 137.457031 536.339844 137.476562 536.027344 137.515625 C 535.710938 137.558594 535.402344 137.621094 535.097656 137.703125 C 534.792969 137.785156 534.496094 137.886719 534.203125 138.007812 C 533.910156 138.128906 533.628906 138.265625 533.355469 138.425781 C 533.082031 138.582031 532.816406 138.757812 532.566406 138.949219 C 532.316406 139.140625 532.078125 139.351562 531.855469 139.574219 C 531.632812 139.796875 531.425781 140.035156 531.234375 140.285156 C 531.039062 140.535156 530.867188 140.796875 530.707031 141.070312 C 530.550781 141.34375 530.410156 141.628906 530.289062 141.917969 C 530.167969 142.210938 530.066406 142.511719 529.984375 142.816406 C 529.902344 143.121094 529.839844 143.429688 529.800781 143.742188 C 529.757812 144.054688 529.738281 144.371094 529.738281 144.6875 C 529.738281 145.003906 529.757812 145.316406 529.800781 145.628906 C 529.839844 145.945312 529.902344 146.253906 529.984375 146.558594 L 546.746094 209.121094 C 546.828125 209.425781 546.929688 209.722656 547.050781 210.015625 C 547.171875 210.308594 547.3125 210.589844 547.46875 210.863281 C 547.628906 211.136719 547.800781 211.398438 547.996094 211.648438 C 548.1875 211.898438 548.394531 212.136719 548.617188 212.359375 C 548.839844 212.585938 549.078125 212.792969 549.328125 212.984375 C 549.582031 213.175781 549.84375 213.351562 550.117188 213.511719 C 550.390625 213.667969 550.671875 213.808594 550.964844 213.929688 C 551.257812 214.050781 551.554688 214.152344 551.859375 214.230469 C 552.164062 214.3125 552.472656 214.375 552.789062 214.417969 C 553.101562 214.457031 553.414062 214.480469 553.730469 214.480469 C 554.046875 214.480469 554.363281 214.457031 554.675781 214.417969 C 554.988281 214.375 555.296875 214.3125 555.601562 214.230469 C 555.910156 214.152344 556.207031 214.050781 556.5 213.929688 C 556.789062 213.808594 557.074219 213.667969 557.347656 213.511719 C 557.621094 213.351562 557.882812 213.175781 558.132812 212.984375 C 558.382812 212.792969 558.621094 212.585938 558.84375 212.359375 L 565.355469 205.851562 L 584.945312 225.441406 C 585.246094 225.738281 585.589844 225.96875 585.980469 226.128906 C 586.371094 226.289062 586.777344 226.371094 587.195312 226.371094 C 587.617188 226.371094 588.023438 226.289062 588.414062 226.128906 C 588.804688 225.96875 589.148438 225.738281 589.449219 225.441406 L 617.722656 197.167969 C 618.019531 196.867188 618.25 196.523438 618.410156 196.132812 C 618.570312 195.742188 618.652344 195.335938 618.652344 194.914062 C 618.652344 194.492188 618.574219 194.085938 618.410156 193.699219 C 618.25 193.308594 618.023438 192.960938 617.722656 192.664062 Z M 617.722656 192.664062 " fill-opacity="1" fill-rule="nonzero"/><path fill="#1e1e1e" d="M 504.625 101.183594 L 520.1875 121.148438 C 520.363281 121.371094 520.488281 121.617188 520.570312 121.890625 C 520.648438 122.160156 520.675781 122.4375 520.644531 122.722656 C 520.617188 123.003906 520.539062 123.269531 520.410156 123.519531 C 520.277344 123.773438 520.105469 123.992188 519.890625 124.175781 C 519.675781 124.359375 519.433594 124.5 519.167969 124.589844 C 518.898438 124.683594 518.625 124.722656 518.339844 124.707031 C 518.058594 124.695312 517.789062 124.628906 517.53125 124.511719 C 517.273438 124.390625 517.046875 124.230469 516.851562 124.023438 L 499.398438 105.695312 C 499.082031 105.363281 498.84375 104.984375 498.679688 104.554688 C 498.515625 104.128906 498.4375 103.683594 498.449219 103.226562 C 498.460938 102.769531 498.558594 102.332031 498.746094 101.914062 C 498.929688 101.496094 499.191406 101.128906 499.519531 100.8125 C 499.851562 100.496094 500.230469 100.257812 500.660156 100.089844 C 501.085938 99.925781 501.527344 99.847656 501.984375 99.859375 C 502.445312 99.871094 502.882812 99.96875 503.300781 100.152344 C 503.71875 100.335938 504.085938 100.59375 504.402344 100.925781 C 504.480469 101.007812 504.558594 101.097656 504.625 101.183594 Z M 504.625 101.183594 " fill-opacity="1" fill-rule="nonzero"/><path fill="#1e1e1e" d="M 535.242188 92.605469 L 532.128906 117.726562 C 532.09375 118.007812 532.007812 118.273438 531.871094 118.523438 C 531.734375 118.769531 531.558594 118.984375 531.339844 119.164062 C 531.121094 119.34375 530.875 119.476562 530.605469 119.558594 C 530.335938 119.644531 530.058594 119.679688 529.777344 119.65625 C 529.496094 119.636719 529.226562 119.5625 528.972656 119.441406 C 528.71875 119.316406 528.496094 119.148438 528.304688 118.9375 C 528.113281 118.730469 527.96875 118.492188 527.871094 118.226562 C 527.773438 117.960938 527.726562 117.6875 527.734375 117.402344 L 528.351562 92.097656 C 528.363281 91.640625 528.460938 91.199219 528.648438 90.78125 C 528.832031 90.363281 529.09375 89.996094 529.425781 89.679688 C 529.753906 89.363281 530.136719 89.121094 530.5625 88.957031 C 530.992188 88.792969 531.433594 88.714844 531.890625 88.726562 C 532.351562 88.738281 532.789062 88.835938 533.207031 89.023438 C 533.628906 89.207031 533.996094 89.464844 534.3125 89.796875 C 534.628906 90.128906 534.867188 90.511719 535.03125 90.9375 C 535.199219 91.363281 535.273438 91.808594 535.265625 92.265625 C 535.261719 92.382812 535.253906 92.496094 535.242188 92.605469 Z M 535.242188 92.605469 " fill-opacity="1" fill-rule="nonzero"/><path fill="#1e1e1e" d="M 487.996094 129.238281 L 513.117188 132.347656 C 513.402344 132.378906 513.667969 132.460938 513.921875 132.597656 C 514.171875 132.730469 514.390625 132.910156 514.570312 133.128906 C 514.753906 133.347656 514.890625 133.59375 514.976562 133.867188 C 515.0625 134.140625 515.097656 134.417969 515.074219 134.703125 C 515.054688 134.988281 514.980469 135.257812 514.855469 135.515625 C 514.730469 135.769531 514.558594 135.992188 514.347656 136.183594 C 514.132812 136.375 513.890625 136.519531 513.625 136.613281 C 513.355469 136.710938 513.078125 136.753906 512.792969 136.746094 L 487.488281 136.125 C 487.027344 136.113281 486.589844 136.015625 486.167969 135.832031 C 485.75 135.644531 485.382812 135.386719 485.066406 135.054688 C 484.746094 134.722656 484.507812 134.34375 484.339844 133.914062 C 484.175781 133.488281 484.097656 133.042969 484.109375 132.585938 C 484.121094 132.125 484.21875 131.6875 484.40625 131.269531 C 484.59375 130.847656 484.851562 130.480469 485.183594 130.164062 C 485.515625 129.847656 485.898438 129.609375 486.324219 129.441406 C 486.753906 129.277344 487.195312 129.203125 487.65625 129.214844 C 487.769531 129.214844 487.886719 129.222656 487.996094 129.238281 Z M 487.996094 129.238281 " fill-opacity="1" fill-rule="nonzero"/><g clip-path="url(#5b6c4eb64a)"><path fill="#b21111" d="M 78.476562 46.730469 L 463.609375 46.730469 C 464.765625 46.730469 465.917969 46.789062 467.066406 46.902344 C 468.21875 47.015625 469.359375 47.183594 470.496094 47.410156 C 471.628906 47.636719 472.75 47.917969 473.855469 48.25 C 474.960938 48.585938 476.050781 48.976562 477.117188 49.417969 C 478.183594 49.863281 479.230469 50.355469 480.25 50.898438 C 481.269531 51.445312 482.257812 52.039062 483.21875 52.679688 C 484.183594 53.324219 485.109375 54.011719 486.003906 54.746094 C 486.898438 55.476562 487.753906 56.253906 488.570312 57.070312 C 489.386719 57.890625 490.164062 58.746094 490.898438 59.636719 C 491.628906 60.53125 492.316406 61.460938 492.960938 62.421875 C 493.601562 63.382812 494.195312 64.371094 494.742188 65.390625 C 495.285156 66.414062 495.78125 67.457031 496.222656 68.523438 C 496.664062 69.59375 497.054688 70.679688 497.390625 71.785156 C 497.726562 72.890625 498.007812 74.011719 498.230469 75.148438 C 498.457031 76.28125 498.625 77.421875 498.738281 78.574219 C 498.851562 79.722656 498.910156 80.878906 498.910156 82.035156 C 498.910156 83.191406 498.851562 84.34375 498.738281 85.492188 C 498.625 86.644531 498.457031 87.785156 498.230469 88.921875 C 498.003906 90.054688 497.726562 91.175781 497.390625 92.28125 C 497.054688 93.386719 496.664062 94.476562 496.222656 95.542969 C 495.78125 96.613281 495.285156 97.65625 494.742188 98.675781 C 494.195312 99.695312 493.601562 100.683594 492.960938 101.648438 C 492.316406 102.609375 491.628906 103.535156 490.898438 104.429688 C 490.164062 105.324219 489.386719 106.179688 488.570312 106.996094 C 487.753906 107.8125 486.898438 108.589844 486.003906 109.324219 C 485.109375 110.054688 484.183594 110.742188 483.21875 111.386719 C 482.257812 112.027344 481.269531 112.621094 480.25 113.167969 C 479.230469 113.710938 478.183594 114.207031 477.117188 114.648438 C 476.050781 115.089844 474.960938 115.480469 473.855469 115.816406 C 472.75 116.152344 471.628906 116.433594 470.496094 116.65625 C 469.359375 116.882812 468.21875 117.050781 467.066406 117.164062 C 465.917969 117.277344 464.765625 117.335938 463.609375 117.335938 L 78.476562 117.335938 C 77.320312 117.335938 76.164062 117.277344 75.015625 117.164062 C 73.863281 117.050781 72.722656 116.882812 71.589844 116.65625 C 70.453125 116.433594 69.332031 116.152344 68.226562 115.816406 C 67.121094 115.480469 66.035156 115.089844 64.964844 114.648438 C 63.898438 114.207031 62.855469 113.710938 61.832031 113.167969 C 60.8125 112.621094 59.824219 112.027344 58.863281 111.386719 C 57.902344 110.742188 56.972656 110.054688 56.078125 109.324219 C 55.1875 108.589844 54.332031 107.8125 53.511719 106.996094 C 52.695312 106.179688 51.917969 105.324219 51.1875 104.429688 C 50.453125 103.535156 49.765625 102.609375 49.121094 101.648438 C 48.480469 100.683594 47.886719 99.695312 47.339844 98.675781 C 46.796875 97.65625 46.304688 96.613281 45.859375 95.542969 C 45.417969 94.476562 45.027344 93.386719 44.691406 92.28125 C 44.359375 91.175781 44.078125 90.054688 43.851562 88.921875 C 43.625 87.785156 43.457031 86.644531 43.34375 85.492188 C 43.230469 84.34375 43.171875 83.191406 43.171875 82.035156 C 43.171875 80.878906 43.230469 79.722656 43.34375 78.574219 C 43.457031 77.421875 43.625 76.28125 43.851562 75.148438 C 44.078125 74.011719 44.359375 72.890625 44.691406 71.785156 C 45.027344 70.679688 45.417969 69.59375 45.859375 68.523438 C 46.304688 67.457031 46.796875 66.414062 47.339844 65.390625 C 47.886719 64.371094 48.480469 63.382812 49.121094 62.421875 C 49.765625 61.460938 50.453125 60.53125 51.1875 59.636719 C 51.917969 58.746094 52.695312 57.890625 53.511719 57.070312 C 54.332031 56.253906 55.1875 55.476562 56.078125 54.746094 C 56.972656 54.011719 57.902344 53.324219 58.863281 52.679688 C 59.824219 52.039062 60.8125 51.445312 61.832031 50.898438 C 62.855469 50.355469 63.898438 49.863281 64.964844 49.417969 C 66.035156 48.976562 67.121094 48.585938 68.226562 48.25 C 69.332031 47.917969 70.453125 47.636719 71.589844 47.410156 C 72.722656 47.183594 73.863281 47.015625 75.015625 46.902344 C 76.164062 46.789062 77.320312 46.730469 78.476562 46.730469 Z M 78.476562 46.730469 " fill-opacity="1" fill-rule="nonzero"/></g><g fill="#ffffff" fill-opacity="1"><g transform="translate(118.280655, 120.502644)"><g><path d="M 64.296875 0 L 54.140625 -26.078125 L 20.765625 -26.078125 L 10.734375 0 L 0 0 L 32.90625 -84.578125 L 42.46875 -84.578125 L 75.265625 0 Z M 50.96875 -35.515625 L 41.53125 -60.984375 C 41.289062 -61.617188 40.894531 -62.757812 40.34375 -64.40625 C 39.789062 -66.0625 39.257812 -67.773438 38.75 -69.546875 C 38.238281 -71.316406 37.828125 -72.671875 37.515625 -73.609375 C 36.890625 -71.171875 36.238281 -68.789062 35.5625 -66.46875 C 34.894531 -64.15625 34.328125 -62.328125 33.859375 -60.984375 L 24.296875 -35.515625 Z M 50.96875 -35.515625 "/></g></g></g><g fill="#ffffff" fill-opacity="1"><g transform="translate(193.656409, 120.502644)"><g><path d="M 84.9375 -42.234375 C 84.9375 -31.929688 82.867188 -23.140625 78.734375 -15.859375 C 74.609375 -8.585938 68.5 -3.613281 60.40625 -0.9375 L 80.578125 20.0625 L 65.359375 20.0625 L 49.078125 1.0625 C 48.609375 1.0625 48.113281 1.082031 47.59375 1.125 C 47.082031 1.164062 46.59375 1.1875 46.125 1.1875 C 37.394531 1.1875 30.140625 -0.617188 24.359375 -4.234375 C 18.578125 -7.859375 14.269531 -12.929688 11.4375 -19.453125 C 8.613281 -25.984375 7.203125 -33.613281 7.203125 -42.34375 C 7.203125 -50.914062 8.613281 -58.445312 11.4375 -64.9375 C 14.269531 -71.425781 18.578125 -76.476562 24.359375 -80.09375 C 30.140625 -83.71875 37.4375 -85.53125 46.25 -85.53125 C 54.65625 -85.53125 61.726562 -83.738281 67.46875 -80.15625 C 73.21875 -76.582031 77.566406 -71.550781 80.515625 -65.0625 C 83.460938 -58.570312 84.9375 -50.960938 84.9375 -42.234375 Z M 18.40625 -42.234375 C 18.40625 -31.617188 20.644531 -23.257812 25.125 -17.15625 C 29.613281 -11.0625 36.613281 -8.015625 46.125 -8.015625 C 55.644531 -8.015625 62.625 -11.0625 67.0625 -17.15625 C 71.507812 -23.257812 73.734375 -31.617188 73.734375 -42.234375 C 73.734375 -52.847656 71.53125 -61.160156 67.125 -67.171875 C 62.71875 -73.191406 55.757812 -76.203125 46.25 -76.203125 C 36.65625 -76.203125 29.613281 -73.191406 25.125 -67.171875 C 20.644531 -61.160156 18.40625 -52.847656 18.40625 -42.234375 Z M 18.40625 -42.234375 "/></g></g></g><g fill="#ffffff" fill-opacity="1"><g transform="translate(285.782341, 120.502644)"><g><path d="M 75.5 -84.234375 L 75.5 -29.734375 C 75.5 -23.910156 74.316406 -18.65625 71.953125 -13.96875 C 69.597656 -9.289062 65.984375 -5.59375 61.109375 -2.875 C 56.234375 -0.164062 50.097656 1.1875 42.703125 1.1875 C 32.160156 1.1875 24.175781 -1.660156 18.75 -7.359375 C 13.332031 -13.066406 10.625 -20.601562 10.625 -29.96875 L 10.625 -84.234375 L 21.234375 -84.234375 L 21.234375 -29.609375 C 21.234375 -22.765625 23.0625 -17.453125 26.71875 -13.671875 C 30.375 -9.898438 35.898438 -8.015625 43.296875 -8.015625 C 50.921875 -8.015625 56.441406 -10.039062 59.859375 -14.09375 C 63.285156 -18.144531 65 -23.359375 65 -29.734375 L 65 -84.234375 Z M 75.5 -84.234375 "/></g></g></g><g fill="#ffffff" fill-opacity="1"><g transform="translate(372.010304, 120.502644)"><g><path d="M 35.15625 0 L 4.71875 0 L 4.71875 -6.140625 L 14.625 -8.375 L 14.625 -75.734375 L 4.71875 -78.09375 L 4.71875 -84.234375 L 35.15625 -84.234375 L 35.15625 -78.09375 L 25.25 -75.734375 L 25.25 -8.375 L 35.15625 -6.140625 Z M 35.15625 0 "/></g></g></g><g fill="#ffffff" fill-opacity="1"><g transform="translate(411.998376, 120.502644)"><g><path d="M 28.34375 -85.3125 L 28.34375 -51.546875 C 28.34375 -47.984375 28.160156 -44.484375 27.796875 -41.046875 C 27.429688 -37.609375 26.957031 -33.945312 26.375 -30.0625 L 16.53125 -30.0625 C 15.914062 -33.945312 15.4375 -37.609375 15.09375 -41.046875 C 14.75 -44.484375 14.578125 -47.984375 14.578125 -51.546875 L 14.578125 -85.3125 Z M 12.328125 -8 C 12.328125 -9.226562 12.554688 -10.390625 13.015625 -11.484375 C 13.472656 -12.585938 14.101562 -13.53125 14.90625 -14.3125 C 15.71875 -15.101562 16.671875 -15.738281 17.765625 -16.21875 C 18.859375 -16.695312 20.039062 -16.9375 21.3125 -16.9375 C 22.5 -16.9375 23.648438 -16.695312 24.765625 -16.21875 C 25.878906 -15.738281 26.828125 -15.101562 27.609375 -14.3125 C 28.398438 -13.53125 29.023438 -12.585938 29.484375 -11.484375 C 29.953125 -10.390625 30.1875 -9.226562 30.1875 -8 C 30.1875 -6.738281 29.953125 -5.566406 29.484375 -4.484375 C 29.023438 -3.410156 28.398438 -2.476562 27.609375 -1.6875 C 26.828125 -0.90625 25.878906 -0.296875 24.765625 0.140625 C 23.648438 0.585938 22.5 0.8125 21.3125 0.8125 C 20.039062 0.8125 18.859375 0.585938 17.765625 0.140625 C 16.671875 -0.296875 15.71875 -0.90625 14.90625 -1.6875 C 14.101562 -2.476562 13.472656 -3.410156 13.015625 -4.484375 C 12.554688 -5.566406 12.328125 -6.738281 12.328125 -8 Z M 12.328125 -8 "/></g></g></g></svg>