<svg xmlns="http://www.w3.org/2000/svg" xmlns:xlink="http://www.w3.org/1999/xlink" width="1080" zoomAndPan="magnify" viewBox="0 0 810 809.999993" height="1080" preserveAspectRatio="xMidYMid meet" version="1.0"><defs><g/><clipPath id="b318ecea7c"><path d="M 13 298.007812 L 798 298.007812 L 798 500.507812 L 13 500.507812 Z M 13 298.007812 " clip-rule="nonzero"/></clipPath></defs><g clip-path="url(#b318ecea7c)"><path fill="#b21111" d="M 695.875 298.019531 L 114.722656 298.019531 C 58.8125 298.019531 13.488281 343.34375 13.488281 399.253906 C 13.488281 455.160156 58.8125 500.488281 114.722656 500.488281 L 695.875 500.488281 C 751.785156 500.488281 797.109375 455.160156 797.109375 399.253906 C 797.109375 343.34375 751.785156 298.019531 695.875 298.019531 " fill-opacity="1" fill-rule="nonzero"/></g><path fill="#ffffff" d="M 117.042969 331.28125 C 79.375 331.28125 48.730469 361.929688 48.730469 399.597656 C 48.730469 437.265625 79.375 467.910156 117.042969 467.910156 L 693.550781 467.910156 C 731.222656 467.910156 761.867188 437.265625 761.867188 399.597656 C 761.867188 361.929688 731.222656 331.28125 693.550781 331.28125 Z M 693.550781 474.824219 L 117.042969 474.824219 C 75.566406 474.824219 41.820312 441.074219 41.820312 399.597656 C 41.820312 358.117188 75.566406 324.375 117.042969 324.375 L 693.550781 324.375 C 735.03125 324.375 768.777344 358.117188 768.777344 399.597656 C 768.777344 441.074219 735.03125 474.824219 693.550781 474.824219 " fill-opacity="1" fill-rule="nonzero"/><g fill="#ffffff" fill-opacity="1"><g transform="translate(294.792943, 456.941307)"><g><path d="M 61.160156 -54.582031 C 61.160156 -55.734375 61.160156 -56.882812 61.324219 -58.035156 C 61.816406 -60.828125 61.980469 -63.625 62.96875 -66.253906 C 64.117188 -69.707031 64.941406 -73.160156 64.941406 -76.777344 C 64.941406 -77.433594 65.105469 -78.09375 65.105469 -78.585938 C 65.925781 -83.351562 66.585938 -87.957031 67.242188 -92.722656 C 67.898438 -96.339844 68.226562 -99.957031 67.40625 -103.574219 C 67.242188 -104.398438 66.914062 -105.382812 66.417969 -106.207031 C 65.269531 -107.683594 63.953125 -109 62.636719 -110.316406 C 61.980469 -110.972656 61.160156 -111.300781 60.335938 -111.464844 L 52.9375 -113.273438 C 51.128906 -113.769531 50.636719 -113.605469 49.652344 -111.796875 C 47.019531 -106.371094 44.554688 -100.617188 43.074219 -94.699219 C 42.417969 -91.246094 41.757812 -87.792969 41.429688 -84.175781 C 41.265625 -81.214844 40.277344 -78.585938 38.472656 -75.957031 L 25.8125 -56.0625 C 22.195312 -50.636719 19.070312 -44.71875 14.632812 -39.785156 C 14.304688 -39.457031 14.140625 -38.964844 13.808594 -38.472656 L 8.550781 -32.386719 C 8.21875 -32.058594 7.398438 -31.894531 7.070312 -32.058594 C 5.425781 -32.714844 3.78125 -33.375 2.300781 -34.195312 C 1.316406 -34.855469 0.328125 -35.347656 -0.820312 -34.855469 C -1.152344 -33.703125 -0.820312 -32.882812 0 -32.058594 L 3.289062 -29.59375 L 4.769531 -28.277344 C 2.628906 -25.484375 5.261719 -28.113281 2.960938 -25.8125 L -1.480469 -21.207031 C -4.273438 -17.921875 -7.070312 -14.46875 -9.699219 -11.015625 C -6.742188 -6.90625 -10.359375 -1.644531 -1.972656 -2.960938 C 1.480469 -1.808594 -3.289062 -5.097656 0.492188 -5.425781 C 1.480469 -5.589844 1.972656 -5.917969 2.628906 -6.578125 C 5.425781 -11.179688 9.042969 -15.453125 11.835938 -20.386719 C 13.152344 -22.523438 15.125 -25.152344 17.921875 -26.140625 C 20.714844 -26.796875 23.675781 -27.621094 26.304688 -28.441406 C 29.757812 -29.757812 33.210938 -30.742188 36.167969 -33.046875 C 36.664062 -33.375 37.320312 -33.539062 37.976562 -33.867188 L 38.472656 -31.238281 C 38.964844 -24.003906 39.457031 -16.933594 41.59375 -10.027344 L 42.582031 -6.082031 C 42.582031 -5.589844 42.582031 -4.601562 42.417969 -4.601562 C 41.429688 -4.109375 41.757812 -3.289062 41.757812 -2.628906 C 42.746094 1.480469 44.226562 5.425781 46.527344 9.042969 C 47.183594 10.027344 48.171875 10.6875 49.15625 11.507812 C 49.816406 12 50.800781 12.496094 51.953125 12.164062 C 51.953125 10.191406 53.597656 10.851562 54.910156 10.6875 C 54.910156 10.359375 54.910156 10.027344 55.074219 9.863281 L 55.570312 9.207031 L 57.046875 10.6875 C 57.214844 9.207031 57.378906 7.890625 57.378906 6.578125 C 57.378906 4.769531 57.214844 2.960938 57.214844 1.152344 C 57.046875 -1.480469 56.882812 -3.945312 56.390625 -6.578125 C 55.898438 -9.863281 55.570312 -13.152344 56.390625 -16.441406 C 56.554688 -17.589844 56.71875 -18.578125 56.71875 -19.730469 C 56.882812 -24.003906 56.882812 -28.441406 56.882812 -32.550781 C 57.214844 -32.882812 57.378906 -33.046875 57.542969 -33.046875 C 57.542969 -33.210938 57.707031 -33.210938 57.871094 -33.375 C 59.023438 -34.03125 59.351562 -36.003906 58.363281 -36.167969 C 58.035156 -35.839844 57.871094 -35.347656 57.214844 -34.691406 C 57.214844 -35.839844 57.214844 -36.664062 58.035156 -36.992188 C 59.351562 -37.484375 59.351562 -38.472656 59.515625 -39.621094 C 59.515625 -41.101562 59.84375 -42.746094 59.84375 -44.226562 C 59.84375 -45.210938 60.335938 -45.867188 61.160156 -46.363281 C 65.597656 -48.992188 69.707031 -51.953125 74.3125 -54.253906 C 75.132812 -54.582031 76.121094 -54.910156 76.449219 -55.898438 C 75.296875 -56.390625 74.476562 -57.046875 73.488281 -57.378906 C 72.832031 -57.707031 72.007812 -57.871094 71.351562 -57.707031 C 69.050781 -57.542969 66.914062 -56.882812 64.777344 -55.734375 L 61.488281 -54.253906 Z M 29.921875 -50.308594 C 35.675781 -60.828125 39.949219 -70.53125 38.636719 -52.773438 C 38.472656 -50.144531 38.304688 -47.347656 38.304688 -44.71875 C 38.140625 -43.566406 37.8125 -42.910156 36.664062 -42.417969 C 24.332031 -34.359375 20.222656 -37.648438 29.921875 -50.308594 Z M 29.921875 -50.308594 "/></g></g></g><g fill="#ffffff" fill-opacity="1"><g transform="translate(373.697138, 456.941307)"><g><path d="M 2.300781 5.097656 C 2.136719 6.410156 2.300781 7.890625 2.464844 9.207031 L 2.464844 10.6875 C 2.628906 11.671875 3.125 12.332031 3.78125 12.660156 L 6.082031 13.316406 L 10.359375 14.796875 C 10.6875 14.960938 11.015625 15.453125 10.851562 16.277344 C 10.851562 18.90625 10.6875 21.371094 10.851562 24.003906 C 10.6875 25.648438 10.523438 27.457031 11.015625 28.933594 C 11.179688 30.414062 11.835938 31.566406 11.835938 33.210938 L 12.164062 33.703125 C 13.152344 35.511719 14.46875 36.992188 16.113281 37.320312 C 17.097656 37.484375 17.753906 37.648438 18.578125 38.304688 C 19.070312 38.636719 19.730469 38.800781 20.386719 38.472656 C 20.878906 38.304688 21.371094 38.140625 21.867188 37.484375 C 22.195312 36.828125 22.523438 36.332031 23.015625 36.003906 C 24.332031 35.347656 24.988281 34.359375 25.8125 33.210938 C 27.125 31.238281 27.949219 28.769531 28.605469 26.304688 C 29.101562 25.484375 29.265625 24.660156 28.933594 23.675781 C 28.933594 23.34375 28.933594 22.851562 29.101562 22.523438 C 29.101562 21.371094 29.429688 20.222656 29.59375 19.070312 C 29.757812 17.921875 30.085938 17.589844 30.742188 17.425781 C 32.058594 17.097656 33.210938 16.933594 34.523438 16.769531 C 35.675781 16.441406 36.664062 16.441406 37.648438 16.113281 C 40.445312 15.289062 43.566406 14.46875 46.363281 13.480469 C 46.691406 13.480469 47.019531 13.316406 47.347656 13.152344 L 55.40625 9.371094 C 56.390625 9.042969 57.046875 8.714844 57.378906 7.5625 C 57.542969 7.234375 57.871094 7.070312 58.035156 6.90625 C 58.527344 6.578125 59.023438 6.082031 59.679688 5.753906 C 60.5 5.261719 61.160156 4.601562 61.652344 3.78125 L 64.609375 0.164062 C 64.941406 -0.164062 65.269531 -0.492188 65.433594 -0.820312 C 64.777344 -1.152344 64.609375 -0.820312 64.445312 -0.492188 C 61.980469 1.972656 59.351562 3.289062 56.882812 4.273438 C 54.253906 5.261719 51.457031 6.082031 48.992188 6.410156 C 47.347656 6.742188 45.539062 7.070312 43.894531 7.234375 C 41.265625 7.5625 38.964844 7.726562 36.664062 7.726562 C 33.539062 7.890625 30.578125 7.5625 27.457031 7.398438 L 26.140625 7.398438 C 25.8125 7.234375 25.648438 6.742188 25.648438 6.082031 L 25.648438 5.589844 C 26.796875 2.628906 27.949219 -1.152344 29.101562 -3.945312 C 30.085938 -6.082031 29.59375 -8.714844 30.578125 -10.851562 C 32.058594 -13.808594 34.855469 -20.550781 36.332031 -23.511719 C 36.992188 -24.824219 37.976562 -26.140625 38.636719 -27.457031 C 39.128906 -28.441406 39.457031 -29.59375 40.113281 -30.578125 C 41.265625 -32.550781 41.59375 -34.523438 41.757812 -36.828125 C 41.757812 -37.15625 41.757812 -37.484375 41.59375 -37.8125 C 40.9375 -39.128906 40.277344 -40.445312 39.457031 -41.101562 C 38.140625 -41.757812 37.320312 -42.582031 36.496094 -43.566406 C 35.675781 -44.390625 35.183594 -44.390625 34.359375 -43.566406 C 33.375 -42.582031 32.222656 -41.59375 31.402344 -40.445312 C 29.101562 -37.8125 29.59375 -38.472656 26.960938 -35.839844 C 22.523438 -31.566406 21.703125 -31.402344 18.90625 -28.113281 C 14.796875 -23.179688 8.382812 -20.058594 10.523438 -26.304688 C 11.34375 -28.605469 15.453125 -34.691406 17.097656 -36.003906 C 18.25 -38.636719 23.179688 -42.910156 24.496094 -44.390625 C 26.304688 -45.703125 31.566406 -49.652344 33.046875 -51.128906 C 33.867188 -51.789062 36.664062 -53.761719 37.15625 -54.417969 C 38.140625 -55.074219 40.445312 -56.0625 41.101562 -57.214844 C 41.265625 -57.871094 41.757812 -58.527344 42.417969 -58.691406 C 43.566406 -59.84375 45.046875 -59.84375 45.867188 -59.351562 C 46.199219 -59.023438 46.363281 -59.023438 46.691406 -58.855469 C 47.019531 -59.351562 47.019531 -59.84375 46.855469 -60.007812 C 45.867188 -61.652344 45.046875 -63.296875 44.0625 -64.609375 C 42.746094 -65.925781 35.839844 -70.53125 34.691406 -71.679688 C 33.867188 -72.503906 33.210938 -72.667969 32.386719 -72.175781 C 30.25 -71.515625 28.441406 -70.859375 26.46875 -70.035156 C 25.8125 -69.707031 24.988281 -69.378906 24.167969 -68.722656 C 22.523438 -67.570312 16.605469 -62.804688 15.125 -61.652344 C 12 -59.515625 8.714844 -54.582031 6.082031 -51.292969 C 3.289062 -47.183594 0.492188 -40.609375 -0.328125 -37.320312 C -0.820312 -33.703125 -1.480469 -26.46875 -0.65625 -24.332031 C -0.492188 -24.167969 0.492188 -20.386719 0.65625 -20.222656 C 1.316406 -19.070312 2.464844 -18.25 3.617188 -17.261719 C 4.4375 -16.769531 7.890625 -14.304688 8.878906 -15.125 C 14.632812 -14.46875 21.535156 -20.550781 21.207031 -21.207031 C 21.535156 -21.371094 21.703125 -21.042969 21.535156 -20.550781 C 21.703125 -20.222656 21.535156 -19.894531 21.371094 -19.5625 C 20.386719 -16.441406 15.949219 -7.070312 15.125 -3.945312 C 15.125 -3.289062 12.824219 5.097656 12 5.753906 C 11.015625 5.917969 10.027344 5.097656 8.878906 5.097656 L 5.917969 4.601562 L 2.300781 3.78125 Z M 22.523438 29.265625 C 22.359375 28.933594 22.03125 28.605469 21.867188 28.113281 C 22.03125 26.796875 21.867188 25.484375 22.195312 24.167969 C 22.03125 22.851562 22.195312 21.371094 22.523438 19.894531 C 22.523438 19.234375 22.851562 18.578125 23.34375 18.414062 C 24.660156 17.921875 25.8125 17.753906 27.125 17.753906 C 27.457031 17.753906 27.621094 18.25 27.457031 18.742188 C 27.457031 19.070312 27.457031 19.234375 27.292969 19.5625 L 24.167969 26.960938 C 23.675781 27.785156 23.179688 28.769531 22.523438 29.265625 Z M 22.523438 29.265625 "/></g></g></g><g fill="#ffffff" fill-opacity="1"><g transform="translate(431.888975, 456.941307)"><g><path d="M 26.632812 -25.8125 C 25.152344 -20.222656 25.976562 -17.425781 26.796875 -12.332031 C 27.785156 -6.742188 41.101562 -7.398438 44.226562 -9.207031 C 44.71875 -9.535156 45.046875 -10.027344 46.363281 -9.699219 C 46.855469 -10.191406 47.019531 -10.359375 48.171875 -10.851562 C 49.652344 -11.671875 49.980469 -11.835938 51.128906 -12.988281 C 52.609375 -13.644531 52.773438 -14.140625 54.253906 -14.46875 C 57.542969 -17.097656 61.816406 -21.703125 63.953125 -24.496094 C 64.777344 -24.824219 64.609375 -25.320312 64.941406 -25.648438 C 66.089844 -26.632812 67.570312 -31.894531 68.886719 -32.882812 L 69.871094 -34.855469 C 70.53125 -36.003906 69.214844 -40.9375 67.570312 -37.976562 C 65.761719 -35.347656 64.777344 -33.375 63.625 -31.402344 C 60.5 -26.304688 53.761719 -19.894531 49.980469 -18.25 C 44.226562 -16.441406 38.472656 -17.921875 38.964844 -20.058594 C 38.964844 -20.714844 39.621094 -23.675781 40.9375 -29.265625 C 41.921875 -30.578125 41.757812 -32.386719 42.417969 -33.867188 C 43.074219 -35.183594 43.730469 -36.664062 43.566406 -37.648438 C 44.554688 -39.128906 44.226562 -37.976562 44.71875 -39.128906 C 46.199219 -42.746094 46.363281 -46.035156 47.511719 -49.15625 C 47.019531 -49.484375 47.347656 -50.144531 47.019531 -50.800781 C 45.539062 -51.625 47.675781 -51.789062 45.210938 -51.625 C 44.554688 -51.789062 44.71875 -51.953125 43.074219 -51.457031 C 42.085938 -50.144531 41.429688 -49.15625 40.9375 -47.675781 C 39.621094 -45.867188 38.140625 -43.894531 37.15625 -41.757812 C 36.332031 -39.949219 36.167969 -40.609375 35.183594 -38.472656 C 34.691406 -37.648438 34.359375 -36.664062 33.210938 -35.511719 C 31.894531 -33.867188 31.074219 -34.691406 29.757812 -32.882812 C 27.621094 -30.25 22.359375 -30.085938 18.414062 -27.949219 C 17.425781 -27.621094 17.097656 -30.414062 16.441406 -31.238281 C 15.617188 -31.894531 16.441406 -34.359375 16.769531 -35.675781 C 17.589844 -37.320312 17.921875 -38.800781 18.25 -40.445312 C 18.578125 -41.429688 18.90625 -46.035156 19.730469 -47.183594 C 20.714844 -51.128906 24.332031 -58.855469 25.320312 -62.96875 C 25.320312 -63.625 25.484375 -64.28125 24.988281 -64.609375 C 24.332031 -65.269531 24.332031 -66.089844 23.675781 -66.253906 C 22.851562 -67.40625 21.703125 -68.0625 20.058594 -68.0625 C 18.414062 -67.898438 20.222656 -66.75 17.753906 -65.433594 C 16.933594 -64.609375 15.78125 -64.609375 14.632812 -64.117188 C 13.808594 -63.625 12.988281 -63.296875 12.496094 -62.144531 C 11.179688 -60.171875 10.359375 -58.363281 9.535156 -56.554688 C 8.054688 -53.101562 -0.820312 -39.457031 -1.644531 -35.675781 C -2.628906 -33.046875 -2.960938 -30.085938 -2.464844 -28.769531 C -1.644531 -23.34375 -1.480469 -22.195312 2.628906 -19.730469 C 3.78125 -19.070312 7.5625 -18.25 9.042969 -18.25 C 10.851562 -18.742188 14.46875 -18.578125 17.261719 -20.058594 C 20.058594 -21.867188 24.332031 -24.167969 26.632812 -26.46875 Z M 26.632812 -25.8125 "/></g></g></g><g fill="#ffffff" fill-opacity="1"><g transform="translate(497.971226, 456.941307)"><g><path d="M 7.5625 -51.953125 C 7.070312 -50.964844 6.90625 -50.308594 7.070312 -49.652344 C 7.398438 -48.5 6.90625 -47.84375 6.410156 -46.855469 C 6.410156 -46.855469 6.082031 -46.363281 6.082031 -46.035156 C 5.097656 -43.730469 2.136719 -40.113281 0.820312 -36.828125 C -1.152344 -33.539062 2.300781 -36.992188 2.300781 -36.992188 C 1.480469 -35.839844 1.316406 -34.855469 0.492188 -33.703125 C 0.328125 -33.539062 0.164062 -32.882812 0 -32.882812 C -1.152344 -32.714844 -0.820312 -31.894531 -1.152344 -31.730469 C -1.152344 -30.742188 -1.480469 -29.921875 -1.644531 -29.101562 C -2.300781 -27.785156 -1.972656 -24.003906 -2.464844 -22.03125 C -2.464844 -21.207031 -2.464844 -20.058594 -2.136719 -19.070312 C -2.136719 -16.933594 -1.316406 -14.632812 -0.492188 -12.496094 C 0.988281 -10.851562 2.628906 -9.535156 4.273438 -8.878906 C 6.742188 -7.890625 8.878906 -5.589844 11.179688 -6.410156 C 18.414062 -3.617188 29.59375 -13.480469 31.238281 -15.617188 C 36.828125 -18.90625 39.292969 -27.949219 42.746094 -34.195312 C 40.445312 -34.691406 42.253906 -36.992188 41.429688 -38.636719 C 40.9375 -37.8125 40.9375 -37.8125 40.9375 -37.648438 C 40.113281 -35.019531 38.304688 -33.046875 36.828125 -30.90625 C 28.933594 -22.523438 33.867188 -20.714844 20.222656 -15.78125 C 19.234375 -15.617188 18.414062 -15.289062 17.589844 -15.949219 C 16.605469 -16.277344 15.78125 -16.933594 15.125 -17.261719 C 14.632812 -17.921875 13.972656 -18.578125 13.808594 -19.730469 C 13.644531 -21.207031 14.304688 -29.59375 14.304688 -31.238281 C 14.46875 -34.195312 14.46875 -33.539062 15.78125 -36.828125 C 15.949219 -37.15625 16.277344 -37.648438 16.277344 -38.140625 C 16.605469 -39.785156 13.644531 -33.539062 14.304688 -35.511719 C 15.125 -36.992188 15.78125 -38.964844 16.441406 -40.445312 L 17.261719 -42.910156 C 18.578125 -45.539062 19.730469 -47.511719 20.714844 -49.652344 C 21.207031 -51.292969 21.042969 -52.445312 20.386719 -53.265625 C 19.730469 -53.925781 18.085938 -54.746094 17.589844 -55.40625 C 15.949219 -56.390625 11.835938 -53.433594 10.027344 -53.101562 C 9.535156 -52.773438 9.207031 -52.609375 8.714844 -51.953125 L 8.550781 -51.789062 C 8.054688 -51.625 7.890625 -51.789062 7.5625 -51.953125 Z M 24.660156 -71.023438 C 24.003906 -72.175781 23.179688 -72.996094 22.03125 -73.488281 C 21.371094 -73.652344 20.550781 -73.816406 19.894531 -74.148438 C 19.730469 -74.3125 19.5625 -74.148438 19.234375 -73.980469 C 18.90625 -73.816406 18.578125 -73.816406 18.578125 -74.148438 C 18.414062 -74.3125 18.085938 -74.3125 17.753906 -74.148438 C 17.425781 -74.148438 17.097656 -73.816406 16.769531 -73.488281 L 15.78125 -72.007812 C 15.289062 -71.023438 14.46875 -70.199219 14.46875 -69.214844 C 14.46875 -69.050781 13.972656 -68.722656 13.972656 -68.394531 C 13.480469 -67.570312 13.152344 -67.078125 12.824219 -66.253906 C 12.660156 -65.597656 12.332031 -65.105469 12.332031 -64.609375 L 11.835938 -63.953125 C 12.496094 -63.789062 12.988281 -63.789062 13.644531 -63.789062 C 14.140625 -63.789062 14.46875 -63.789062 14.960938 -63.460938 C 15.617188 -63.132812 16.277344 -62.96875 17.261719 -63.625 C 17.589844 -63.953125 18.085938 -64.28125 18.414062 -64.117188 C 19.234375 -64.28125 20.550781 -64.941406 20.878906 -65.433594 L 22.523438 -67.40625 C 22.851562 -67.734375 22.851562 -68.0625 22.851562 -68.226562 C 23.015625 -68.886719 23.34375 -69.214844 23.675781 -69.707031 C 24.003906 -70.035156 24.167969 -70.53125 24.660156 -71.023438 Z M 24.660156 -71.023438 "/></g></g></g></svg>