<svg xmlns="http://www.w3.org/2000/svg" xmlns:xlink="http://www.w3.org/1999/xlink" width="1080" zoomAndPan="magnify" viewBox="0 0 810 809.999993" height="1080" preserveAspectRatio="xMidYMid meet" version="1.0"><defs><g/><clipPath id="6c2794cb17"><path d="M 13 303.753906 L 797 303.753906 L 797 506.253906 L 13 506.253906 Z M 13 303.753906 " clip-rule="nonzero"/></clipPath></defs><g clip-path="url(#6c2794cb17)"><path fill="#b21111" d="M 695.578125 303.765625 L 114.421875 303.765625 C 58.511719 303.765625 13.1875 349.089844 13.1875 405 C 13.1875 460.90625 58.511719 506.234375 114.421875 506.234375 L 695.578125 506.234375 C 751.484375 506.234375 796.8125 460.90625 796.8125 405 C 796.8125 349.089844 751.484375 303.765625 695.578125 303.765625 " fill-opacity="1" fill-rule="nonzero"/></g><path fill="#ffffff" d="M 116.746094 337.027344 C 79.074219 337.027344 48.429688 367.675781 48.429688 405.34375 C 48.429688 443.011719 79.074219 473.65625 116.746094 473.65625 L 693.253906 473.65625 C 730.921875 473.65625 761.570312 443.011719 761.570312 405.34375 C 761.570312 367.675781 730.921875 337.027344 693.253906 337.027344 Z M 693.253906 480.570312 L 116.746094 480.570312 C 75.265625 480.570312 41.519531 446.820312 41.519531 405.34375 C 41.519531 363.863281 75.265625 330.121094 116.746094 330.121094 L 693.253906 330.121094 C 734.734375 330.121094 768.476562 363.863281 768.476562 405.34375 C 768.476562 446.820312 734.734375 480.570312 693.253906 480.570312 " fill-opacity="1" fill-rule="nonzero"/><path stroke-linecap="butt" transform="matrix(0.880411, 0, 0, 0.880411, 43.866361, 303.542818)" fill="none" stroke-linejoin="miter" d="M 370.460045 60.407865 C 372.252532 56.423575 373.525907 54.426993 374.275735 54.426993 L 374.706109 54.426993 C 375.575731 54.426993 377.33716 55.354294 379.994832 57.20446 C 382.652505 59.050189 383.983559 60.784997 383.983559 62.404447 C 383.983559 64.653929 376.587333 82.104054 361.79488 114.745949 C 347.002427 147.392281 338.523609 165.694281 336.358427 169.65195 C 334.193245 173.609619 332.702464 176.249544 331.894957 177.580598 C 331.087451 178.907216 329.987112 180.38025 328.602816 181.999699 C 326.11818 185.061125 323.025697 186.591837 319.329802 186.591837 C 317.825711 186.591837 316.499093 186.782622 315.341075 187.155317 C 314.187495 187.532449 313.495346 187.718797 313.26463 187.718797 C 311.414464 187.718797 310.4916 187.288423 310.4916 186.4188 C 310.4916 186.245763 310.735627 185.540304 311.228117 184.297987 C 311.71617 183.055669 318.318201 169.030791 331.029772 142.218915 C 317.453015 141.699804 305.522329 141.296051 295.237715 141.007655 C 285.356853 153.430831 276.403292 166.430798 268.36816 180.007554 C 267.387616 181.915399 266.464752 183.255327 265.595129 184.036213 C 264.729944 184.817098 263.545305 185.207541 262.045651 185.207541 C 260.541559 185.207541 258.922109 184.439966 257.191738 182.909253 C 255.45693 181.37854 254.591745 179.603801 254.591745 177.580598 C 254.591745 171.803821 262.045651 159.438324 276.949025 140.488544 C 269.960988 140.488544 265.52414 140.661581 263.647353 141.007655 C 261.770566 141.35373 260.572617 141.526767 260.049069 141.526767 C 258.491735 141.526767 257.71085 140.21346 257.71085 137.582408 C 257.71085 134.955794 259.254873 132.644196 262.347356 130.652051 C 265.43984 128.655469 269.583856 127.661615 274.783843 127.661615 C 275.187596 127.661615 275.910802 127.630557 276.949025 127.572878 C 280.533998 127.399841 284.203272 127.257862 287.956846 127.142504 C 300.553059 112.350051 313.726062 98.626878 327.475856 85.972986 C 341.22565 73.323531 353.129714 64.454271 363.183613 59.369642 C 364.798626 58.562136 366.085312 58.171693 367.039235 58.198314 C 367.993157 58.229372 369.133427 58.965889 370.460045 60.407865 Z M 364.394873 72.626946 C 343.306532 88.630658 324.037298 106.80399 306.59161 127.142504 C 316.814109 127.37322 327.156403 127.803594 337.614055 128.4425 C 348.129386 106.3115 357.056325 87.707794 364.394873 72.626946 Z M 435.588545 111.023433 C 436.600146 111.023433 437.394342 111.440497 437.971132 112.279061 C 438.547923 113.117626 438.836318 113.996122 438.836318 114.923423 C 438.836318 115.846287 438.330517 117.306011 437.318916 119.298156 C 436.307314 121.290301 434.705612 124.254115 432.509372 128.180726 C 430.313132 132.111774 427.828497 136.428828 425.055466 141.136324 C 422.282436 145.848257 419.988585 149.805926 418.169477 153.009331 C 416.345933 156.217172 413.098159 161.891902 408.417284 170.042392 C 399.002292 186.680574 391.921081 199.649483 387.186964 208.953554 C 387.41768 208.722838 388.238497 207.884274 389.653852 206.437861 C 391.069206 204.995885 392.298213 203.72251 393.336436 202.626608 C 396.402298 199.622862 398.56748 198.11877 399.836419 198.11877 C 400.240172 198.11877 400.617304 198.149828 400.963379 198.207507 C 401.309453 198.265186 401.615595 198.309554 401.872933 198.336176 C 402.134707 198.367234 402.423102 198.464844 402.742555 198.637881 C 403.057571 198.810918 403.319345 198.930713 403.519003 198.988392 C 403.723098 199.046071 403.967125 199.201361 404.259957 199.463135 C 404.548352 199.724909 404.74801 199.897946 404.863368 199.982246 C 404.978727 200.070983 405.196132 200.288389 405.515585 200.634463 C 405.830601 200.980537 406.034697 201.197943 406.118997 201.282243 C 406.207734 201.37098 406.425139 201.615007 406.771213 202.01876 C 407.117288 202.422513 407.463362 202.799645 407.809436 203.145719 C 408.15551 203.491794 408.332984 204.028652 408.332984 204.747422 C 408.332984 205.470628 407.955852 206.34025 407.206025 207.347415 C 406.45176 208.359016 405.151764 209.659013 403.306035 211.247405 C 401.455869 212.840233 400.417646 213.749787 400.182493 213.980504 C 386.086625 227.787976 377.825213 234.691713 375.398257 234.691713 C 372.971301 234.691713 370.908167 233.839838 369.19998 232.136088 C 367.49623 230.432338 366.644355 228.511183 366.644355 226.372622 C 366.644355 219.668543 376.205764 200.257331 395.333018 168.134548 C 395.621413 167.615436 395.86544 167.180625 396.069535 166.834551 C 396.269193 166.488477 396.459977 166.169024 396.633014 165.880628 C 392.586609 170.446146 387.533038 174.807568 381.463429 178.964895 C 375.398257 183.126659 370.211581 185.207541 365.907838 185.207541 C 361.604095 185.207541 358.369633 183.894234 356.200014 181.263182 C 354.034832 178.636568 352.95224 175.064905 352.95224 170.561504 C 352.95224 166.053666 354.296606 161.084395 356.980899 155.653693 C 359.669629 150.22299 363.121497 145.196041 367.336503 140.572844 C 376.006106 131.100173 384.542602 124.094389 392.945993 119.55993 C 401.353821 115.021034 408.275305 112.753804 413.706008 112.753804 C 419.13671 112.753804 422.486531 114.546291 423.75547 118.126828 C 424.509734 116.511815 425.157514 115.384855 425.707683 114.745949 C 426.257852 114.11148 427.788565 113.330594 430.299821 112.40773 C 432.815514 111.484865 434.576943 111.023433 435.588545 111.023433 Z M 419.163331 125.061622 C 418.182788 124.311794 416.767433 123.934662 414.917267 123.934662 C 411.048335 123.934662 406.163365 125.75377 400.27123 129.396423 C 394.379095 133.034639 389.69822 136.588554 386.233041 140.053733 C 382.763426 143.518912 378.952173 148.288524 374.790409 154.353696 C 370.633082 160.418868 368.5522 164.957764 368.5522 167.96151 C 368.5522 169.17277 369.102369 169.780618 370.198271 169.780618 C 372.913622 169.780618 377.909514 166.949909 385.190382 161.28849 C 392.47125 155.627071 398.407754 150.427085 402.999892 145.688531 C 407.596467 140.949976 412.982801 134.072861 419.163331 125.061622 Z M 504.958672 154.788507 C 506.05901 154.788507 506.724537 155.627071 506.955254 157.299763 C 507.18597 158.976892 507.301328 160.707263 507.301328 162.49975 C 507.301328 164.292237 507.128291 165.534554 506.782217 166.226703 C 505.105088 169.461165 501.435814 173.405524 495.774395 178.055341 C 490.112977 182.709595 484.739953 185.034504 479.655324 185.034504 C 476.53622 185.034504 473.643395 184.093892 470.985722 182.217105 C 468.32805 180.340318 467.001432 177.061487 467.001432 172.380612 C 467.001432 167.699736 468.24375 163.107598 470.728385 158.59976 C 456.397364 176.568997 445.163264 185.553615 437.012773 185.553615 C 433.77831 185.553615 431.165007 184.395597 429.172862 182.088436 C 427.17628 179.776838 426.182426 177.39425 426.182426 174.936236 C 426.182426 172.482659 426.5285 169.940345 427.220648 167.309294 C 427.912797 164.682679 428.65375 162.326713 429.430199 160.245831 C 430.211084 158.164949 431.369102 155.596014 432.899814 152.534588 C 434.430527 149.473163 435.570797 147.245865 436.320625 145.861568 C 437.070452 144.472834 438.272838 142.378642 439.918909 139.57899 C 441.56498 136.774902 443.730162 133.003581 446.418892 128.269463 C 449.103185 123.530909 451.330483 120.021362 453.091912 117.736385 C 454.853341 115.455845 456.570401 114.302264 458.24753 114.271206 C 459.924659 114.244585 461.397693 114.923423 462.666631 116.30772 C 463.940007 117.696453 464.574476 118.818976 464.574476 119.688598 C 464.574476 120.553784 462.64001 124.453774 458.766642 131.388568 C 447.328446 152.073156 441.609348 164.1192 441.609348 167.526699 C 441.609348 168.391885 441.924364 168.826696 442.563271 168.826696 C 445.336301 168.826696 452.240037 162.819203 463.27448 150.79978 C 474.308922 138.784794 480.693547 131.082425 482.428355 127.705984 C 484.158726 124.325105 485.849165 121.481085 487.495236 119.169487 C 489.145744 116.857889 490.370314 115.442534 491.182257 114.923423 C 493.666892 113.303973 496.870297 112.438788 500.801345 112.32343 C 501.435814 112.32343 501.928304 112.350051 502.274378 112.40773 C 502.620453 112.465409 503.024206 112.957899 503.485638 113.880763 C 503.94707 114.803628 504.182223 115.526834 504.182223 116.045946 C 503.658675 117.665395 501.364824 121.969138 497.291797 128.961612 C 493.21877 135.954085 490.951541 139.911754 490.485672 140.834618 C 483.670672 154.930486 480.258736 164.1192 480.258736 168.391885 C 480.258736 170.818841 481.186037 172.034537 483.031766 172.034537 C 486.386024 171.573105 490.427993 168.884375 495.166547 163.972784 C 496.901355 162.184734 498.618415 160.361189 500.322165 158.51546 C 502.025915 156.665294 503.081885 155.582703 503.485638 155.26325 C 503.889391 154.948234 504.381881 154.788507 504.958672 154.788507 Z M 558.169796 86.842608 C 558.169796 90.13475 556.639084 93.444639 553.577658 96.763402 C 550.516233 100.086601 547.321702 101.745983 543.998502 101.745983 C 540.679739 101.745983 539.015921 100.015612 539.015921 96.550433 C 539.015921 93.080817 540.475644 89.775365 543.395091 86.625203 C 546.3101 83.47504 549.531252 81.899959 553.058547 81.899959 C 554.615881 81.899959 555.858198 82.33477 556.7855 83.199956 C 557.708364 84.069578 558.169796 85.280838 558.169796 86.842608 Z M 544.131608 162.49975 C 544.131608 164.234558 543.95857 165.476875 543.612496 166.226703 C 540.77735 172.003479 536.273949 176.671044 530.088982 180.22496 C 523.908452 183.774439 518.535428 185.553615 513.969911 185.553615 C 509.408831 185.553615 505.477783 184.022902 502.185641 180.961477 C 498.8935 177.900051 497.242992 174.77651 497.242992 171.599726 C 497.242992 168.422943 498.835821 163.799746 502.012604 157.734575 C 505.189388 151.669403 508.366171 146.061226 511.542955 140.918919 C 514.724175 135.776611 516.312567 132.99027 516.312567 132.555459 C 516.312567 132.125085 515.718029 131.27321 514.533391 129.999834 C 513.348752 128.730896 512.758651 127.790284 512.758651 127.182435 C 512.758651 126.579024 513.956601 124.990632 516.352499 122.41726 C 518.752834 119.848325 521.667843 117.306011 525.106401 114.790317 C 528.544959 112.279061 531.17601 111.023433 532.995118 111.023433 C 534.814226 111.023433 536.446986 111.830939 537.888962 113.445952 C 539.335374 115.065402 540.058581 116.538436 540.058581 117.86949 C 540.058581 119.196108 533.181465 131.703584 519.431672 155.391918 C 519.258635 155.74243 518.779455 156.505567 518.003006 157.690206 C 517.222121 158.874845 516.614273 159.855388 516.179462 160.636273 C 515.749087 161.417159 515.243287 162.357771 514.666496 163.453672 C 513.508479 165.76527 512.931689 167.699736 512.931689 169.261507 C 512.931689 171.222594 514.258306 172.207574 516.915979 172.207574 C 519.573651 172.207574 522.333371 171.298021 525.195138 169.478913 C 528.052468 167.655368 530.523793 165.649912 532.604675 163.453672 C 538.035378 157.619216 541.127861 154.69977 541.877689 154.69977 C 543.377343 154.69977 544.131608 157.299763 544.131608 162.49975 Z M 544.131608 162.49975 " stroke="#ffffff" stroke-width="8.87455" stroke-opacity="1" stroke-miterlimit="4"/><g fill="#b21111" fill-opacity="1"><g transform="translate(263.4326, 463.777609)"><g><path d="M 106.59375 -107.046875 C 108.164062 -110.554688 109.285156 -112.3125 109.953125 -112.3125 L 110.328125 -112.3125 C 111.097656 -112.3125 112.648438 -111.5 114.984375 -109.875 C 117.328125 -108.25 118.5 -106.722656 118.5 -105.296875 C 118.5 -103.316406 111.988281 -87.953125 98.96875 -59.203125 C 85.945312 -30.460938 78.476562 -14.347656 76.5625 -10.859375 C 74.65625 -7.378906 73.347656 -5.054688 72.640625 -3.890625 C 71.929688 -2.722656 70.960938 -1.425781 69.734375 0 C 67.546875 2.695312 64.828125 4.046875 61.578125 4.046875 C 60.253906 4.046875 59.082031 4.207031 58.0625 4.53125 C 57.050781 4.863281 56.441406 5.03125 56.234375 5.03125 C 54.609375 5.03125 53.796875 4.648438 53.796875 3.890625 C 53.796875 3.734375 54.007812 3.109375 54.4375 2.015625 C 54.875 0.921875 60.6875 -11.421875 71.875 -35.015625 C 59.914062 -35.472656 49.410156 -35.832031 40.359375 -36.09375 C 31.660156 -25.15625 23.773438 -13.707031 16.703125 -1.75 C 15.835938 -0.0703125 15.023438 1.109375 14.265625 1.796875 C 13.503906 2.484375 12.460938 2.828125 11.140625 2.828125 C 9.816406 2.828125 8.390625 2.148438 6.859375 0.796875 C 5.335938 -0.546875 4.578125 -2.109375 4.578125 -3.890625 C 4.578125 -8.972656 11.140625 -19.859375 24.265625 -36.546875 C 18.109375 -36.546875 14.203125 -36.394531 12.546875 -36.09375 C 10.898438 -35.789062 9.847656 -35.640625 9.390625 -35.640625 C 8.015625 -35.640625 7.328125 -36.796875 7.328125 -39.109375 C 7.328125 -41.421875 8.6875 -43.453125 11.40625 -45.203125 C 14.125 -46.960938 17.773438 -47.84375 22.359375 -47.84375 C 22.710938 -47.84375 23.347656 -47.867188 24.265625 -47.921875 C 27.421875 -48.066406 30.648438 -48.191406 33.953125 -48.296875 C 45.046875 -61.316406 56.644531 -73.394531 68.75 -84.53125 C 80.851562 -95.675781 91.332031 -103.488281 100.1875 -107.96875 C 101.613281 -108.675781 102.742188 -109.015625 103.578125 -108.984375 C 104.421875 -108.960938 105.425781 -108.316406 106.59375 -107.046875 Z M 101.25 -96.296875 C 82.6875 -82.203125 65.722656 -66.203125 50.359375 -48.296875 C 59.359375 -48.097656 68.460938 -47.71875 77.671875 -47.15625 C 86.929688 -66.632812 94.789062 -83.015625 101.25 -96.296875 Z M 101.25 -96.296875 "/></g></g></g><g fill="#b21111" fill-opacity="1"><g transform="translate(355.219618, 463.777609)"><g><path d="M 72.140625 -62.484375 C 73.035156 -62.484375 73.734375 -62.113281 74.234375 -61.375 C 74.742188 -60.644531 75 -59.875 75 -59.0625 C 75 -58.25 74.550781 -56.960938 73.65625 -55.203125 C 72.769531 -53.453125 71.359375 -50.84375 69.421875 -47.375 C 67.492188 -43.914062 65.304688 -40.113281 62.859375 -35.96875 C 60.421875 -31.820312 58.398438 -28.335938 56.796875 -25.515625 C 55.203125 -22.691406 52.34375 -17.695312 48.21875 -10.53125 C 39.925781 4.113281 33.695312 15.535156 29.53125 23.734375 C 29.726562 23.523438 30.453125 22.785156 31.703125 21.515625 C 32.953125 20.242188 34.035156 19.125 34.953125 18.15625 C 37.640625 15.507812 39.546875 14.1875 40.671875 14.1875 C 41.023438 14.1875 41.351562 14.210938 41.65625 14.265625 C 41.96875 14.316406 42.238281 14.351562 42.46875 14.375 C 42.695312 14.40625 42.945312 14.492188 43.21875 14.640625 C 43.5 14.796875 43.726562 14.898438 43.90625 14.953125 C 44.082031 15.003906 44.296875 15.144531 44.546875 15.375 C 44.804688 15.601562 44.988281 15.753906 45.09375 15.828125 C 45.195312 15.910156 45.390625 16.101562 45.671875 16.40625 C 45.953125 16.707031 46.128906 16.894531 46.203125 16.96875 C 46.273438 17.050781 46.460938 17.269531 46.765625 17.625 C 47.078125 17.976562 47.382812 18.304688 47.6875 18.609375 C 47.988281 18.921875 48.140625 19.394531 48.140625 20.03125 C 48.140625 20.664062 47.804688 21.425781 47.140625 22.3125 C 46.484375 23.207031 45.34375 24.351562 43.71875 25.75 C 42.09375 27.144531 41.175781 27.945312 40.96875 28.15625 C 28.5625 40.3125 21.289062 46.390625 19.15625 46.390625 C 17.019531 46.390625 15.195312 45.640625 13.6875 44.140625 C 12.1875 42.640625 11.4375 40.945312 11.4375 39.0625 C 11.4375 33.164062 19.859375 16.078125 36.703125 -12.203125 C 36.953125 -12.660156 37.164062 -13.039062 37.34375 -13.34375 C 37.519531 -13.65625 37.6875 -13.9375 37.84375 -14.1875 C 34.28125 -10.175781 29.828125 -6.335938 24.484375 -2.671875 C 19.148438 0.992188 14.585938 2.828125 10.796875 2.828125 C 7.003906 2.828125 4.15625 1.671875 2.25 -0.640625 C 0.34375 -2.960938 -0.609375 -6.101562 -0.609375 -10.0625 C -0.609375 -14.03125 0.570312 -18.40625 2.9375 -23.1875 C 5.300781 -27.976562 8.34375 -32.40625 12.0625 -36.46875 C 19.6875 -44.8125 27.195312 -50.976562 34.59375 -54.96875 C 42 -58.96875 48.09375 -60.96875 52.875 -60.96875 C 57.65625 -60.96875 60.609375 -59.390625 61.734375 -56.234375 C 62.390625 -57.660156 62.957031 -58.648438 63.4375 -59.203125 C 63.925781 -59.765625 65.273438 -60.453125 67.484375 -61.265625 C 69.703125 -62.078125 71.253906 -62.484375 72.140625 -62.484375 Z M 57.6875 -50.125 C 56.820312 -50.789062 55.570312 -51.125 53.9375 -51.125 C 50.53125 -51.125 46.234375 -49.519531 41.046875 -46.3125 C 35.859375 -43.113281 31.738281 -39.988281 28.6875 -36.9375 C 25.632812 -33.882812 22.273438 -29.6875 18.609375 -24.34375 C 14.953125 -19 13.125 -15.003906 13.125 -12.359375 C 13.125 -11.296875 13.609375 -10.765625 14.578125 -10.765625 C 16.960938 -10.765625 21.359375 -13.253906 27.765625 -18.234375 C 34.179688 -23.222656 39.410156 -27.800781 43.453125 -31.96875 C 47.492188 -36.144531 52.238281 -42.195312 57.6875 -50.125 Z M 57.6875 -50.125 "/></g></g></g><g fill="#b21111" fill-opacity="1"><g transform="translate(419.081411, 463.777609)"><g><path d="M 69.359375 -23.953125 C 70.328125 -23.953125 70.910156 -23.210938 71.109375 -21.734375 C 71.316406 -20.265625 71.421875 -18.738281 71.421875 -17.15625 C 71.421875 -15.582031 71.265625 -14.492188 70.953125 -13.890625 C 69.484375 -11.035156 66.253906 -7.5625 61.265625 -3.46875 C 56.285156 0.625 51.554688 2.671875 47.078125 2.671875 C 44.328125 2.671875 41.78125 1.84375 39.4375 0.1875 C 37.101562 -1.457031 35.9375 -4.34375 35.9375 -8.46875 C 35.9375 -12.59375 37.03125 -16.632812 39.21875 -20.59375 C 26.601562 -4.78125 16.707031 3.125 9.53125 3.125 C 6.6875 3.125 4.382812 2.109375 2.625 0.078125 C 0.875 -1.953125 0 -4.050781 0 -6.21875 C 0 -8.382812 0.300781 -10.625 0.90625 -12.9375 C 1.519531 -15.25 2.171875 -17.320312 2.859375 -19.15625 C 3.546875 -20.988281 4.5625 -23.25 5.90625 -25.9375 C 7.257812 -28.632812 8.265625 -30.59375 8.921875 -31.8125 C 9.585938 -33.039062 10.644531 -34.882812 12.09375 -37.34375 C 13.539062 -39.8125 15.445312 -43.128906 17.8125 -47.296875 C 20.175781 -51.472656 22.132812 -54.566406 23.6875 -56.578125 C 25.238281 -58.585938 26.75 -59.601562 28.21875 -59.625 C 29.695312 -59.65625 30.992188 -59.054688 32.109375 -57.828125 C 33.234375 -56.609375 33.796875 -55.617188 33.796875 -54.859375 C 33.796875 -54.097656 32.09375 -50.664062 28.6875 -44.5625 C 18.613281 -26.351562 13.578125 -15.75 13.578125 -12.75 C 13.578125 -11.976562 13.859375 -11.59375 14.421875 -11.59375 C 16.859375 -11.59375 22.9375 -16.882812 32.65625 -27.46875 C 42.375 -38.050781 47.992188 -44.828125 49.515625 -47.796875 C 51.046875 -50.773438 52.535156 -53.28125 53.984375 -55.3125 C 55.429688 -57.351562 56.507812 -58.601562 57.21875 -59.0625 C 59.40625 -60.476562 62.234375 -61.238281 65.703125 -61.34375 C 66.253906 -61.34375 66.679688 -61.316406 66.984375 -61.265625 C 67.296875 -61.210938 67.65625 -60.78125 68.0625 -59.96875 C 68.46875 -59.15625 68.671875 -58.519531 68.671875 -58.0625 C 68.210938 -56.632812 66.1875 -52.84375 62.59375 -46.6875 C 59.007812 -40.539062 57.015625 -37.0625 56.609375 -36.25 C 50.609375 -23.832031 47.609375 -15.742188 47.609375 -11.984375 C 47.609375 -9.847656 48.421875 -8.78125 50.046875 -8.78125 C 53.003906 -9.1875 56.566406 -11.550781 60.734375 -15.875 C 62.265625 -17.445312 63.78125 -19.046875 65.28125 -20.671875 C 66.78125 -22.304688 67.707031 -23.257812 68.0625 -23.53125 C 68.414062 -23.8125 68.847656 -23.953125 69.359375 -23.953125 Z M 69.359375 -23.953125 "/></g></g></g><g fill="#b21111" fill-opacity="1"><g transform="translate(480.883139, 463.777609)"><g><path d="M 54.40625 -83.78125 C 54.40625 -80.882812 53.054688 -77.972656 50.359375 -75.046875 C 47.660156 -72.117188 44.847656 -70.65625 41.921875 -70.65625 C 39.003906 -70.65625 37.546875 -72.179688 37.546875 -75.234375 C 37.546875 -78.285156 38.828125 -81.195312 41.390625 -83.96875 C 43.960938 -86.738281 46.800781 -88.125 49.90625 -88.125 C 51.28125 -88.125 52.375 -87.742188 53.1875 -86.984375 C 54 -86.222656 54.40625 -85.15625 54.40625 -83.78125 Z M 42.046875 -17.171875 C 42.046875 -15.640625 41.890625 -14.546875 41.578125 -13.890625 C 39.085938 -8.796875 35.117188 -4.6875 29.671875 -1.5625 C 24.234375 1.5625 19.503906 3.125 15.484375 3.125 C 11.472656 3.125 8.015625 1.78125 5.109375 -0.90625 C 2.210938 -3.601562 0.765625 -6.351562 0.765625 -9.15625 C 0.765625 -11.957031 2.160156 -16.023438 4.953125 -21.359375 C 7.753906 -26.703125 10.550781 -31.632812 13.34375 -36.15625 C 16.144531 -40.6875 17.546875 -43.144531 17.546875 -43.53125 C 17.546875 -43.914062 17.023438 -44.664062 15.984375 -45.78125 C 14.941406 -46.894531 14.421875 -47.71875 14.421875 -48.25 C 14.421875 -48.789062 15.472656 -50.191406 17.578125 -52.453125 C 19.691406 -54.722656 22.257812 -56.960938 25.28125 -59.171875 C 28.3125 -61.378906 30.628906 -62.484375 32.234375 -62.484375 C 33.835938 -62.484375 35.273438 -61.769531 36.546875 -60.34375 C 37.816406 -58.925781 38.453125 -57.628906 38.453125 -56.453125 C 38.453125 -55.285156 32.398438 -44.273438 20.296875 -23.421875 C 20.140625 -23.117188 19.71875 -22.445312 19.03125 -21.40625 C 18.34375 -20.363281 17.804688 -19.5 17.421875 -18.8125 C 17.046875 -18.125 16.601562 -17.296875 16.09375 -16.328125 C 15.082031 -14.296875 14.578125 -12.59375 14.578125 -11.21875 C 14.578125 -9.488281 15.742188 -8.625 18.078125 -8.625 C 20.421875 -8.625 22.847656 -9.421875 25.359375 -11.015625 C 27.878906 -12.617188 30.054688 -14.390625 31.890625 -16.328125 C 36.671875 -21.460938 39.394531 -24.03125 40.0625 -24.03125 C 41.382812 -24.03125 42.046875 -21.742188 42.046875 -17.171875 Z M 42.046875 -17.171875 "/></g></g></g></svg>