<svg xmlns="http://www.w3.org/2000/svg" xmlns:xlink="http://www.w3.org/1999/xlink" width="500" zoomAndPan="magnify" viewBox="0 0 375 374.999991" height="500" preserveAspectRatio="xMidYMid meet" version="1.0"><defs><clipPath id="f0fcc3df36"><path d="M 4 60.359375 L 182 60.359375 L 182 314.609375 L 4 314.609375 Z M 4 60.359375 " clip-rule="nonzero"/></clipPath><clipPath id="64f3210195"><path d="M 194 60.359375 L 372 60.359375 L 372 314.609375 L 194 314.609375 Z M 194 60.359375 " clip-rule="nonzero"/></clipPath></defs><g clip-path="url(#f0fcc3df36)"><path fill="#b21100" d="M 29.789062 307.125 L 27.46875 294.953125 C 85.4375 284.902344 122.496094 250.933594 137.734375 193.9375 C 137.621094 193.824219 137.503906 193.796875 137.363281 193.796875 C 134.441406 193.796875 124.417969 216.222656 85.921875 216.222656 C -15.980469 216.222656 -11.054688 68.035156 91.421875 68.035156 C 207.074219 68.035156 216.007812 282.4375 29.789062 307.125 Z M 91.421875 60.988281 C 34.628906 60.988281 4.925781 103.234375 4.925781 144.960938 C 4.925781 165.613281 12.117188 184.773438 25.148438 198.894531 C 39.867188 214.847656 60.890625 223.296875 85.921875 223.296875 C 102.765625 223.296875 114.707031 219.34375 123.214844 214.558594 C 105.683594 255.199219 73.179688 279.859375 26.265625 288.023438 C 24.402344 288.339844 22.742188 289.398438 21.652344 290.945312 C 20.59375 292.492188 20.191406 294.410156 20.535156 296.273438 L 22.855469 308.414062 C 23.484375 311.792969 26.4375 314.171875 29.757812 314.171875 C 30.074219 314.171875 30.390625 314.144531 30.703125 314.113281 C 140.511719 299.535156 185.820312 221.261719 181.441406 154.699219 C 177.800781 99.539062 140.769531 60.988281 91.421875 60.988281 " fill-opacity="1" fill-rule="nonzero"/></g><g clip-path="url(#64f3210195)"><path fill="#b21100" d="M 219.644531 307.125 L 217.328125 294.953125 C 314.074219 278.171875 327.738281 194.023438 327.019531 193.652344 C 313.53125 209.261719 294.285156 216.363281 275.066406 216.363281 C 255.648438 216.363281 236.230469 209.117188 222.824219 195.972656 C 194.929688 169.792969 193.410156 120.015625 224.574219 90.03125 C 239.925781 75.507812 260.546875 67.863281 281.222656 67.863281 C 303.078125 67.863281 325.015625 76.425781 340.910156 94.382812 C 391.804688 153.925781 363.996094 287.996094 219.644531 307.125 Z M 346.265625 89.800781 C 329.710938 71.070312 306.628906 60.816406 281.222656 60.816406 C 258.339844 60.816406 235.941406 69.609375 219.730469 84.933594 C 203.292969 100.710938 194.355469 122.050781 194.5 145.046875 C 194.644531 166.785156 203.207031 187.238281 217.984375 201.097656 C 232.449219 215.246094 253.269531 223.410156 275.066406 223.410156 C 289.328125 223.410156 302.617188 219.945312 314.015625 213.414062 C 303.992188 237.789062 278.417969 277.195312 216.125 288.023438 C 214.261719 288.339844 212.601562 289.398438 211.542969 290.945312 C 210.453125 292.492188 210.050781 294.410156 210.394531 296.273438 L 212.714844 308.414062 C 213.34375 311.792969 216.296875 314.171875 219.617188 314.171875 C 219.933594 314.171875 220.246094 314.144531 220.5625 314.113281 C 289.5 304.976562 341.113281 268.261719 362.132812 213.355469 C 379.03125 169.335938 372.789062 120.820312 346.265625 89.800781 " fill-opacity="1" fill-rule="nonzero"/></g></svg>