<svg xmlns="http://www.w3.org/2000/svg" xmlns:xlink="http://www.w3.org/1999/xlink" width="500" zoomAndPan="magnify" viewBox="0 0 375 374.999991" height="500" preserveAspectRatio="xMidYMid meet" version="1.0"><defs><clipPath id="6783391fed"><path d="M 10.246094 179 L 139 179 L 139 365.605469 L 10.246094 365.605469 Z M 10.246094 179 " clip-rule="nonzero"/></clipPath><clipPath id="079fff977b"><path d="M 182 10 L 364.996094 10 L 364.996094 139 L 182 139 Z M 182 10 " clip-rule="nonzero"/></clipPath></defs><path fill="#b21111" d="M 125.859375 85.449219 C 125.859375 89.382812 122.664062 92.578125 118.730469 92.578125 L 88.84375 92.578125 L 92.898438 88.542969 L 125.859375 55.695312 Z M 166.6875 40.976562 L 130.179688 40.976562 C 130.148438 40.976562 130.121094 40.984375 130.089844 40.984375 C 129.839844 40.992188 129.59375 41.007812 129.347656 41.054688 C 129.328125 41.058594 129.304688 41.066406 129.285156 41.070312 C 129.058594 41.121094 128.835938 41.191406 128.621094 41.273438 C 128.546875 41.304688 128.476562 41.335938 128.402344 41.371094 C 128.238281 41.449219 128.078125 41.53125 127.917969 41.628906 C 127.855469 41.671875 127.789062 41.703125 127.722656 41.746094 C 127.519531 41.894531 127.316406 42.050781 127.132812 42.234375 L 75.34375 93.839844 C 75.160156 94.019531 75.003906 94.222656 74.855469 94.433594 C 74.8125 94.496094 74.773438 94.5625 74.738281 94.625 C 74.636719 94.785156 74.546875 94.949219 74.472656 95.117188 C 74.441406 95.191406 74.410156 95.257812 74.378906 95.324219 C 74.289062 95.5625 74.210938 95.796875 74.164062 96.042969 C 74.160156 96.046875 74.160156 96.054688 74.160156 96.058594 C 74.109375 96.304688 74.085938 96.554688 74.082031 96.808594 C 74.082031 96.839844 74.074219 96.867188 74.074219 96.898438 L 74.074219 169.144531 C 74.074219 171.53125 76.007812 173.464844 78.394531 173.464844 C 80.777344 173.464844 82.710938 171.53125 82.710938 169.144531 L 82.710938 101.214844 L 118.730469 101.214844 C 127.425781 101.214844 134.496094 94.144531 134.496094 85.449219 L 134.496094 49.613281 L 166.6875 49.613281 C 169.074219 49.613281 171.007812 47.675781 171.007812 45.292969 C 171.007812 42.90625 169.074219 40.976562 166.6875 40.976562 " fill-opacity="1" fill-rule="nonzero"/><path fill="#b21111" d="M 333.261719 202.902344 C 335.433594 199.796875 338.328125 197.167969 341.621094 195.292969 L 347.738281 191.828125 L 346.441406 198.820312 C 345.773438 202.453125 344.359375 205.828125 342.242188 208.855469 L 309.222656 256.078125 L 244.472656 348.671875 C 243.652344 349.851562 242.417969 350.640625 241 350.890625 C 239.585938 351.144531 238.15625 350.828125 236.976562 350 C 235.796875 349.175781 235.011719 347.941406 234.757812 346.523438 C 234.507812 345.109375 234.824219 343.679688 235.648438 342.5 Z M 119.300781 325.003906 C 116.914062 325.003906 114.984375 326.933594 114.984375 329.320312 C 114.984375 331.703125 116.914062 333.640625 119.300781 333.640625 L 231.308594 333.640625 L 228.570312 337.550781 C 226.425781 340.621094 225.601562 344.34375 226.253906 348.03125 C 226.910156 351.722656 228.957031 354.933594 232.027344 357.078125 C 234.464844 358.785156 237.265625 359.601562 240.042969 359.601562 C 244.46875 359.601562 248.832031 357.519531 251.550781 353.621094 L 308.484375 272.207031 L 308.484375 316.683594 C 308.484375 321.269531 304.753906 325.003906 300.164062 325.003906 L 286.101562 325.003906 C 283.714844 325.003906 281.78125 326.933594 281.78125 329.320312 C 281.78125 331.703125 283.714844 333.640625 286.101562 333.640625 L 300.164062 333.640625 C 309.515625 333.640625 317.125 326.03125 317.125 316.683594 L 317.125 259.851562 L 349.320312 213.808594 C 352.148438 209.757812 354.039062 205.246094 354.9375 200.390625 L 357.914062 184.277344 C 358.222656 182.625 357.542969 180.949219 356.171875 179.976562 C 354.804688 178.996094 352.996094 178.90625 351.539062 179.734375 L 337.359375 187.78125 C 332.949219 190.285156 329.089844 193.800781 326.1875 197.953125 L 317.125 210.914062 L 317.125 115.003906 C 317.125 112.621094 315.1875 110.683594 312.804688 110.683594 C 310.417969 110.683594 308.484375 112.621094 308.484375 115.003906 L 308.484375 220.828125 C 308.484375 221.488281 308.640625 222.105469 308.90625 222.664062 L 237.347656 325.003906 L 119.300781 325.003906 " fill-opacity="1" fill-rule="nonzero"/><g clip-path="url(#6783391fed)"><path fill="#b21111" d="M 25.820312 318.140625 L 93.039062 332.09375 L 87.125 356.554688 C 75.957031 355.179688 42.429688 350.652344 20.285156 343.421875 Z M 22.558594 235.558594 C 22.363281 233.207031 23.359375 230.925781 25.230469 229.453125 L 26 228.84375 C 27.117188 234.980469 29.25 243.910156 33.121094 252.238281 C 33.855469 253.808594 35.410156 254.738281 37.039062 254.738281 C 37.648438 254.738281 38.269531 254.605469 38.859375 254.332031 C 41.019531 253.328125 41.960938 250.761719 40.953125 248.597656 C 34.964844 235.722656 33.511719 220.585938 33.5 220.433594 C 33.496094 220.40625 33.488281 220.382812 33.488281 220.359375 C 33.476562 220.308594 33.484375 220.261719 33.472656 220.210938 C 33.464844 220.148438 32.570312 213.925781 32.175781 206.40625 C 32.046875 204.007812 33.113281 201.730469 35.019531 200.316406 L 39.097656 197.285156 C 39.738281 207.855469 41.761719 226.394531 48.136719 241.097656 C 48.84375 242.726562 50.433594 243.699219 52.101562 243.699219 C 52.675781 243.699219 53.257812 243.582031 53.820312 243.34375 C 56.007812 242.394531 57.011719 239.851562 56.0625 237.660156 C 48.859375 221.054688 47.671875 198.097656 47.476562 191.0625 L 50.089844 189.121094 C 51.871094 187.800781 53.636719 188.347656 54.3125 188.648438 C 54.988281 188.945312 56.582031 189.875 56.808594 192.078125 L 57.003906 193.980469 C 57.105469 195.144531 58.871094 215.574219 63.507812 232.996094 C 64.015625 234.929688 65.765625 236.207031 67.675781 236.207031 C 68.042969 236.207031 68.414062 236.160156 68.785156 236.0625 C 71.09375 235.449219 72.464844 233.082031 71.851562 230.777344 C 68.367188 217.679688 66.535156 202.316406 65.886719 196.074219 L 71.882812 192.957031 C 73.113281 192.316406 74.203125 192.742188 74.613281 192.957031 C 75.023438 193.167969 76.003906 193.816406 76.191406 195.199219 C 78.078125 209.25 81.332031 229.042969 86.140625 243.542969 C 88.445312 250.480469 93.125 256.484375 99.320312 260.433594 C 106.84375 265.238281 117.703125 271.460938 128.71875 275.332031 L 126.835938 281.445312 C 125.703125 285.117188 122.371094 287.582031 118.542969 287.585938 C 113.304688 287.59375 105.605469 287.449219 98.742188 286.71875 C 96.617188 286.5 94.652344 287.851562 94.109375 289.914062 L 85.726562 321.753906 L 34.476562 311.117188 L 38.316406 291.785156 C 39.207031 287.300781 38.433594 282.660156 36.144531 278.71875 C 31.796875 271.242188 24.242188 255.691406 22.558594 235.558594 Z M 13.773438 350.316406 C 41.003906 360.179688 87.972656 365.371094 89.957031 365.585938 C 90.113281 365.605469 90.269531 365.613281 90.425781 365.613281 C 92.398438 365.613281 94.148438 364.261719 94.621094 362.304688 L 102.484375 329.785156 C 102.757812 328.648438 102.558594 327.449219 101.933594 326.457031 C 101.308594 325.472656 100.308594 324.78125 99.164062 324.542969 L 94.195312 323.511719 L 101.53125 295.644531 C 107.695312 296.128906 113.988281 296.214844 118.554688 296.222656 C 126.195312 296.214844 132.835938 291.296875 135.09375 283.988281 L 138.230469 273.804688 C 138.570312 272.699219 138.453125 271.507812 137.90625 270.488281 C 137.355469 269.46875 136.425781 268.714844 135.316406 268.390625 C 123.898438 265.046875 111.964844 258.257812 103.964844 253.15625 C 99.4375 250.265625 96.019531 245.886719 94.339844 240.824219 C 89.496094 226.226562 86.253906 205.253906 84.75 194.054688 C 84.246094 190.304688 81.945312 187.03125 78.59375 185.289062 C 75.242188 183.550781 71.246094 183.550781 67.898438 185.292969 L 64.320312 187.152344 C 63.042969 184.328125 60.761719 182.050781 57.792969 180.742188 C 53.507812 178.855469 48.703125 179.394531 44.941406 182.1875 L 29.867188 193.378906 C 25.628906 196.523438 23.269531 201.566406 23.550781 206.863281 C 23.816406 211.910156 24.285156 216.335938 24.601562 218.953125 L 19.882812 222.667969 C 15.726562 225.941406 13.507812 231.027344 13.953125 236.277344 C 15.777344 258.097656 23.964844 274.957031 28.679688 283.0625 C 29.910156 285.183594 30.324219 287.683594 29.847656 290.101562 L 26.023438 309.363281 L 23.394531 308.816406 C 21.078125 308.335938 18.804688 309.808594 18.300781 312.121094 L 11.023438 345.332031 C 10.5625 347.449219 11.738281 349.578125 13.773438 350.316406 " fill-opacity="1" fill-rule="nonzero"/></g><g clip-path="url(#079fff977b)"><path fill="#b21111" d="M 330.867188 99.429688 L 324.363281 31.085938 L 350.097656 28.351562 C 354.855469 51.144531 355.6875 84.976562 355.832031 96.226562 Z M 288.828125 95.871094 C 286.714844 96.183594 285.152344 97.996094 285.144531 100.128906 C 285.117188 107.03125 284.417969 114.695312 283.839844 119.902344 C 283.414062 123.710938 280.597656 126.753906 276.820312 127.472656 L 270.542969 128.679688 C 267.898438 117.304688 262.90625 105.824219 258.957031 97.820312 C 255.707031 91.230469 250.253906 85.917969 243.605469 82.875 C 230.167969 76.714844 211.578125 71.445312 198.34375 68.109375 C 197 67.773438 195.945312 66.835938 195.449219 65.542969 C 194.945312 64.242188 195.105469 62.832031 195.878906 61.675781 L 198.644531 57.535156 C 204.769531 58.863281 219.828125 62.371094 232.484375 67.269531 C 232.996094 67.46875 233.523438 67.566406 234.039062 67.566406 C 235.773438 67.566406 237.40625 66.515625 238.066406 64.804688 C 238.933594 62.582031 237.828125 60.078125 235.605469 59.21875 C 218.773438 52.695312 198.628906 48.695312 197.53125 48.480469 L 193.507812 47.617188 C 191.984375 47.289062 191.457031 46.101562 191.300781 45.605469 C 191.144531 45.113281 190.898438 43.839844 191.960938 42.699219 L 195.679688 38.6875 C 202.644531 39.65625 225.304688 43.335938 241.054688 52.328125 C 241.730469 52.714844 242.46875 52.898438 243.191406 52.898438 C 244.695312 52.898438 246.148438 52.117188 246.945312 50.722656 C 248.132812 48.652344 247.410156 46.011719 245.339844 44.828125 C 231.417969 36.878906 213.214844 32.839844 202.78125 31.042969 L 206.238281 27.320312 C 207.855469 25.582031 210.234375 24.773438 212.605469 25.164062 C 220.035156 26.382812 226.121094 27.953125 226.183594 27.964844 C 226.230469 27.976562 226.28125 27.980469 226.328125 27.992188 C 226.355469 28 226.378906 28.011719 226.40625 28.019531 C 226.554688 28.046875 241.390625 31.117188 253.578125 38.507812 C 254.28125 38.933594 255.050781 39.136719 255.816406 39.136719 C 257.273438 39.136719 258.699219 38.394531 259.507812 37.058594 C 260.75 35.015625 260.09375 32.359375 258.058594 31.125 C 250.207031 26.363281 241.558594 23.265625 235.585938 21.488281 L 236.273438 20.78125 C 237.941406 19.085938 240.320312 18.34375 242.636719 18.796875 C 262.460938 22.675781 277.089844 31.886719 284.046875 37.027344 C 287.710938 39.738281 292.238281 41.007812 296.796875 40.621094 L 316.429688 38.921875 L 321.390625 91.027344 Z M 353.007812 19.359375 L 319.203125 22.949219 C 316.847656 23.199219 315.136719 25.300781 315.359375 27.652344 L 315.613281 30.320312 L 296.054688 32.011719 C 293.597656 32.230469 291.15625 31.539062 289.183594 30.082031 C 281.640625 24.507812 265.78125 14.527344 244.292969 10.324219 C 239.125 9.308594 233.824219 10.957031 230.113281 14.726562 L 225.90625 19.011719 C 223.335938 18.40625 218.992188 17.457031 214 16.640625 C 208.773438 15.78125 203.503906 17.578125 199.910156 21.445312 L 185.628906 36.820312 C 182.753906 39.917969 181.796875 44.171875 183.066406 48.203125 C 184.121094 51.542969 186.519531 54.136719 189.664062 55.433594 L 188.699219 56.875 C 186.375 60.34375 185.886719 64.75 187.382812 68.644531 C 188.886719 72.539062 192.191406 75.46875 196.234375 76.484375 C 209.117188 79.734375 227.167969 84.835938 240.007812 90.722656 C 244.855469 92.945312 248.832031 96.824219 251.210938 101.640625 C 255.40625 110.152344 260.847656 122.757812 262.917969 134.472656 C 263.121094 135.613281 263.769531 136.621094 264.722656 137.277344 C 265.449219 137.777344 266.300781 138.042969 267.171875 138.042969 C 267.441406 138.042969 267.710938 138.011719 267.980469 137.960938 L 278.449219 135.960938 C 285.960938 134.519531 291.578125 128.453125 292.421875 120.859375 C 292.925781 116.351562 293.511719 110.058594 293.710938 103.878906 L 322.214844 99.640625 L 322.691406 104.6875 C 322.804688 105.851562 323.382812 106.921875 324.296875 107.652344 C 325.066406 108.269531 326.019531 108.597656 326.992188 108.597656 C 327.171875 108.597656 327.359375 108.585938 327.539062 108.5625 L 360.730469 104.308594 C 362.882812 104.035156 364.496094 102.203125 364.496094 100.03125 C 364.5 98.03125 364.488281 50.78125 357.664062 22.636719 C 357.15625 20.535156 355.15625 19.136719 353.007812 19.359375 " fill-opacity="1" fill-rule="nonzero"/></g><path fill="#b21111" d="M 169.761719 260.921875 L 218.285156 260.921875 L 218.285156 271.253906 C 218.285156 282.398438 209.21875 291.46875 198.070312 291.46875 L 189.980469 291.46875 C 178.835938 291.46875 169.761719 282.398438 169.761719 271.253906 Z M 193.035156 108.882812 C 175.152344 109.132812 158.226562 116.253906 145.355469 128.9375 C 132.488281 141.625 125.128906 158.449219 124.632812 176.320312 C 123.921875 201.804688 137.183594 225.585938 159.25 238.382812 C 160.410156 239.054688 161.125 240.328125 161.125 241.703125 L 161.125 271.253906 C 161.125 287.160156 174.070312 300.105469 189.980469 300.105469 L 198.070312 300.105469 C 213.980469 300.105469 226.921875 287.160156 226.921875 271.253906 L 226.921875 256.601562 C 226.921875 254.214844 224.988281 252.28125 222.601562 252.28125 L 207.859375 252.28125 L 207.859375 239.738281 C 207.859375 236.054688 209.628906 232.589844 212.597656 230.464844 C 219.863281 225.269531 232.523438 214.234375 235.675781 198.621094 C 235.761719 198.140625 237.746094 186.6875 233.222656 176.148438 C 230.355469 169.46875 224.683594 164.476562 217.660156 162.441406 C 210.671875 160.414062 203.289062 161.574219 197.394531 165.625 C 195.429688 166.972656 194.933594 169.660156 196.28125 171.625 C 197.632812 173.59375 200.324219 174.09375 202.289062 172.742188 C 206.039062 170.167969 210.765625 169.4375 215.257812 170.738281 C 219.789062 172.050781 223.441406 175.261719 225.285156 179.550781 C 228.761719 187.65625 227.1875 197 227.191406 197 C 224.640625 209.625 213.804688 218.984375 207.574219 223.441406 C 202.347656 227.179688 199.222656 233.269531 199.222656 239.738281 L 199.222656 252.28125 L 189.707031 252.28125 L 189.707031 239.738281 C 189.707031 233.269531 186.585938 227.175781 181.355469 223.441406 C 177.105469 220.398438 171.125 215.394531 166.785156 208.820312 C 165.46875 206.828125 162.792969 206.28125 160.800781 207.597656 C 158.8125 208.90625 158.261719 211.585938 159.574219 213.574219 C 164.644531 221.253906 171.484375 227 176.335938 230.464844 C 179.300781 232.589844 181.070312 236.054688 181.070312 239.738281 L 181.070312 252.28125 L 169.761719 252.28125 L 169.761719 241.703125 C 169.761719 237.257812 167.398438 233.125 163.582031 230.910156 C 144.261719 219.703125 132.640625 198.878906 133.265625 176.558594 C 134.160156 144.457031 161.023438 117.972656 193.152344 117.519531 C 209.609375 117.304688 225.027344 123.503906 236.703125 135.019531 C 248.378906 146.53125 254.808594 161.898438 254.808594 178.296875 C 254.808594 199.925781 243.164062 220.097656 224.414062 230.941406 C 220.632812 233.128906 218.285156 237.257812 218.285156 241.710938 C 218.285156 244.09375 220.21875 246.027344 222.601562 246.027344 C 224.988281 246.027344 226.921875 244.09375 226.921875 241.710938 C 226.921875 240.328125 227.617188 239.066406 228.738281 238.417969 C 250.148438 226.035156 263.445312 202.996094 263.445312 178.296875 C 263.445312 159.574219 256.101562 142.015625 242.765625 128.867188 C 229.433594 115.71875 211.765625 108.621094 193.035156 108.882812 " fill-opacity="1" fill-rule="nonzero"/><path fill="#b21111" d="M 75.175781 339.734375 C 74.894531 339.789062 74.625 339.878906 74.367188 339.984375 C 74.105469 340.09375 73.855469 340.222656 73.621094 340.371094 C 73.378906 340.535156 73.164062 340.71875 72.960938 340.910156 C 72.160156 341.722656 71.695312 342.835938 71.695312 343.96875 C 71.695312 345.105469 72.160156 346.226562 72.960938 347.023438 C 73.164062 347.222656 73.378906 347.402344 73.621094 347.5625 C 73.855469 347.714844 74.105469 347.84375 74.367188 347.953125 C 74.625 348.058594 74.894531 348.148438 75.175781 348.199219 C 75.453125 348.253906 75.738281 348.289062 76.015625 348.289062 C 77.148438 348.289062 78.261719 347.824219 79.074219 347.023438 C 79.871094 346.210938 80.332031 345.105469 80.332031 343.96875 C 80.332031 342.835938 79.871094 341.722656 79.074219 340.910156 C 78.070312 339.90625 76.574219 339.457031 75.175781 339.734375 " fill-opacity="1" fill-rule="nonzero"/><path fill="#b21111" d="M 348.53125 82.152344 C 348.425781 81.894531 348.28125 81.648438 348.128906 81.40625 C 347.96875 81.171875 347.789062 80.957031 347.589844 80.75 C 347.394531 80.554688 347.167969 80.375 346.933594 80.222656 C 346.707031 80.058594 346.445312 79.929688 346.191406 79.820312 C 345.929688 79.710938 345.65625 79.628906 345.378906 79.574219 C 343.976562 79.292969 342.488281 79.746094 341.480469 80.75 C 341.285156 80.957031 341.101562 81.171875 340.953125 81.40625 C 340.792969 81.648438 340.660156 81.894531 340.550781 82.152344 C 340.445312 82.410156 340.355469 82.695312 340.300781 82.964844 C 340.25 83.246094 340.21875 83.523438 340.21875 83.808594 C 340.21875 84.085938 340.25 84.375 340.300781 84.644531 C 340.355469 84.929688 340.445312 85.199219 340.550781 85.457031 C 340.660156 85.71875 340.792969 85.964844 340.953125 86.203125 C 341.101562 86.4375 341.285156 86.65625 341.480469 86.859375 C 342.289062 87.660156 343.402344 88.125 344.535156 88.125 C 344.820312 88.125 345.109375 88.105469 345.378906 88.035156 C 345.65625 87.980469 345.929688 87.910156 346.191406 87.800781 C 346.445312 87.691406 346.707031 87.550781 346.933594 87.398438 C 347.167969 87.238281 347.394531 87.054688 347.589844 86.859375 C 348.398438 86.058594 348.855469 84.949219 348.855469 83.808594 C 348.855469 83.523438 348.832031 83.246094 348.777344 82.964844 C 348.714844 82.695312 348.640625 82.410156 348.53125 82.152344 " fill-opacity="1" fill-rule="nonzero"/><path fill="#b21111" d="M 184.898438 183.425781 C 185.082031 183.695312 185.261719 183.976562 185.4375 184.277344 C 188.378906 189.230469 189.070312 195.125 187.328125 200.464844 L 187.265625 200.652344 C 186.832031 201.933594 185.691406 202.125 185.222656 202.152344 C 184.726562 202.175781 183.527344 202.101562 182.9375 200.820312 C 180.171875 194.839844 180.835938 189 184.898438 183.425781 Z M 175.097656 204.445312 C 176.902344 208.351562 180.773438 210.792969 185.078125 210.792969 C 185.277344 210.792969 185.480469 210.789062 185.683594 210.777344 C 190.183594 210.535156 194.011719 207.652344 195.441406 203.429688 L 195.542969 203.125 C 198.054688 195.4375 197.074219 186.960938 192.863281 179.867188 C 185.601562 167.632812 173.824219 168.90625 171.65625 169.253906 C 157.089844 170.527344 152.410156 183.648438 152.832031 194.542969 C 152.921875 196.925781 154.957031 198.789062 157.3125 198.6875 C 159.699219 198.597656 161.554688 196.589844 161.464844 194.207031 C 161.28125 189.5625 162 178.679688 172.542969 177.851562 C 172.722656 177.832031 172.90625 177.808594 173.085938 177.769531 C 173.125 177.765625 175.300781 177.339844 178.046875 178.171875 C 172.039062 186.324219 170.972656 195.535156 175.097656 204.445312 " fill-opacity="1" fill-rule="nonzero"/></svg>