<svg xmlns="http://www.w3.org/2000/svg" xmlns:xlink="http://www.w3.org/1999/xlink" width="500" zoomAndPan="magnify" viewBox="0 0 375 374.999991" height="500" preserveAspectRatio="xMidYMid meet" version="1.0"><defs><clipPath id="569620a37f"><path d="M 295 134 L 367.5 134 L 367.5 214 L 295 214 Z M 295 134 " clip-rule="nonzero"/></clipPath><clipPath id="44a12afca1"><path d="M 225 276 L 338 276 L 338 356.921875 L 225 356.921875 Z M 225 276 " clip-rule="nonzero"/></clipPath><clipPath id="917c1d42af"><path d="M 153 4.421875 L 243 4.421875 L 243 89 L 153 89 Z M 153 4.421875 " clip-rule="nonzero"/></clipPath><clipPath id="58ff5fef5e"><path d="M 73 283 L 135 283 L 135 356.921875 L 73 356.921875 Z M 73 283 " clip-rule="nonzero"/></clipPath></defs><path fill="#b21100" d="M 243.082031 39.808594 C 243.082031 41.839844 244.730469 43.488281 246.761719 43.488281 L 258.910156 43.488281 C 260.945312 43.488281 262.59375 41.839844 262.59375 39.808594 C 262.59375 37.773438 260.945312 36.125 258.910156 36.125 L 246.761719 36.125 C 244.730469 36.125 243.082031 37.773438 243.082031 39.808594 Z M 243.082031 39.808594 " fill-opacity="1" fill-rule="nonzero"/><path fill="#b21100" d="M 245.546875 35.070312 C 246.320312 35.070312 247.105469 34.828125 247.769531 34.324219 L 257.449219 26.988281 C 259.070312 25.757812 259.390625 23.449219 258.160156 21.828125 C 256.933594 20.207031 254.625 19.890625 253.003906 21.117188 L 243.320312 28.453125 C 241.699219 29.679688 241.382812 31.992188 242.609375 33.613281 C 243.335938 34.566406 244.433594 35.070312 245.546875 35.070312 Z M 245.546875 35.070312 " fill-opacity="1" fill-rule="nonzero"/><path fill="#b21100" d="M 257.449219 52.628906 L 247.769531 45.292969 C 246.148438 44.066406 243.839844 44.382812 242.609375 46.003906 C 241.382812 47.625 241.699219 49.9375 243.320312 51.164062 L 253.003906 58.5 C 253.667969 59.003906 254.449219 59.246094 255.222656 59.246094 C 256.335938 59.246094 257.4375 58.742188 258.164062 57.789062 C 259.390625 56.167969 259.070312 53.859375 257.449219 52.628906 Z M 257.449219 52.628906 " fill-opacity="1" fill-rule="nonzero"/><g clip-path="url(#569620a37f)"><path fill="#b21100" d="M 364.058594 136.105469 L 326.449219 136.105469 C 326.234375 135.519531 326.011719 134.933594 325.789062 134.347656 L 321.21875 136.105469 L 299.503906 136.105469 C 297.46875 136.105469 295.820312 137.753906 295.820312 139.785156 L 295.820312 189.351562 C 295.820312 191.386719 297.46875 193.035156 299.503906 193.035156 L 314.386719 193.035156 L 314.386719 209.890625 C 314.386719 211.40625 315.316406 212.769531 316.730469 213.320312 C 317.164062 213.492188 317.621094 213.574219 318.066406 213.574219 C 319.078125 213.574219 320.066406 213.15625 320.777344 212.382812 L 327.480469 205.101562 C 327.300781 206.648438 327.097656 208.195312 326.871094 209.722656 L 334.15625 210.800781 C 334.480469 208.621094 334.757812 206.40625 334.984375 204.210938 L 328.878906 203.582031 L 333.128906 198.960938 L 335.421875 199.121094 C 335.488281 198.179688 335.546875 197.226562 335.59375 196.28125 L 338.582031 193.035156 L 364.058594 193.035156 C 366.089844 193.035156 367.742188 191.386719 367.742188 189.351562 L 367.742188 139.785156 C 367.738281 137.753906 366.089844 136.105469 364.058594 136.105469 Z M 360.375 185.671875 L 336.964844 185.671875 C 335.9375 185.671875 334.953125 186.101562 334.257812 186.859375 L 321.75 200.449219 L 321.75 189.351562 C 321.75 187.320312 320.101562 185.671875 318.070312 185.671875 L 303.183594 185.671875 L 303.183594 143.46875 L 360.375 143.46875 Z M 360.375 185.671875 " fill-opacity="1" fill-rule="nonzero"/></g><path fill="#b21100" d="M 310.738281 182.167969 C 312.652344 182.863281 314.761719 181.875 315.457031 179.964844 L 317.003906 175.707031 L 325.863281 175.707031 L 327.410156 179.964844 C 327.953125 181.460938 329.367188 182.390625 330.871094 182.390625 C 331.289062 182.390625 331.710938 182.320312 332.128906 182.171875 C 334.039062 181.476562 335.027344 179.363281 334.332031 177.453125 L 334.121094 176.875 C 335.792969 180.332031 339.335938 182.722656 343.425781 182.722656 C 345.109375 182.722656 346.699219 182.320312 348.105469 181.601562 C 348.730469 182.097656 349.523438 182.390625 350.382812 182.390625 C 352.414062 182.390625 354.0625 180.742188 354.0625 178.710938 L 354.0625 152.726562 C 354.0625 150.691406 352.414062 149.042969 350.382812 149.042969 C 348.347656 149.042969 346.699219 150.691406 346.699219 152.726562 L 346.699219 162.601562 C 345.671875 162.257812 344.570312 162.070312 343.425781 162.070312 C 337.730469 162.070312 333.097656 166.703125 333.097656 172.394531 C 333.097656 173.265625 333.207031 174.109375 333.410156 174.917969 L 324.894531 151.46875 C 324.367188 150.011719 322.984375 149.042969 321.433594 149.042969 C 319.886719 149.042969 318.5 150.011719 317.972656 151.46875 L 308.535156 177.453125 C 307.839844 179.363281 308.828125 181.476562 310.738281 182.167969 Z M 343.425781 169.433594 C 345.058594 169.433594 346.386719 170.761719 346.386719 172.394531 C 346.386719 174.027344 345.058594 175.359375 343.425781 175.359375 C 341.792969 175.359375 340.460938 174.027344 340.460938 172.394531 C 340.460938 170.761719 341.792969 169.433594 343.425781 169.433594 Z M 321.433594 163.511719 L 323.1875 168.34375 L 319.679688 168.34375 Z M 321.433594 163.511719 " fill-opacity="1" fill-rule="nonzero"/><path fill="#b21100" d="M 51.398438 171.644531 L 31.085938 159.917969 C 29.945312 159.257812 28.539062 159.257812 27.402344 159.917969 C 26.261719 160.574219 25.5625 161.789062 25.5625 163.105469 L 25.5625 186.5625 C 25.5625 187.878906 26.261719 189.09375 27.402344 189.75 C 27.972656 190.082031 28.605469 190.246094 29.242188 190.246094 C 29.878906 190.246094 30.515625 190.082031 31.085938 189.75 L 51.398438 178.023438 C 52.539062 177.363281 53.238281 176.148438 53.238281 174.832031 C 53.238281 173.519531 52.539062 172.304688 51.398438 171.644531 Z M 32.925781 180.1875 L 32.925781 169.484375 L 42.195312 174.835938 Z M 32.925781 180.1875 " fill-opacity="1" fill-rule="nonzero"/><path fill="#b21100" d="M 56.476562 149.449219 L 62.886719 149.449219 L 62.886719 155.1875 L 56.476562 155.1875 Z M 56.476562 149.449219 " fill-opacity="1" fill-rule="nonzero"/><path fill="#b21100" d="M 11.136719 149.449219 L 17.542969 149.449219 L 17.542969 155.1875 L 11.136719 155.1875 Z M 11.136719 149.449219 " fill-opacity="1" fill-rule="nonzero"/><path fill="#b21100" d="M 22.472656 149.449219 L 28.878906 149.449219 L 28.878906 155.1875 L 22.472656 155.1875 Z M 22.472656 149.449219 " fill-opacity="1" fill-rule="nonzero"/><path fill="#b21100" d="M 45.144531 149.449219 L 51.550781 149.449219 L 51.550781 155.1875 L 45.144531 155.1875 Z M 45.144531 149.449219 " fill-opacity="1" fill-rule="nonzero"/><path fill="#b21100" d="M 33.808594 149.449219 L 40.214844 149.449219 L 40.214844 155.1875 L 33.808594 155.1875 Z M 33.808594 149.449219 " fill-opacity="1" fill-rule="nonzero"/><path fill="#b21100" d="M 33.808594 194.878906 L 40.214844 194.878906 L 40.214844 200.617188 L 33.808594 200.617188 Z M 33.808594 194.878906 " fill-opacity="1" fill-rule="nonzero"/><path fill="#b21100" d="M 56.476562 194.878906 L 62.886719 194.878906 L 62.886719 200.617188 L 56.476562 200.617188 Z M 56.476562 194.878906 " fill-opacity="1" fill-rule="nonzero"/><path fill="#b21100" d="M 22.472656 194.878906 L 28.878906 194.878906 L 28.878906 200.617188 L 22.472656 200.617188 Z M 22.472656 194.878906 " fill-opacity="1" fill-rule="nonzero"/><path fill="#b21100" d="M 45.144531 194.878906 L 51.550781 194.878906 L 51.550781 200.617188 L 45.144531 200.617188 Z M 45.144531 194.878906 " fill-opacity="1" fill-rule="nonzero"/><path fill="#b21100" d="M 11.136719 194.878906 L 17.542969 194.878906 L 17.542969 200.617188 L 11.136719 200.617188 Z M 11.136719 194.878906 " fill-opacity="1" fill-rule="nonzero"/><path fill="#b21100" d="M 84.214844 310.148438 C 84.214844 311.945312 85.671875 313.398438 87.46875 313.398438 L 118.582031 313.398438 C 120.375 313.398438 121.832031 311.945312 121.832031 310.148438 C 121.832031 308.351562 120.375 306.898438 118.582031 306.898438 L 87.46875 306.898438 C 85.671875 306.898438 84.214844 308.351562 84.214844 310.148438 Z M 84.214844 310.148438 " fill-opacity="1" fill-rule="nonzero"/><path fill="#b21100" d="M 118.578125 317.925781 L 87.46875 317.925781 C 85.671875 317.925781 84.214844 319.378906 84.214844 321.175781 C 84.214844 322.972656 85.671875 324.429688 87.46875 324.429688 L 118.582031 324.429688 C 120.375 324.429688 121.832031 322.972656 121.832031 321.175781 C 121.832031 319.378906 120.375 317.925781 118.578125 317.925781 Z M 118.578125 317.925781 " fill-opacity="1" fill-rule="nonzero"/><path fill="#b21100" d="M 118.578125 328.953125 L 87.46875 328.953125 C 85.671875 328.953125 84.214844 330.410156 84.214844 332.207031 C 84.214844 334.003906 85.671875 335.457031 87.46875 335.457031 L 118.582031 335.457031 C 120.375 335.457031 121.832031 334.003906 121.832031 332.207031 C 121.832031 330.410156 120.375 328.953125 118.578125 328.953125 Z M 118.578125 328.953125 " fill-opacity="1" fill-rule="nonzero"/><path fill="#b21100" d="M 118.578125 339.984375 L 87.46875 339.984375 C 85.671875 339.984375 84.214844 341.4375 84.214844 343.234375 C 84.214844 345.03125 85.671875 346.484375 87.46875 346.484375 L 118.582031 346.484375 C 120.375 346.484375 121.832031 345.03125 121.832031 343.234375 C 121.832031 341.4375 120.375 339.984375 118.578125 339.984375 Z M 118.578125 339.984375 " fill-opacity="1" fill-rule="nonzero"/><g clip-path="url(#44a12afca1)"><path fill="#b21100" d="M 335.957031 298.644531 L 323.90625 293.449219 L 327.636719 280.863281 C 328 279.636719 327.609375 278.308594 326.640625 277.476562 C 325.667969 276.640625 324.296875 276.453125 323.140625 276.996094 L 303.882812 286.007812 C 303.042969 286.402344 302.410156 287.136719 302.144531 288.027344 L 298.007812 301.980469 L 292.582031 304.519531 C 291.339844 302.394531 289.878906 300.402344 288.207031 298.570312 C 288.648438 298.15625 289.089844 297.734375 289.523438 297.316406 L 284.414062 292.011719 C 283.84375 292.5625 283.261719 293.113281 282.679688 293.65625 C 280.585938 292.160156 278.335938 290.898438 275.945312 289.886719 C 271.621094 288.058594 267.03125 287.132812 262.300781 287.132812 C 257.570312 287.132812 252.980469 288.058594 248.65625 289.886719 C 244.480469 291.652344 240.734375 294.179688 237.515625 297.398438 C 234.296875 300.617188 231.769531 304.363281 230.003906 308.539062 C 228.175781 312.863281 227.25 317.453125 227.25 322.183594 C 227.25 323.386719 227.308594 324.582031 227.429688 325.761719 C 226.695312 325.992188 225.957031 326.214844 225.226562 326.429688 L 227.296875 333.496094 C 227.84375 333.335938 228.398438 333.167969 228.949219 333 C 229.257812 333.957031 229.609375 334.898438 230.003906 335.828125 C 231.769531 340.003906 234.296875 343.753906 237.515625 346.972656 C 240.734375 350.1875 244.480469 352.714844 248.65625 354.480469 C 252.980469 356.308594 257.570312 357.238281 262.300781 357.238281 C 267.03125 357.238281 271.621094 356.308594 275.945312 354.480469 C 280.121094 352.714844 283.871094 350.1875 287.089844 346.972656 C 290.304688 343.753906 292.832031 340.003906 294.597656 335.828125 C 296.425781 331.503906 297.355469 326.914062 297.355469 322.183594 C 297.355469 318.132812 296.675781 314.179688 295.328125 310.414062 L 300.765625 307.867188 L 314.128906 313.625 C 314.539062 313.804688 314.976562 313.894531 315.414062 313.894531 C 315.886719 313.894531 316.359375 313.789062 316.792969 313.585938 L 336.050781 304.574219 C 337.207031 304.03125 337.941406 302.859375 337.921875 301.578125 C 337.902344 300.296875 337.132812 299.148438 335.957031 298.644531 Z M 282.488281 342.371094 C 277.097656 347.765625 269.925781 350.734375 262.300781 350.734375 C 254.675781 350.734375 247.503906 347.765625 242.113281 342.371094 C 236.722656 336.980469 233.75 329.8125 233.75 322.183594 C 233.75 314.558594 236.722656 307.390625 242.113281 301.996094 C 247.503906 296.605469 254.675781 293.636719 262.300781 293.636719 C 269.925781 293.636719 277.097656 296.605469 282.488281 301.996094 C 284.105469 303.613281 285.5 305.386719 286.664062 307.285156 L 281.976562 309.484375 C 281.082031 308.109375 280.042969 306.816406 278.855469 305.628906 C 274.433594 301.207031 268.554688 298.773438 262.300781 298.773438 C 256.046875 298.773438 250.167969 301.207031 245.746094 305.628906 C 241.324219 310.054688 238.890625 315.933594 238.890625 322.183594 C 238.890625 328.4375 241.324219 334.316406 245.746094 338.738281 C 250.167969 343.160156 256.046875 345.597656 262.300781 345.597656 C 268.554688 345.597656 274.433594 343.160156 278.855469 338.738281 C 283.277344 334.316406 285.714844 328.4375 285.714844 322.183594 C 285.714844 319.84375 285.371094 317.558594 284.714844 315.382812 L 289.410156 313.183594 C 290.359375 316.046875 290.851562 319.078125 290.851562 322.183594 C 290.851562 329.8125 287.878906 336.980469 282.488281 342.371094 Z M 259.605469 323.546875 C 260.15625 324.726562 261.328125 325.417969 262.550781 325.417969 C 263.011719 325.417969 263.480469 325.320312 263.925781 325.113281 L 267.40625 323.484375 C 266.828125 325.761719 264.757812 327.453125 262.300781 327.453125 C 259.398438 327.453125 257.035156 325.089844 257.035156 322.1875 C 257.035156 319.28125 259.398438 316.917969 262.300781 316.917969 C 263.195312 316.917969 264.035156 317.140625 264.773438 317.535156 L 261.171875 319.222656 C 259.542969 319.984375 258.84375 321.917969 259.605469 323.546875 Z M 262.300781 310.414062 C 255.8125 310.414062 250.53125 315.695312 250.53125 322.1875 C 250.53125 328.675781 255.8125 333.957031 262.300781 333.957031 C 268.792969 333.957031 274.074219 328.675781 274.074219 322.1875 C 274.074219 321.585938 274.027344 321 273.941406 320.425781 L 278.730469 318.183594 C 279.042969 319.464844 279.210938 320.804688 279.210938 322.1875 C 279.210938 331.507812 271.625 339.09375 262.304688 339.09375 C 252.980469 339.09375 245.394531 331.507812 245.394531 322.1875 C 245.394531 312.863281 252.980469 305.277344 262.304688 305.277344 C 267.929688 305.277344 272.921875 308.042969 276 312.28125 L 271.226562 314.515625 C 269.0625 312.007812 265.867188 310.414062 262.300781 310.414062 Z M 307.964844 291.277344 L 319.34375 285.953125 L 317.265625 292.964844 L 305.886719 298.289062 Z M 315.359375 307.078125 L 308.640625 304.179688 L 320.023438 298.855469 L 326.738281 301.75 Z M 315.359375 307.078125 " fill-opacity="1" fill-rule="nonzero"/></g><path fill="#b21100" d="M 228.429688 272.820312 C 228.429688 270.675781 226.691406 268.9375 224.546875 268.9375 L 207.289062 268.9375 L 207.289062 252.96875 L 268.207031 252.96875 C 270.351562 252.96875 272.089844 251.230469 272.089844 249.085938 L 272.089844 126.636719 C 272.089844 124.492188 270.351562 122.753906 268.207031 122.753906 L 103.730469 122.753906 C 101.585938 122.753906 99.847656 124.492188 99.847656 126.636719 L 99.847656 249.085938 C 99.847656 251.230469 101.585938 252.96875 103.730469 252.96875 L 164.652344 252.96875 L 164.652344 268.9375 L 147.394531 268.9375 C 145.25 268.9375 143.511719 270.675781 143.511719 272.820312 C 143.511719 274.964844 145.25 276.703125 147.394531 276.703125 L 224.546875 276.703125 C 226.691406 276.703125 228.429688 274.964844 228.429688 272.820312 Z M 107.613281 130.519531 L 264.328125 130.519531 L 264.328125 222.480469 L 107.613281 222.480469 Z M 199.523438 268.9375 L 172.417969 268.9375 L 172.417969 252.96875 L 199.523438 252.96875 Z M 203.40625 245.054688 L 168.535156 245.054688 C 168.164062 245.054688 167.804688 245.105469 167.464844 245.203125 L 107.613281 245.203125 L 107.613281 230.246094 L 264.328125 230.246094 L 264.328125 245.203125 L 204.476562 245.203125 C 204.136719 245.105469 203.777344 245.054688 203.40625 245.054688 Z M 203.40625 245.054688 " fill-opacity="1" fill-rule="nonzero"/><path fill="#b21100" d="M 64.917969 109.144531 L 58.78125 105.070312 C 57.617188 106.828125 56.46875 108.636719 55.378906 110.441406 L 61.679688 114.25 C 62.71875 112.535156 63.808594 110.816406 64.917969 109.144531 Z M 64.917969 109.144531 " fill-opacity="1" fill-rule="nonzero"/><path fill="#b21100" d="M 85.492188 84.582031 L 80.40625 79.257812 C 78.878906 80.714844 77.367188 82.222656 75.902344 83.742188 L 81.207031 88.847656 C 82.597656 87.40625 84.039062 85.96875 85.492188 84.582031 Z M 85.492188 84.582031 " fill-opacity="1" fill-rule="nonzero"/><path fill="#b21100" d="M 93.496094 77.484375 L 88.816406 71.796875 C 87.1875 73.140625 85.566406 74.53125 83.992188 75.9375 L 88.90625 81.425781 C 90.402344 80.085938 91.945312 78.761719 93.496094 77.484375 Z M 93.496094 77.484375 " fill-opacity="1" fill-rule="nonzero"/><path fill="#b21100" d="M 54.445312 127.796875 L 47.773438 124.679688 C 46.882812 126.59375 46.015625 128.550781 45.207031 130.5 L 52.003906 133.328125 C 52.777344 131.476562 53.597656 129.613281 54.445312 127.796875 Z M 54.445312 127.796875 " fill-opacity="1" fill-rule="nonzero"/><path fill="#b21100" d="M 78.035156 92.253906 L 72.566406 87.316406 C 71.15625 88.882812 69.753906 90.5 68.40625 92.125 L 74.074219 96.824219 C 75.355469 95.28125 76.6875 93.742188 78.035156 92.253906 Z M 78.035156 92.253906 " fill-opacity="1" fill-rule="nonzero"/><path fill="#b21100" d="M 59.335938 118.273438 L 52.914062 114.667969 C 51.878906 116.507812 50.871094 118.398438 49.917969 120.277344 L 56.484375 123.609375 C 57.394531 121.820312 58.351562 120.023438 59.335938 118.273438 Z M 59.335938 118.273438 " fill-opacity="1" fill-rule="nonzero"/><path fill="#b21100" d="M 130.046875 55.582031 L 127.242188 48.773438 C 125.296875 49.574219 123.335938 50.429688 121.421875 51.316406 L 124.511719 58 C 126.332031 57.160156 128.195312 56.347656 130.046875 55.582031 Z M 130.046875 55.582031 " fill-opacity="1" fill-rule="nonzero"/><path fill="#b21100" d="M 150.339844 48.957031 L 148.582031 41.804688 C 146.535156 42.304688 144.472656 42.859375 142.449219 43.449219 L 144.507812 50.519531 C 146.429688 49.960938 148.390625 49.433594 150.339844 48.957031 Z M 150.339844 48.957031 " fill-opacity="1" fill-rule="nonzero"/><path fill="#b21100" d="M 120.324219 60.019531 L 117.023438 53.4375 C 115.136719 54.382812 113.25 55.382812 111.40625 56.410156 L 114.984375 62.84375 C 116.738281 61.867188 118.535156 60.917969 120.324219 60.019531 Z M 120.324219 60.019531 " fill-opacity="1" fill-rule="nonzero"/><path fill="#b21100" d="M 71.160156 100.453125 L 65.34375 95.9375 C 64.050781 97.601562 62.773438 99.320312 61.550781 101.039062 L 67.550781 105.308594 C 68.714844 103.671875 69.929688 102.039062 71.160156 100.453125 Z M 71.160156 100.453125 " fill-opacity="1" fill-rule="nonzero"/><path fill="#b21100" d="M 140.070312 51.886719 L 137.78125 44.886719 C 135.78125 45.542969 133.761719 46.25 131.789062 46.988281 L 134.371094 53.886719 C 136.246094 53.183594 138.164062 52.511719 140.070312 51.886719 Z M 140.070312 51.886719 " fill-opacity="1" fill-rule="nonzero"/><path fill="#b21100" d="M 102 71.003906 L 97.753906 64.984375 C 96.035156 66.199219 94.3125 67.46875 92.640625 68.753906 L 97.132812 74.589844 C 98.722656 73.367188 100.359375 72.160156 102 71.003906 Z M 102 71.003906 " fill-opacity="1" fill-rule="nonzero"/><path fill="#b21100" d="M 110.960938 65.167969 L 107.171875 58.851562 C 105.363281 59.9375 103.554688 61.074219 101.792969 62.230469 L 105.84375 68.382812 C 107.519531 67.28125 109.238281 66.199219 110.960938 65.167969 Z M 110.960938 65.167969 " fill-opacity="1" fill-rule="nonzero"/><g clip-path="url(#917c1d42af)"><path fill="#b21100" d="M 155.761719 47.734375 C 158.21875 53.128906 163.464844 57 169.648438 57.484375 L 169.648438 79.367188 C 169.648438 84.308594 173.671875 88.332031 178.613281 88.332031 L 179.484375 88.332031 C 184.425781 88.332031 188.449219 84.308594 188.449219 79.367188 L 188.449219 57.539062 L 195.121094 57.539062 C 195.253906 57.582031 195.390625 57.617188 195.53125 57.644531 C 206.175781 59.734375 216.050781 64.691406 224.089844 71.976562 L 228.375 75.863281 C 229.066406 76.488281 229.953125 76.816406 230.847656 76.816406 C 231.351562 76.816406 231.859375 76.710938 232.339844 76.5 C 233.671875 75.910156 234.53125 74.589844 234.53125 73.132812 L 234.539062 51.386719 C 238.898438 49.851562 242.03125 45.695312 242.03125 40.816406 C 242.03125 35.9375 238.898438 31.78125 234.539062 30.246094 L 234.53125 8.390625 C 234.53125 6.933594 233.671875 5.613281 232.339844 5.023438 C 231.007812 4.433594 229.453125 4.683594 228.375 5.660156 L 224.089844 9.546875 C 216.050781 16.832031 206.175781 21.789062 195.53125 23.878906 C 195.257812 23.933594 195 24.011719 194.757812 24.121094 L 170.976562 24.121094 C 161.863281 24.121094 154.433594 31.449219 154.269531 40.523438 C 153.980469 40.582031 153.6875 40.644531 153.398438 40.707031 L 154.917969 47.910156 C 155.199219 47.851562 155.480469 47.792969 155.761719 47.734375 Z M 234.511719 40.285156 C 234.53125 40.136719 234.542969 39.984375 234.542969 39.835938 L 234.539062 36.808594 C 235.617188 37.808594 236.292969 39.234375 236.292969 40.816406 C 236.292969 42.398438 235.617188 43.824219 234.539062 44.824219 L 234.539062 41.6875 C 234.539062 41.539062 234.53125 41.386719 234.511719 41.238281 Z M 199.9375 41.6875 L 199.9375 30.445312 C 209.953125 28 219.273438 23.273438 227.167969 16.632812 L 227.175781 39.386719 C 227.15625 39.535156 227.148438 39.683594 227.148438 39.835938 L 227.148438 41.6875 C 227.148438 41.839844 227.160156 41.992188 227.175781 42.136719 L 227.167969 64.894531 C 219.273438 58.253906 209.953125 53.523438 199.9375 51.078125 Z M 181.082031 79.367188 C 181.082031 80.25 180.363281 80.96875 179.484375 80.96875 L 178.613281 80.96875 C 177.730469 80.96875 177.011719 80.25 177.011719 79.367188 L 177.011719 57.566406 L 181.082031 57.566406 Z M 170.976562 31.484375 L 192.554688 31.484375 L 192.554688 39.835938 C 192.554688 39.953125 192.5625 40.066406 192.570312 40.179688 L 192.570312 41.34375 C 192.5625 41.457031 192.554688 41.570312 192.554688 41.6875 L 192.554688 50.175781 L 170.976562 50.175781 C 165.820312 50.175781 161.628906 45.984375 161.628906 40.832031 C 161.628906 35.675781 165.820312 31.484375 170.976562 31.484375 Z M 170.976562 31.484375 " fill-opacity="1" fill-rule="nonzero"/></g><path fill="#b21100" d="M 44.1875 218.628906 L 36.984375 220.164062 C 37.429688 222.253906 37.925781 224.363281 38.460938 226.429688 L 45.589844 224.585938 C 45.082031 222.621094 44.613281 220.617188 44.1875 218.628906 Z M 44.1875 218.628906 " fill-opacity="1" fill-rule="nonzero"/><path fill="#b21100" d="M 54.503906 249.355469 L 47.835938 252.476562 C 48.738281 254.410156 49.699219 256.351562 50.6875 258.246094 L 57.214844 254.839844 C 56.277344 253.039062 55.363281 251.195312 54.503906 249.355469 Z M 54.503906 249.355469 " fill-opacity="1" fill-rule="nonzero"/><path fill="#b21100" d="M 46.84375 229.121094 L 39.78125 231.199219 C 40.382812 233.25 41.039062 235.3125 41.726562 237.332031 L 48.695312 234.953125 C 48.039062 233.035156 47.417969 231.070312 46.84375 229.121094 Z M 46.84375 229.121094 " fill-opacity="1" fill-rule="nonzero"/><path fill="#b21100" d="M 50.289062 239.382812 L 43.402344 241.992188 C 44.160156 243.988281 44.96875 245.996094 45.8125 247.960938 L 52.582031 245.058594 C 51.777344 243.191406 51.007812 241.28125 50.289062 239.382812 Z M 50.289062 239.382812 " fill-opacity="1" fill-rule="nonzero"/><path fill="#b21100" d="M 65.132812 268.207031 L 59.007812 272.296875 C 60.191406 274.070312 61.429688 275.847656 62.691406 277.570312 L 68.636719 273.222656 C 67.4375 271.582031 66.257812 269.894531 65.132812 268.207031 Z M 65.132812 268.207031 " fill-opacity="1" fill-rule="nonzero"/><path fill="#b21100" d="M 71.476562 276.980469 L 65.675781 281.515625 C 66.992188 283.199219 68.363281 284.875 69.75 286.5 L 75.351562 281.71875 C 74.03125 280.175781 72.730469 278.578125 71.476562 276.980469 Z M 71.476562 276.980469 " fill-opacity="1" fill-rule="nonzero"/><path fill="#b21100" d="M 59.460938 258.980469 L 53.046875 262.597656 C 54.09375 264.457031 55.195312 266.320312 56.324219 268.132812 L 62.578125 264.246094 C 61.507812 262.523438 60.457031 260.75 59.460938 258.980469 Z M 59.460938 258.980469 " fill-opacity="1" fill-rule="nonzero"/><path fill="#b21100" d="M 43.023438 212.515625 L 63.164062 212.515625 C 69.890625 212.515625 75.363281 207.046875 75.363281 200.320312 L 75.363281 149.347656 C 75.363281 142.625 69.890625 137.152344 63.164062 137.152344 L 48.96875 137.152344 L 43.398438 135.046875 C 43.136719 135.742188 42.875 136.449219 42.621094 137.152344 L 12.195312 137.152344 C 5.46875 137.152344 -0.00390625 142.625 -0.00390625 149.347656 L -0.00390625 200.320312 C -0.00390625 207.046875 5.46875 212.515625 12.195312 212.515625 L 35.5625 212.515625 C 35.710938 213.445312 35.867188 214.375 36.03125 215.292969 L 43.28125 213.996094 C 43.191406 213.507812 43.105469 213.011719 43.023438 212.515625 Z M 12.195312 205.152344 C 9.53125 205.152344 7.363281 202.984375 7.363281 200.320312 L 7.363281 149.347656 C 7.363281 146.683594 9.53125 144.515625 12.195312 144.515625 L 63.164062 144.515625 C 65.828125 144.515625 67.996094 146.683594 67.996094 149.347656 L 67.996094 149.445312 L 67.816406 149.445312 L 67.816406 155.183594 L 67.996094 155.183594 L 67.996094 194.875 L 67.816406 194.875 L 67.816406 200.613281 L 67.988281 200.613281 C 67.832031 203.140625 65.730469 205.152344 63.164062 205.152344 Z M 12.195312 205.152344 " fill-opacity="1" fill-rule="nonzero"/><path fill="#b21100" d="M 184.726562 332.214844 C 183.84375 332.214844 182.949219 332.207031 182.070312 332.191406 L 181.933594 339.554688 C 182.859375 339.570312 183.796875 339.578125 184.726562 339.578125 C 185.957031 339.578125 187.199219 339.5625 188.425781 339.535156 L 188.25 332.171875 C 187.082031 332.199219 185.898438 332.214844 184.726562 332.214844 Z M 184.726562 332.214844 " fill-opacity="1" fill-rule="nonzero"/><path fill="#b21100" d="M 214.636719 329.097656 L 216.160156 336.300781 C 218.269531 335.855469 220.394531 335.359375 222.484375 334.820312 L 220.648438 327.6875 C 218.664062 328.199219 216.640625 328.675781 214.636719 329.097656 Z M 214.636719 329.097656 " fill-opacity="1" fill-rule="nonzero"/><path fill="#b21100" d="M 203.871094 330.949219 L 204.84375 338.25 C 206.980469 337.964844 209.136719 337.632812 211.257812 337.253906 L 209.972656 330.003906 C 207.957031 330.363281 205.90625 330.679688 203.871094 330.949219 Z M 203.871094 330.949219 " fill-opacity="1" fill-rule="nonzero"/><path fill="#b21100" d="M 159.085938 337.410156 C 161.203125 337.773438 163.367188 338.09375 165.503906 338.367188 L 166.433594 331.0625 C 164.398438 330.804688 162.34375 330.496094 160.324219 330.152344 Z M 159.085938 337.410156 " fill-opacity="1" fill-rule="nonzero"/><path fill="#b21100" d="M 170.472656 338.914062 C 172.613281 339.113281 174.792969 339.273438 176.945312 339.378906 L 177.316406 332.027344 C 175.269531 331.921875 173.195312 331.773438 171.15625 331.582031 Z M 170.472656 338.914062 " fill-opacity="1" fill-rule="nonzero"/><path fill="#b21100" d="M 147.84375 335.042969 C 149.933594 335.566406 152.0625 336.050781 154.175781 336.484375 L 155.65625 329.273438 C 153.648438 328.859375 151.625 328.398438 149.636719 327.898438 Z M 147.84375 335.042969 " fill-opacity="1" fill-rule="nonzero"/><path fill="#b21100" d="M 192.996094 331.980469 L 193.414062 339.332031 C 195.566406 339.210938 197.742188 339.042969 199.882812 338.828125 L 199.152344 331.5 C 197.117188 331.703125 195.042969 331.863281 192.996094 331.980469 Z M 192.996094 331.980469 " fill-opacity="1" fill-rule="nonzero"/><path fill="#b21100" d="M 136.816406 331.824219 C 138.859375 332.503906 140.949219 333.152344 143.019531 333.746094 L 145.050781 326.667969 C 143.078125 326.101562 141.09375 325.488281 139.152344 324.835938 Z M 136.816406 331.824219 " fill-opacity="1" fill-rule="nonzero"/><g clip-path="url(#58ff5fef5e)"><path fill="#b21100" d="M 132.933594 302.082031 C 132.933594 301.21875 132.589844 300.394531 131.980469 299.785156 L 116.988281 284.792969 C 116.9375 284.742188 116.886719 284.695312 116.835938 284.652344 C 116.824219 284.640625 116.808594 284.628906 116.796875 284.617188 C 116.746094 284.574219 116.695312 284.535156 116.644531 284.496094 C 116.636719 284.488281 116.632812 284.484375 116.625 284.480469 C 116.570312 284.4375 116.511719 284.398438 116.453125 284.363281 C 116.4375 284.351562 116.421875 284.339844 116.402344 284.328125 C 116.351562 284.296875 116.296875 284.265625 116.242188 284.234375 C 116.234375 284.230469 116.226562 284.226562 116.222656 284.222656 C 116.160156 284.191406 116.097656 284.160156 116.035156 284.132812 C 116.019531 284.125 116 284.117188 115.984375 284.109375 C 115.921875 284.082031 115.863281 284.058594 115.804688 284.035156 C 115.796875 284.035156 115.792969 284.03125 115.789062 284.03125 C 115.722656 284.007812 115.65625 283.984375 115.589844 283.96875 C 115.574219 283.960938 115.554688 283.957031 115.539062 283.953125 C 115.476562 283.933594 115.410156 283.921875 115.347656 283.90625 C 115.34375 283.90625 115.339844 283.902344 115.332031 283.902344 C 115.265625 283.890625 115.195312 283.878906 115.125 283.867188 C 115.109375 283.867188 115.089844 283.863281 115.074219 283.863281 C 115.011719 283.855469 114.949219 283.847656 114.890625 283.84375 C 114.878906 283.84375 114.871094 283.84375 114.859375 283.84375 C 114.800781 283.839844 114.746094 283.839844 114.691406 283.839844 L 76.367188 283.839844 C 74.570312 283.839844 73.113281 285.292969 73.113281 287.089844 L 73.113281 290.128906 L 73.023438 290.210938 C 73.054688 290.246094 73.085938 290.28125 73.113281 290.3125 L 73.113281 353.957031 C 73.113281 355.753906 74.570312 357.210938 76.367188 357.210938 L 129.679688 357.210938 C 131.476562 357.210938 132.933594 355.753906 132.933594 353.957031 L 132.933594 327.941406 L 134.675781 323.257812 C 134.097656 323.042969 133.515625 322.820312 132.933594 322.597656 Z M 117.941406 294.996094 L 121.09375 298.179688 L 117.941406 298.179688 Z M 126.429688 350.707031 L 79.617188 350.707031 L 79.617188 290.34375 L 111.4375 290.34375 L 111.4375 301.433594 C 111.4375 303.230469 112.894531 304.683594 114.6875 304.683594 L 126.429688 304.683594 Z M 126.429688 350.707031 " fill-opacity="1" fill-rule="nonzero"/></g><path fill="#b21100" d="M 318.132812 242.023438 L 324.96875 244.765625 C 325.789062 242.71875 326.578125 240.628906 327.304688 238.550781 L 320.355469 236.109375 C 319.664062 238.085938 318.914062 240.078125 318.132812 242.023438 Z M 318.132812 242.023438 " fill-opacity="1" fill-rule="nonzero"/><path fill="#b21100" d="M 308.21875 262.039062 L 314.542969 265.8125 C 315.671875 263.914062 316.777344 261.972656 317.820312 260.03125 L 311.335938 256.542969 C 310.34375 258.386719 309.296875 260.234375 308.21875 262.039062 Z M 308.21875 262.039062 " fill-opacity="1" fill-rule="nonzero"/><path fill="#b21100" d="M 313.570312 252.222656 L 320.167969 255.492188 C 321.148438 253.515625 322.09375 251.492188 322.984375 249.476562 L 316.246094 246.503906 C 315.398438 248.417969 314.5 250.34375 313.570312 252.222656 Z M 313.570312 252.222656 " fill-opacity="1" fill-rule="nonzero"/><path fill="#b21100" d="M 321.886719 231.496094 L 328.917969 233.695312 C 329.574219 231.59375 330.195312 229.445312 330.761719 227.316406 L 323.640625 225.425781 C 323.105469 227.453125 322.515625 229.496094 321.886719 231.496094 Z M 321.886719 231.496094 " fill-opacity="1" fill-rule="nonzero"/><path fill="#b21100" d="M 333.324219 215.84375 L 326.078125 214.523438 C 325.703125 216.585938 325.273438 218.664062 324.804688 220.707031 L 331.984375 222.351562 C 332.476562 220.203125 332.925781 218.015625 333.324219 215.84375 Z M 333.324219 215.84375 " fill-opacity="1" fill-rule="nonzero"/><path fill="#b21100" d="M 302.125 271.40625 L 308.136719 275.660156 C 309.410156 273.859375 310.660156 272.007812 311.851562 270.15625 L 305.660156 266.167969 C 304.523438 267.929688 303.335938 269.695312 302.125 271.40625 Z M 302.125 271.40625 " fill-opacity="1" fill-rule="nonzero"/><path fill="#b21100" d="M 295.320312 280.273438 L 300.984375 284.980469 C 302.394531 283.28125 303.785156 281.53125 305.117188 279.777344 L 299.25 275.324219 C 297.984375 276.996094 296.660156 278.660156 295.320312 280.273438 Z M 295.320312 280.273438 " fill-opacity="1" fill-rule="nonzero"/><path fill="#b21100" d="M 287.851562 288.589844 L 293.136719 293.71875 C 294.671875 292.136719 296.191406 290.5 297.65625 288.851562 L 292.152344 283.960938 C 290.757812 285.527344 289.3125 287.085938 287.851562 288.589844 Z M 287.851562 288.589844 " fill-opacity="1" fill-rule="nonzero"/><path fill="#b21100" d="M 262.488281 58.976562 C 261.578125 58.429688 260.65625 57.886719 259.738281 57.363281 L 256.078125 63.75 C 256.949219 64.25 257.828125 64.765625 258.691406 65.285156 Z M 262.488281 58.976562 " fill-opacity="1" fill-rule="nonzero"/><path fill="#b21100" d="M 306.636719 112.398438 L 312.878906 108.492188 C 311.695312 106.601562 310.453125 104.714844 309.1875 102.878906 L 303.125 107.058594 C 304.328125 108.804688 305.511719 110.601562 306.636719 112.398438 Z M 306.636719 112.398438 " fill-opacity="1" fill-rule="nonzero"/><path fill="#b21100" d="M 312.246094 122.207031 L 318.777344 118.804688 C 317.75 116.828125 316.660156 114.847656 315.542969 112.917969 L 309.171875 116.609375 C 310.234375 118.445312 311.269531 120.328125 312.246094 122.207031 Z M 312.246094 122.207031 " fill-opacity="1" fill-rule="nonzero"/><path fill="#b21100" d="M 300.269531 103.0625 L 306.183594 98.675781 C 304.859375 96.886719 303.472656 95.101562 302.070312 93.371094 L 296.351562 98.011719 C 297.6875 99.660156 299.007812 101.355469 300.269531 103.0625 Z M 300.269531 103.0625 " fill-opacity="1" fill-rule="nonzero"/><path fill="#b21100" d="M 317.070312 132.425781 L 323.847656 129.550781 C 322.976562 127.5 322.050781 125.441406 321.085938 123.425781 L 314.441406 126.601562 C 315.359375 128.515625 316.242188 130.476562 317.070312 132.425781 Z M 317.070312 132.425781 " fill-opacity="1" fill-rule="nonzero"/><path fill="#b21100" d="M 277.074219 78.414062 L 281.808594 72.773438 C 280.101562 71.339844 278.339844 69.925781 276.574219 68.570312 L 272.089844 74.414062 C 273.773438 75.703125 275.453125 77.050781 277.074219 78.414062 Z M 277.074219 78.414062 " fill-opacity="1" fill-rule="nonzero"/><path fill="#b21100" d="M 285.441406 86.015625 L 290.605469 80.765625 C 289.015625 79.203125 287.367188 77.652344 285.710938 76.164062 L 280.785156 81.640625 C 282.363281 83.054688 283.929688 84.53125 285.441406 86.015625 Z M 285.441406 86.015625 " fill-opacity="1" fill-rule="nonzero"/><path fill="#b21100" d="M 272.421875 65.496094 C 270.605469 64.199219 268.738281 62.929688 266.867188 61.714844 L 262.859375 67.890625 C 264.636719 69.046875 266.414062 70.257812 268.140625 71.488281 Z M 272.421875 65.496094 " fill-opacity="1" fill-rule="nonzero"/><path fill="#b21100" d="M 293.1875 94.25 L 298.746094 89.414062 C 297.28125 87.730469 295.761719 86.0625 294.226562 84.445312 L 288.890625 89.519531 C 290.351562 91.058594 291.796875 92.648438 293.1875 94.25 Z M 293.1875 94.25 " fill-opacity="1" fill-rule="nonzero"/><path fill="#b21100" d="M 224.089844 168.460938 C 225.140625 167.511719 225.480469 166.003906 224.9375 164.695312 L 221.5625 156.546875 C 221.023438 155.238281 219.714844 154.414062 218.300781 154.484375 L 209.28125 154.945312 L 206.472656 152.136719 L 206.933594 143.117188 C 207.007812 141.703125 206.179688 140.398438 204.871094 139.855469 L 196.722656 136.480469 C 195.414062 135.9375 193.90625 136.277344 192.957031 137.328125 L 186.90625 144.03125 L 182.933594 144.03125 L 176.882812 137.328125 C 175.933594 136.277344 174.425781 135.9375 173.117188 136.480469 L 164.96875 139.855469 C 163.660156 140.398438 162.835938 141.703125 162.90625 143.117188 L 163.367188 152.136719 L 160.558594 154.945312 L 151.539062 154.484375 C 150.125 154.414062 148.820312 155.238281 148.277344 156.546875 L 144.902344 164.695312 C 144.359375 166.003906 144.699219 167.511719 145.75 168.460938 L 152.453125 174.511719 L 152.453125 178.484375 L 145.75 184.535156 C 144.699219 185.484375 144.359375 186.992188 144.902344 188.300781 L 148.277344 196.449219 C 148.820312 197.757812 150.125 198.585938 151.539062 198.511719 L 160.558594 198.050781 L 163.367188 200.859375 L 162.90625 209.878906 C 162.835938 211.292969 163.660156 212.601562 164.96875 213.140625 L 173.117188 216.519531 C 174.425781 217.058594 175.933594 216.71875 176.882812 215.667969 L 182.933594 208.964844 L 186.90625 208.964844 L 192.957031 215.667969 C 193.605469 216.386719 194.515625 216.773438 195.445312 216.773438 C 195.875 216.773438 196.308594 216.691406 196.722656 216.519531 L 204.871094 213.140625 C 206.179688 212.601562 207.007812 211.292969 206.933594 209.878906 L 206.472656 200.859375 L 209.28125 198.050781 L 218.300781 198.511719 C 219.714844 198.585938 221.023438 197.757812 221.5625 196.449219 L 224.9375 188.300781 C 225.480469 186.992188 225.140625 185.484375 224.089844 184.535156 L 217.386719 178.484375 L 217.386719 174.511719 Z M 211.796875 182.457031 L 217.851562 187.925781 L 216.28125 191.707031 L 208.136719 191.292969 C 207.191406 191.242188 206.269531 191.597656 205.601562 192.269531 L 200.6875 197.179688 C 200.015625 197.851562 199.664062 198.773438 199.710938 199.71875 L 200.125 207.863281 L 196.34375 209.433594 L 190.875 203.378906 C 190.242188 202.675781 189.339844 202.273438 188.390625 202.273438 L 181.445312 202.273438 C 180.496094 202.273438 179.59375 202.675781 178.960938 203.378906 L 173.492188 209.433594 L 169.710938 207.863281 L 170.125 199.71875 C 170.171875 198.773438 169.820312 197.851562 169.148438 197.179688 L 164.234375 192.269531 C 163.566406 191.597656 162.644531 191.242188 161.699219 191.292969 L 153.554688 191.707031 L 151.984375 187.925781 L 158.039062 182.460938 C 158.742188 181.824219 159.144531 180.921875 159.144531 179.972656 L 159.144531 173.027344 C 159.144531 172.078125 158.742188 171.175781 158.039062 170.542969 L 151.984375 165.074219 L 153.554688 161.292969 L 161.699219 161.707031 C 162.644531 161.757812 163.566406 161.402344 164.234375 160.730469 L 169.148438 155.820312 C 169.820312 155.148438 170.171875 154.226562 170.125 153.28125 L 169.710938 145.136719 L 173.492188 143.566406 L 178.960938 149.621094 C 179.59375 150.324219 180.496094 150.726562 181.445312 150.726562 L 188.390625 150.726562 C 189.339844 150.726562 190.242188 150.324219 190.875 149.621094 L 196.339844 143.566406 L 200.125 145.136719 L 199.710938 153.28125 C 199.660156 154.226562 200.015625 155.148438 200.6875 155.820312 L 205.597656 160.730469 C 206.269531 161.402344 207.191406 161.757812 208.136719 161.707031 L 216.28125 161.292969 L 217.847656 165.074219 L 211.796875 170.542969 C 211.09375 171.175781 210.691406 172.078125 210.691406 173.027344 L 210.691406 179.972656 C 210.691406 180.921875 211.09375 181.824219 211.796875 182.457031 Z M 211.796875 182.457031 " fill-opacity="1" fill-rule="nonzero"/><path fill="#b21100" d="M 184.917969 158.074219 C 174.761719 158.074219 166.496094 166.339844 166.496094 176.5 C 166.496094 186.660156 174.761719 194.921875 184.917969 194.921875 C 195.078125 194.921875 203.34375 186.65625 203.34375 176.5 C 203.34375 166.339844 195.078125 158.074219 184.917969 158.074219 Z M 184.917969 188.226562 C 178.453125 188.226562 173.191406 182.96875 173.191406 176.5 C 173.191406 170.03125 178.453125 164.769531 184.917969 164.769531 C 191.386719 164.769531 196.648438 170.03125 196.648438 176.5 C 196.648438 182.96875 191.386719 188.226562 184.917969 188.226562 Z M 184.917969 188.226562 " fill-opacity="1" fill-rule="nonzero"/></svg>