<svg xmlns="http://www.w3.org/2000/svg" xmlns:xlink="http://www.w3.org/1999/xlink" width="500" zoomAndPan="magnify" viewBox="0 0 375 374.999991" height="500" preserveAspectRatio="xMidYMid meet" version="1.0"><defs><clipPath id="11247cd0e3"><path d="M 28.15625 31 L 335 31 L 335 337.605469 L 28.15625 337.605469 Z M 28.15625 31 " clip-rule="nonzero"/></clipPath><clipPath id="f43f0e1030"><path d="M 172 20 L 346.90625 20 L 346.90625 193 L 172 193 Z M 172 20 " clip-rule="nonzero"/></clipPath></defs><path fill="#b21111" d="M 181.175781 140.226562 C 185.917969 140.226562 189.765625 136.378906 189.765625 131.636719 C 189.765625 126.894531 185.917969 123.046875 181.175781 123.046875 C 147.464844 123.046875 120.042969 150.464844 120.042969 184.179688 C 120.042969 217.894531 147.464844 245.3125 181.175781 245.3125 C 214.890625 245.3125 242.308594 217.894531 242.308594 184.179688 C 242.308594 179.4375 238.457031 175.585938 233.714844 175.585938 C 228.976562 175.585938 225.128906 179.4375 225.128906 184.179688 C 225.128906 208.410156 205.40625 228.128906 181.175781 228.128906 C 156.945312 228.128906 137.226562 208.410156 137.226562 184.179688 C 137.226562 159.945312 156.945312 140.226562 181.175781 140.226562 " fill-opacity="1" fill-rule="nonzero"/><path fill="#b21111" d="M 181.175781 78.96875 C 123.15625 78.96875 75.964844 126.167969 75.964844 184.179688 C 75.964844 242.195312 123.15625 289.398438 181.175781 289.398438 C 239.195312 289.398438 286.386719 242.195312 286.386719 184.179688 C 286.386719 179.4375 282.535156 175.585938 277.796875 175.585938 C 273.054688 175.585938 269.203125 179.4375 269.203125 184.179688 C 269.203125 232.726562 229.710938 272.21875 181.175781 272.21875 C 132.640625 272.21875 93.144531 232.726562 93.144531 184.179688 C 93.144531 135.640625 132.640625 96.148438 181.175781 96.148438 C 185.917969 96.148438 189.765625 92.308594 189.765625 87.5625 C 189.765625 82.8125 185.917969 78.96875 181.175781 78.96875 " fill-opacity="1" fill-rule="nonzero"/><g clip-path="url(#11247cd0e3)"><path fill="#b21111" d="M 325.648438 175.585938 C 320.910156 175.585938 317.058594 179.4375 317.058594 184.179688 C 317.058594 259.105469 256.101562 320.074219 181.175781 320.074219 C 106.25 320.074219 45.292969 259.105469 45.292969 184.179688 C 45.292969 109.253906 106.25 48.296875 181.175781 48.296875 C 185.917969 48.296875 189.765625 44.453125 189.765625 39.707031 C 189.765625 34.960938 185.917969 31.113281 181.175781 31.113281 C 96.777344 31.113281 28.113281 99.78125 28.113281 184.179688 C 28.113281 268.589844 96.777344 337.253906 181.175781 337.253906 C 265.578125 337.253906 334.242188 268.589844 334.242188 184.179688 C 334.242188 179.4375 330.390625 175.585938 325.648438 175.585938 " fill-opacity="1" fill-rule="nonzero"/></g><g clip-path="url(#f43f0e1030)"><path fill="#b21111" d="M 292.910156 109.601562 L 273.695312 105.007812 L 301.523438 77.175781 L 320.742188 81.769531 Z M 256.941406 73.644531 L 284.78125 45.804688 L 289.144531 64.058594 L 261.308594 91.898438 Z M 345.949219 74.640625 C 345.109375 71.652344 342.703125 69.34375 339.675781 68.621094 L 305.984375 60.566406 L 297.9375 26.867188 C 297.210938 23.839844 294.902344 21.441406 291.914062 20.59375 C 288.894531 19.777344 285.703125 20.597656 283.503906 22.785156 L 241.398438 64.886719 C 239.277344 67 238.417969 70.054688 239.109375 72.960938 L 247.046875 106.160156 L 175.101562 178.105469 C 171.746094 181.460938 171.746094 186.894531 175.101562 190.253906 C 176.78125 191.929688 178.972656 192.769531 181.175781 192.769531 C 183.378906 192.769531 185.570312 191.929688 187.25 190.253906 L 258.464844 119.042969 L 293.59375 127.441406 C 294.253906 127.597656 294.925781 127.671875 295.585938 127.671875 C 297.84375 127.671875 300.035156 126.789062 301.660156 125.152344 L 343.753906 83.054688 C 345.957031 80.855469 346.796875 77.636719 345.949219 74.640625 " fill-opacity="1" fill-rule="nonzero"/></g></svg>