<svg xmlns="http://www.w3.org/2000/svg" xmlns:xlink="http://www.w3.org/1999/xlink" width="336" zoomAndPan="magnify" viewBox="0 0 252 143.999998" height="192" preserveAspectRatio="xMidYMid meet" version="1.0"><defs><clipPath id="a7049692d6"><path d="M 6.527344 13.007812 L 245.777344 13.007812 L 245.777344 130.757812 L 6.527344 130.757812 Z M 6.527344 13.007812 " clip-rule="nonzero"/></clipPath></defs><path fill="#bb2211" d="M 79.90625 38.675781 C 81.46875 40.164062 83.195312 41.425781 85.046875 42.433594 C 83.648438 46.113281 82.878906 49.980469 82.726562 53.867188 L 73.082031 53.867188 C 73.429688 47.953125 75.972656 42.617188 79.90625 38.675781 Z M 119.964844 53.867188 L 110.320312 53.867188 C 110.171875 49.980469 109.398438 46.113281 108 42.433594 C 109.851562 41.425781 111.578125 40.164062 113.140625 38.675781 C 117.078125 42.617188 119.617188 47.953125 119.964844 53.867188 Z M 113.140625 71.835938 C 111.578125 70.347656 109.851562 69.085938 108 68.078125 C 109.398438 64.398438 110.171875 60.53125 110.320312 56.644531 L 119.964844 56.644531 C 119.617188 62.558594 117.078125 67.894531 113.140625 71.835938 Z M 95.136719 56.644531 L 95.136719 65.21875 C 92.507812 65.367188 89.960938 65.941406 87.566406 66.898438 C 86.335938 63.589844 85.648438 60.128906 85.503906 56.644531 Z M 95.136719 45.292969 L 95.136719 53.867188 L 85.503906 53.867188 C 85.648438 50.382812 86.335938 46.921875 87.566406 43.613281 C 89.960938 44.570312 92.507812 45.144531 95.136719 45.292969 Z M 86.140625 39.859375 C 84.65625 39.03125 83.265625 38.011719 81.992188 36.824219 C 84.554688 34.800781 87.546875 33.292969 90.808594 32.476562 C 88.925781 34.777344 87.371094 37.257812 86.140625 39.859375 Z M 95.136719 31.824219 L 95.136719 42.507812 C 92.886719 42.363281 90.703125 41.871094 88.648438 41.054688 C 90.222656 37.714844 92.386719 34.585938 95.136719 31.824219 Z M 102.238281 32.476562 C 105.5 33.292969 108.492188 34.800781 111.058594 36.824219 C 109.785156 38.011719 108.390625 39.03125 106.90625 39.859375 C 105.679688 37.257812 104.125 34.777344 102.238281 32.476562 Z M 97.910156 42.507812 L 97.910156 31.824219 C 100.664062 34.585938 102.824219 37.714844 104.398438 41.054688 C 102.34375 41.871094 100.164062 42.363281 97.910156 42.507812 Z M 97.910156 53.867188 L 97.910156 45.292969 C 100.539062 45.144531 103.085938 44.570312 105.480469 43.613281 C 106.710938 46.921875 107.398438 50.382812 107.542969 53.867188 Z M 97.910156 65.21875 L 97.910156 56.644531 L 107.542969 56.644531 C 107.398438 60.128906 106.710938 63.589844 105.480469 66.898438 C 103.085938 65.941406 100.539062 65.367188 97.910156 65.21875 Z M 106.90625 70.652344 C 108.390625 71.480469 109.785156 72.496094 111.058594 73.683594 C 108.492188 75.710938 105.5 77.214844 102.238281 78.035156 C 104.125 75.734375 105.679688 73.25 106.90625 70.652344 Z M 97.910156 78.6875 L 97.910156 68.003906 C 100.164062 68.144531 102.34375 68.640625 104.398438 69.457031 C 102.824219 72.796875 100.664062 75.925781 97.910156 78.6875 Z M 88.648438 69.457031 C 90.703125 68.640625 92.886719 68.144531 95.136719 68.003906 L 95.136719 78.6875 C 92.386719 75.925781 90.222656 72.796875 88.648438 69.457031 Z M 90.808594 78.035156 C 87.546875 77.214844 84.554688 75.710938 81.992188 73.683594 C 83.265625 72.496094 84.65625 71.480469 86.140625 70.652344 C 87.371094 73.25 88.925781 75.734375 90.808594 78.035156 Z M 82.726562 56.644531 C 82.878906 60.53125 83.648438 64.398438 85.046875 68.078125 C 83.195312 69.085938 81.46875 70.347656 79.90625 71.835938 C 75.972656 67.894531 73.429688 62.558594 73.082031 56.644531 Z M 96.523438 81.515625 C 111.003906 81.515625 122.785156 69.738281 122.785156 55.257812 C 122.785156 40.773438 111.003906 28.992188 96.523438 28.992188 C 82.042969 28.992188 70.261719 40.773438 70.261719 55.257812 C 70.261719 69.738281 82.042969 81.515625 96.523438 81.515625 " fill-opacity="1" fill-rule="nonzero"/><path fill="#bb2211" d="M 199.566406 97.335938 C 198.328125 96.179688 196.976562 95.207031 195.550781 94.417969 C 196.664062 91.4375 197.289062 88.3125 197.433594 85.171875 L 205.042969 85.171875 C 204.707031 89.890625 202.683594 94.144531 199.566406 97.335938 Z M 166.304688 85.171875 L 173.910156 85.171875 C 174.054688 88.3125 174.683594 91.4375 175.792969 94.417969 C 174.371094 95.207031 173.019531 96.179688 171.777344 97.335938 C 168.664062 94.144531 166.640625 89.890625 166.304688 85.171875 Z M 171.777344 70.226562 C 173.019531 71.386719 174.371094 72.359375 175.792969 73.144531 C 174.683594 76.128906 174.054688 79.253906 173.910156 82.394531 L 166.304688 82.394531 C 166.640625 77.675781 168.664062 73.421875 171.777344 70.226562 Z M 187.058594 82.394531 L 187.058594 75.640625 C 189.089844 75.503906 191.101562 75.066406 193.023438 74.328125 C 193.96875 76.933594 194.515625 79.65625 194.65625 82.394531 Z M 187.058594 91.921875 L 187.058594 85.171875 L 194.65625 85.171875 C 194.515625 87.910156 193.96875 90.632812 193.023438 93.238281 C 191.101562 92.5 189.089844 92.0625 187.058594 91.921875 Z M 194.457031 96.984375 C 195.523438 97.601562 196.539062 98.332031 197.484375 99.1875 C 195.589844 100.644531 193.417969 101.757812 191.066406 102.4375 C 192.40625 100.722656 193.535156 98.894531 194.457031 96.984375 Z M 187.058594 102.820312 L 187.058594 94.703125 C 188.71875 94.835938 190.367188 95.199219 191.941406 95.796875 C 190.722656 98.320312 189.09375 100.691406 187.058594 102.820312 Z M 180.277344 102.4375 C 177.925781 101.757812 175.753906 100.644531 173.859375 99.1875 C 174.804688 98.332031 175.820312 97.601562 176.886719 96.984375 C 177.808594 98.894531 178.9375 100.722656 180.277344 102.4375 Z M 184.285156 94.703125 L 184.285156 102.820312 C 182.25 100.691406 180.625 98.320312 179.40625 95.796875 C 180.980469 95.199219 182.625 94.835938 184.285156 94.703125 Z M 184.285156 85.171875 L 184.285156 91.921875 C 182.253906 92.0625 180.246094 92.5 178.324219 93.238281 C 177.375 90.632812 176.828125 87.910156 176.691406 85.171875 Z M 184.285156 75.640625 L 184.285156 82.394531 L 176.691406 82.394531 C 176.828125 79.65625 177.375 76.933594 178.324219 74.328125 C 180.246094 75.066406 182.253906 75.503906 184.285156 75.640625 Z M 176.886719 70.582031 C 175.820312 69.964844 174.804688 69.234375 173.859375 68.378906 C 175.753906 66.921875 177.925781 65.808594 180.277344 65.125 C 178.9375 66.84375 177.808594 68.671875 176.886719 70.582031 Z M 184.285156 64.746094 L 184.285156 72.863281 C 182.625 72.730469 180.980469 72.367188 179.40625 71.769531 C 180.625 69.246094 182.25 66.871094 184.285156 64.746094 Z M 191.941406 71.769531 C 190.367188 72.367188 188.71875 72.730469 187.058594 72.863281 L 187.058594 64.746094 C 189.09375 66.871094 190.722656 69.246094 191.941406 71.769531 Z M 191.066406 65.125 C 193.417969 65.808594 195.589844 66.921875 197.484375 68.378906 C 196.539062 69.234375 195.523438 69.964844 194.457031 70.582031 C 193.535156 68.671875 192.40625 66.84375 191.066406 65.125 Z M 197.433594 82.394531 C 197.289062 79.253906 196.664062 76.128906 195.550781 73.144531 C 196.976562 72.359375 198.328125 71.386719 199.566406 70.226562 C 202.683594 73.421875 204.707031 77.675781 205.042969 82.394531 Z M 185.671875 61.582031 C 173.433594 61.582031 163.472656 71.542969 163.472656 83.785156 C 163.472656 96.023438 173.433594 105.980469 185.671875 105.980469 C 197.914062 105.980469 207.871094 96.023438 207.871094 83.785156 C 207.871094 71.542969 197.914062 61.582031 185.671875 61.582031 " fill-opacity="1" fill-rule="nonzero"/><path fill="#bb2211" d="M 45.921875 98.753906 C 45.085938 98.007812 44.191406 97.363281 43.253906 96.824219 C 44.019531 94.703125 44.476562 92.464844 44.609375 90.167969 L 49.796875 90.167969 C 49.484375 93.472656 48.066406 96.457031 45.921875 98.753906 Z M 20.695312 90.167969 L 25.882812 90.167969 C 26.015625 92.464844 26.472656 94.703125 27.238281 96.824219 C 26.300781 97.363281 25.40625 98.007812 24.574219 98.753906 C 22.425781 96.457031 21.007812 93.472656 20.695312 90.167969 Z M 24.574219 78.804688 C 25.40625 79.550781 26.300781 80.195312 27.238281 80.738281 C 26.472656 82.859375 26.015625 85.09375 25.882812 87.390625 L 20.695312 87.390625 C 21.007812 84.085938 22.425781 81.101562 24.574219 78.804688 Z M 36.636719 87.390625 L 36.636719 82.816406 C 38.023438 82.695312 39.398438 82.394531 40.722656 81.914062 C 41.332031 83.664062 41.703125 85.503906 41.828125 87.390625 Z M 36.636719 94.742188 L 36.636719 90.167969 L 41.828125 90.167969 C 41.703125 92.054688 41.332031 93.894531 40.722656 95.644531 C 39.398438 95.164062 38.023438 94.863281 36.636719 94.742188 Z M 42.140625 99.390625 C 42.726562 99.746094 43.289062 100.152344 43.820312 100.609375 C 42.734375 101.398438 41.535156 102.046875 40.25 102.515625 C 40.964844 101.519531 41.597656 100.476562 42.140625 99.390625 Z M 36.636719 102.605469 L 36.636719 97.53125 C 37.652344 97.636719 38.660156 97.855469 39.632812 98.199219 C 38.835938 99.777344 37.832031 101.253906 36.636719 102.605469 Z M 30.242188 102.515625 C 28.957031 102.046875 27.757812 101.398438 26.671875 100.609375 C 27.207031 100.152344 27.765625 99.746094 28.351562 99.390625 C 28.898438 100.476562 29.527344 101.519531 30.242188 102.515625 Z M 33.859375 97.53125 L 33.859375 102.605469 C 32.660156 101.253906 31.660156 99.777344 30.859375 98.199219 C 31.835938 97.855469 32.839844 97.636719 33.859375 97.53125 Z M 33.859375 90.167969 L 33.859375 94.742188 C 32.46875 94.863281 31.09375 95.164062 29.769531 95.644531 C 29.160156 93.890625 28.789062 92.054688 28.667969 90.167969 Z M 33.859375 82.816406 L 33.859375 87.390625 L 28.667969 87.390625 C 28.789062 85.503906 29.160156 83.664062 29.769531 81.914062 C 31.09375 82.394531 32.46875 82.695312 33.859375 82.816406 Z M 28.351562 78.167969 C 27.765625 77.8125 27.207031 77.40625 26.671875 76.949219 C 27.757812 76.160156 28.957031 75.511719 30.242188 75.042969 C 29.527344 76.039062 28.898438 77.085938 28.351562 78.167969 Z M 33.859375 74.953125 L 33.859375 80.027344 C 32.839844 79.921875 31.835938 79.699219 30.859375 79.359375 C 31.660156 77.785156 32.660156 76.304688 33.859375 74.953125 Z M 39.632812 79.359375 C 38.660156 79.699219 37.652344 79.921875 36.636719 80.027344 L 36.636719 74.953125 C 37.832031 76.304688 38.835938 77.785156 39.632812 79.359375 Z M 40.25 75.042969 C 41.535156 75.511719 42.734375 76.160156 43.820312 76.949219 C 43.289062 77.40625 42.726562 77.8125 42.140625 78.167969 C 41.597656 77.085938 40.964844 76.039062 40.25 75.042969 Z M 44.609375 87.390625 C 44.476562 85.09375 44.019531 82.859375 43.253906 80.738281 C 44.191406 80.195312 45.085938 79.550781 45.921875 78.804688 C 48.066406 81.101562 49.484375 84.085938 49.796875 87.390625 Z M 35.246094 71.386719 C 25.65625 71.386719 17.851562 79.1875 17.851562 88.78125 C 17.851562 98.371094 25.65625 106.175781 35.246094 106.175781 C 44.839844 106.175781 52.640625 98.371094 52.640625 88.78125 C 52.640625 79.1875 44.839844 71.386719 35.246094 71.386719 " fill-opacity="1" fill-rule="nonzero"/><g clip-path="url(#a7049692d6)"><path fill="#bb2211" d="M 242.28125 119.398438 L 241.316406 122.457031 C 240.246094 125.847656 237.136719 128.128906 233.578125 128.128906 L 137.769531 128.128906 C 134.207031 128.128906 131.097656 125.847656 130.027344 122.457031 L 129.066406 119.398438 C 128.78125 118.503906 128.9375 117.550781 129.496094 116.789062 C 130.050781 116.03125 130.914062 115.59375 131.859375 115.59375 L 162.085938 115.59375 C 162.828125 115.59375 163.433594 116.199219 163.433594 116.945312 C 163.433594 119.21875 165.285156 121.070312 167.558594 121.070312 L 203.785156 121.070312 C 206.058594 121.070312 207.914062 119.21875 207.914062 116.945312 C 207.914062 116.199219 208.519531 115.59375 209.261719 115.59375 L 239.488281 115.59375 C 240.433594 115.59375 241.292969 116.03125 241.851562 116.792969 C 242.410156 117.550781 242.566406 118.503906 242.28125 119.398438 Z M 64.132812 107.269531 L 64.132812 94.460938 L 130.425781 94.460938 L 130.425781 107.269531 Z M 61.355469 116.957031 C 61.355469 123.117188 56.34375 128.128906 50.183594 128.128906 L 20.476562 128.128906 C 14.316406 128.128906 9.304688 123.117188 9.304688 116.957031 L 9.304688 58.878906 C 9.304688 54.546875 12.832031 51.023438 17.164062 51.023438 L 53.496094 51.023438 C 57.832031 51.023438 61.355469 54.546875 61.355469 58.878906 Z M 29.140625 29.625 C 29.140625 22.027344 35.320312 15.847656 42.917969 15.847656 L 150.128906 15.847656 C 157.726562 15.847656 163.910156 22.027344 163.910156 29.625 L 163.910156 44.257812 L 142.148438 44.257812 C 135.683594 44.257812 130.425781 49.515625 130.425781 55.980469 L 130.425781 91.6875 L 64.132812 91.6875 L 64.132812 58.878906 C 64.132812 53.015625 59.359375 48.246094 53.496094 48.246094 L 29.140625 48.246094 Z M 233.183594 112.820312 L 209.261719 112.820312 C 206.988281 112.820312 205.136719 114.667969 205.136719 116.945312 C 205.136719 117.6875 204.53125 118.292969 203.785156 118.292969 L 167.558594 118.292969 C 166.8125 118.292969 166.207031 117.6875 166.207031 116.945312 C 166.207031 114.667969 164.359375 112.820312 162.085938 112.820312 L 138.164062 112.820312 L 138.164062 55.902344 C 138.164062 53.609375 140.035156 51.738281 142.332031 51.738281 L 229.015625 51.738281 C 231.3125 51.738281 233.183594 53.609375 233.183594 55.902344 Z M 238.144531 55.980469 L 238.144531 112.820312 L 235.953125 112.820312 L 235.953125 55.902344 C 235.953125 52.078125 232.84375 48.960938 229.015625 48.960938 L 142.332031 48.960938 C 138.503906 48.960938 135.390625 52.078125 135.390625 55.902344 L 135.390625 112.820312 L 133.203125 112.820312 L 133.203125 55.980469 C 133.203125 51.046875 137.214844 47.035156 142.148438 47.035156 L 229.199219 47.035156 C 234.132812 47.035156 238.144531 51.046875 238.144531 55.980469 Z M 121.671875 124.96875 C 122.578125 125.703125 122.324219 126.664062 122.226562 126.941406 C 122.128906 127.222656 121.714844 128.128906 120.550781 128.128906 L 72.496094 128.128906 C 71.332031 128.128906 70.921875 127.222656 70.820312 126.941406 C 70.722656 126.664062 70.472656 125.703125 71.359375 124.984375 L 85.292969 114.097656 C 85.738281 113.746094 85.996094 113.21875 85.996094 112.648438 L 85.996094 110.046875 L 107.050781 110.046875 L 107.050781 112.648438 C 107.050781 113.21875 107.308594 113.746094 107.757812 114.097656 Z M 244.089844 115.152344 C 243.292969 114.066406 242.179688 113.320312 240.921875 113 L 240.921875 55.980469 C 240.921875 49.515625 235.664062 44.257812 229.199219 44.257812 L 166.679688 44.257812 L 166.679688 29.625 C 166.679688 20.496094 159.257812 13.070312 150.128906 13.070312 L 42.917969 13.070312 C 33.792969 13.070312 26.367188 20.496094 26.367188 29.625 L 26.367188 48.246094 L 17.164062 48.246094 C 11.300781 48.246094 6.53125 53.015625 6.53125 58.878906 L 6.53125 116.957031 C 6.53125 124.644531 12.785156 130.902344 20.476562 130.902344 L 50.183594 130.902344 C 57.875 130.902344 64.132812 124.644531 64.132812 116.957031 L 64.132812 110.042969 L 83.222656 110.042969 L 83.222656 112.191406 L 69.628906 122.8125 C 68.113281 124.042969 67.550781 126.03125 68.207031 127.871094 C 68.859375 129.710938 70.542969 130.902344 72.496094 130.902344 L 120.550781 130.902344 C 122.503906 130.902344 124.191406 129.710938 124.84375 127.871094 C 125.496094 126.03125 124.9375 124.042969 123.398438 122.796875 L 109.828125 112.191406 L 109.828125 110.042969 L 130.425781 110.042969 L 130.425781 113 C 129.164062 113.320312 128.050781 114.066406 127.253906 115.152344 C 126.171875 116.632812 125.867188 118.488281 126.417969 120.234375 L 127.382812 123.289062 C 128.816406 127.84375 132.992188 130.902344 137.769531 130.902344 L 233.578125 130.902344 C 238.355469 130.902344 242.53125 127.84375 243.964844 123.289062 L 244.925781 120.238281 C 245.480469 118.488281 245.175781 116.632812 244.089844 115.152344 " fill-opacity="1" fill-rule="nonzero"/></g><path fill="#bb2211" d="M 35.328125 121.417969 C 33.535156 121.417969 32.074219 119.957031 32.074219 118.164062 C 32.074219 116.367188 33.535156 114.90625 35.328125 114.90625 C 37.125 114.90625 38.585938 116.367188 38.585938 118.164062 C 38.585938 119.957031 37.125 121.417969 35.328125 121.417969 Z M 57.453125 115.984375 C 57.453125 120.328125 53.917969 123.863281 49.574219 123.863281 L 37.296875 123.863281 C 39.660156 123.042969 41.363281 120.800781 41.363281 118.164062 C 41.363281 114.839844 38.65625 112.132812 35.328125 112.132812 C 32.003906 112.132812 29.296875 114.839844 29.296875 118.164062 C 29.296875 120.800781 31 123.042969 33.359375 123.863281 L 21.085938 123.863281 C 16.742188 123.863281 13.207031 120.328125 13.207031 115.984375 L 13.207031 59.769531 C 13.207031 57.296875 15.21875 55.285156 17.6875 55.285156 L 21.839844 55.285156 L 25.296875 60.210938 C 26.222656 61.53125 27.742188 62.320312 29.355469 62.320312 L 41.304688 62.320312 C 42.917969 62.320312 44.4375 61.53125 45.363281 60.210938 L 48.820312 55.285156 L 52.972656 55.285156 C 55.441406 55.285156 57.453125 57.296875 57.453125 59.769531 Z M 52.972656 52.511719 L 48.511719 52.511719 C 47.800781 52.511719 47.132812 52.859375 46.726562 53.4375 L 43.09375 58.617188 C 42.683594 59.199219 42.015625 59.546875 41.304688 59.546875 L 29.355469 59.546875 C 28.644531 59.546875 27.976562 59.199219 27.566406 58.617188 L 23.933594 53.441406 C 23.527344 52.859375 22.859375 52.511719 22.148438 52.511719 L 17.6875 52.511719 C 13.6875 52.511719 10.433594 55.765625 10.433594 59.769531 L 10.433594 115.984375 C 10.433594 121.859375 15.210938 126.640625 21.085938 126.640625 L 49.574219 126.640625 C 55.449219 126.640625 60.226562 121.859375 60.226562 115.984375 L 60.226562 59.769531 C 60.226562 55.765625 56.972656 52.511719 52.972656 52.511719 " fill-opacity="1" fill-rule="nonzero"/><path fill="#bb2211" d="M 28.925781 56.644531 L 36.910156 56.644531 C 37.679688 56.644531 38.300781 56.023438 38.300781 55.257812 C 38.300781 54.488281 37.679688 53.867188 36.910156 53.867188 L 28.925781 53.867188 C 28.160156 53.867188 27.539062 54.488281 27.539062 55.257812 C 27.539062 56.023438 28.160156 56.644531 28.925781 56.644531 " fill-opacity="1" fill-rule="nonzero"/><path fill="#bb2211" d="M 39.695312 56.644531 L 41.734375 56.644531 C 42.5 56.644531 43.121094 56.023438 43.121094 55.257812 C 43.121094 54.488281 42.5 53.867188 41.734375 53.867188 L 39.695312 53.867188 C 38.929688 53.867188 38.308594 54.488281 38.308594 55.257812 C 38.308594 56.023438 38.929688 56.644531 39.695312 56.644531 " fill-opacity="1" fill-rule="nonzero"/></svg>