<svg xmlns="http://www.w3.org/2000/svg" xmlns:xlink="http://www.w3.org/1999/xlink" width="500" zoomAndPan="magnify" viewBox="0 0 375 374.999991" height="500" preserveAspectRatio="xMidYMid meet" version="1.0"><defs><clipPath id="9d4daf0213"><path d="M 3 85.3125 L 371.964844 85.3125 L 371.964844 289.3125 L 3 289.3125 Z M 3 85.3125 " clip-rule="nonzero"/></clipPath></defs><g clip-path="url(#9d4daf0213)"><path fill="#b21111" d="M 369.878906 183.109375 C 360.488281 166.78125 307.648438 85.339844 187.535156 85.339844 C 65.210938 85.339844 14.078125 166.894531 5.0625 183.238281 C 2.945312 187.082031 3.019531 191.617188 5.230469 195.40625 C 14.492188 211.128906 66.804688 289.574219 187.535156 289.574219 C 308.152344 289.574219 360.523438 211.167969 369.804688 195.460938 C 372.070312 191.617188 372.089844 186.988281 369.878906 183.109375 Z M 187.515625 269.574219 C 142.230469 269.574219 105.398438 232.742188 105.398438 187.457031 C 105.398438 142.171875 142.230469 105.339844 187.515625 105.339844 C 232.804688 105.339844 269.636719 142.171875 269.636719 187.457031 C 269.636719 232.742188 232.804688 269.574219 187.515625 269.574219 Z M 16.851562 189.164062 C 24.667969 175.160156 61.519531 117.617188 144.96875 102.320312 C 113.742188 117.992188 92.222656 150.230469 92.222656 187.476562 C 92.222656 224.8125 113.851562 257.109375 145.195312 272.722656 C 62.570312 257.914062 24.894531 202.640625 16.851562 189.164062 Z M 229.839844 272.722656 C 261.179688 257.089844 282.8125 224.796875 282.8125 187.457031 C 282.8125 150.382812 261.480469 118.253906 230.480469 102.507812 C 312.222656 118.105469 350.066406 175.273438 358.183594 189.21875 C 350.101562 202.714844 312.410156 257.953125 229.839844 272.722656 Z M 229.839844 272.722656 " fill-opacity="1" fill-rule="nonzero"/></g><path fill="#b21111" d="M 242.457031 146.859375 L 224.988281 145.9375 C 221.257812 145.714844 218.257812 148.542969 218.070312 152.179688 C 217.882812 155.816406 220.675781 158.910156 224.3125 159.097656 L 226.992188 159.230469 L 190.628906 189.425781 L 178.652344 178.214844 C 175.859375 175.59375 171.679688 175.234375 168.472656 177.355469 L 128.417969 203.707031 C 125.382812 205.714844 124.539062 209.800781 126.542969 212.835938 C 127.816406 214.765625 129.917969 215.796875 132.054688 215.796875 C 133.289062 215.796875 134.546875 215.441406 135.671875 214.710938 L 172.445312 190.511719 L 184.761719 202.039062 C 187.796875 204.871094 192.484375 205.019531 195.691406 202.359375 L 236.082031 168.808594 L 235.914062 171.992188 C 235.726562 175.628906 238.519531 178.722656 242.15625 178.910156 C 242.269531 178.910156 242.398438 178.929688 242.511719 178.929688 C 246 178.929688 248.902344 176.191406 249.089844 172.6875 L 250.011719 155.199219 C 250.214844 150.851562 246.84375 147.101562 242.457031 146.859375 Z M 242.457031 146.859375 " fill-opacity="1" fill-rule="nonzero"/></svg>